<svg width="700" height="427" viewBox="0 0 700 427" fill="none" xmlns="http://www.w3.org/2000/svg">
<g clip-path="url(#clip0_9301_2494)">
<g filter="url(#filter0_ddd_9301_2494)">
<g clip-path="url(#clip1_9301_2494)">
<rect x="2.38098" y="19.6298" width="695.238" height="386.007" rx="31.0721" fill="#1C1C1F"/>
<g clip-path="url(#clip2_9301_2494)">
<path d="M51.1615 91.354V71.5808H58.2095C59.7414 71.5808 61.0127 71.8447 62.0232 72.3725C63.0402 72.9003 63.7997 73.6309 64.3017 74.5642C64.8038 75.491 65.0548 76.5627 65.0548 77.7792C65.0548 78.9893 64.8006 80.0546 64.2921 80.975C63.79 81.889 63.0305 82.6002 62.0135 83.1087C61.003 83.6172 59.7318 83.8715 58.1999 83.8715H52.8607V81.3033H57.9295C58.895 81.3033 59.6803 81.1649 60.2853 80.8881C60.8968 80.6113 61.3441 80.209 61.6273 79.6812C61.9106 79.1534 62.0522 78.5194 62.0522 77.7792C62.0522 77.0326 61.9073 76.3857 61.6177 75.8386C61.3345 75.2915 60.8871 74.8731 60.2757 74.5835C59.6706 74.2874 58.8757 74.1394 57.8909 74.1394H54.1448V91.354H51.1615ZM60.9225 82.4329L65.8079 91.354H62.4094L57.6206 82.4329H60.9225ZM74.659 91.6533C73.1979 91.6533 71.9395 91.3411 70.8839 90.7168C69.8348 90.086 69.0238 89.2009 68.4509 88.0617C67.8845 86.916 67.6013 85.5739 67.6013 84.0356C67.6013 82.5166 67.8845 81.1778 68.4509 80.0192C69.0238 78.8606 69.8219 77.9562 70.8453 77.3062C71.8752 76.6561 73.0788 76.331 74.4562 76.331C75.293 76.331 76.104 76.4694 76.8893 76.7462C77.6745 77.0229 78.3793 77.4574 79.0037 78.0496C79.628 78.6417 80.1204 79.4109 80.4809 80.3571C80.8413 81.2968 81.0215 82.4393 81.0215 83.7846V84.808H69.233V82.6453H78.1927C78.1927 81.8858 78.0382 81.2132 77.7292 80.6274C77.4203 80.0353 76.9858 79.5686 76.4258 79.2275C75.8723 78.8863 75.2222 78.7158 74.4756 78.7158C73.6645 78.7158 72.9565 78.9153 72.3515 79.3144C71.7529 79.707 71.2894 80.2219 70.9612 80.8591C70.6394 81.4899 70.4784 82.1754 70.4784 82.9156V84.6052C70.4784 85.5965 70.6522 86.4396 70.9998 87.1348C71.3538 87.8299 71.8462 88.361 72.477 88.7279C73.1078 89.0883 73.8448 89.2685 74.688 89.2685C75.2351 89.2685 75.7339 89.1913 76.1845 89.0368C76.635 88.8759 77.0244 88.6377 77.3527 88.3223C77.681 88.007 77.932 87.6175 78.1058 87.1541L80.8381 87.6465C80.6193 88.4511 80.2266 89.1559 79.6602 89.7609C79.1002 90.3595 78.3954 90.8262 77.5458 91.1609C76.7026 91.4891 75.7403 91.6533 74.659 91.6533ZM95.3373 80.1447L92.7208 80.6081C92.6114 80.2734 92.4376 79.9548 92.1995 79.6523C91.9677 79.3498 91.6523 79.102 91.2533 78.9089C90.8542 78.7158 90.3554 78.6192 89.7568 78.6192C88.9393 78.6192 88.2571 78.8027 87.7099 79.1695C87.1628 79.53 86.8893 79.9966 86.8893 80.5695C86.8893 81.0651 87.0727 81.4642 87.4396 81.7667C87.8065 82.0692 88.3987 82.317 89.2161 82.5101L91.5719 83.0508C92.9364 83.3662 93.9534 83.8521 94.6228 84.5087C95.2922 85.1652 95.6269 86.0181 95.6269 87.0672C95.6269 87.9555 95.3695 88.7472 94.8545 89.4423C94.3461 90.131 93.6348 90.6717 92.7208 91.0643C91.8133 91.457 90.7609 91.6533 89.5637 91.6533C87.903 91.6533 86.5481 91.2993 85.499 90.5912C84.4498 89.8768 83.8062 88.863 83.568 87.55L86.3583 87.1251C86.5321 87.8525 86.8893 88.4028 87.43 88.7761C87.9706 89.143 88.6754 89.3265 89.5444 89.3265C90.4905 89.3265 91.2468 89.1301 91.8133 88.7375C92.3797 88.3384 92.6629 87.8525 92.6629 87.2796C92.6629 86.8162 92.4891 86.4268 92.1415 86.1114C91.8004 85.796 91.2758 85.5578 90.5678 85.3969L88.0575 84.8466C86.6737 84.5312 85.6502 84.0292 84.9873 83.3404C84.3307 82.6517 84.0025 81.7796 84.0025 80.724C84.0025 79.8486 84.2471 79.0826 84.7363 78.4261C85.2254 77.7696 85.9013 77.2579 86.7638 76.891C87.6263 76.5177 88.6143 76.331 89.7278 76.331C91.3305 76.331 92.5921 76.6786 93.5125 77.3737C94.4329 78.0624 95.0412 78.9861 95.3373 80.1447ZM98.801 96.9152V76.5241H101.62V78.9282H101.862C102.029 78.6192 102.27 78.262 102.586 77.8565C102.901 77.451 103.339 77.097 103.899 76.7944C104.459 76.4855 105.199 76.331 106.119 76.331C107.317 76.331 108.385 76.6335 109.325 77.2386C110.265 77.8436 111.001 78.7158 111.536 79.855C112.076 80.9943 112.347 82.3653 112.347 83.968C112.347 85.5707 112.08 86.9449 111.545 88.0906C111.011 89.2299 110.277 90.1085 109.344 90.7264C108.411 91.3379 107.346 91.6436 106.148 91.6436C105.247 91.6436 104.51 91.4924 103.937 91.1898C103.371 90.8873 102.927 90.5333 102.605 90.1278C102.283 89.7223 102.035 89.3619 101.862 89.0465H101.688V96.9152H98.801ZM101.63 83.939C101.63 84.9818 101.781 85.8958 102.084 86.681C102.386 87.4663 102.824 88.081 103.397 88.5251C103.97 88.9628 104.671 89.1816 105.501 89.1816C106.364 89.1816 107.085 88.9531 107.664 88.4961C108.243 88.0327 108.681 87.4051 108.977 86.6134C109.28 85.8217 109.431 84.9303 109.431 83.939C109.431 82.9607 109.283 82.0821 108.987 81.3033C108.697 80.5244 108.26 79.9097 107.674 79.4592C107.094 79.0086 106.37 78.7833 105.501 78.7833C104.665 78.7833 103.957 78.999 103.377 79.4302C102.805 79.8615 102.37 80.4633 102.074 81.2357C101.778 82.0081 101.63 82.9092 101.63 83.939ZM121.828 91.6533C120.438 91.6533 119.224 91.3347 118.188 90.6974C117.152 90.0602 116.347 89.1688 115.774 88.023C115.201 86.8773 114.915 85.5385 114.915 84.0066C114.915 82.4683 115.201 81.123 115.774 79.9709C116.347 78.8187 117.152 77.9241 118.188 77.2868C119.224 76.6496 120.438 76.331 121.828 76.331C123.218 76.331 124.431 76.6496 125.468 77.2868C126.504 77.9241 127.309 78.8187 127.881 79.9709C128.454 81.123 128.741 82.4683 128.741 84.0066C128.741 85.5385 128.454 86.8773 127.881 88.023C127.309 89.1688 126.504 90.0602 125.468 90.6974C124.431 91.3347 123.218 91.6533 121.828 91.6533ZM121.837 89.2299C122.739 89.2299 123.485 88.9918 124.077 88.5154C124.67 88.0391 125.107 87.4051 125.39 86.6134C125.68 85.8217 125.825 84.9496 125.825 83.997C125.825 83.0508 125.68 82.1819 125.39 81.3902C125.107 80.592 124.67 79.9516 124.077 79.4688C123.485 78.9861 122.739 78.7447 121.837 78.7447C120.93 78.7447 120.177 78.9861 119.578 79.4688C118.986 79.9516 118.545 80.592 118.256 81.3902C117.972 82.1819 117.831 83.0508 117.831 83.997C117.831 84.9496 117.972 85.8217 118.256 86.6134C118.545 87.4051 118.986 88.0391 119.578 88.5154C120.177 88.9918 120.93 89.2299 121.837 89.2299ZM134.85 82.5487V91.354H131.963V76.5241H134.734V78.9378H134.917C135.259 78.1526 135.793 77.5218 136.52 77.0455C137.254 76.5692 138.178 76.331 139.291 76.331C140.302 76.331 141.187 76.5434 141.946 76.9682C142.706 77.3866 143.295 78.011 143.713 78.8413C144.131 79.6716 144.341 80.6982 144.341 81.9212V91.354H141.454V82.2688C141.454 81.1938 141.174 80.3539 140.614 79.7488C140.054 79.1374 139.285 78.8316 138.306 78.8316C137.637 78.8316 137.041 78.9764 136.52 79.2661C136.005 79.5557 135.596 79.9805 135.294 80.5405C134.998 81.0941 134.85 81.7635 134.85 82.5487ZM159.325 80.1447L156.708 80.6081C156.599 80.2734 156.425 79.9548 156.187 79.6523C155.955 79.3498 155.64 79.102 155.241 78.9089C154.842 78.7158 154.343 78.6192 153.744 78.6192C152.927 78.6192 152.245 78.8027 151.698 79.1695C151.15 79.53 150.877 79.9966 150.877 80.5695C150.877 81.0651 151.06 81.4642 151.427 81.7667C151.794 82.0692 152.386 82.317 153.204 82.5101L155.559 83.0508C156.924 83.3662 157.941 83.8521 158.61 84.5087C159.28 85.1652 159.615 86.0181 159.615 87.0672C159.615 87.9555 159.357 88.7472 158.842 89.4423C158.334 90.131 157.622 90.6717 156.708 91.0643C155.801 91.457 154.748 91.6533 153.551 91.6533C151.891 91.6533 150.536 91.2993 149.487 90.5912C148.437 89.8768 147.794 88.863 147.556 87.55L150.346 87.1251C150.52 87.8525 150.877 88.4028 151.418 88.7761C151.958 89.143 152.663 89.3265 153.532 89.3265C154.478 89.3265 155.234 89.1301 155.801 88.7375C156.367 88.3384 156.65 87.8525 156.65 87.2796C156.65 86.8162 156.477 86.4268 156.129 86.1114C155.788 85.796 155.263 85.5578 154.555 85.3969L152.045 84.8466C150.661 84.5312 149.638 84.0292 148.975 83.3404C148.318 82.6517 147.99 81.7796 147.99 80.724C147.99 79.8486 148.235 79.0826 148.724 78.4261C149.213 77.7696 149.889 77.2579 150.751 76.891C151.614 76.5177 152.602 76.331 153.715 76.331C155.318 76.331 156.58 76.6786 157.5 77.3737C158.421 78.0624 159.029 78.9861 159.325 80.1447ZM169.18 91.6533C167.719 91.6533 166.461 91.3411 165.405 90.7168C164.356 90.086 163.545 89.2009 162.972 88.0617C162.406 86.916 162.122 85.5739 162.122 84.0356C162.122 82.5166 162.406 81.1778 162.972 80.0192C163.545 78.8606 164.343 77.9562 165.366 77.3062C166.396 76.6561 167.6 76.331 168.977 76.331C169.814 76.331 170.625 76.4694 171.41 76.7462C172.196 77.0229 172.9 77.4574 173.525 78.0496C174.149 78.6417 174.641 79.4109 175.002 80.3571C175.362 81.2968 175.543 82.4393 175.543 83.7846V84.808H163.754V82.6453H172.714C172.714 81.8858 172.559 81.2132 172.25 80.6274C171.941 80.0353 171.507 79.5686 170.947 79.2275C170.393 78.8863 169.743 78.7158 168.997 78.7158C168.186 78.7158 167.478 78.9153 166.873 79.3144C166.274 79.707 165.811 80.2219 165.482 80.8591C165.16 81.4899 165 82.1754 165 82.9156V84.6052C165 85.5965 165.173 86.4396 165.521 87.1348C165.875 87.8299 166.367 88.361 166.998 88.7279C167.629 89.0883 168.366 89.2685 169.209 89.2685C169.756 89.2685 170.255 89.1913 170.706 89.0368C171.156 88.8759 171.546 88.6377 171.874 88.3223C172.202 88.007 172.453 87.6175 172.627 87.1541L175.359 87.6465C175.14 88.4511 174.748 89.1559 174.181 89.7609C173.621 90.3595 172.916 90.8262 172.067 91.1609C171.224 91.4891 170.261 91.6533 169.18 91.6533ZM192.863 76.5241V78.8413H184.763V76.5241H192.863ZM186.935 72.9711H189.822V86.9996C189.822 87.5596 189.906 87.9812 190.073 88.2644C190.241 88.5412 190.456 88.7311 190.72 88.8341C190.99 88.9306 191.283 88.9789 191.599 88.9789C191.83 88.9789 192.033 88.9628 192.207 88.9306C192.381 88.8984 192.516 88.8727 192.612 88.8534L193.134 91.2381C192.966 91.3025 192.728 91.3668 192.419 91.4312C192.11 91.502 191.724 91.5406 191.261 91.5471C190.501 91.5599 189.793 91.4248 189.137 91.1416C188.48 90.8584 187.949 90.4207 187.544 89.8285C187.138 89.2363 186.935 88.4929 186.935 87.5982V72.9711ZM196.057 91.354V76.5241H198.944V91.354H196.057ZM197.515 74.2359C197.013 74.2359 196.581 74.0686 196.221 73.7339C195.867 73.3927 195.69 72.9872 195.69 72.5173C195.69 72.041 195.867 71.6355 196.221 71.3008C196.581 70.9597 197.013 70.7891 197.515 70.7891C198.017 70.7891 198.445 70.9597 198.799 71.3008C199.159 71.6355 199.339 72.041 199.339 72.5173C199.339 72.9872 199.159 73.3927 198.799 73.7339C198.445 74.0686 198.017 74.2359 197.515 74.2359ZM202.827 91.354V76.5241H205.598V78.9378H205.782C206.091 78.1204 206.596 77.4832 207.297 77.0262C207.999 76.5627 208.839 76.331 209.817 76.331C210.809 76.331 211.639 76.5627 212.308 77.0262C212.984 77.4896 213.483 78.1268 213.805 78.9378H213.959C214.313 78.1461 214.877 77.5153 215.649 77.0455C216.421 76.5692 217.342 76.331 218.41 76.331C219.755 76.331 220.853 76.7526 221.703 77.5958C222.559 78.439 222.987 79.7102 222.987 81.4095V91.354H220.1V81.6798C220.1 80.6757 219.826 79.9484 219.279 79.4978C218.732 79.0472 218.079 78.822 217.319 78.822C216.379 78.822 215.649 79.1116 215.128 79.6909C214.606 80.2638 214.346 81.0007 214.346 81.9019V91.354H211.468V81.4964C211.468 80.6918 211.217 80.0449 210.715 79.5557C210.213 79.0666 209.56 78.822 208.755 78.822C208.208 78.822 207.703 78.9668 207.24 79.2564C206.783 79.5396 206.412 79.9355 206.129 80.444C205.852 80.9525 205.714 81.5414 205.714 82.2108V91.354H202.827ZM233.247 91.6533C231.786 91.6533 230.528 91.3411 229.472 90.7168C228.423 90.086 227.612 89.2009 227.039 88.0617C226.473 86.916 226.19 85.5739 226.19 84.0356C226.19 82.5166 226.473 81.1778 227.039 80.0192C227.612 78.8606 228.41 77.9562 229.434 77.3062C230.463 76.6561 231.667 76.331 233.045 76.331C233.881 76.331 234.692 76.4694 235.478 76.7462C236.263 77.0229 236.968 77.4574 237.592 78.0496C238.216 78.6417 238.709 79.4109 239.069 80.3571C239.43 81.2968 239.61 82.4393 239.61 83.7846V84.808H227.821V82.6453H236.781C236.781 81.8858 236.626 81.2132 236.318 80.6274C236.009 80.0353 235.574 79.5686 235.014 79.2275C234.461 78.8863 233.81 78.7158 233.064 78.7158C232.253 78.7158 231.545 78.9153 230.94 79.3144C230.341 79.707 229.878 80.2219 229.549 80.8591C229.228 81.4899 229.067 82.1754 229.067 82.9156V84.6052C229.067 85.5965 229.241 86.4396 229.588 87.1348C229.942 87.8299 230.435 88.361 231.065 88.7279C231.696 89.0883 232.433 89.2685 233.276 89.2685C233.823 89.2685 234.322 89.1913 234.773 89.0368C235.223 88.8759 235.613 88.6377 235.941 88.3223C236.269 88.007 236.52 87.6175 236.694 87.1541L239.426 87.6465C239.208 88.4511 238.815 89.1559 238.249 89.7609C237.689 90.3595 236.984 90.8262 236.134 91.1609C235.291 91.4891 234.329 91.6533 233.247 91.6533ZM244.715 91.5374C244.187 91.5374 243.733 91.3508 243.354 90.9774C242.974 90.5977 242.784 90.1407 242.784 89.6064C242.784 89.0786 242.974 88.6281 243.354 88.2548C243.733 87.875 244.187 87.6851 244.715 87.6851C245.243 87.6851 245.696 87.875 246.076 88.2548C246.456 88.6281 246.646 89.0786 246.646 89.6064C246.646 89.9605 246.556 90.2855 246.375 90.5816C246.202 90.8712 245.97 91.1029 245.68 91.2767C245.391 91.4505 245.069 91.5374 244.715 91.5374ZM244.715 80.7433C244.187 80.7433 243.733 80.5534 243.354 80.1736C242.974 79.7939 242.784 79.3401 242.784 78.8123C242.784 78.2845 242.974 77.834 243.354 77.4606C243.733 77.0809 244.187 76.891 244.715 76.891C245.243 76.891 245.696 77.0809 246.076 77.4606C246.456 77.834 246.646 78.2845 246.646 78.8123C246.646 79.1663 246.556 79.4914 246.375 79.7875C246.202 80.0771 245.97 80.3088 245.68 80.4826C245.391 80.6564 245.069 80.7433 244.715 80.7433Z" fill="#7E7D86"/>
<path d="M265.34 91.6243C263.957 91.6243 262.734 91.3862 261.672 90.9098C260.616 90.4335 259.789 89.777 259.19 88.9403C258.592 88.1035 258.296 87.1509 258.302 86.0824C258.296 85.2457 258.466 84.4765 258.814 83.7749C259.168 83.0669 259.647 82.4779 260.252 82.0081C260.857 81.5318 261.533 81.2292 262.28 81.1005V80.9847C261.295 80.7465 260.507 80.2187 259.914 79.4013C259.322 78.5838 259.029 77.6441 259.036 76.582C259.029 75.5715 259.296 74.6704 259.837 73.8787C260.384 73.0805 261.134 72.453 262.087 71.996C263.039 71.539 264.124 71.3105 265.34 71.3105C266.544 71.3105 267.619 71.5422 268.565 72.0056C269.518 72.4626 270.268 73.0902 270.815 73.8883C271.362 74.68 271.639 75.5779 271.645 76.582C271.639 77.6441 271.336 78.5838 270.737 79.4013C270.139 80.2187 269.36 80.7465 268.401 80.9847V81.1005C269.141 81.2292 269.807 81.5318 270.4 82.0081C270.998 82.4779 271.474 83.0669 271.828 83.7749C272.189 84.4765 272.372 85.2457 272.379 86.0824C272.372 87.1509 272.07 88.1035 271.471 88.9403C270.873 89.777 270.042 90.4335 268.98 90.9098C267.925 91.3862 266.711 91.6243 265.34 91.6243ZM265.34 89.1816C266.158 89.1816 266.866 89.0465 267.464 88.7761C268.063 88.4994 268.526 88.1164 268.855 87.6272C269.183 87.1316 269.35 86.5523 269.357 85.8893C269.35 85.2006 269.17 84.5924 268.816 84.0646C268.469 83.5368 267.995 83.1216 267.397 82.8191C266.798 82.5166 266.113 82.3653 265.34 82.3653C264.562 82.3653 263.87 82.5166 263.265 82.8191C262.66 83.1216 262.183 83.5368 261.836 84.0646C261.488 84.5924 261.318 85.2006 261.324 85.8893C261.318 86.5523 261.475 87.1316 261.797 87.6272C262.125 88.1164 262.592 88.4994 263.197 88.7761C263.802 89.0465 264.516 89.1816 265.34 89.1816ZM265.34 79.9805C265.997 79.9805 266.579 79.8486 267.088 79.5847C267.596 79.3208 267.995 78.9539 268.285 78.484C268.581 78.0142 268.732 77.4638 268.739 76.8331C268.732 76.2152 268.584 75.6745 268.295 75.211C268.012 74.7476 267.616 74.3904 267.107 74.1394C266.599 73.8819 266.01 73.7532 265.34 73.7532C264.658 73.7532 264.059 73.8819 263.545 74.1394C263.036 74.3904 262.64 74.7476 262.357 75.211C262.074 75.6745 261.935 76.2152 261.942 76.8331C261.935 77.4638 262.077 78.0142 262.367 78.484C262.656 78.9539 263.055 79.3208 263.564 79.5847C264.079 79.8486 264.671 79.9805 265.34 79.9805ZM282.722 91.6243C281.396 91.6243 280.211 91.3958 279.169 90.9388C278.132 90.4818 277.312 89.8478 276.707 89.0368C276.108 88.2194 275.786 87.2732 275.741 86.1983H278.773C278.811 86.784 279.008 87.2925 279.362 87.7237C279.722 88.1486 280.192 88.4768 280.771 88.7085C281.351 88.9403 281.994 89.0561 282.702 89.0561C283.481 89.0561 284.17 88.9209 284.768 88.6506C285.373 88.3803 285.846 88.0037 286.188 87.521C286.529 87.0318 286.699 86.4686 286.699 85.8314C286.699 85.1684 286.529 84.5859 286.188 84.0839C285.853 83.5754 285.361 83.1763 284.71 82.8867C284.067 82.597 283.288 82.4522 282.374 82.4522H280.704V80.0192H282.374C283.108 80.0192 283.751 79.8872 284.305 79.6233C284.865 79.3594 285.303 78.9925 285.618 78.5227C285.933 78.0464 286.091 77.4896 286.091 76.8524C286.091 76.2409 285.953 75.7099 285.676 75.2593C285.406 74.8023 285.019 74.4451 284.517 74.1876C284.022 73.9302 283.436 73.8014 282.76 73.8014C282.116 73.8014 281.515 73.9205 280.955 74.1587C280.401 74.3904 279.951 74.7251 279.603 75.1628C279.255 75.594 279.069 76.1122 279.043 76.7172H276.156C276.188 75.6487 276.504 74.709 277.102 73.898C277.707 73.087 278.506 72.453 279.497 71.996C280.488 71.539 281.589 71.3105 282.799 71.3105C284.067 71.3105 285.161 71.5583 286.081 72.0539C287.008 72.5431 287.723 73.1964 288.225 74.0138C288.733 74.8313 288.984 75.726 288.978 76.6979C288.984 77.805 288.675 78.7447 288.051 79.5171C287.433 80.2895 286.609 80.8076 285.579 81.0715V81.226C286.892 81.4256 287.909 81.9469 288.63 82.7901C289.358 83.6333 289.718 84.6792 289.712 85.9279C289.718 87.0157 289.416 87.9909 288.804 88.8534C288.199 89.7159 287.372 90.3949 286.323 90.8905C285.274 91.3797 284.073 91.6243 282.722 91.6243ZM293.4 91.354V76.5241H296.171V78.9378H296.354C296.663 78.1204 297.168 77.4832 297.87 77.0262C298.572 76.5627 299.412 76.331 300.39 76.331C301.381 76.331 302.211 76.5627 302.881 77.0262C303.557 77.4896 304.056 78.1268 304.377 78.9378H304.532C304.886 78.1461 305.449 77.5153 306.221 77.0455C306.994 76.5692 307.914 76.331 308.983 76.331C310.328 76.331 311.425 76.7526 312.275 77.5958C313.131 78.439 313.559 79.7102 313.559 81.4095V91.354H310.672V81.6798C310.672 80.6757 310.399 79.9484 309.852 79.4978C309.305 79.0472 308.651 78.822 307.892 78.822C306.952 78.822 306.221 79.1116 305.7 79.6909C305.179 80.2638 304.918 81.0007 304.918 81.9019V91.354H302.041V81.4964C302.041 80.6918 301.79 80.0449 301.288 79.5557C300.786 79.0666 300.132 78.822 299.328 78.822C298.781 78.822 298.276 78.9668 297.812 79.2564C297.355 79.5396 296.985 79.9355 296.702 80.444C296.425 80.9525 296.287 81.5414 296.287 82.2108V91.354H293.4ZM328.541 80.1447L325.925 80.6081C325.815 80.2734 325.641 79.9548 325.403 79.6523C325.172 79.3498 324.856 79.102 324.457 78.9089C324.058 78.7158 323.559 78.6192 322.961 78.6192C322.143 78.6192 321.461 78.8027 320.914 79.1695C320.367 79.53 320.093 79.9966 320.093 80.5695C320.093 81.0651 320.277 81.4642 320.643 81.7667C321.01 82.0692 321.602 82.317 322.42 82.5101L324.776 83.0508C326.14 83.3662 327.157 83.8521 327.827 84.5087C328.496 85.1652 328.831 86.0181 328.831 87.0672C328.831 87.9555 328.573 88.7472 328.058 89.4423C327.55 90.131 326.839 90.6717 325.925 91.0643C325.017 91.457 323.965 91.6533 322.767 91.6533C321.107 91.6533 319.752 91.2993 318.703 90.5912C317.654 89.8768 317.01 88.863 316.772 87.55L319.562 87.1251C319.736 87.8525 320.093 88.4028 320.634 88.7761C321.174 89.143 321.879 89.3265 322.748 89.3265C323.694 89.3265 324.451 89.1301 325.017 88.7375C325.583 88.3384 325.867 87.8525 325.867 87.2796C325.867 86.8162 325.693 86.4268 325.345 86.1114C325.004 85.796 324.48 85.5578 323.772 85.3969L321.261 84.8466C319.877 84.5312 318.854 84.0292 318.191 83.3404C317.535 82.6517 317.206 81.7796 317.206 80.724C317.206 79.8486 317.451 79.0826 317.94 78.4261C318.429 77.7696 319.105 77.2579 319.968 76.891C320.83 76.5177 321.818 76.331 322.932 76.331C324.534 76.331 325.796 76.6786 326.716 77.3737C327.637 78.0624 328.245 78.9861 328.541 80.1447Z" fill="#EDEDEF"/>
</g>
<rect x="507.249" y="59.4409" width="142.362" height="44.826" rx="10.681" fill="#28282C"/>
<path d="M525.195 90.6105C523.943 90.6105 522.864 90.3429 521.96 89.8078C521.06 89.2671 520.365 88.5085 519.874 87.532C519.389 86.5499 519.146 85.3996 519.146 84.081C519.146 82.779 519.389 81.6315 519.874 80.6384C520.365 79.6453 521.049 78.8702 521.926 78.313C522.809 77.7557 523.841 77.4771 525.022 77.4771C525.739 77.4771 526.434 77.5957 527.107 77.833C527.78 78.0702 528.384 78.4426 528.919 78.9502C529.455 79.4577 529.877 80.117 530.186 80.928C530.494 81.7335 530.649 82.7128 530.649 83.8659V84.7431H520.544V82.8894H528.224C528.224 82.2383 528.092 81.6618 527.827 81.1598C527.562 80.6522 527.19 80.2522 526.71 79.9598C526.235 79.6674 525.678 79.5212 525.038 79.5212C524.343 79.5212 523.736 79.6922 523.217 80.0343C522.704 80.3708 522.307 80.8122 522.026 81.3584C521.75 81.899 521.612 82.4866 521.612 83.1211V84.5693C521.612 85.4189 521.761 86.1417 522.059 86.7375C522.362 87.3334 522.784 87.7885 523.325 88.103C523.866 88.4119 524.497 88.5664 525.22 88.5664C525.689 88.5664 526.117 88.5002 526.503 88.3678C526.889 88.2299 527.223 88.0257 527.504 87.7554C527.786 87.4851 528.001 87.1513 528.15 86.7541L530.492 87.1761C530.304 87.8657 529.968 88.4699 529.482 88.9885C529.002 89.5016 528.398 89.9015 527.67 90.1884C526.947 90.4698 526.122 90.6105 525.195 90.6105ZM541.447 85.0824V77.6426H543.929V90.3539H541.496V88.1526H541.364C541.071 88.8312 540.602 89.3967 539.957 89.8491C539.317 90.296 538.52 90.5195 537.565 90.5195C536.749 90.5195 536.026 90.3402 535.397 89.9815C534.774 89.6174 534.283 89.0795 533.924 88.3678C533.571 87.6561 533.394 86.7761 533.394 85.7279V77.6426H535.869V85.43C535.869 86.2961 536.109 86.9858 536.589 87.4989C537.069 88.0119 537.692 88.2685 538.459 88.2685C538.922 88.2685 539.383 88.1526 539.841 87.9209C540.305 87.6892 540.688 87.3389 540.991 86.8699C541.3 86.401 541.452 85.8051 541.447 85.0824ZM554.743 82.1197V84.2631H547.229V82.1197H554.743ZM560.516 82.8066V90.3539H558.041V77.6426H560.416V79.7115H560.574C560.866 79.0384 561.324 78.4978 561.947 78.0895C562.576 77.6813 563.368 77.4771 564.322 77.4771C565.189 77.4771 565.947 77.6592 566.598 78.0233C567.249 78.3819 567.754 78.9171 568.113 79.6288C568.471 80.3405 568.65 81.2204 568.65 82.2687V90.3539H566.176V82.5666C566.176 81.6453 565.936 80.9253 565.456 80.4067C564.976 79.8826 564.317 79.6205 563.478 79.6205C562.904 79.6205 562.394 79.7446 561.947 79.9929C561.506 80.2412 561.156 80.6053 560.896 81.0853C560.642 81.5597 560.516 82.1335 560.516 82.8066ZM577.323 90.6105C576.132 90.6105 575.092 90.3374 574.203 89.7912C573.315 89.245 572.626 88.4809 572.135 87.4989C571.644 86.5168 571.398 85.3693 571.398 84.0562C571.398 82.7376 571.644 81.5846 572.135 80.597C572.626 79.6095 573.315 78.8426 574.203 78.2964C575.092 77.7502 576.132 77.4771 577.323 77.4771C578.515 77.4771 579.555 77.7502 580.443 78.2964C581.331 78.8426 582.021 79.6095 582.512 80.597C583.003 81.5846 583.249 82.7376 583.249 84.0562C583.249 85.3693 583.003 86.5168 582.512 87.4989C582.021 88.4809 581.331 89.245 580.443 89.7912C579.555 90.3374 578.515 90.6105 577.323 90.6105ZM577.332 88.5333C578.104 88.5333 578.744 88.3292 579.252 87.9209C579.759 87.5127 580.134 86.9692 580.377 86.2906C580.625 85.612 580.749 84.8645 580.749 84.0479C580.749 83.2369 580.625 82.4921 580.377 81.8135C580.134 81.1294 579.759 80.5805 579.252 80.1667C578.744 79.7529 578.104 79.546 577.332 79.546C576.554 79.546 575.908 79.7529 575.395 80.1667C574.888 80.5805 574.51 81.1294 574.261 81.8135C574.019 82.4921 573.897 83.2369 573.897 84.0479C573.897 84.8645 574.019 85.612 574.261 86.2906C574.51 86.9692 574.888 87.5127 575.395 87.9209C575.908 88.3292 576.554 88.5333 577.332 88.5333ZM586.011 90.3539V77.6426H588.402V79.6619H588.535C588.766 78.9778 589.175 78.4398 589.759 78.0481C590.35 77.6509 591.017 77.4523 591.762 77.4523C591.917 77.4523 592.099 77.4578 592.308 77.4688C592.524 77.4799 592.692 77.4937 592.813 77.5102V79.877C592.714 79.8495 592.537 79.8191 592.284 79.786C592.03 79.7474 591.776 79.7281 591.522 79.7281C590.937 79.7281 590.416 79.8522 589.958 80.1005C589.506 80.3432 589.147 80.6825 588.882 81.1184C588.617 81.5487 588.485 82.0397 588.485 82.5914V90.3539H586.011ZM601.639 77.6426V79.6288H594.696V77.6426H601.639ZM596.558 74.5972H599.032V86.6217C599.032 87.1016 599.104 87.463 599.247 87.7058C599.391 87.943 599.576 88.1057 599.802 88.194C600.034 88.2768 600.285 88.3181 600.555 88.3181C600.754 88.3181 600.927 88.3044 601.076 88.2768C601.225 88.2492 601.341 88.2271 601.424 88.2106L601.871 90.2546C601.727 90.3098 601.523 90.365 601.258 90.4201C600.994 90.4808 600.663 90.5139 600.265 90.5195C599.614 90.5305 599.007 90.4146 598.445 90.1719C597.882 89.9291 597.427 89.554 597.079 89.0464C596.732 88.5388 596.558 87.9016 596.558 87.1347V74.5972ZM607.124 82.8066V90.3539H604.649V73.4055H607.091V79.7115H607.248C607.546 79.0274 608.001 78.484 608.613 78.0812C609.226 77.6785 610.026 77.4771 611.013 77.4771C611.885 77.4771 612.646 77.6564 613.297 78.015C613.954 78.3736 614.461 78.9088 614.82 79.6205C615.184 80.3267 615.366 81.2094 615.366 82.2687V90.3539H612.892V82.5666C612.892 81.6342 612.652 80.9115 612.172 80.3984C611.692 79.8798 611.024 79.6205 610.169 79.6205C609.584 79.6205 609.06 79.7446 608.597 79.9929C608.139 80.2412 607.777 80.6053 607.513 81.0853C607.253 81.5597 607.124 82.1335 607.124 82.8066ZM626.158 82.1197V84.2631H618.643V82.1197H626.158ZM635.852 73.4055V90.3539H633.287V75.971H633.188L629.133 78.6192V76.1696L633.361 73.4055H635.852Z" fill="#A09FA6"/>
<rect x="507.249" y="59.4409" width="142.362" height="44.826" rx="10.681" stroke="#3E3E44" stroke-width="1.94201"/>
<rect x="2.38098" y="145.554" width="695.238" height="1.94201" fill="#2E2E32"/>
<g clip-path="url(#clip3_9301_2494)">
<rect x="25.6851" y="170.8" width="532.11" height="93.3762" rx="15.536" fill="url(#paint0_linear_9301_2494)"/>
<rect x="26.6561" y="171.771" width="530.168" height="91.4342" rx="14.565" fill="url(#paint1_linear_9301_2494)"/>
<path d="M73.3321 233.141L71.1344 224.933M71.1344 224.933L67.0724 228.533L67.9932 213.208L76.4523 226.02L71.1344 224.933ZM68.4092 201.709V205.351M77.8505 205.619L75.2758 208.194M81.7604 215.061H78.1192M61.5425 221.927L58.9694 224.501M58.6991 215.061H55.0579M61.5425 208.194L58.9694 205.621" stroke="#7E7D86" stroke-width="2.91301" stroke-linecap="round" stroke-linejoin="round"/>
<path d="M114.114 228.988V206.39H117.523V226.053H127.763V228.988H114.114ZM136.32 229.363C135.246 229.363 134.275 229.165 133.407 228.768C132.539 228.363 131.851 227.778 131.343 227.013C130.843 226.248 130.593 225.31 130.593 224.199C130.593 223.243 130.777 222.456 131.145 221.838C131.513 221.22 132.009 220.731 132.634 220.371C133.26 220.01 133.958 219.738 134.731 219.554C135.503 219.37 136.29 219.23 137.092 219.135C138.107 219.017 138.931 218.921 139.564 218.848C140.196 218.767 140.656 218.638 140.943 218.462C141.23 218.285 141.373 217.998 141.373 217.601V217.524C141.373 216.56 141.101 215.814 140.557 215.284C140.02 214.754 139.218 214.489 138.151 214.489C137.041 214.489 136.165 214.736 135.525 215.229C134.893 215.714 134.455 216.255 134.212 216.851L131.112 216.145C131.479 215.115 132.016 214.283 132.723 213.651C133.436 213.011 134.256 212.547 135.183 212.261C136.11 211.966 137.085 211.819 138.107 211.819C138.784 211.819 139.501 211.9 140.259 212.062C141.024 212.216 141.738 212.503 142.4 212.923C143.069 213.342 143.617 213.941 144.044 214.721C144.47 215.494 144.684 216.498 144.684 217.733V228.988H141.462V226.671H141.329C141.116 227.098 140.796 227.517 140.369 227.929C139.943 228.341 139.395 228.683 138.725 228.955C138.056 229.227 137.254 229.363 136.32 229.363ZM137.037 226.715C137.949 226.715 138.729 226.535 139.376 226.175C140.031 225.814 140.527 225.343 140.866 224.762C141.212 224.174 141.384 223.545 141.384 222.875V220.691C141.267 220.808 141.039 220.919 140.7 221.022C140.369 221.117 139.99 221.202 139.564 221.275C139.137 221.342 138.722 221.404 138.317 221.463C137.912 221.515 137.574 221.559 137.302 221.595C136.662 221.676 136.077 221.812 135.547 222.004C135.025 222.195 134.606 222.471 134.289 222.831C133.981 223.184 133.826 223.655 133.826 224.244C133.826 225.06 134.128 225.678 134.731 226.097C135.334 226.509 136.103 226.715 137.037 226.715ZM161.778 216.178L158.788 216.707C158.663 216.325 158.464 215.961 158.192 215.615C157.927 215.269 157.567 214.986 157.111 214.765C156.655 214.545 156.085 214.434 155.401 214.434C154.466 214.434 153.687 214.644 153.061 215.063C152.436 215.475 152.123 216.008 152.123 216.663C152.123 217.23 152.333 217.686 152.752 218.031C153.172 218.377 153.848 218.66 154.783 218.881L157.475 219.499C159.034 219.859 160.197 220.415 160.962 221.165C161.727 221.915 162.109 222.89 162.109 224.089C162.109 225.104 161.815 226.009 161.227 226.804C160.645 227.591 159.833 228.209 158.788 228.657C157.751 229.106 156.548 229.33 155.18 229.33C153.282 229.33 151.734 228.926 150.534 228.117C149.335 227.3 148.6 226.141 148.328 224.641L151.517 224.155C151.715 224.987 152.123 225.616 152.741 226.042C153.359 226.461 154.165 226.671 155.158 226.671C156.239 226.671 157.103 226.447 157.751 225.998C158.398 225.542 158.722 224.987 158.722 224.332C158.722 223.802 158.523 223.357 158.126 222.997C157.736 222.636 157.137 222.364 156.327 222.18L153.459 221.551C151.877 221.191 150.707 220.617 149.95 219.83C149.199 219.043 148.824 218.046 148.824 216.84C148.824 215.839 149.104 214.964 149.663 214.214C150.222 213.463 150.994 212.878 151.98 212.459C152.966 212.033 154.095 211.819 155.367 211.819C157.199 211.819 158.641 212.216 159.693 213.011C160.745 213.798 161.44 214.854 161.778 216.178ZM173.648 212.04V214.688H164.391V212.04H173.648ZM166.873 207.979H170.172V224.012C170.172 224.652 170.268 225.134 170.459 225.457C170.651 225.774 170.897 225.991 171.199 226.108C171.508 226.219 171.842 226.274 172.203 226.274C172.468 226.274 172.699 226.255 172.898 226.219C173.096 226.182 173.251 226.153 173.361 226.13L173.957 228.856C173.766 228.929 173.494 229.003 173.141 229.077C172.788 229.157 172.346 229.202 171.817 229.209C170.949 229.224 170.139 229.069 169.389 228.746C168.639 228.422 168.032 227.922 167.568 227.245C167.105 226.568 166.873 225.719 166.873 224.696V207.979ZM204.555 213.739H201.112C200.98 213.004 200.733 212.356 200.373 211.797C200.012 211.238 199.571 210.764 199.049 210.374C198.526 209.984 197.942 209.69 197.294 209.491C196.654 209.292 195.974 209.193 195.253 209.193C193.951 209.193 192.785 209.52 191.755 210.175C190.733 210.83 189.924 211.79 189.328 213.055C188.739 214.32 188.445 215.865 188.445 217.689C188.445 219.528 188.739 221.08 189.328 222.346C189.924 223.611 190.736 224.567 191.766 225.215C192.796 225.862 193.955 226.186 195.242 226.186C195.956 226.186 196.632 226.09 197.272 225.899C197.92 225.7 198.504 225.41 199.027 225.027C199.549 224.645 199.99 224.177 200.351 223.626C200.719 223.067 200.972 222.427 201.112 221.706L204.555 221.717C204.371 222.828 204.014 223.85 203.484 224.784C202.962 225.711 202.289 226.513 201.465 227.19C200.649 227.859 199.714 228.378 198.663 228.746C197.611 229.113 196.463 229.297 195.22 229.297C193.263 229.297 191.52 228.834 189.99 227.907C188.46 226.973 187.253 225.638 186.371 223.902C185.495 222.166 185.057 220.095 185.057 217.689C185.057 215.277 185.499 213.206 186.382 211.477C187.264 209.741 188.471 208.41 190.001 207.483C191.531 206.549 193.271 206.081 195.22 206.081C196.419 206.081 197.537 206.254 198.574 206.6C199.619 206.938 200.557 207.439 201.388 208.101C202.219 208.755 202.907 209.557 203.451 210.506C203.996 211.448 204.364 212.525 204.555 213.739ZM211.669 206.39V228.988H208.37V206.39H211.669ZM216.108 228.988V212.04H219.407V228.988H216.108ZM217.774 209.425C217.2 209.425 216.707 209.234 216.295 208.851C215.891 208.461 215.688 207.998 215.688 207.461C215.688 206.916 215.891 206.453 216.295 206.07C216.707 205.681 217.2 205.486 217.774 205.486C218.347 205.486 218.837 205.681 219.241 206.07C219.653 206.453 219.859 206.916 219.859 207.461C219.859 207.998 219.653 208.461 219.241 208.851C218.837 209.234 218.347 209.425 217.774 209.425ZM230.984 229.33C229.344 229.33 227.931 228.959 226.747 228.216C225.57 227.466 224.665 226.432 224.033 225.115C223.4 223.799 223.084 222.291 223.084 220.591C223.084 218.87 223.407 217.351 224.055 216.034C224.702 214.71 225.614 213.677 226.791 212.934C227.968 212.191 229.355 211.819 230.951 211.819C232.238 211.819 233.386 212.058 234.394 212.536C235.402 213.007 236.214 213.669 236.832 214.523C237.458 215.376 237.829 216.373 237.947 217.513H234.736C234.559 216.718 234.155 216.034 233.522 215.46C232.897 214.887 232.058 214.6 231.006 214.6C230.087 214.6 229.281 214.843 228.59 215.328C227.906 215.806 227.372 216.49 226.99 217.38C226.607 218.263 226.416 219.308 226.416 220.514C226.416 221.75 226.604 222.817 226.979 223.714C227.354 224.611 227.884 225.307 228.568 225.799C229.259 226.292 230.072 226.539 231.006 226.539C231.632 226.539 232.198 226.425 232.706 226.197C233.221 225.961 233.651 225.627 233.997 225.193C234.35 224.759 234.596 224.236 234.736 223.626H237.947C237.829 224.722 237.472 225.7 236.876 226.561C236.281 227.421 235.483 228.098 234.482 228.591C233.489 229.084 232.323 229.33 230.984 229.33ZM244.509 223.24L244.487 219.212H245.061L251.814 212.04H255.764L248.062 220.205H247.544L244.509 223.24ZM241.475 228.988V206.39H244.774V228.988H241.475ZM252.178 228.988L246.109 220.933L248.382 218.627L256.228 228.988H252.178ZM265.378 229.33C263.708 229.33 262.27 228.974 261.063 228.26C259.864 227.539 258.937 226.528 258.283 225.226C257.635 223.916 257.312 222.383 257.312 220.624C257.312 218.888 257.635 217.358 258.283 216.034C258.937 214.71 259.85 213.677 261.019 212.934C262.196 212.191 263.572 211.819 265.146 211.819C266.102 211.819 267.029 211.977 267.927 212.294C268.824 212.61 269.629 213.106 270.343 213.783C271.057 214.46 271.619 215.339 272.031 216.42C272.443 217.494 272.649 218.8 272.649 220.338V221.507H259.176V219.036H269.416C269.416 218.167 269.24 217.399 268.886 216.729C268.533 216.053 268.037 215.519 267.397 215.129C266.764 214.74 266.021 214.545 265.168 214.545C264.241 214.545 263.432 214.773 262.74 215.229C262.056 215.677 261.527 216.266 261.152 216.994C260.784 217.715 260.6 218.499 260.6 219.344V221.275C260.6 222.408 260.798 223.372 261.196 224.166C261.6 224.961 262.163 225.568 262.884 225.987C263.605 226.399 264.447 226.605 265.411 226.605C266.036 226.605 266.606 226.517 267.121 226.34C267.636 226.156 268.081 225.884 268.456 225.524C268.831 225.163 269.118 224.718 269.317 224.188L272.439 224.751C272.189 225.671 271.741 226.476 271.093 227.168C270.453 227.852 269.648 228.385 268.677 228.768C267.713 229.143 266.613 229.33 265.378 229.33ZM282.654 229.319C281.286 229.319 280.065 228.97 278.991 228.271C277.924 227.565 277.086 226.561 276.475 225.259C275.872 223.949 275.57 222.379 275.57 220.547C275.57 218.716 275.876 217.149 276.486 215.847C277.104 214.545 277.95 213.548 279.024 212.856C280.098 212.165 281.316 211.819 282.676 211.819C283.728 211.819 284.574 211.996 285.214 212.349C285.862 212.695 286.362 213.099 286.715 213.563C287.075 214.026 287.355 214.434 287.553 214.787H287.752V206.39H291.051V228.988H287.829V226.351H287.553C287.355 226.712 287.068 227.124 286.693 227.587C286.325 228.05 285.817 228.455 285.17 228.801C284.523 229.146 283.684 229.319 282.654 229.319ZM283.383 226.506C284.331 226.506 285.133 226.255 285.788 225.755C286.45 225.248 286.95 224.545 287.289 223.648C287.634 222.75 287.807 221.706 287.807 220.514C287.807 219.337 287.638 218.307 287.3 217.425C286.961 216.542 286.465 215.854 285.81 215.361C285.155 214.868 284.346 214.622 283.383 214.622C282.389 214.622 281.562 214.879 280.9 215.394C280.238 215.909 279.738 216.612 279.399 217.502C279.068 218.392 278.903 219.396 278.903 220.514C278.903 221.647 279.072 222.666 279.41 223.571C279.749 224.475 280.249 225.193 280.911 225.722C281.58 226.244 282.404 226.506 283.383 226.506ZM297.934 229.198C297.331 229.198 296.812 228.985 296.378 228.558C295.944 228.124 295.727 227.602 295.727 226.991C295.727 226.388 295.944 225.873 296.378 225.446C296.812 225.012 297.331 224.795 297.934 224.795C298.537 224.795 299.056 225.012 299.49 225.446C299.924 225.873 300.141 226.388 300.141 226.991C300.141 227.396 300.038 227.767 299.832 228.106C299.633 228.437 299.368 228.701 299.037 228.9C298.706 229.099 298.338 229.198 297.934 229.198ZM297.934 216.862C297.331 216.862 296.812 216.645 296.378 216.211C295.944 215.777 295.727 215.258 295.727 214.655C295.727 214.052 295.944 213.537 296.378 213.11C296.812 212.676 297.331 212.459 297.934 212.459C298.537 212.459 299.056 212.676 299.49 213.11C299.924 213.537 300.141 214.052 300.141 214.655C300.141 215.06 300.038 215.431 299.832 215.769C299.633 216.1 299.368 216.365 299.037 216.564C298.706 216.762 298.338 216.862 297.934 216.862Z" fill="#7E7D86"/>
<path d="M311.933 209.325V206.39H329.422V209.325H322.372V228.988H318.973V209.325H311.933ZM341.157 216.255V219.124H331.138V216.255H341.157ZM358.144 212.327C358.027 211.282 357.541 210.473 356.688 209.899C355.834 209.318 354.76 209.028 353.466 209.028C352.539 209.028 351.737 209.175 351.06 209.469C350.384 209.756 349.858 210.153 349.482 210.661C349.115 211.161 348.931 211.731 348.931 212.371C348.931 212.908 349.056 213.371 349.306 213.761C349.563 214.151 349.898 214.478 350.31 214.743C350.729 215.001 351.178 215.218 351.656 215.394C352.134 215.563 352.594 215.703 353.035 215.814L355.242 216.387C355.963 216.564 356.702 216.803 357.46 217.105C358.218 217.406 358.92 217.803 359.568 218.296C360.215 218.789 360.737 219.4 361.135 220.128C361.539 220.856 361.741 221.728 361.741 222.743C361.741 224.023 361.41 225.159 360.748 226.153C360.094 227.146 359.141 227.929 357.89 228.503C356.647 229.077 355.143 229.363 353.378 229.363C351.686 229.363 350.222 229.095 348.986 228.558C347.75 228.021 346.783 227.26 346.084 226.274C345.385 225.281 344.999 224.104 344.925 222.743H348.346C348.412 223.559 348.677 224.24 349.14 224.784C349.611 225.321 350.211 225.722 350.939 225.987C351.675 226.244 352.48 226.373 353.355 226.373C354.319 226.373 355.176 226.222 355.926 225.921C356.684 225.612 357.28 225.185 357.714 224.641C358.148 224.089 358.365 223.445 358.365 222.71C358.365 222.04 358.174 221.492 357.791 221.066C357.416 220.639 356.905 220.286 356.257 220.007C355.617 219.727 354.893 219.481 354.084 219.267L351.413 218.539C349.604 218.046 348.169 217.322 347.11 216.365C346.058 215.409 345.532 214.144 345.532 212.57C345.532 211.267 345.885 210.131 346.592 209.16C347.298 208.189 348.254 207.435 349.46 206.898C350.667 206.354 352.028 206.081 353.543 206.081C355.073 206.081 356.423 206.35 357.593 206.887C358.77 207.424 359.696 208.163 360.373 209.105C361.05 210.039 361.403 211.113 361.432 212.327H358.144ZM368.85 218.925V228.988H365.551V206.39H368.806V214.798H369.016C369.413 213.886 370.02 213.162 370.836 212.625C371.653 212.088 372.719 211.819 374.036 211.819C375.198 211.819 376.214 212.058 377.082 212.536C377.957 213.015 378.634 213.728 379.112 214.677C379.597 215.619 379.84 216.796 379.84 218.208V228.988H376.541V218.605C376.541 217.362 376.221 216.398 375.581 215.714C374.941 215.023 374.051 214.677 372.911 214.677C372.131 214.677 371.432 214.843 370.814 215.174C370.204 215.505 369.722 215.99 369.369 216.63C369.023 217.263 368.85 218.028 368.85 218.925ZM384.243 228.988V212.04H387.542V228.988H384.243ZM385.909 209.425C385.335 209.425 384.842 209.234 384.43 208.851C384.026 208.461 383.823 207.998 383.823 207.461C383.823 206.916 384.026 206.453 384.43 206.07C384.842 205.681 385.335 205.486 385.909 205.486C386.483 205.486 386.972 205.681 387.376 206.07C387.788 206.453 387.994 206.916 387.994 207.461C387.994 207.998 387.788 208.461 387.376 208.851C386.972 209.234 386.483 209.425 385.909 209.425ZM391.98 228.988V212.04H395.169V214.732H395.346C395.655 213.82 396.199 213.103 396.979 212.581C397.766 212.051 398.656 211.786 399.649 211.786C399.855 211.786 400.098 211.793 400.377 211.808C400.664 211.823 400.889 211.841 401.05 211.863V215.019C400.918 214.982 400.683 214.942 400.344 214.898C400.006 214.846 399.667 214.82 399.329 214.82C398.549 214.82 397.854 214.986 397.244 215.317C396.64 215.641 396.162 216.093 395.809 216.674C395.456 217.248 395.28 217.903 395.28 218.638V228.988H391.98ZM412.818 212.04V214.688H403.561V212.04H412.818ZM406.043 207.979H409.343V224.012C409.343 224.652 409.438 225.134 409.629 225.457C409.821 225.774 410.067 225.991 410.369 226.108C410.678 226.219 411.012 226.274 411.373 226.274C411.638 226.274 411.869 226.255 412.068 226.219C412.267 226.182 412.421 226.153 412.531 226.13L413.127 228.856C412.936 228.929 412.664 229.003 412.311 229.077C411.958 229.157 411.516 229.202 410.987 229.209C410.119 229.224 409.31 229.069 408.559 228.746C407.809 228.422 407.202 227.922 406.739 227.245C406.275 226.568 406.043 225.719 406.043 224.696V207.979ZM428.895 216.178L425.905 216.707C425.78 216.325 425.581 215.961 425.309 215.615C425.044 215.269 424.684 214.986 424.228 214.765C423.772 214.545 423.201 214.434 422.517 214.434C421.583 214.434 420.803 214.644 420.178 215.063C419.553 215.475 419.24 216.008 419.24 216.663C419.24 217.23 419.45 217.686 419.869 218.031C420.288 218.377 420.965 218.66 421.899 218.881L424.592 219.499C426.151 219.859 427.314 220.415 428.079 221.165C428.844 221.915 429.226 222.89 429.226 224.089C429.226 225.104 428.932 226.009 428.343 226.804C427.762 227.591 426.949 228.209 425.905 228.657C424.868 229.106 423.665 229.33 422.297 229.33C420.399 229.33 418.85 228.926 417.651 228.117C416.452 227.3 415.717 226.141 415.444 224.641L418.633 224.155C418.832 224.987 419.24 225.616 419.858 226.042C420.476 226.461 421.282 226.671 422.275 226.671C423.356 226.671 424.22 226.447 424.868 225.998C425.515 225.542 425.839 224.987 425.839 224.332C425.839 223.802 425.64 223.357 425.243 222.997C424.853 222.636 424.253 222.364 423.444 222.18L420.575 221.551C418.994 221.191 417.824 220.617 417.066 219.83C416.316 219.043 415.941 218.046 415.941 216.84C415.941 215.839 416.221 214.964 416.78 214.214C417.339 213.463 418.111 212.878 419.097 212.459C420.082 212.033 421.212 211.819 422.484 211.819C424.316 211.819 425.758 212.216 426.81 213.011C427.862 213.798 428.557 214.854 428.895 216.178Z" fill="#EDEDEF"/>
<rect x="26.6561" y="171.771" width="530.168" height="91.4342" rx="14.565" stroke="url(#paint2_linear_9301_2494)" stroke-width="1.94201"/>
</g>
<g clip-path="url(#clip4_9301_2494)">
<rect x="581.099" y="170.8" width="93.2163" height="93.2163" rx="15.536" fill="url(#paint3_linear_9301_2494)"/>
<rect x="582.07" y="171.771" width="91.2743" height="91.2743" rx="14.565" fill="url(#paint4_linear_9301_2494)"/>
<path d="M634.217 213.117H642.296V213.115M613.118 229.779V221.7M613.118 221.7H621.196M613.116 221.7L618.264 226.852C619.921 228.509 621.986 229.701 624.25 230.307C626.514 230.914 628.898 230.914 631.162 230.307C633.426 229.7 635.49 228.508 637.147 226.85C638.804 225.193 639.996 223.128 640.602 220.864M614.81 213.953C615.417 211.689 616.608 209.625 618.265 207.967C619.922 206.309 621.987 205.117 624.251 204.51C626.515 203.903 628.898 203.903 631.162 204.51C633.426 205.116 635.491 206.308 637.148 207.966L642.296 213.115M642.296 205.038V213.114" stroke="#7E7D86" stroke-width="2.91301" stroke-linecap="round" stroke-linejoin="round"/>
<rect x="582.07" y="171.771" width="91.2743" height="91.2743" rx="14.565" stroke="url(#paint5_linear_9301_2494)" stroke-width="1.94201"/>
</g>
<rect x="26.6561" y="289.928" width="646.688" height="91.4342" rx="14.565" fill="#232326"/>
<path d="M82.8011 337.819L80.9643 335.983C80.6879 335.706 80.4578 335.386 80.283 335.036L78.5352 331.54C78.4876 331.445 78.4182 331.363 78.3326 331.3C78.2471 331.238 78.1478 331.196 78.043 331.179C77.9383 331.162 77.831 331.17 77.73 331.203C77.629 331.236 77.5372 331.292 77.4622 331.367C77.2934 331.536 77.0825 331.656 76.8515 331.716C76.6204 331.776 76.3776 331.773 76.1481 331.707L74.088 331.119C73.7584 331.027 73.4065 331.055 73.0956 331.198C72.7846 331.341 72.5348 331.59 72.391 331.901C72.2472 332.212 72.2189 332.564 72.311 332.894C72.4031 333.223 72.6097 333.509 72.8937 333.701L73.8436 334.332C74.7985 334.971 74.9344 336.322 74.122 337.135L73.7983 337.458C73.4552 337.802 73.2643 338.264 73.2643 338.747V339.41C73.2643 340.072 73.0863 340.719 72.7464 341.284L70.6183 344.83C70.3149 345.336 69.8857 345.755 69.3723 346.045C68.859 346.336 68.279 346.489 67.6891 346.489C67.2363 346.489 66.802 346.309 66.4818 345.989C66.1616 345.669 65.9817 345.234 65.9817 344.781V342.885C65.9817 341.396 65.0755 340.058 63.6934 339.504L62.6334 339.082C61.8622 338.773 61.2197 338.21 60.8126 337.486C60.4055 336.762 60.2582 335.92 60.3952 335.101L60.4066 335.033C60.4818 334.582 60.641 334.15 60.8759 333.759L61.0215 333.516C61.408 332.873 61.984 332.364 62.6706 332.061C63.3572 331.757 64.1208 331.673 64.857 331.82L66.7634 332.202C67.212 332.292 67.6779 332.209 68.0683 331.971C68.4588 331.732 68.7451 331.355 68.8705 330.916L69.2071 329.734C69.3237 329.326 69.2941 328.89 69.1232 328.501C68.9524 328.113 68.6512 327.796 68.2717 327.606L67.1955 327.069L67.0482 327.216C66.7101 327.554 66.3087 327.822 65.8669 328.005C65.4251 328.188 64.9516 328.283 64.4735 328.283H64.1822C63.7792 328.283 63.394 328.444 63.1108 328.726C62.8513 328.988 62.5047 329.145 62.1367 329.169C61.7687 329.192 61.4049 329.08 61.1141 328.853C60.8233 328.627 60.6258 328.301 60.559 327.939C60.4921 327.576 60.5605 327.201 60.7513 326.886L63.0348 323.078C63.2624 322.699 63.4192 322.283 63.4976 321.848M82.8011 337.819C83.1931 335.322 82.9286 332.767 82.0337 330.403C81.1387 328.039 79.644 325.949 77.6966 324.338C75.7492 322.727 73.4161 321.65 70.9265 321.214C68.437 320.778 65.8768 320.997 63.4976 321.85C61.0771 322.717 58.9294 324.21 57.2728 326.177C55.6162 328.143 54.5098 330.513 54.0659 333.046C53.6221 335.579 53.8566 338.184 54.7457 340.597C55.6349 343.009 57.1468 345.144 59.1281 346.783C61.1093 348.422 63.4891 349.507 66.0257 349.929C68.5622 350.35 71.1651 350.092 73.5698 349.182C75.9746 348.271 78.0954 346.74 79.7168 344.745C81.3382 342.749 82.4023 340.36 82.8011 337.819Z" stroke="#706F78" stroke-width="2.91301" stroke-linecap="round" stroke-linejoin="round"/>
<path d="M120.843 347.145H113.87V324.547H121.152C123.344 324.547 125.22 324.999 126.78 325.904C128.339 326.802 129.535 328.093 130.366 329.777C131.197 331.454 131.613 333.463 131.613 335.802C131.613 338.156 131.193 340.182 130.355 341.882C129.516 343.573 128.295 344.875 126.691 345.788C125.088 346.692 123.138 347.145 120.843 347.145ZM116.606 344.717H120.667C122.535 344.717 124.084 344.357 125.312 343.636C126.541 342.915 127.456 341.889 128.06 340.557C128.663 339.226 128.964 337.641 128.964 335.802C128.964 333.977 128.667 332.407 128.071 331.09C127.475 329.766 126.585 328.751 125.4 328.045C124.216 327.331 122.741 326.974 120.976 326.974H116.606V344.717ZM142.956 347.498C141.323 347.498 139.914 347.137 138.73 346.417C137.553 345.688 136.644 344.673 136.004 343.371C135.372 342.062 135.055 340.539 135.055 338.803C135.055 337.067 135.372 335.537 136.004 334.213C136.644 332.881 137.534 331.844 138.674 331.101C139.822 330.351 141.161 329.976 142.691 329.976C143.574 329.976 144.445 330.123 145.306 330.417C146.167 330.711 146.95 331.189 147.656 331.852C148.362 332.506 148.925 333.374 149.344 334.456C149.764 335.537 149.973 336.868 149.973 338.45V339.553H136.909V337.302H147.325C147.325 336.346 147.134 335.493 146.751 334.742C146.376 333.992 145.839 333.4 145.14 332.966C144.449 332.532 143.632 332.315 142.691 332.315C141.654 332.315 140.756 332.572 139.999 333.087C139.248 333.595 138.671 334.257 138.266 335.074C137.862 335.89 137.659 336.765 137.659 337.7V339.2C137.659 340.48 137.88 341.565 138.321 342.455C138.77 343.338 139.392 344.011 140.186 344.475C140.981 344.931 141.904 345.159 142.956 345.159C143.64 345.159 144.258 345.063 144.809 344.872C145.369 344.673 145.85 344.379 146.255 343.989C146.66 343.592 146.972 343.099 147.193 342.511L149.709 343.217C149.444 344.07 148.999 344.82 148.373 345.468C147.748 346.108 146.976 346.608 146.056 346.968C145.137 347.321 144.103 347.498 142.956 347.498ZM156.539 336.949V347.145H153.935V330.196H156.45V332.845H156.671C157.068 331.984 157.672 331.292 158.481 330.77C159.29 330.241 160.334 329.976 161.614 329.976C162.762 329.976 163.766 330.211 164.627 330.682C165.487 331.145 166.157 331.852 166.635 332.8C167.113 333.742 167.352 334.934 167.352 336.376V347.145H164.748V336.552C164.748 335.221 164.402 334.183 163.711 333.44C163.019 332.69 162.07 332.315 160.864 332.315C160.033 332.315 159.29 332.495 158.635 332.856C157.988 333.216 157.477 333.742 157.101 334.434C156.726 335.125 156.539 335.964 156.539 336.949ZM172.111 347.145V330.196H174.626V332.845H174.847C175.2 331.94 175.77 331.237 176.557 330.737C177.344 330.23 178.29 329.976 179.393 329.976C180.511 329.976 181.442 330.23 182.185 330.737C182.935 331.237 183.52 331.94 183.939 332.845H184.116C184.55 331.969 185.201 331.274 186.069 330.759C186.937 330.237 187.978 329.976 189.191 329.976C190.707 329.976 191.946 330.45 192.91 331.399C193.874 332.341 194.355 333.808 194.355 335.802V347.145H191.751V335.802C191.751 334.551 191.409 333.657 190.725 333.12C190.041 332.583 189.236 332.315 188.309 332.315C187.117 332.315 186.194 332.675 185.539 333.396C184.884 334.11 184.557 335.015 184.557 336.111V347.145H181.909V335.537C181.909 334.573 181.596 333.797 180.971 333.209C180.346 332.613 179.54 332.315 178.555 332.315C177.878 332.315 177.245 332.495 176.657 332.856C176.076 333.216 175.605 333.716 175.244 334.356C174.891 334.989 174.715 335.721 174.715 336.552V347.145H172.111ZM204.104 347.542C203.03 347.542 202.055 347.34 201.18 346.935C200.305 346.523 199.61 345.931 199.095 345.159C198.58 344.379 198.322 343.437 198.322 342.334C198.322 341.363 198.513 340.576 198.896 339.973C199.278 339.362 199.79 338.884 200.43 338.538C201.07 338.192 201.776 337.935 202.548 337.766C203.328 337.589 204.111 337.45 204.899 337.347C205.928 337.214 206.763 337.115 207.403 337.049C208.051 336.975 208.521 336.854 208.816 336.684C209.117 336.515 209.268 336.221 209.268 335.802V335.713C209.268 334.625 208.97 333.779 208.374 333.176C207.786 332.572 206.892 332.271 205.693 332.271C204.45 332.271 203.475 332.543 202.769 333.087C202.063 333.632 201.566 334.213 201.279 334.831L198.808 333.948C199.249 332.918 199.838 332.116 200.573 331.543C201.316 330.961 202.125 330.557 203.001 330.329C203.883 330.093 204.751 329.976 205.605 329.976C206.149 329.976 206.774 330.042 207.481 330.174C208.194 330.299 208.882 330.561 209.544 330.958C210.213 331.355 210.769 331.955 211.21 332.756C211.651 333.558 211.872 334.632 211.872 335.978V347.145H209.268V344.85H209.136C208.959 345.218 208.665 345.611 208.253 346.03C207.841 346.45 207.293 346.806 206.609 347.101C205.925 347.395 205.09 347.542 204.104 347.542ZM204.501 345.203C205.531 345.203 206.399 345.001 207.105 344.596C207.819 344.191 208.356 343.669 208.716 343.029C209.084 342.389 209.268 341.716 209.268 341.01V338.626C209.158 338.759 208.915 338.88 208.54 338.991C208.172 339.094 207.745 339.186 207.26 339.266C206.782 339.34 206.315 339.406 205.858 339.465C205.41 339.517 205.046 339.561 204.766 339.597C204.089 339.686 203.457 339.829 202.868 340.028C202.287 340.219 201.816 340.51 201.456 340.9C201.103 341.282 200.926 341.804 200.926 342.466C200.926 343.371 201.261 344.055 201.93 344.519C202.607 344.975 203.464 345.203 204.501 345.203ZM216.625 347.145V330.196H219.141V332.756H219.317C219.626 331.918 220.185 331.237 220.995 330.715C221.804 330.193 222.716 329.932 223.731 329.932C223.922 329.932 224.161 329.935 224.448 329.943C224.735 329.95 224.952 329.961 225.099 329.976V332.624C225.011 332.602 224.809 332.569 224.492 332.525C224.183 332.473 223.856 332.447 223.51 332.447C222.686 332.447 221.951 332.62 221.304 332.966C220.664 333.304 220.156 333.775 219.781 334.378C219.413 334.974 219.229 335.655 219.229 336.42V347.145H216.625ZM230.614 340.966L230.569 337.744H231.099L238.514 330.196H241.736L233.836 338.185H233.615L230.614 340.966ZM228.186 347.145V324.547H230.79V347.145H228.186ZM238.955 347.145L232.335 338.759L234.189 336.949L242.266 347.145H238.955Z" fill="#EDEDEF"/>
<path d="M623.823 340.905L631.105 348.188L638.388 340.905M623.823 329.253L631.105 321.971L638.388 329.253" stroke="#706F78" stroke-width="2.91301" stroke-linecap="round" stroke-linejoin="round"/>
<rect x="26.6561" y="289.928" width="646.688" height="91.4342" rx="14.565" stroke="url(#paint6_linear_9301_2494)" stroke-width="1.94201"/>
</g>
</g>
<g filter="url(#filter1_dd_9301_2494)">
<g clip-path="url(#clip5_9301_2494)">
<rect x="21.4286" y="38.6774" width="38.0952" height="38.0952" rx="19.0476" fill="url(#paint7_linear_9301_2494)"/>
<path d="M43.4634 47.1363V67.9155H40.3182V50.2816H40.1964L35.2248 53.5283V50.5251L40.4095 47.1363H43.4634Z" fill="#1A1523"/>
</g>
</g>
<g filter="url(#filter2_dd_9301_2494)">
<g clip-path="url(#clip6_9301_2494)">
<rect x="478.571" y="38.6774" width="38.0952" height="38.0952" rx="19.0476" fill="url(#paint8_linear_9301_2494)"/>
<path d="M490.333 67.9155V65.6428L497.364 58.3579C498.115 57.5665 498.734 56.8732 499.221 56.2779C499.715 55.6759 500.083 55.1043 500.327 54.5632C500.57 54.0221 500.692 53.4472 500.692 52.8384C500.692 52.1484 500.53 51.5532 500.205 51.0527C499.88 50.5454 499.437 50.1564 498.876 49.8859C498.314 49.6085 497.682 49.4699 496.979 49.4699C496.234 49.4699 495.585 49.6221 495.03 49.9265C494.476 50.2308 494.05 50.6604 493.752 51.215C493.454 51.7697 493.306 52.419 493.306 53.1631H490.313C490.313 51.8982 490.603 50.7923 491.185 49.8453C491.767 48.8983 492.565 48.1644 493.58 47.6436C494.594 47.116 495.747 46.8522 497.039 46.8522C498.345 46.8522 499.495 47.1126 500.489 47.6334C501.49 48.1475 502.271 48.851 502.833 49.7438C503.394 50.6299 503.675 51.631 503.675 52.7471C503.675 53.5182 503.53 54.2724 503.239 55.0097C502.955 55.7469 502.457 56.5688 501.747 57.4752C501.037 58.3748 500.049 59.4672 498.785 60.7523L494.655 65.0746V65.2268H504.01V67.9155H490.333Z" fill="#1A1523"/>
</g>
</g>
<g filter="url(#filter3_dd_9301_2494)">
<g clip-path="url(#clip7_9301_2494)">
<rect x="21.4286" y="162.487" width="38.0952" height="38.0952" rx="19.0476" fill="url(#paint9_linear_9301_2494)"/>
<path d="M40.4778 192.009C39.0844 192.009 37.8398 191.769 36.744 191.289C35.655 190.809 34.7926 190.142 34.1567 189.29C33.5277 188.431 33.1895 187.437 33.1421 186.307H36.328C36.3686 186.923 36.5749 187.457 36.9469 187.91C37.3257 188.357 37.8195 188.701 38.4282 188.945C39.037 189.189 39.7134 189.31 40.4575 189.31C41.2759 189.31 41.9997 189.168 42.6287 188.884C43.2646 188.6 43.7617 188.204 44.1202 187.697C44.4787 187.183 44.658 186.591 44.658 185.921C44.658 185.225 44.4787 184.613 44.1202 184.085C43.7685 183.551 43.251 183.131 42.5679 182.827C41.8914 182.523 41.073 182.37 40.1125 182.37H38.3572V179.814H40.1125C40.8836 179.814 41.56 179.675 42.1417 179.398C42.7302 179.12 43.1901 178.735 43.5216 178.241C43.853 177.74 44.0187 177.155 44.0187 176.486C44.0187 175.843 43.8733 175.285 43.5825 174.811C43.2984 174.331 42.8925 173.956 42.3649 173.685C41.8441 173.415 41.2286 173.279 40.5183 173.279C39.8419 173.279 39.2095 173.405 38.621 173.655C38.0393 173.898 37.5658 174.25 37.2006 174.71C36.8353 175.163 36.6391 175.708 36.6121 176.344H33.5784C33.6122 175.221 33.9437 174.233 34.5727 173.381C35.2085 172.529 36.0473 171.862 37.089 171.382C38.1306 170.902 39.2873 170.662 40.5589 170.662C41.8914 170.662 43.0413 170.922 44.0086 171.443C44.9826 171.957 45.7334 172.644 46.261 173.503C46.7954 174.362 47.0592 175.302 47.0524 176.323C47.0592 177.487 46.7345 178.474 46.0784 179.286C45.4291 180.098 44.5633 180.642 43.481 180.919V181.082C44.8609 181.291 45.9296 181.839 46.6872 182.725C47.4515 183.612 47.8303 184.711 47.8235 186.023C47.8303 187.166 47.5124 188.191 46.8698 189.097C46.234 190.004 45.3648 190.717 44.2623 191.238C43.1597 191.752 41.8982 192.009 40.4778 192.009Z" fill="#1A1523"/>
</g>
</g>
<g filter="url(#filter4_dd_9301_2494)">
<g clip-path="url(#clip8_9301_2494)">
<rect x="21.4286" y="276.773" width="38.0952" height="38.0952" rx="19.0476" fill="url(#paint10_linear_9301_2494)"/>
<path d="M32.6678 301.952V299.416L41.6471 285.232H43.6459V288.965H42.3776L35.9551 299.132V299.294H48.2624V301.952H32.6678ZM42.5197 306.011V301.181L42.54 300.025V285.232H45.5128V306.011H42.5197Z" fill="#1A1523"/>
</g>
</g>
</g>
<defs>
<filter id="filter0_ddd_9301_2494" x="-7.55099" y="14.6638" width="715.102" height="405.871" filterUnits="userSpaceOnUse" color-interpolation-filters="sRGB">
<feFlood flood-opacity="0" result="BackgroundImageFix"/>
<feColorMatrix in="SourceAlpha" type="matrix" values="0 0 0 0 0 0 0 0 0 0 0 0 0 0 0 0 0 0 127 0" result="hardAlpha"/>
<feOffset dy="4.96599"/>
<feGaussianBlur stdDeviation="4.96599"/>
<feComposite in2="hardAlpha" operator="out"/>
<feColorMatrix type="matrix" values="0 0 0 0 0 0 0 0 0 0 0 0 0 0 0 0 0 0 0.32 0"/>
<feBlend mode="normal" in2="BackgroundImageFix" result="effect1_dropShadow_9301_2494"/>
<feColorMatrix in="SourceAlpha" type="matrix" values="0 0 0 0 0 0 0 0 0 0 0 0 0 0 0 0 0 0 127 0" result="hardAlpha"/>
<feMorphology radius="2.48299" operator="erode" in="SourceAlpha" result="effect2_dropShadow_9301_2494"/>
<feOffset dy="2.48299"/>
<feGaussianBlur stdDeviation="2.48299"/>
<feComposite in2="hardAlpha" operator="out"/>
<feColorMatrix type="matrix" values="0 0 0 0 1 0 0 0 0 1 0 0 0 0 1 0 0 0 0.16 0"/>
<feBlend mode="normal" in2="effect1_dropShadow_9301_2494" result="effect2_dropShadow_9301_2494"/>
<feColorMatrix in="SourceAlpha" type="matrix" values="0 0 0 0 0 0 0 0 0 0 0 0 0 0 0 0 0 0 127 0" result="hardAlpha"/>
<feMorphology radius="2.48299" operator="dilate" in="SourceAlpha" result="effect3_dropShadow_9301_2494"/>
<feOffset/>
<feComposite in2="hardAlpha" operator="out"/>
<feColorMatrix type="matrix" values="0 0 0 0 1 0 0 0 0 1 0 0 0 0 1 0 0 0 0.1 0"/>
<feBlend mode="normal" in2="effect2_dropShadow_9301_2494" result="effect3_dropShadow_9301_2494"/>
<feBlend mode="normal" in="SourceGraphic" in2="effect3_dropShadow_9301_2494" result="shape"/>
</filter>
<filter id="filter1_dd_9301_2494" x="2.38097" y="29.1536" width="76.1905" height="76.1905" filterUnits="userSpaceOnUse" color-interpolation-filters="sRGB">
<feFlood flood-opacity="0" result="BackgroundImageFix"/>
<feColorMatrix in="SourceAlpha" type="matrix" values="0 0 0 0 0 0 0 0 0 0 0 0 0 0 0 0 0 0 127 0" result="hardAlpha"/>
<feOffset dy="9.52381"/>
<feGaussianBlur stdDeviation="9.52381"/>
<feComposite in2="hardAlpha" operator="out"/>
<feColorMatrix type="matrix" values="0 0 0 0 0 0 0 0 0 0 0 0 0 0 0 0 0 0 0.32 0"/>
<feBlend mode="normal" in2="BackgroundImageFix" result="effect1_dropShadow_9301_2494"/>
<feColorMatrix in="SourceAlpha" type="matrix" values="0 0 0 0 0 0 0 0 0 0 0 0 0 0 0 0 0 0 127 0" result="hardAlpha"/>
<feMorphology radius="2.38095" operator="dilate" in="SourceAlpha" result="effect2_dropShadow_9301_2494"/>
<feOffset/>
<feComposite in2="hardAlpha" operator="out"/>
<feColorMatrix type="matrix" values="0 0 0 0 1 0 0 0 0 1 0 0 0 0 1 0 0 0 0.1 0"/>
<feBlend mode="normal" in2="effect1_dropShadow_9301_2494" result="effect2_dropShadow_9301_2494"/>
<feBlend mode="normal" in="SourceGraphic" in2="effect2_dropShadow_9301_2494" result="shape"/>
</filter>
<filter id="filter2_dd_9301_2494" x="459.524" y="29.1536" width="76.1905" height="76.1905" filterUnits="userSpaceOnUse" color-interpolation-filters="sRGB">
<feFlood flood-opacity="0" result="BackgroundImageFix"/>
<feColorMatrix in="SourceAlpha" type="matrix" values="0 0 0 0 0 0 0 0 0 0 0 0 0 0 0 0 0 0 127 0" result="hardAlpha"/>
<feOffset dy="9.52381"/>
<feGaussianBlur stdDeviation="9.52381"/>
<feComposite in2="hardAlpha" operator="out"/>
<feColorMatrix type="matrix" values="0 0 0 0 0 0 0 0 0 0 0 0 0 0 0 0 0 0 0.32 0"/>
<feBlend mode="normal" in2="BackgroundImageFix" result="effect1_dropShadow_9301_2494"/>
<feColorMatrix in="SourceAlpha" type="matrix" values="0 0 0 0 0 0 0 0 0 0 0 0 0 0 0 0 0 0 127 0" result="hardAlpha"/>
<feMorphology radius="2.38095" operator="dilate" in="SourceAlpha" result="effect2_dropShadow_9301_2494"/>
<feOffset/>
<feComposite in2="hardAlpha" operator="out"/>
<feColorMatrix type="matrix" values="0 0 0 0 1 0 0 0 0 1 0 0 0 0 1 0 0 0 0.1 0"/>
<feBlend mode="normal" in2="effect1_dropShadow_9301_2494" result="effect2_dropShadow_9301_2494"/>
<feBlend mode="normal" in="SourceGraphic" in2="effect2_dropShadow_9301_2494" result="shape"/>
</filter>
<filter id="filter3_dd_9301_2494" x="2.38097" y="152.963" width="76.1905" height="76.1905" filterUnits="userSpaceOnUse" color-interpolation-filters="sRGB">
<feFlood flood-opacity="0" result="BackgroundImageFix"/>
<feColorMatrix in="SourceAlpha" type="matrix" values="0 0 0 0 0 0 0 0 0 0 0 0 0 0 0 0 0 0 127 0" result="hardAlpha"/>
<feOffset dy="9.52381"/>
<feGaussianBlur stdDeviation="9.52381"/>
<feComposite in2="hardAlpha" operator="out"/>
<feColorMatrix type="matrix" values="0 0 0 0 0 0 0 0 0 0 0 0 0 0 0 0 0 0 0.32 0"/>
<feBlend mode="normal" in2="BackgroundImageFix" result="effect1_dropShadow_9301_2494"/>
<feColorMatrix in="SourceAlpha" type="matrix" values="0 0 0 0 0 0 0 0 0 0 0 0 0 0 0 0 0 0 127 0" result="hardAlpha"/>
<feMorphology radius="2.38095" operator="dilate" in="SourceAlpha" result="effect2_dropShadow_9301_2494"/>
<feOffset/>
<feComposite in2="hardAlpha" operator="out"/>
<feColorMatrix type="matrix" values="0 0 0 0 1 0 0 0 0 1 0 0 0 0 1 0 0 0 0.1 0"/>
<feBlend mode="normal" in2="effect1_dropShadow_9301_2494" result="effect2_dropShadow_9301_2494"/>
<feBlend mode="normal" in="SourceGraphic" in2="effect2_dropShadow_9301_2494" result="shape"/>
</filter>
<filter id="filter4_dd_9301_2494" x="2.38097" y="267.249" width="76.1905" height="76.1905" filterUnits="userSpaceOnUse" color-interpolation-filters="sRGB">
<feFlood flood-opacity="0" result="BackgroundImageFix"/>
<feColorMatrix in="SourceAlpha" type="matrix" values="0 0 0 0 0 0 0 0 0 0 0 0 0 0 0 0 0 0 127 0" result="hardAlpha"/>
<feOffset dy="9.52381"/>
<feGaussianBlur stdDeviation="9.52381"/>
<feComposite in2="hardAlpha" operator="out"/>
<feColorMatrix type="matrix" values="0 0 0 0 0 0 0 0 0 0 0 0 0 0 0 0 0 0 0.32 0"/>
<feBlend mode="normal" in2="BackgroundImageFix" result="effect1_dropShadow_9301_2494"/>
<feColorMatrix in="SourceAlpha" type="matrix" values="0 0 0 0 0 0 0 0 0 0 0 0 0 0 0 0 0 0 127 0" result="hardAlpha"/>
<feMorphology radius="2.38095" operator="dilate" in="SourceAlpha" result="effect2_dropShadow_9301_2494"/>
<feOffset/>
<feComposite in2="hardAlpha" operator="out"/>
<feColorMatrix type="matrix" values="0 0 0 0 1 0 0 0 0 1 0 0 0 0 1 0 0 0 0.1 0"/>
<feBlend mode="normal" in2="effect1_dropShadow_9301_2494" result="effect2_dropShadow_9301_2494"/>
<feBlend mode="normal" in="SourceGraphic" in2="effect2_dropShadow_9301_2494" result="shape"/>
</filter>
<linearGradient id="paint0_linear_9301_2494" x1="291.74" y1="170.8" x2="291.74" y2="264.176" gradientUnits="userSpaceOnUse">
<stop stop-color="#2E2E32"/>
<stop offset="0.326657" stop-color="#28282C"/>
</linearGradient>
<linearGradient id="paint1_linear_9301_2494" x1="291.74" y1="172.742" x2="291.74" y2="262.234" gradientUnits="userSpaceOnUse">
<stop stop-color="#2E2E32"/>
<stop offset="0.326657" stop-color="#28282C"/>
</linearGradient>
<linearGradient id="paint2_linear_9301_2494" x1="291.74" y1="172.742" x2="291.74" y2="262.234" gradientUnits="userSpaceOnUse">
<stop stop-color="white" stop-opacity="0.12"/>
<stop offset="0.2989" stop-color="white" stop-opacity="0.06"/>
</linearGradient>
<linearGradient id="paint3_linear_9301_2494" x1="627.707" y1="170.8" x2="627.707" y2="264.017" gradientUnits="userSpaceOnUse">
<stop stop-color="#2E2E32"/>
<stop offset="0.326657" stop-color="#28282C"/>
</linearGradient>
<linearGradient id="paint4_linear_9301_2494" x1="627.707" y1="172.742" x2="627.707" y2="262.074" gradientUnits="userSpaceOnUse">
<stop stop-color="#2E2E32"/>
<stop offset="0.326657" stop-color="#28282C"/>
</linearGradient>
<linearGradient id="paint5_linear_9301_2494" x1="627.707" y1="172.742" x2="627.707" y2="262.074" gradientUnits="userSpaceOnUse">
<stop stop-color="white" stop-opacity="0.12"/>
<stop offset="0.2989" stop-color="white" stop-opacity="0.06"/>
</linearGradient>
<linearGradient id="paint6_linear_9301_2494" x1="350" y1="288.957" x2="350" y2="382.333" gradientUnits="userSpaceOnUse">
<stop stop-color="white" stop-opacity="0.12"/>
<stop offset="0.2989" stop-color="white" stop-opacity="0.06"/>
</linearGradient>
<linearGradient id="paint7_linear_9301_2494" x1="40.4762" y1="38.6774" x2="40.4762" y2="76.7726" gradientUnits="userSpaceOnUse">
<stop offset="0.313251" stop-color="white"/>
<stop offset="1" stop-color="#F4F2F4"/>
</linearGradient>
<linearGradient id="paint8_linear_9301_2494" x1="497.619" y1="38.6774" x2="497.619" y2="76.7726" gradientUnits="userSpaceOnUse">
<stop offset="0.313251" stop-color="white"/>
<stop offset="1" stop-color="#F4F2F4"/>
</linearGradient>
<linearGradient id="paint9_linear_9301_2494" x1="40.4762" y1="162.487" x2="40.4762" y2="200.582" gradientUnits="userSpaceOnUse">
<stop offset="0.313251" stop-color="white"/>
<stop offset="1" stop-color="#F4F2F4"/>
</linearGradient>
<linearGradient id="paint10_linear_9301_2494" x1="40.4762" y1="276.773" x2="40.4762" y2="314.868" gradientUnits="userSpaceOnUse">
<stop offset="0.313251" stop-color="white"/>
<stop offset="1" stop-color="#F4F2F4"/>
</linearGradient>
<clipPath id="clip0_9301_2494">
<rect width="700" height="425.579" fill="white" transform="translate(0 0.582153)"/>
</clipPath>
<clipPath id="clip1_9301_2494">
<rect x="2.38098" y="19.6298" width="695.238" height="386.007" rx="31.0721" fill="white"/>
</clipPath>
<clipPath id="clip2_9301_2494">
<rect x="48.9891" y="62.354" width="433.985" height="39" rx="19.5" fill="white"/>
</clipPath>
<clipPath id="clip3_9301_2494">
<rect x="25.6851" y="170.8" width="532.11" height="93.3762" rx="15.536" fill="white"/>
</clipPath>
<clipPath id="clip4_9301_2494">
<rect x="581.099" y="170.8" width="93.2163" height="93.2163" rx="15.536" fill="white"/>
</clipPath>
<clipPath id="clip5_9301_2494">
<rect x="21.4286" y="38.6774" width="38.0952" height="38.0952" rx="19.0476" fill="white"/>
</clipPath>
<clipPath id="clip6_9301_2494">
<rect x="478.571" y="38.6774" width="38.0952" height="38.0952" rx="19.0476" fill="white"/>
</clipPath>
<clipPath id="clip7_9301_2494">
<rect x="21.4286" y="162.487" width="38.0952" height="38.0952" rx="19.0476" fill="white"/>
</clipPath>
<clipPath id="clip8_9301_2494">
<rect x="21.4286" y="276.773" width="38.0952" height="38.0952" rx="19.0476" fill="white"/>
</clipPath>
</defs>
</svg>
