<svg width="696" height="387" viewBox="0 0 696 387" fill="none" xmlns="http://www.w3.org/2000/svg">
<g clip-path="url(#clip0_9301_2494)">
<g clip-path="url(#clip1_9301_2494)">
<rect x="0.380981" y="0.629761" width="695.238" height="386.007" rx="31.0721" fill="#1C1C1F"/>
<g clip-path="url(#clip2_9301_2494)">
<path d="M49.1615 72.354V52.5808H56.2095C57.7414 52.5808 59.0127 52.8447 60.0232 53.3725C61.0402 53.9003 61.7997 54.6309 62.3017 55.5642C62.8038 56.491 63.0548 57.5627 63.0548 58.7792C63.0548 59.9893 62.8006 61.0546 62.2921 61.975C61.79 62.889 61.0305 63.6002 60.0135 64.1087C59.003 64.6172 57.7318 64.8715 56.1999 64.8715H50.8607V62.3033H55.9295C56.895 62.3033 57.6803 62.1649 58.2853 61.8881C58.8968 61.6113 59.3441 61.209 59.6273 60.6812C59.9106 60.1534 60.0522 59.5194 60.0522 58.7792C60.0522 58.0326 59.9073 57.3857 59.6177 56.8386C59.3345 56.2915 58.8871 55.8731 58.2757 55.5835C57.6706 55.2874 56.8757 55.1394 55.8909 55.1394H52.1448V72.354H49.1615ZM58.9225 63.4329L63.8079 72.354H60.4094L55.6206 63.4329H58.9225ZM72.659 72.6533C71.1979 72.6533 69.9395 72.3411 68.8839 71.7168C67.8348 71.086 67.0238 70.2009 66.4509 69.0617C65.8845 67.916 65.6013 66.5739 65.6013 65.0356C65.6013 63.5166 65.8845 62.1778 66.4509 61.0192C67.0238 59.8606 67.8219 58.9562 68.8453 58.3062C69.8752 57.6561 71.0788 57.331 72.4562 57.331C73.293 57.331 74.104 57.4694 74.8893 57.7462C75.6745 58.0229 76.3793 58.4574 77.0037 59.0496C77.628 59.6417 78.1204 60.4109 78.4809 61.3571C78.8413 62.2968 79.0215 63.4393 79.0215 64.7846V65.808H67.233V63.6453H76.1927C76.1927 62.8858 76.0382 62.2132 75.7292 61.6274C75.4203 61.0353 74.9858 60.5686 74.4258 60.2275C73.8723 59.8863 73.2222 59.7158 72.4756 59.7158C71.6645 59.7158 70.9565 59.9153 70.3515 60.3144C69.7529 60.707 69.2894 61.2219 68.9612 61.8591C68.6394 62.4899 68.4784 63.1754 68.4784 63.9156V65.6052C68.4784 66.5965 68.6522 67.4396 68.9998 68.1348C69.3538 68.8299 69.8462 69.361 70.477 69.7279C71.1078 70.0883 71.8448 70.2685 72.688 70.2685C73.2351 70.2685 73.7339 70.1913 74.1845 70.0368C74.635 69.8759 75.0244 69.6377 75.3527 69.3223C75.681 69.007 75.932 68.6175 76.1058 68.1541L78.8381 68.6465C78.6193 69.4511 78.2266 70.1559 77.6602 70.7609C77.1002 71.3595 76.3954 71.8262 75.5458 72.1609C74.7026 72.4891 73.7403 72.6533 72.659 72.6533ZM93.3373 61.1447L90.7208 61.6081C90.6114 61.2734 90.4376 60.9548 90.1995 60.6523C89.9677 60.3498 89.6523 60.102 89.2533 59.9089C88.8542 59.7158 88.3554 59.6192 87.7568 59.6192C86.9393 59.6192 86.2571 59.8027 85.7099 60.1695C85.1628 60.53 84.8893 60.9966 84.8893 61.5695C84.8893 62.0651 85.0727 62.4642 85.4396 62.7667C85.8065 63.0692 86.3987 63.317 87.2161 63.5101L89.5719 64.0508C90.9364 64.3662 91.9534 64.8521 92.6228 65.5087C93.2922 66.1652 93.6269 67.0181 93.6269 68.0672C93.6269 68.9555 93.3695 69.7472 92.8545 70.4423C92.3461 71.131 91.6348 71.6717 90.7208 72.0643C89.8133 72.457 88.7609 72.6533 87.5637 72.6533C85.903 72.6533 84.5481 72.2993 83.499 71.5912C82.4498 70.8768 81.8062 69.863 81.568 68.55L84.3583 68.1251C84.5321 68.8525 84.8893 69.4028 85.43 69.7761C85.9706 70.143 86.6754 70.3265 87.5444 70.3265C88.4905 70.3265 89.2468 70.1301 89.8133 69.7375C90.3797 69.3384 90.6629 68.8525 90.6629 68.2796C90.6629 67.8162 90.4891 67.4268 90.1415 67.1114C89.8004 66.796 89.2758 66.5578 88.5678 66.3969L86.0575 65.8466C84.6737 65.5312 83.6502 65.0292 82.9873 64.3404C82.3307 63.6517 82.0025 62.7796 82.0025 61.724C82.0025 60.8486 82.2471 60.0826 82.7363 59.4261C83.2254 58.7696 83.9013 58.2579 84.7638 57.891C85.6263 57.5177 86.6143 57.331 87.7278 57.331C89.3305 57.331 90.5921 57.6786 91.5125 58.3737C92.4329 59.0624 93.0412 59.9861 93.3373 61.1447ZM96.801 77.9152V57.5241H99.6202V59.9282H99.8616C100.029 59.6192 100.27 59.262 100.586 58.8565C100.901 58.451 101.339 58.097 101.899 57.7944C102.459 57.4855 103.199 57.331 104.119 57.331C105.317 57.331 106.385 57.6335 107.325 58.2386C108.265 58.8436 109.001 59.7158 109.536 60.855C110.076 61.9943 110.347 63.3653 110.347 64.968C110.347 66.5707 110.08 67.9449 109.545 69.0906C109.011 70.2299 108.277 71.1085 107.344 71.7264C106.411 72.3379 105.346 72.6436 104.148 72.6436C103.247 72.6436 102.51 72.4924 101.937 72.1898C101.371 71.8873 100.927 71.5333 100.605 71.1278C100.283 70.7223 100.035 70.3619 99.8616 70.0465H99.6878V77.9152H96.801ZM99.6298 64.939C99.6298 65.9818 99.7811 66.8958 100.084 67.681C100.386 68.4663 100.824 69.081 101.397 69.5251C101.97 69.9628 102.671 70.1816 103.501 70.1816C104.364 70.1816 105.085 69.9531 105.664 69.4961C106.243 69.0327 106.681 68.4051 106.977 67.6134C107.28 66.8217 107.431 65.9303 107.431 64.939C107.431 63.9607 107.283 63.0821 106.987 62.3033C106.697 61.5244 106.26 60.9097 105.674 60.4592C105.094 60.0086 104.37 59.7833 103.501 59.7833C102.665 59.7833 101.957 59.999 101.377 60.4302C100.805 60.8615 100.37 61.4633 100.074 62.2357C99.7779 63.0081 99.6298 63.9092 99.6298 64.939ZM119.828 72.6533C118.438 72.6533 117.224 72.3347 116.188 71.6974C115.152 71.0602 114.347 70.1688 113.774 69.023C113.201 67.8773 112.915 66.5385 112.915 65.0066C112.915 63.4683 113.201 62.123 113.774 60.9709C114.347 59.8187 115.152 58.9241 116.188 58.2868C117.224 57.6496 118.438 57.331 119.828 57.331C121.218 57.331 122.431 57.6496 123.468 58.2868C124.504 58.9241 125.309 59.8187 125.881 60.9709C126.454 62.123 126.741 63.4683 126.741 65.0066C126.741 66.5385 126.454 67.8773 125.881 69.023C125.309 70.1688 124.504 71.0602 123.468 71.6974C122.431 72.3347 121.218 72.6533 119.828 72.6533ZM119.837 70.2299C120.739 70.2299 121.485 69.9918 122.077 69.5154C122.67 69.0391 123.107 68.4051 123.39 67.6134C123.68 66.8217 123.825 65.9496 123.825 64.997C123.825 64.0508 123.68 63.1819 123.39 62.3902C123.107 61.592 122.67 60.9516 122.077 60.4688C121.485 59.9861 120.739 59.7447 119.837 59.7447C118.93 59.7447 118.177 59.9861 117.578 60.4688C116.986 60.9516 116.545 61.592 116.256 62.3902C115.972 63.1819 115.831 64.0508 115.831 64.997C115.831 65.9496 115.972 66.8217 116.256 67.6134C116.545 68.4051 116.986 69.0391 117.578 69.5154C118.177 69.9918 118.93 70.2299 119.837 70.2299ZM132.85 63.5487V72.354H129.963V57.5241H132.734V59.9378H132.917C133.259 59.1526 133.793 58.5218 134.52 58.0455C135.254 57.5692 136.178 57.331 137.291 57.331C138.302 57.331 139.187 57.5434 139.946 57.9682C140.706 58.3866 141.295 59.011 141.713 59.8413C142.131 60.6716 142.341 61.6982 142.341 62.9212V72.354H139.454V63.2688C139.454 62.1938 139.174 61.3539 138.614 60.7488C138.054 60.1374 137.285 59.8316 136.306 59.8316C135.637 59.8316 135.041 59.9764 134.52 60.2661C134.005 60.5557 133.596 60.9805 133.294 61.5405C132.998 62.0941 132.85 62.7635 132.85 63.5487ZM157.325 61.1447L154.708 61.6081C154.599 61.2734 154.425 60.9548 154.187 60.6523C153.955 60.3498 153.64 60.102 153.241 59.9089C152.842 59.7158 152.343 59.6192 151.744 59.6192C150.927 59.6192 150.245 59.8027 149.698 60.1695C149.15 60.53 148.877 60.9966 148.877 61.5695C148.877 62.0651 149.06 62.4642 149.427 62.7667C149.794 63.0692 150.386 63.317 151.204 63.5101L153.559 64.0508C154.924 64.3662 155.941 64.8521 156.61 65.5087C157.28 66.1652 157.615 67.0181 157.615 68.0672C157.615 68.9555 157.357 69.7472 156.842 70.4423C156.334 71.131 155.622 71.6717 154.708 72.0643C153.801 72.457 152.748 72.6533 151.551 72.6533C149.891 72.6533 148.536 72.2993 147.487 71.5912C146.437 70.8768 145.794 69.863 145.556 68.55L148.346 68.1251C148.52 68.8525 148.877 69.4028 149.418 69.7761C149.958 70.143 150.663 70.3265 151.532 70.3265C152.478 70.3265 153.234 70.1301 153.801 69.7375C154.367 69.3384 154.65 68.8525 154.65 68.2796C154.65 67.8162 154.477 67.4268 154.129 67.1114C153.788 66.796 153.263 66.5578 152.555 66.3969L150.045 65.8466C148.661 65.5312 147.638 65.0292 146.975 64.3404C146.318 63.6517 145.99 62.7796 145.99 61.724C145.99 60.8486 146.235 60.0826 146.724 59.4261C147.213 58.7696 147.889 58.2579 148.751 57.891C149.614 57.5177 150.602 57.331 151.715 57.331C153.318 57.331 154.58 57.6786 155.5 58.3737C156.421 59.0624 157.029 59.9861 157.325 61.1447ZM167.18 72.6533C165.719 72.6533 164.461 72.3411 163.405 71.7168C162.356 71.086 161.545 70.2009 160.972 69.0617C160.406 67.916 160.122 66.5739 160.122 65.0356C160.122 63.5166 160.406 62.1778 160.972 61.0192C161.545 59.8606 162.343 58.9562 163.366 58.3062C164.396 57.6561 165.6 57.331 166.977 57.331C167.814 57.331 168.625 57.4694 169.41 57.7462C170.196 58.0229 170.9 58.4574 171.525 59.0496C172.149 59.6417 172.641 60.4109 173.002 61.3571C173.362 62.2968 173.543 63.4393 173.543 64.7846V65.808H161.754V63.6453H170.714C170.714 62.8858 170.559 62.2132 170.25 61.6274C169.941 61.0353 169.507 60.5686 168.947 60.2275C168.393 59.8863 167.743 59.7158 166.997 59.7158C166.186 59.7158 165.478 59.9153 164.873 60.3144C164.274 60.707 163.811 61.2219 163.482 61.8591C163.16 62.4899 163 63.1754 163 63.9156V65.6052C163 66.5965 163.173 67.4396 163.521 68.1348C163.875 68.8299 164.367 69.361 164.998 69.7279C165.629 70.0883 166.366 70.2685 167.209 70.2685C167.756 70.2685 168.255 70.1913 168.706 70.0368C169.156 69.8759 169.546 69.6377 169.874 69.3223C170.202 69.007 170.453 68.6175 170.627 68.1541L173.359 68.6465C173.14 69.4511 172.748 70.1559 172.181 70.7609C171.621 71.3595 170.916 71.8262 170.067 72.1609C169.224 72.4891 168.261 72.6533 167.18 72.6533ZM190.863 57.5241V59.8413H182.763V57.5241H190.863ZM184.935 53.9711H187.822V67.9996C187.822 68.5596 187.906 68.9812 188.073 69.2644C188.241 69.5412 188.456 69.7311 188.72 69.8341C188.99 69.9306 189.283 69.9789 189.599 69.9789C189.83 69.9789 190.033 69.9628 190.207 69.9306C190.381 69.8984 190.516 69.8727 190.612 69.8534L191.134 72.2381C190.966 72.3025 190.728 72.3668 190.419 72.4312C190.11 72.502 189.724 72.5406 189.261 72.5471C188.501 72.5599 187.793 72.4248 187.137 72.1416C186.48 71.8584 185.949 71.4207 185.544 70.8285C185.138 70.2363 184.935 69.4929 184.935 68.5982V53.9711ZM194.057 72.354V57.5241H196.944V72.354H194.057ZM195.515 55.2359C195.013 55.2359 194.581 55.0686 194.221 54.7339C193.867 54.3927 193.69 53.9872 193.69 53.5173C193.69 53.041 193.867 52.6355 194.221 52.3008C194.581 51.9597 195.013 51.7891 195.515 51.7891C196.017 51.7891 196.445 51.9597 196.799 52.3008C197.159 52.6355 197.339 53.041 197.339 53.5173C197.339 53.9872 197.159 54.3927 196.799 54.7339C196.445 55.0686 196.017 55.2359 195.515 55.2359ZM200.827 72.354V57.5241H203.598V59.9378H203.782C204.091 59.1204 204.596 58.4832 205.297 58.0262C205.999 57.5627 206.839 57.331 207.817 57.331C208.809 57.331 209.639 57.5627 210.308 58.0262C210.984 58.4896 211.483 59.1268 211.805 59.9378H211.959C212.313 59.1461 212.877 58.5153 213.649 58.0455C214.421 57.5692 215.342 57.331 216.41 57.331C217.755 57.331 218.853 57.7526 219.703 58.5958C220.559 59.439 220.987 60.7102 220.987 62.4095V72.354H218.1V62.6798C218.1 61.6757 217.826 60.9484 217.279 60.4978C216.732 60.0472 216.079 59.822 215.319 59.822C214.379 59.822 213.649 60.1116 213.128 60.6909C212.606 61.2638 212.346 62.0007 212.346 62.9019V72.354H209.468V62.4964C209.468 61.6918 209.217 61.0449 208.715 60.5557C208.213 60.0666 207.56 59.822 206.755 59.822C206.208 59.822 205.703 59.9668 205.24 60.2564C204.783 60.5396 204.412 60.9355 204.129 61.444C203.852 61.9525 203.714 62.5414 203.714 63.2108V72.354H200.827ZM231.247 72.6533C229.786 72.6533 228.528 72.3411 227.472 71.7168C226.423 71.086 225.612 70.2009 225.039 69.0617C224.473 67.916 224.19 66.5739 224.19 65.0356C224.19 63.5166 224.473 62.1778 225.039 61.0192C225.612 59.8606 226.41 58.9562 227.434 58.3062C228.463 57.6561 229.667 57.331 231.045 57.331C231.881 57.331 232.692 57.4694 233.478 57.7462C234.263 58.0229 234.968 58.4574 235.592 59.0496C236.216 59.6417 236.709 60.4109 237.069 61.3571C237.43 62.2968 237.61 63.4393 237.61 64.7846V65.808H225.821V63.6453H234.781C234.781 62.8858 234.626 62.2132 234.318 61.6274C234.009 61.0353 233.574 60.5686 233.014 60.2275C232.461 59.8863 231.81 59.7158 231.064 59.7158C230.253 59.7158 229.545 59.9153 228.94 60.3144C228.341 60.707 227.878 61.2219 227.549 61.8591C227.228 62.4899 227.067 63.1754 227.067 63.9156V65.6052C227.067 66.5965 227.241 67.4396 227.588 68.1348C227.942 68.8299 228.435 69.361 229.065 69.7279C229.696 70.0883 230.433 70.2685 231.276 70.2685C231.823 70.2685 232.322 70.1913 232.773 70.0368C233.223 69.8759 233.613 69.6377 233.941 69.3223C234.269 69.007 234.52 68.6175 234.694 68.1541L237.426 68.6465C237.208 69.4511 236.815 70.1559 236.249 70.7609C235.689 71.3595 234.984 71.8262 234.134 72.1609C233.291 72.4891 232.329 72.6533 231.247 72.6533ZM242.715 72.5374C242.187 72.5374 241.733 72.3508 241.354 71.9774C240.974 71.5977 240.784 71.1407 240.784 70.6064C240.784 70.0786 240.974 69.6281 241.354 69.2548C241.733 68.875 242.187 68.6851 242.715 68.6851C243.243 68.6851 243.696 68.875 244.076 69.2548C244.456 69.6281 244.646 70.0786 244.646 70.6064C244.646 70.9605 244.556 71.2855 244.375 71.5816C244.202 71.8712 243.97 72.1029 243.68 72.2767C243.391 72.4505 243.069 72.5374 242.715 72.5374ZM242.715 61.7433C242.187 61.7433 241.733 61.5534 241.354 61.1736C240.974 60.7939 240.784 60.3401 240.784 59.8123C240.784 59.2845 240.974 58.834 241.354 58.4606C241.733 58.0809 242.187 57.891 242.715 57.891C243.243 57.891 243.696 58.0809 244.076 58.4606C244.456 58.834 244.646 59.2845 244.646 59.8123C244.646 60.1663 244.556 60.4914 244.375 60.7875C244.202 61.0771 243.97 61.3088 243.68 61.4826C243.391 61.6564 243.069 61.7433 242.715 61.7433Z" fill="#7E7D86"/>
<path d="M263.34 72.6243C261.957 72.6243 260.734 72.3862 259.672 71.9098C258.616 71.4335 257.789 70.777 257.19 69.9403C256.592 69.1035 256.296 68.1509 256.302 67.0824C256.296 66.2457 256.466 65.4765 256.814 64.7749C257.168 64.0669 257.647 63.4779 258.252 63.0081C258.857 62.5318 259.533 62.2292 260.28 62.1005V61.9847C259.295 61.7465 258.507 61.2187 257.914 60.4013C257.322 59.5838 257.029 58.6441 257.036 57.582C257.029 56.5715 257.296 55.6704 257.837 54.8787C258.384 54.0805 259.134 53.453 260.087 52.996C261.039 52.539 262.124 52.3105 263.34 52.3105C264.544 52.3105 265.619 52.5422 266.565 53.0056C267.518 53.4626 268.268 54.0902 268.815 54.8883C269.362 55.68 269.639 56.5779 269.645 57.582C269.639 58.6441 269.336 59.5838 268.737 60.4013C268.139 61.2187 267.36 61.7465 266.401 61.9847V62.1005C267.141 62.2292 267.807 62.5318 268.4 63.0081C268.998 63.4779 269.474 64.0669 269.828 64.7749C270.189 65.4765 270.372 66.2457 270.379 67.0824C270.372 68.1509 270.07 69.1035 269.471 69.9403C268.873 70.777 268.042 71.4335 266.98 71.9098C265.925 72.3862 264.711 72.6243 263.34 72.6243ZM263.34 70.1816C264.158 70.1816 264.866 70.0465 265.464 69.7761C266.063 69.4994 266.526 69.1164 266.855 68.6272C267.183 68.1316 267.35 67.5523 267.357 66.8893C267.35 66.2006 267.17 65.5924 266.816 65.0646C266.469 64.5368 265.995 64.1216 265.397 63.8191C264.798 63.5166 264.113 63.3653 263.34 63.3653C262.562 63.3653 261.87 63.5166 261.265 63.8191C260.66 64.1216 260.183 64.5368 259.836 65.0646C259.488 65.5924 259.318 66.2006 259.324 66.8893C259.318 67.5523 259.475 68.1316 259.797 68.6272C260.125 69.1164 260.592 69.4994 261.197 69.7761C261.802 70.0465 262.516 70.1816 263.34 70.1816ZM263.34 60.9805C263.997 60.9805 264.579 60.8486 265.088 60.5847C265.596 60.3208 265.995 59.9539 266.285 59.484C266.581 59.0142 266.732 58.4638 266.739 57.8331C266.732 57.2152 266.584 56.6745 266.295 56.211C266.012 55.7476 265.616 55.3904 265.107 55.1394C264.599 54.8819 264.01 54.7532 263.34 54.7532C262.658 54.7532 262.059 54.8819 261.545 55.1394C261.036 55.3904 260.64 55.7476 260.357 56.211C260.074 56.6745 259.935 57.2152 259.942 57.8331C259.935 58.4638 260.077 59.0142 260.367 59.484C260.656 59.9539 261.055 60.3208 261.564 60.5847C262.079 60.8486 262.671 60.9805 263.34 60.9805ZM280.722 72.6243C279.396 72.6243 278.211 72.3958 277.169 71.9388C276.132 71.4818 275.312 70.8478 274.707 70.0368C274.108 69.2194 273.786 68.2732 273.741 67.1983H276.773C276.811 67.784 277.008 68.2925 277.362 68.7237C277.722 69.1486 278.192 69.4768 278.771 69.7085C279.351 69.9403 279.994 70.0561 280.702 70.0561C281.481 70.0561 282.17 69.9209 282.768 69.6506C283.373 69.3803 283.846 69.0037 284.188 68.521C284.529 68.0318 284.699 67.4686 284.699 66.8314C284.699 66.1684 284.529 65.5859 284.188 65.0839C283.853 64.5754 283.361 64.1763 282.71 63.8867C282.067 63.597 281.288 63.4522 280.374 63.4522H278.704V61.0192H280.374C281.108 61.0192 281.751 60.8872 282.305 60.6233C282.865 60.3594 283.303 59.9925 283.618 59.5227C283.933 59.0464 284.091 58.4896 284.091 57.8524C284.091 57.2409 283.953 56.7099 283.676 56.2593C283.406 55.8023 283.019 55.4451 282.517 55.1876C282.022 54.9302 281.436 54.8014 280.76 54.8014C280.116 54.8014 279.515 54.9205 278.955 55.1587C278.401 55.3904 277.951 55.7251 277.603 56.1628C277.255 56.594 277.069 57.1122 277.043 57.7172H274.156C274.188 56.6487 274.504 55.709 275.102 54.898C275.707 54.087 276.506 53.453 277.497 52.996C278.488 52.539 279.589 52.3105 280.799 52.3105C282.067 52.3105 283.161 52.5583 284.081 53.0539C285.008 53.5431 285.723 54.1964 286.225 55.0138C286.733 55.8313 286.984 56.726 286.978 57.6979C286.984 58.805 286.675 59.7447 286.051 60.5171C285.433 61.2895 284.609 61.8076 283.579 62.0715V62.226C284.892 62.4256 285.909 62.9469 286.63 63.7901C287.358 64.6333 287.718 65.6792 287.712 66.9279C287.718 68.0157 287.416 68.9909 286.804 69.8534C286.199 70.7159 285.372 71.3949 284.323 71.8905C283.274 72.3797 282.073 72.6243 280.722 72.6243ZM291.4 72.354V57.5241H294.171V59.9378H294.354C294.663 59.1204 295.168 58.4832 295.87 58.0262C296.572 57.5627 297.412 57.331 298.39 57.331C299.381 57.331 300.211 57.5627 300.881 58.0262C301.557 58.4896 302.056 59.1268 302.377 59.9378H302.532C302.886 59.1461 303.449 58.5153 304.221 58.0455C304.994 57.5692 305.914 57.331 306.983 57.331C308.328 57.331 309.425 57.7526 310.275 58.5958C311.131 59.439 311.559 60.7102 311.559 62.4095V72.354H308.672V62.6798C308.672 61.6757 308.399 60.9484 307.852 60.4978C307.305 60.0472 306.651 59.822 305.892 59.822C304.952 59.822 304.221 60.1116 303.7 60.6909C303.179 61.2638 302.918 62.0007 302.918 62.9019V72.354H300.041V62.4964C300.041 61.6918 299.79 61.0449 299.288 60.5557C298.786 60.0666 298.132 59.822 297.328 59.822C296.781 59.822 296.276 59.9668 295.812 60.2564C295.355 60.5396 294.985 60.9355 294.702 61.444C294.425 61.9525 294.287 62.5414 294.287 63.2108V72.354H291.4ZM326.541 61.1447L323.925 61.6081C323.815 61.2734 323.641 60.9548 323.403 60.6523C323.172 60.3498 322.856 60.102 322.457 59.9089C322.058 59.7158 321.559 59.6192 320.961 59.6192C320.143 59.6192 319.461 59.8027 318.914 60.1695C318.367 60.53 318.093 60.9966 318.093 61.5695C318.093 62.0651 318.277 62.4642 318.643 62.7667C319.01 63.0692 319.602 63.317 320.42 63.5101L322.776 64.0508C324.14 64.3662 325.157 64.8521 325.827 65.5087C326.496 66.1652 326.831 67.0181 326.831 68.0672C326.831 68.9555 326.573 69.7472 326.058 70.4423C325.55 71.131 324.839 71.6717 323.925 72.0643C323.017 72.457 321.965 72.6533 320.767 72.6533C319.107 72.6533 317.752 72.2993 316.703 71.5912C315.654 70.8768 315.01 69.863 314.772 68.55L317.562 68.1251C317.736 68.8525 318.093 69.4028 318.634 69.7761C319.174 70.143 319.879 70.3265 320.748 70.3265C321.694 70.3265 322.451 70.1301 323.017 69.7375C323.583 69.3384 323.867 68.8525 323.867 68.2796C323.867 67.8162 323.693 67.4268 323.345 67.1114C323.004 66.796 322.48 66.5578 321.772 66.3969L319.261 65.8466C317.877 65.5312 316.854 65.0292 316.191 64.3404C315.535 63.6517 315.206 62.7796 315.206 61.724C315.206 60.8486 315.451 60.0826 315.94 59.4261C316.429 58.7696 317.105 58.2579 317.968 57.891C318.83 57.5177 319.818 57.331 320.932 57.331C322.534 57.331 323.796 57.6786 324.716 58.3737C325.637 59.0624 326.245 59.9861 326.541 61.1447Z" fill="#EDEDEF"/>
</g>
<rect x="505.249" y="40.4409" width="142.362" height="44.826" rx="10.681" fill="#28282C"/>
<path d="M523.195 71.6105C521.943 71.6105 520.864 71.3429 519.96 70.8078C519.06 70.2671 518.365 69.5085 517.874 68.532C517.389 67.5499 517.146 66.3996 517.146 65.081C517.146 63.779 517.389 62.6315 517.874 61.6384C518.365 60.6453 519.049 59.8702 519.926 59.313C520.809 58.7557 521.841 58.4771 523.022 58.4771C523.739 58.4771 524.434 58.5957 525.107 58.833C525.78 59.0702 526.384 59.4426 526.919 59.9502C527.455 60.4577 527.877 61.117 528.186 61.928C528.494 62.7335 528.649 63.7128 528.649 64.8659V65.7431H518.544V63.8894H526.224C526.224 63.2383 526.092 62.6618 525.827 62.1598C525.562 61.6522 525.19 61.2522 524.71 60.9598C524.235 60.6674 523.678 60.5212 523.038 60.5212C522.343 60.5212 521.736 60.6922 521.217 61.0343C520.704 61.3708 520.307 61.8122 520.026 62.3584C519.75 62.899 519.612 63.4866 519.612 64.1211V65.5693C519.612 66.4189 519.761 67.1417 520.059 67.7375C520.362 68.3334 520.784 68.7885 521.325 69.103C521.866 69.4119 522.497 69.5664 523.22 69.5664C523.689 69.5664 524.117 69.5002 524.503 69.3678C524.889 69.2299 525.223 69.0257 525.504 68.7554C525.786 68.4851 526.001 68.1513 526.15 67.7541L528.492 68.1761C528.304 68.8657 527.968 69.4699 527.482 69.9885C527.002 70.5016 526.398 70.9015 525.67 71.1884C524.947 71.4698 524.122 71.6105 523.195 71.6105ZM539.447 66.0824V58.6426H541.929V71.3539H539.496V69.1526H539.364C539.071 69.8312 538.602 70.3967 537.957 70.8491C537.317 71.296 536.52 71.5195 535.565 71.5195C534.749 71.5195 534.026 71.3402 533.397 70.9815C532.774 70.6174 532.283 70.0795 531.924 69.3678C531.571 68.6561 531.394 67.7761 531.394 66.7279V58.6426H533.869V66.43C533.869 67.2961 534.109 67.9858 534.589 68.4989C535.069 69.0119 535.692 69.2685 536.459 69.2685C536.922 69.2685 537.383 69.1526 537.841 68.9209C538.305 68.6892 538.688 68.3389 538.991 67.8699C539.3 67.401 539.452 66.8051 539.447 66.0824ZM552.743 63.1197V65.2631H545.229V63.1197H552.743ZM558.516 63.8066V71.3539H556.041V58.6426H558.416V60.7115H558.574C558.866 60.0384 559.324 59.4978 559.947 59.0895C560.576 58.6813 561.368 58.4771 562.322 58.4771C563.189 58.4771 563.947 58.6592 564.598 59.0233C565.249 59.3819 565.754 59.9171 566.113 60.6288C566.471 61.3405 566.65 62.2204 566.65 63.2687V71.3539H564.176V63.5666C564.176 62.6453 563.936 61.9253 563.456 61.4067C562.976 60.8826 562.317 60.6205 561.478 60.6205C560.904 60.6205 560.394 60.7446 559.947 60.9929C559.506 61.2412 559.156 61.6053 558.896 62.0853C558.642 62.5597 558.516 63.1335 558.516 63.8066ZM575.323 71.6105C574.132 71.6105 573.092 71.3374 572.203 70.7912C571.315 70.245 570.626 69.4809 570.135 68.4989C569.644 67.5168 569.398 66.3693 569.398 65.0562C569.398 63.7376 569.644 62.5846 570.135 61.597C570.626 60.6095 571.315 59.8426 572.203 59.2964C573.092 58.7502 574.132 58.4771 575.323 58.4771C576.515 58.4771 577.555 58.7502 578.443 59.2964C579.331 59.8426 580.021 60.6095 580.512 61.597C581.003 62.5846 581.249 63.7376 581.249 65.0562C581.249 66.3693 581.003 67.5168 580.512 68.4989C580.021 69.4809 579.331 70.245 578.443 70.7912C577.555 71.3374 576.515 71.6105 575.323 71.6105ZM575.332 69.5333C576.104 69.5333 576.744 69.3292 577.252 68.9209C577.759 68.5127 578.134 67.9692 578.377 67.2906C578.625 66.612 578.749 65.8645 578.749 65.0479C578.749 64.2369 578.625 63.4921 578.377 62.8135C578.134 62.1294 577.759 61.5805 577.252 61.1667C576.744 60.7529 576.104 60.546 575.332 60.546C574.554 60.546 573.908 60.7529 573.395 61.1667C572.888 61.5805 572.51 62.1294 572.261 62.8135C572.019 63.4921 571.897 64.2369 571.897 65.0479C571.897 65.8645 572.019 66.612 572.261 67.2906C572.51 67.9692 572.888 68.5127 573.395 68.9209C573.908 69.3292 574.554 69.5333 575.332 69.5333ZM584.011 71.3539V58.6426H586.402V60.6619H586.535C586.766 59.9778 587.175 59.4398 587.759 59.0481C588.35 58.6509 589.017 58.4523 589.762 58.4523C589.917 58.4523 590.099 58.4578 590.308 58.4688C590.524 58.4799 590.692 58.4937 590.813 58.5102V60.877C590.714 60.8495 590.537 60.8191 590.284 60.786C590.03 60.7474 589.776 60.7281 589.522 60.7281C588.937 60.7281 588.416 60.8522 587.958 61.1005C587.506 61.3432 587.147 61.6825 586.882 62.1184C586.617 62.5487 586.485 63.0397 586.485 63.5914V71.3539H584.011ZM599.639 58.6426V60.6288H592.696V58.6426H599.639ZM594.558 55.5972H597.032V67.6217C597.032 68.1016 597.104 68.463 597.247 68.7058C597.391 68.943 597.576 69.1057 597.802 69.194C598.034 69.2768 598.285 69.3181 598.555 69.3181C598.754 69.3181 598.927 69.3044 599.076 69.2768C599.225 69.2492 599.341 69.2271 599.424 69.2106L599.871 71.2546C599.727 71.3098 599.523 71.365 599.258 71.4201C598.994 71.4808 598.663 71.5139 598.265 71.5195C597.614 71.5305 597.007 71.4146 596.445 71.1719C595.882 70.9291 595.427 70.554 595.079 70.0464C594.732 69.5388 594.558 68.9016 594.558 68.1347V55.5972ZM605.124 63.8066V71.3539H602.649V54.4055H605.091V60.7115H605.248C605.546 60.0274 606.001 59.484 606.613 59.0812C607.226 58.6785 608.026 58.4771 609.013 58.4771C609.885 58.4771 610.646 58.6564 611.297 59.015C611.954 59.3736 612.461 59.9088 612.82 60.6205C613.184 61.3267 613.366 62.2094 613.366 63.2687V71.3539H610.892V63.5666C610.892 62.6342 610.652 61.9115 610.172 61.3984C609.692 60.8798 609.024 60.6205 608.169 60.6205C607.584 60.6205 607.06 60.7446 606.597 60.9929C606.139 61.2412 605.777 61.6053 605.513 62.0853C605.253 62.5597 605.124 63.1335 605.124 63.8066ZM624.158 63.1197V65.2631H616.643V63.1197H624.158ZM633.852 54.4055V71.3539H631.287V56.971H631.188L627.133 59.6192V57.1696L631.361 54.4055H633.852Z" fill="#A09FA6"/>
<rect x="505.249" y="40.4409" width="142.362" height="44.826" rx="10.681" stroke="#3E3E44" stroke-width="1.94201"/>
<rect x="0.380981" y="126.554" width="695.238" height="1.94201" fill="#2E2E32"/>
<g clip-path="url(#clip3_9301_2494)">
<rect x="23.6851" y="151.8" width="532.11" height="93.3762" rx="15.536" fill="url(#paint0_linear_9301_2494)"/>
<rect x="24.6561" y="152.771" width="530.168" height="91.4342" rx="14.565" fill="url(#paint1_linear_9301_2494)"/>
<path d="M71.3321 214.141L69.1344 205.933M69.1344 205.933L65.0724 209.533L65.9932 194.208L74.4523 207.02L69.1344 205.933ZM66.4092 182.709V186.351M75.8505 186.619L73.2758 189.194M79.7604 196.061H76.1192M59.5425 202.927L56.9694 205.501M56.6991 196.061H53.0579M59.5425 189.194L56.9694 186.621" stroke="#7E7D86" stroke-width="2.91301" stroke-linecap="round" stroke-linejoin="round"/>
<path d="M112.114 209.988V187.39H115.523V207.053H125.763V209.988H112.114ZM134.32 210.363C133.246 210.363 132.275 210.165 131.407 209.768C130.539 209.363 129.851 208.778 129.343 208.013C128.843 207.248 128.593 206.31 128.593 205.199C128.593 204.243 128.777 203.456 129.145 202.838C129.513 202.22 130.009 201.731 130.634 201.371C131.26 201.01 131.958 200.738 132.731 200.554C133.503 200.37 134.29 200.23 135.092 200.135C136.107 200.017 136.931 199.921 137.564 199.848C138.196 199.767 138.656 199.638 138.943 199.462C139.23 199.285 139.373 198.998 139.373 198.601V198.524C139.373 197.56 139.101 196.814 138.557 196.284C138.02 195.754 137.218 195.489 136.151 195.489C135.041 195.489 134.165 195.736 133.525 196.229C132.893 196.714 132.455 197.255 132.212 197.851L129.112 197.145C129.479 196.115 130.016 195.283 130.723 194.651C131.436 194.011 132.256 193.547 133.183 193.261C134.11 192.966 135.085 192.819 136.107 192.819C136.784 192.819 137.501 192.9 138.259 193.062C139.024 193.216 139.738 193.503 140.4 193.923C141.069 194.342 141.617 194.941 142.044 195.721C142.47 196.494 142.684 197.498 142.684 198.733V209.988H139.462V207.671H139.329C139.116 208.098 138.796 208.517 138.369 208.929C137.943 209.341 137.395 209.683 136.725 209.955C136.056 210.227 135.254 210.363 134.32 210.363ZM135.037 207.715C135.949 207.715 136.729 207.535 137.376 207.175C138.031 206.814 138.527 206.343 138.866 205.762C139.212 205.174 139.384 204.545 139.384 203.875V201.691C139.267 201.808 139.039 201.919 138.7 202.022C138.369 202.117 137.99 202.202 137.564 202.275C137.137 202.342 136.722 202.404 136.317 202.463C135.912 202.515 135.574 202.559 135.302 202.595C134.662 202.676 134.077 202.812 133.547 203.004C133.025 203.195 132.606 203.471 132.289 203.831C131.981 204.184 131.826 204.655 131.826 205.244C131.826 206.06 132.128 206.678 132.731 207.097C133.334 207.509 134.103 207.715 135.037 207.715ZM159.778 197.178L156.788 197.707C156.663 197.325 156.464 196.961 156.192 196.615C155.927 196.269 155.567 195.986 155.111 195.765C154.655 195.545 154.085 195.434 153.401 195.434C152.466 195.434 151.687 195.644 151.061 196.063C150.436 196.475 150.123 197.008 150.123 197.663C150.123 198.23 150.333 198.686 150.752 199.031C151.172 199.377 151.848 199.66 152.783 199.881L155.475 200.499C157.034 200.859 158.197 201.415 158.962 202.165C159.727 202.915 160.109 203.89 160.109 205.089C160.109 206.104 159.815 207.009 159.227 207.804C158.645 208.591 157.833 209.209 156.788 209.657C155.751 210.106 154.548 210.33 153.18 210.33C151.282 210.33 149.734 209.926 148.534 209.117C147.335 208.3 146.6 207.141 146.328 205.641L149.517 205.155C149.715 205.987 150.123 206.616 150.741 207.042C151.359 207.461 152.165 207.671 153.158 207.671C154.239 207.671 155.103 207.447 155.751 206.998C156.398 206.542 156.722 205.987 156.722 205.332C156.722 204.802 156.523 204.357 156.126 203.997C155.736 203.636 155.137 203.364 154.327 203.18L151.459 202.551C149.877 202.191 148.707 201.617 147.95 200.83C147.199 200.043 146.824 199.046 146.824 197.84C146.824 196.839 147.104 195.964 147.663 195.214C148.222 194.463 148.994 193.878 149.98 193.459C150.966 193.033 152.095 192.819 153.367 192.819C155.199 192.819 156.641 193.216 157.693 194.011C158.745 194.798 159.44 195.854 159.778 197.178ZM171.648 193.04V195.688H162.391V193.04H171.648ZM164.873 188.979H168.172V205.012C168.172 205.652 168.268 206.134 168.459 206.457C168.651 206.774 168.897 206.991 169.199 207.108C169.508 207.219 169.842 207.274 170.203 207.274C170.468 207.274 170.699 207.255 170.898 207.219C171.096 207.182 171.251 207.153 171.361 207.13L171.957 209.856C171.766 209.929 171.494 210.003 171.141 210.077C170.788 210.157 170.346 210.202 169.817 210.209C168.949 210.224 168.139 210.069 167.389 209.746C166.639 209.422 166.032 208.922 165.568 208.245C165.105 207.568 164.873 206.719 164.873 205.696V188.979ZM202.555 194.739H199.112C198.98 194.004 198.733 193.356 198.373 192.797C198.012 192.238 197.571 191.764 197.049 191.374C196.526 190.984 195.942 190.69 195.294 190.491C194.654 190.292 193.974 190.193 193.253 190.193C191.951 190.193 190.785 190.52 189.755 191.175C188.733 191.83 187.924 192.79 187.328 194.055C186.739 195.32 186.445 196.865 186.445 198.689C186.445 200.528 186.739 202.08 187.328 203.346C187.924 204.611 188.736 205.567 189.766 206.215C190.796 206.862 191.955 207.186 193.242 207.186C193.956 207.186 194.632 207.09 195.272 206.899C195.92 206.7 196.504 206.41 197.027 206.027C197.549 205.645 197.99 205.177 198.351 204.626C198.719 204.067 198.972 203.427 199.112 202.706L202.555 202.717C202.371 203.828 202.014 204.85 201.484 205.784C200.962 206.711 200.289 207.513 199.465 208.19C198.649 208.859 197.714 209.378 196.663 209.746C195.611 210.113 194.463 210.297 193.22 210.297C191.263 210.297 189.52 209.834 187.99 208.907C186.46 207.973 185.253 206.638 184.371 204.902C183.495 203.166 183.057 201.095 183.057 198.689C183.057 196.277 183.499 194.206 184.382 192.477C185.264 190.741 186.471 189.41 188.001 188.483C189.531 187.549 191.271 187.081 193.22 187.081C194.419 187.081 195.537 187.254 196.574 187.6C197.619 187.938 198.557 188.439 199.388 189.101C200.219 189.755 200.907 190.557 201.451 191.506C201.996 192.448 202.364 193.525 202.555 194.739ZM209.669 187.39V209.988H206.37V187.39H209.669ZM214.108 209.988V193.04H217.407V209.988H214.108ZM215.774 190.425C215.2 190.425 214.707 190.234 214.295 189.851C213.891 189.461 213.688 188.998 213.688 188.461C213.688 187.916 213.891 187.453 214.295 187.07C214.707 186.681 215.2 186.486 215.774 186.486C216.347 186.486 216.837 186.681 217.241 187.07C217.653 187.453 217.859 187.916 217.859 188.461C217.859 188.998 217.653 189.461 217.241 189.851C216.837 190.234 216.347 190.425 215.774 190.425ZM228.984 210.33C227.344 210.33 225.931 209.959 224.747 209.216C223.57 208.466 222.665 207.432 222.033 206.115C221.4 204.799 221.084 203.291 221.084 201.591C221.084 199.87 221.407 198.351 222.055 197.034C222.702 195.71 223.614 194.677 224.791 193.934C225.968 193.191 227.355 192.819 228.951 192.819C230.238 192.819 231.386 193.058 232.394 193.536C233.402 194.007 234.214 194.669 234.832 195.523C235.458 196.376 235.829 197.373 235.947 198.513H232.736C232.559 197.718 232.155 197.034 231.522 196.46C230.897 195.887 230.058 195.6 229.006 195.6C228.087 195.6 227.281 195.843 226.59 196.328C225.906 196.806 225.372 197.49 224.99 198.38C224.607 199.263 224.416 200.308 224.416 201.514C224.416 202.75 224.604 203.817 224.979 204.714C225.354 205.611 225.884 206.307 226.568 206.799C227.259 207.292 228.072 207.539 229.006 207.539C229.632 207.539 230.198 207.425 230.706 207.197C231.221 206.961 231.651 206.627 231.997 206.193C232.35 205.759 232.596 205.236 232.736 204.626H235.947C235.829 205.722 235.472 206.7 234.876 207.561C234.281 208.421 233.483 209.098 232.482 209.591C231.489 210.084 230.323 210.33 228.984 210.33ZM242.509 204.24L242.487 200.212H243.061L249.814 193.04H253.764L246.062 201.205H245.544L242.509 204.24ZM239.475 209.988V187.39H242.774V209.988H239.475ZM250.178 209.988L244.109 201.933L246.382 199.627L254.228 209.988H250.178ZM263.378 210.33C261.708 210.33 260.27 209.974 259.063 209.26C257.864 208.539 256.937 207.528 256.283 206.226C255.635 204.916 255.312 203.383 255.312 201.624C255.312 199.888 255.635 198.358 256.283 197.034C256.937 195.71 257.85 194.677 259.019 193.934C260.196 193.191 261.572 192.819 263.146 192.819C264.102 192.819 265.029 192.977 265.927 193.294C266.824 193.61 267.629 194.106 268.343 194.783C269.057 195.46 269.619 196.339 270.031 197.42C270.443 198.494 270.649 199.8 270.649 201.338V202.507H257.176V200.036H267.416C267.416 199.167 267.24 198.399 266.886 197.729C266.533 197.053 266.037 196.519 265.397 196.129C264.764 195.74 264.021 195.545 263.168 195.545C262.241 195.545 261.432 195.773 260.74 196.229C260.056 196.677 259.527 197.266 259.152 197.994C258.784 198.715 258.6 199.499 258.6 200.344V202.275C258.6 203.408 258.798 204.372 259.196 205.166C259.6 205.961 260.163 206.568 260.884 206.987C261.605 207.399 262.447 207.605 263.411 207.605C264.036 207.605 264.606 207.517 265.121 207.34C265.636 207.156 266.081 206.884 266.456 206.524C266.831 206.163 267.118 205.718 267.317 205.188L270.439 205.751C270.189 206.671 269.741 207.476 269.093 208.168C268.453 208.852 267.648 209.385 266.677 209.768C265.713 210.143 264.613 210.33 263.378 210.33ZM280.654 210.319C279.286 210.319 278.065 209.97 276.991 209.271C275.924 208.565 275.086 207.561 274.475 206.259C273.872 204.949 273.57 203.379 273.57 201.547C273.57 199.716 273.876 198.149 274.486 196.847C275.104 195.545 275.95 194.548 277.024 193.856C278.098 193.165 279.316 192.819 280.676 192.819C281.728 192.819 282.574 192.996 283.214 193.349C283.862 193.695 284.362 194.099 284.715 194.563C285.075 195.026 285.355 195.434 285.553 195.787H285.752V187.39H289.051V209.988H285.829V207.351H285.553C285.355 207.712 285.068 208.124 284.693 208.587C284.325 209.05 283.817 209.455 283.17 209.801C282.523 210.146 281.684 210.319 280.654 210.319ZM281.383 207.506C282.331 207.506 283.133 207.255 283.788 206.755C284.45 206.248 284.95 205.545 285.289 204.648C285.634 203.75 285.807 202.706 285.807 201.514C285.807 200.337 285.638 199.307 285.3 198.425C284.961 197.542 284.465 196.854 283.81 196.361C283.155 195.868 282.346 195.622 281.383 195.622C280.389 195.622 279.562 195.879 278.9 196.394C278.238 196.909 277.738 197.612 277.399 198.502C277.068 199.392 276.903 200.396 276.903 201.514C276.903 202.647 277.072 203.666 277.41 204.571C277.749 205.475 278.249 206.193 278.911 206.722C279.58 207.244 280.404 207.506 281.383 207.506ZM295.934 210.198C295.331 210.198 294.812 209.985 294.378 209.558C293.944 209.124 293.727 208.602 293.727 207.991C293.727 207.388 293.944 206.873 294.378 206.446C294.812 206.012 295.331 205.795 295.934 205.795C296.537 205.795 297.056 206.012 297.49 206.446C297.924 206.873 298.141 207.388 298.141 207.991C298.141 208.396 298.038 208.767 297.832 209.106C297.633 209.437 297.368 209.701 297.037 209.9C296.706 210.099 296.338 210.198 295.934 210.198ZM295.934 197.862C295.331 197.862 294.812 197.645 294.378 197.211C293.944 196.777 293.727 196.258 293.727 195.655C293.727 195.052 293.944 194.537 294.378 194.11C294.812 193.676 295.331 193.459 295.934 193.459C296.537 193.459 297.056 193.676 297.49 194.11C297.924 194.537 298.141 195.052 298.141 195.655C298.141 196.06 298.038 196.431 297.832 196.769C297.633 197.1 297.368 197.365 297.037 197.564C296.706 197.762 296.338 197.862 295.934 197.862Z" fill="#7E7D86"/>
<path d="M309.933 190.325V187.39H327.422V190.325H320.372V209.988H316.973V190.325H309.933ZM339.157 197.255V200.124H329.138V197.255H339.157ZM356.144 193.327C356.027 192.282 355.541 191.473 354.688 190.899C353.834 190.318 352.76 190.028 351.466 190.028C350.539 190.028 349.737 190.175 349.06 190.469C348.384 190.756 347.858 191.153 347.482 191.661C347.115 192.161 346.931 192.731 346.931 193.371C346.931 193.908 347.056 194.371 347.306 194.761C347.563 195.151 347.898 195.478 348.31 195.743C348.729 196.001 349.178 196.218 349.656 196.394C350.134 196.563 350.594 196.703 351.035 196.814L353.242 197.387C353.963 197.564 354.702 197.803 355.46 198.105C356.218 198.406 356.92 198.803 357.568 199.296C358.215 199.789 358.737 200.4 359.135 201.128C359.539 201.856 359.741 202.728 359.741 203.743C359.741 205.023 359.41 206.159 358.748 207.153C358.094 208.146 357.141 208.929 355.89 209.503C354.647 210.077 353.143 210.363 351.378 210.363C349.686 210.363 348.222 210.095 346.986 209.558C345.75 209.021 344.783 208.26 344.084 207.274C343.385 206.281 342.999 205.104 342.925 203.743H346.346C346.412 204.559 346.677 205.24 347.14 205.784C347.611 206.321 348.211 206.722 348.939 206.987C349.675 207.244 350.48 207.373 351.355 207.373C352.319 207.373 353.176 207.222 353.926 206.921C354.684 206.612 355.28 206.185 355.714 205.641C356.148 205.089 356.365 204.445 356.365 203.71C356.365 203.04 356.174 202.492 355.791 202.066C355.416 201.639 354.905 201.286 354.257 201.007C353.617 200.727 352.893 200.481 352.084 200.267L349.413 199.539C347.604 199.046 346.169 198.322 345.11 197.365C344.058 196.409 343.532 195.144 343.532 193.57C343.532 192.267 343.885 191.131 344.592 190.16C345.298 189.189 346.254 188.435 347.46 187.898C348.667 187.354 350.028 187.081 351.543 187.081C353.073 187.081 354.423 187.35 355.593 187.887C356.77 188.424 357.696 189.163 358.373 190.105C359.05 191.039 359.403 192.113 359.432 193.327H356.144ZM366.85 199.925V209.988H363.551V187.39H366.806V195.798H367.016C367.413 194.886 368.02 194.162 368.836 193.625C369.653 193.088 370.719 192.819 372.036 192.819C373.198 192.819 374.214 193.058 375.082 193.536C375.957 194.015 376.634 194.728 377.112 195.677C377.597 196.619 377.84 197.796 377.84 199.208V209.988H374.541V199.605C374.541 198.362 374.221 197.398 373.581 196.714C372.941 196.023 372.051 195.677 370.911 195.677C370.131 195.677 369.432 195.843 368.814 196.174C368.204 196.505 367.722 196.99 367.369 197.63C367.023 198.263 366.85 199.028 366.85 199.925ZM382.243 209.988V193.04H385.542V209.988H382.243ZM383.909 190.425C383.335 190.425 382.842 190.234 382.43 189.851C382.026 189.461 381.823 188.998 381.823 188.461C381.823 187.916 382.026 187.453 382.43 187.07C382.842 186.681 383.335 186.486 383.909 186.486C384.483 186.486 384.972 186.681 385.376 187.07C385.788 187.453 385.994 187.916 385.994 188.461C385.994 188.998 385.788 189.461 385.376 189.851C384.972 190.234 384.483 190.425 383.909 190.425ZM389.98 209.988V193.04H393.169V195.732H393.346C393.655 194.82 394.199 194.103 394.979 193.581C395.766 193.051 396.656 192.786 397.649 192.786C397.855 192.786 398.098 192.793 398.377 192.808C398.664 192.823 398.889 192.841 399.05 192.863V196.019C398.918 195.982 398.683 195.942 398.344 195.898C398.006 195.846 397.667 195.82 397.329 195.82C396.549 195.82 395.854 195.986 395.244 196.317C394.64 196.641 394.162 197.093 393.809 197.674C393.456 198.248 393.28 198.903 393.28 199.638V209.988H389.98ZM410.818 193.04V195.688H401.561V193.04H410.818ZM404.043 188.979H407.343V205.012C407.343 205.652 407.438 206.134 407.629 206.457C407.821 206.774 408.067 206.991 408.369 207.108C408.678 207.219 409.012 207.274 409.373 207.274C409.638 207.274 409.869 207.255 410.068 207.219C410.267 207.182 410.421 207.153 410.531 207.13L411.127 209.856C410.936 209.929 410.664 210.003 410.311 210.077C409.958 210.157 409.516 210.202 408.987 210.209C408.119 210.224 407.31 210.069 406.559 209.746C405.809 209.422 405.202 208.922 404.739 208.245C404.275 207.568 404.043 206.719 404.043 205.696V188.979ZM426.895 197.178L423.905 197.707C423.78 197.325 423.581 196.961 423.309 196.615C423.044 196.269 422.684 195.986 422.228 195.765C421.772 195.545 421.201 195.434 420.517 195.434C419.583 195.434 418.803 195.644 418.178 196.063C417.553 196.475 417.24 197.008 417.24 197.663C417.24 198.23 417.45 198.686 417.869 199.031C418.288 199.377 418.965 199.66 419.899 199.881L422.592 200.499C424.151 200.859 425.314 201.415 426.079 202.165C426.844 202.915 427.226 203.89 427.226 205.089C427.226 206.104 426.932 207.009 426.343 207.804C425.762 208.591 424.949 209.209 423.905 209.657C422.868 210.106 421.665 210.33 420.297 210.33C418.399 210.33 416.85 209.926 415.651 209.117C414.452 208.3 413.717 207.141 413.444 205.641L416.633 205.155C416.832 205.987 417.24 206.616 417.858 207.042C418.476 207.461 419.282 207.671 420.275 207.671C421.356 207.671 422.22 207.447 422.868 206.998C423.515 206.542 423.839 205.987 423.839 205.332C423.839 204.802 423.64 204.357 423.243 203.997C422.853 203.636 422.253 203.364 421.444 203.18L418.575 202.551C416.994 202.191 415.824 201.617 415.066 200.83C414.316 200.043 413.941 199.046 413.941 197.84C413.941 196.839 414.221 195.964 414.78 195.214C415.339 194.463 416.111 193.878 417.097 193.459C418.082 193.033 419.212 192.819 420.484 192.819C422.316 192.819 423.758 193.216 424.81 194.011C425.862 194.798 426.557 195.854 426.895 197.178Z" fill="#EDEDEF"/>
<rect x="24.6561" y="152.771" width="530.168" height="91.4342" rx="14.565" stroke="url(#paint2_linear_9301_2494)" stroke-width="1.94201"/>
</g>
<g clip-path="url(#clip4_9301_2494)">
<rect x="579.099" y="151.8" width="93.2163" height="93.2163" rx="15.536" fill="url(#paint3_linear_9301_2494)"/>
<rect x="580.07" y="152.771" width="91.2743" height="91.2743" rx="14.565" fill="url(#paint4_linear_9301_2494)"/>
<path d="M632.217 194.117H640.296V194.115M611.118 210.779V202.7M611.118 202.7H619.196M611.116 202.7L616.264 207.852C617.921 209.509 619.986 210.701 622.25 211.307C624.514 211.914 626.898 211.914 629.162 211.307C631.426 210.7 633.49 209.508 635.147 207.85C636.804 206.193 637.996 204.128 638.602 201.864M612.81 194.953C613.417 192.689 614.608 190.625 616.265 188.967C617.922 187.309 619.987 186.117 622.251 185.51C624.515 184.903 626.898 184.903 629.162 185.51C631.426 186.116 633.491 187.308 635.148 188.966L640.296 194.115M640.296 186.038V194.114" stroke="#7E7D86" stroke-width="2.91301" stroke-linecap="round" stroke-linejoin="round"/>
<rect x="580.07" y="152.771" width="91.2743" height="91.2743" rx="14.565" stroke="url(#paint5_linear_9301_2494)" stroke-width="1.94201"/>
</g>
<rect x="24.6561" y="270.928" width="646.688" height="91.4342" rx="14.565" fill="#232326"/>
<path d="M80.8011 318.819L78.9643 316.983C78.6879 316.706 78.4578 316.386 78.283 316.036L76.5352 312.54C76.4876 312.445 76.4182 312.363 76.3326 312.3C76.2471 312.238 76.1478 312.196 76.043 312.179C75.9383 312.162 75.831 312.17 75.73 312.203C75.629 312.236 75.5372 312.292 75.4622 312.367C75.2934 312.536 75.0825 312.656 74.8515 312.716C74.6204 312.776 74.3776 312.773 74.1481 312.707L72.088 312.119C71.7584 312.027 71.4065 312.055 71.0956 312.198C70.7846 312.341 70.5348 312.59 70.391 312.901C70.2472 313.212 70.2189 313.564 70.311 313.894C70.4031 314.223 70.6097 314.509 70.8937 314.701L71.8436 315.332C72.7985 315.971 72.9344 317.322 72.122 318.135L71.7983 318.458C71.4552 318.802 71.2643 319.264 71.2643 319.747V320.41C71.2643 321.072 71.0863 321.719 70.7464 322.284L68.6183 325.83C68.3149 326.336 67.8857 326.755 67.3723 327.045C66.859 327.336 66.279 327.489 65.6891 327.489C65.2363 327.489 64.802 327.309 64.4818 326.989C64.1616 326.669 63.9817 326.234 63.9817 325.781V323.885C63.9817 322.396 63.0755 321.058 61.6934 320.504L60.6334 320.082C59.8622 319.773 59.2197 319.21 58.8126 318.486C58.4055 317.762 58.2582 316.92 58.3952 316.101L58.4066 316.033C58.4818 315.582 58.641 315.15 58.8759 314.759L59.0215 314.516C59.408 313.873 59.984 313.364 60.6706 313.061C61.3572 312.757 62.1208 312.673 62.857 312.82L64.7634 313.202C65.212 313.292 65.6779 313.209 66.0683 312.971C66.4588 312.732 66.7451 312.355 66.8705 311.916L67.2071 310.734C67.3237 310.326 67.2941 309.89 67.1232 309.501C66.9524 309.113 66.6512 308.796 66.2717 308.606L65.1955 308.069L65.0482 308.216C64.7101 308.554 64.3087 308.822 63.8669 309.005C63.4251 309.188 62.9516 309.283 62.4735 309.283H62.1822C61.7792 309.283 61.394 309.444 61.1108 309.726C60.8513 309.988 60.5047 310.145 60.1367 310.169C59.7687 310.192 59.4049 310.08 59.1141 309.853C58.8233 309.627 58.6258 309.301 58.559 308.939C58.4921 308.576 58.5605 308.201 58.7513 307.886L61.0348 304.078C61.2624 303.699 61.4192 303.283 61.4976 302.848M80.8011 318.819C81.1931 316.322 80.9286 313.767 80.0337 311.403C79.1387 309.039 77.644 306.949 75.6966 305.338C73.7492 303.727 71.4161 302.65 68.9265 302.214C66.437 301.778 63.8768 301.997 61.4976 302.85C59.0771 303.717 56.9294 305.21 55.2728 307.177C53.6162 309.143 52.5098 311.513 52.0659 314.046C51.6221 316.579 51.8566 319.184 52.7457 321.597C53.6349 324.009 55.1468 326.144 57.1281 327.783C59.1093 329.422 61.4891 330.507 64.0257 330.929C66.5622 331.35 69.1651 331.092 71.5698 330.182C73.9746 329.271 76.0954 327.74 77.7168 325.745C79.3382 323.749 80.4023 321.36 80.8011 318.819Z" stroke="#706F78" stroke-width="2.91301" stroke-linecap="round" stroke-linejoin="round"/>
<path d="M118.843 328.145H111.87V305.547H119.152C121.344 305.547 123.22 305.999 124.78 306.904C126.339 307.802 127.535 309.093 128.366 310.777C129.197 312.454 129.613 314.463 129.613 316.802C129.613 319.156 129.193 321.182 128.355 322.882C127.516 324.573 126.295 325.875 124.691 326.788C123.088 327.692 121.138 328.145 118.843 328.145ZM114.606 325.717H118.667C120.535 325.717 122.084 325.357 123.312 324.636C124.541 323.915 125.456 322.889 126.06 321.557C126.663 320.226 126.964 318.641 126.964 316.802C126.964 314.977 126.667 313.407 126.071 312.09C125.475 310.766 124.585 309.751 123.4 309.045C122.216 308.331 120.741 307.974 118.976 307.974H114.606V325.717ZM140.956 328.498C139.323 328.498 137.914 328.137 136.73 327.417C135.553 326.688 134.644 325.673 134.004 324.371C133.372 323.062 133.055 321.539 133.055 319.803C133.055 318.067 133.372 316.537 134.004 315.213C134.644 313.881 135.534 312.844 136.674 312.101C137.822 311.351 139.161 310.976 140.691 310.976C141.574 310.976 142.445 311.123 143.306 311.417C144.167 311.711 144.95 312.189 145.656 312.852C146.362 313.506 146.925 314.374 147.344 315.456C147.764 316.537 147.973 317.868 147.973 319.45V320.553H134.909V318.302H145.325C145.325 317.346 145.134 316.493 144.751 315.742C144.376 314.992 143.839 314.4 143.14 313.966C142.449 313.532 141.632 313.315 140.691 313.315C139.654 313.315 138.756 313.572 137.999 314.087C137.248 314.595 136.671 315.257 136.266 316.074C135.862 316.89 135.659 317.765 135.659 318.7V320.2C135.659 321.48 135.88 322.565 136.321 323.455C136.77 324.338 137.392 325.011 138.186 325.475C138.981 325.931 139.904 326.159 140.956 326.159C141.64 326.159 142.258 326.063 142.809 325.872C143.369 325.673 143.85 325.379 144.255 324.989C144.66 324.592 144.972 324.099 145.193 323.511L147.709 324.217C147.444 325.07 146.999 325.82 146.373 326.468C145.748 327.108 144.976 327.608 144.056 327.968C143.137 328.321 142.103 328.498 140.956 328.498ZM154.539 317.949V328.145H151.935V311.196H154.45V313.845H154.671C155.068 312.984 155.672 312.292 156.481 311.77C157.29 311.241 158.334 310.976 159.614 310.976C160.762 310.976 161.766 311.211 162.627 311.682C163.487 312.145 164.157 312.852 164.635 313.8C165.113 314.742 165.352 315.934 165.352 317.376V328.145H162.748V317.552C162.748 316.221 162.402 315.183 161.711 314.44C161.019 313.69 160.07 313.315 158.864 313.315C158.033 313.315 157.29 313.495 156.635 313.856C155.988 314.216 155.477 314.742 155.101 315.434C154.726 316.125 154.539 316.964 154.539 317.949ZM170.111 328.145V311.196H172.626V313.845H172.847C173.2 312.94 173.77 312.237 174.557 311.737C175.344 311.23 176.29 310.976 177.393 310.976C178.511 310.976 179.442 311.23 180.185 311.737C180.935 312.237 181.52 312.94 181.939 313.845H182.116C182.55 312.969 183.201 312.274 184.069 311.759C184.937 311.237 185.978 310.976 187.191 310.976C188.707 310.976 189.946 311.45 190.91 312.399C191.874 313.341 192.355 314.808 192.355 316.802V328.145H189.751V316.802C189.751 315.551 189.409 314.657 188.725 314.12C188.041 313.583 187.236 313.315 186.309 313.315C185.117 313.315 184.194 313.675 183.539 314.396C182.884 315.11 182.557 316.015 182.557 317.111V328.145H179.909V316.537C179.909 315.573 179.596 314.797 178.971 314.209C178.346 313.613 177.54 313.315 176.555 313.315C175.878 313.315 175.245 313.495 174.657 313.856C174.076 314.216 173.605 314.716 173.244 315.356C172.891 315.989 172.715 316.721 172.715 317.552V328.145H170.111ZM202.104 328.542C201.03 328.542 200.055 328.34 199.18 327.935C198.305 327.523 197.61 326.931 197.095 326.159C196.58 325.379 196.322 324.437 196.322 323.334C196.322 322.363 196.513 321.576 196.896 320.973C197.278 320.362 197.79 319.884 198.43 319.538C199.07 319.192 199.776 318.935 200.548 318.766C201.328 318.589 202.111 318.45 202.899 318.347C203.928 318.214 204.763 318.115 205.403 318.049C206.051 317.975 206.521 317.854 206.816 317.684C207.117 317.515 207.268 317.221 207.268 316.802V316.713C207.268 315.625 206.97 314.779 206.374 314.176C205.786 313.572 204.892 313.271 203.693 313.271C202.45 313.271 201.475 313.543 200.769 314.087C200.063 314.632 199.566 315.213 199.279 315.831L196.808 314.948C197.249 313.918 197.838 313.116 198.573 312.543C199.316 311.961 200.125 311.557 201.001 311.329C201.883 311.093 202.751 310.976 203.605 310.976C204.149 310.976 204.774 311.042 205.481 311.174C206.194 311.299 206.882 311.561 207.544 311.958C208.213 312.355 208.769 312.955 209.21 313.756C209.651 314.558 209.872 315.632 209.872 316.978V328.145H207.268V325.85H207.136C206.959 326.218 206.665 326.611 206.253 327.03C205.841 327.45 205.293 327.806 204.609 328.101C203.925 328.395 203.09 328.542 202.104 328.542ZM202.501 326.203C203.531 326.203 204.399 326.001 205.105 325.596C205.819 325.191 206.356 324.669 206.716 324.029C207.084 323.389 207.268 322.716 207.268 322.01V319.626C207.158 319.759 206.915 319.88 206.54 319.991C206.172 320.094 205.745 320.186 205.26 320.266C204.782 320.34 204.315 320.406 203.858 320.465C203.41 320.517 203.046 320.561 202.766 320.597C202.089 320.686 201.457 320.829 200.868 321.028C200.287 321.219 199.816 321.51 199.456 321.9C199.103 322.282 198.926 322.804 198.926 323.466C198.926 324.371 199.261 325.055 199.93 325.519C200.607 325.975 201.464 326.203 202.501 326.203ZM214.625 328.145V311.196H217.141V313.756H217.317C217.626 312.918 218.185 312.237 218.995 311.715C219.804 311.193 220.716 310.932 221.731 310.932C221.922 310.932 222.161 310.935 222.448 310.943C222.735 310.95 222.952 310.961 223.099 310.976V313.624C223.011 313.602 222.809 313.569 222.492 313.525C222.183 313.473 221.856 313.447 221.51 313.447C220.686 313.447 219.951 313.62 219.304 313.966C218.664 314.304 218.156 314.775 217.781 315.378C217.413 315.974 217.229 316.655 217.229 317.42V328.145H214.625ZM228.614 321.966L228.569 318.744H229.099L236.514 311.196H239.736L231.836 319.185H231.615L228.614 321.966ZM226.186 328.145V305.547H228.79V328.145H226.186ZM236.955 328.145L230.335 319.759L232.189 317.949L240.266 328.145H236.955Z" fill="#EDEDEF"/>
<path d="M621.823 321.905L629.105 329.188L636.388 321.905M621.823 310.253L629.105 302.971L636.388 310.253" stroke="#706F78" stroke-width="2.91301" stroke-linecap="round" stroke-linejoin="round"/>
<rect x="24.6561" y="270.928" width="646.688" height="91.4342" rx="14.565" stroke="url(#paint6_linear_9301_2494)" stroke-width="1.94201"/>
</g>
<g clip-path="url(#clip5_9301_2494)">
<rect x="19.4286" y="19.6774" width="38.0952" height="38.0952" rx="19.0476" fill="url(#paint7_linear_9301_2494)"/>
<path d="M41.4634 28.1363V48.9155H38.3182V31.2816H38.1964L33.2248 34.5283V31.5251L38.4095 28.1363H41.4634Z" fill="#1A1523"/>
</g>
<g clip-path="url(#clip6_9301_2494)">
<rect x="476.571" y="19.6774" width="38.0952" height="38.0952" rx="19.0476" fill="url(#paint8_linear_9301_2494)"/>
<path d="M488.333 48.9155V46.6428L495.364 39.3579C496.115 38.5665 496.734 37.8732 497.221 37.2779C497.715 36.6759 498.083 36.1043 498.327 35.5632C498.57 35.0221 498.692 34.4472 498.692 33.8384C498.692 33.1484 498.53 32.5532 498.205 32.0527C497.88 31.5454 497.437 31.1564 496.876 30.8859C496.314 30.6085 495.682 30.4699 494.979 30.4699C494.234 30.4699 493.585 30.6221 493.03 30.9265C492.476 31.2308 492.05 31.6604 491.752 32.215C491.454 32.7697 491.306 33.419 491.306 34.1631H488.313C488.313 32.8982 488.603 31.7923 489.185 30.8453C489.767 29.8983 490.565 29.1644 491.58 28.6436C492.594 28.116 493.747 27.8522 495.039 27.8522C496.345 27.8522 497.495 28.1126 498.489 28.6334C499.49 29.1475 500.271 29.851 500.833 30.7438C501.394 31.6299 501.675 32.631 501.675 33.7471C501.675 34.5182 501.53 35.2724 501.239 36.0097C500.955 36.7469 500.457 37.5688 499.747 38.4752C499.037 39.3748 498.049 40.4672 496.785 41.7523L492.655 46.0746V46.2268H502.01V48.9155H488.333Z" fill="#1A1523"/>
</g>
<g clip-path="url(#clip7_9301_2494)">
<rect x="19.4286" y="143.487" width="38.0952" height="38.0952" rx="19.0476" fill="url(#paint9_linear_9301_2494)"/>
<path d="M38.4778 173.009C37.0844 173.009 35.8398 172.769 34.744 172.289C33.655 171.809 32.7926 171.142 32.1567 170.29C31.5277 169.431 31.1895 168.437 31.1421 167.307H34.328C34.3686 167.923 34.5749 168.457 34.9469 168.91C35.3257 169.357 35.8195 169.701 36.4282 169.945C37.037 170.189 37.7134 170.31 38.4575 170.31C39.2759 170.31 39.9997 170.168 40.6287 169.884C41.2646 169.6 41.7617 169.204 42.1202 168.697C42.4787 168.183 42.658 167.591 42.658 166.921C42.658 166.225 42.4787 165.613 42.1202 165.085C41.7685 164.551 41.251 164.131 40.5679 163.827C39.8914 163.523 39.073 163.37 38.1125 163.37H36.3572V160.814H38.1125C38.8836 160.814 39.56 160.675 40.1417 160.398C40.7302 160.12 41.1901 159.735 41.5216 159.241C41.853 158.74 42.0187 158.155 42.0187 157.486C42.0187 156.843 41.8733 156.285 41.5825 155.811C41.2984 155.331 40.8925 154.956 40.3649 154.685C39.8441 154.415 39.2286 154.279 38.5183 154.279C37.8419 154.279 37.2095 154.405 36.621 154.655C36.0393 154.898 35.5658 155.25 35.2006 155.71C34.8353 156.163 34.6391 156.708 34.6121 157.344H31.5784C31.6122 156.221 31.9437 155.233 32.5727 154.381C33.2085 153.529 34.0473 152.862 35.089 152.382C36.1306 151.902 37.2873 151.662 38.5589 151.662C39.8914 151.662 41.0413 151.922 42.0086 152.443C42.9826 152.957 43.7334 153.644 44.261 154.503C44.7954 155.362 45.0592 156.302 45.0524 157.323C45.0592 158.487 44.7345 159.474 44.0784 160.286C43.4291 161.098 42.5633 161.642 41.481 161.919V162.082C42.8609 162.291 43.9296 162.839 44.6872 163.725C45.4515 164.612 45.8303 165.711 45.8235 167.023C45.8303 168.166 45.5124 169.191 44.8698 170.097C44.234 171.004 43.3648 171.717 42.2623 172.238C41.1597 172.752 39.8982 173.009 38.4778 173.009Z" fill="#1A1523"/>
</g>
<g clip-path="url(#clip8_9301_2494)">
<rect x="19.4286" y="257.773" width="38.0952" height="38.0952" rx="19.0476" fill="url(#paint10_linear_9301_2494)"/>
<path d="M30.6678 282.952V280.416L39.6471 266.232H41.6459V269.965H40.3776L33.9551 280.132V280.294H46.2624V282.952H30.6678ZM40.5197 287.011V282.181L40.54 281.025V266.232H43.5128V287.011H40.5197Z" fill="#1A1523"/>
</g>
</g>
<defs>
<linearGradient id="paint0_linear_9301_2494" x1="289.74" y1="151.8" x2="289.74" y2="245.176" gradientUnits="userSpaceOnUse">
<stop stop-color="#2E2E32"/>
<stop offset="0.326657" stop-color="#28282C"/>
</linearGradient>
<linearGradient id="paint1_linear_9301_2494" x1="289.74" y1="153.742" x2="289.74" y2="243.234" gradientUnits="userSpaceOnUse">
<stop stop-color="#2E2E32"/>
<stop offset="0.326657" stop-color="#28282C"/>
</linearGradient>
<linearGradient id="paint2_linear_9301_2494" x1="289.74" y1="153.742" x2="289.74" y2="243.234" gradientUnits="userSpaceOnUse">
<stop stop-color="white" stop-opacity="0.12"/>
<stop offset="0.2989" stop-color="white" stop-opacity="0.06"/>
</linearGradient>
<linearGradient id="paint3_linear_9301_2494" x1="625.707" y1="151.8" x2="625.707" y2="245.017" gradientUnits="userSpaceOnUse">
<stop stop-color="#2E2E32"/>
<stop offset="0.326657" stop-color="#28282C"/>
</linearGradient>
<linearGradient id="paint4_linear_9301_2494" x1="625.707" y1="153.742" x2="625.707" y2="243.074" gradientUnits="userSpaceOnUse">
<stop stop-color="#2E2E32"/>
<stop offset="0.326657" stop-color="#28282C"/>
</linearGradient>
<linearGradient id="paint5_linear_9301_2494" x1="625.707" y1="153.742" x2="625.707" y2="243.074" gradientUnits="userSpaceOnUse">
<stop stop-color="white" stop-opacity="0.12"/>
<stop offset="0.2989" stop-color="white" stop-opacity="0.06"/>
</linearGradient>
<linearGradient id="paint6_linear_9301_2494" x1="348" y1="269.957" x2="348" y2="363.333" gradientUnits="userSpaceOnUse">
<stop stop-color="white" stop-opacity="0.12"/>
<stop offset="0.2989" stop-color="white" stop-opacity="0.06"/>
</linearGradient>
<linearGradient id="paint7_linear_9301_2494" x1="38.4762" y1="19.6774" x2="38.4762" y2="57.7726" gradientUnits="userSpaceOnUse">
<stop offset="0.313251" stop-color="white"/>
<stop offset="1" stop-color="#F4F2F4"/>
</linearGradient>
<linearGradient id="paint8_linear_9301_2494" x1="495.619" y1="19.6774" x2="495.619" y2="57.7726" gradientUnits="userSpaceOnUse">
<stop offset="0.313251" stop-color="white"/>
<stop offset="1" stop-color="#F4F2F4"/>
</linearGradient>
<linearGradient id="paint9_linear_9301_2494" x1="38.4762" y1="143.487" x2="38.4762" y2="181.582" gradientUnits="userSpaceOnUse">
<stop offset="0.313251" stop-color="white"/>
<stop offset="1" stop-color="#F4F2F4"/>
</linearGradient>
<linearGradient id="paint10_linear_9301_2494" x1="38.4762" y1="257.773" x2="38.4762" y2="295.868" gradientUnits="userSpaceOnUse">
<stop offset="0.313251" stop-color="white"/>
<stop offset="1" stop-color="#F4F2F4"/>
</linearGradient>
<clipPath id="clip0_9301_2494">
<rect width="696" height="387" fill="white"/>
</clipPath>
<clipPath id="clip1_9301_2494">
<rect x="0.380981" y="0.629761" width="695.238" height="386.007" rx="31.0721" fill="white"/>
</clipPath>
<clipPath id="clip2_9301_2494">
<rect x="46.9891" y="43.354" width="433.985" height="39" rx="19.5" fill="white"/>
</clipPath>
<clipPath id="clip3_9301_2494">
<rect x="23.6851" y="151.8" width="532.11" height="93.3762" rx="15.536" fill="white"/>
</clipPath>
<clipPath id="clip4_9301_2494">
<rect x="579.099" y="151.8" width="93.2163" height="93.2163" rx="15.536" fill="white"/>
</clipPath>
<clipPath id="clip5_9301_2494">
<rect x="19.4286" y="19.6774" width="38.0952" height="38.0952" rx="19.0476" fill="white"/>
</clipPath>
<clipPath id="clip6_9301_2494">
<rect x="476.571" y="19.6774" width="38.0952" height="38.0952" rx="19.0476" fill="white"/>
</clipPath>
<clipPath id="clip7_9301_2494">
<rect x="19.4286" y="143.487" width="38.0952" height="38.0952" rx="19.0476" fill="white"/>
</clipPath>
<clipPath id="clip8_9301_2494">
<rect x="19.4286" y="257.773" width="38.0952" height="38.0952" rx="19.0476" fill="white"/>
</clipPath>
</defs>
</svg>
