<svg width="294" height="180" viewBox="0 0 294 180" fill="none" xmlns="http://www.w3.org/2000/svg">
<g clip-path="url(#clip0_9250_3383)">
<g filter="url(#filter0_ddd_9250_3383)">
<rect x="1" y="9" width="292" height="162.743" rx="13.0503" fill="#1C1C1F"/>
<path d="M21.4878 38.9442V30.6394H24.448C25.0914 30.6394 25.6253 30.7503 26.0497 30.9719C26.4769 31.1936 26.7959 31.5004 27.0067 31.8924C27.2176 32.2817 27.323 32.7318 27.323 33.2428C27.323 33.751 27.2162 34.1984 27.0027 34.585C26.7918 34.9689 26.4728 35.2676 26.0457 35.4811C25.6213 35.6947 25.0873 35.8015 24.4439 35.8015H22.2015V34.7229H24.3304C24.7359 34.7229 25.0657 34.6647 25.3198 34.5485C25.5767 34.4322 25.7645 34.2633 25.8835 34.0416C26.0024 33.8199 26.0619 33.5537 26.0619 33.2428C26.0619 32.9292 26.0011 32.6575 25.8794 32.4277C25.7605 32.1979 25.5726 32.0222 25.3158 31.9005C25.0617 31.7762 24.7278 31.714 24.3142 31.714H22.7408V38.9442H21.4878ZM25.5875 35.1973L27.6393 38.9442H26.2119L24.2006 35.1973H25.5875ZM31.3568 39.0699C30.7431 39.0699 30.2146 38.9387 29.7713 38.6765C29.3306 38.4116 28.99 38.0399 28.7494 37.5614C28.5115 37.0802 28.3925 36.5165 28.3925 35.8704C28.3925 35.2324 28.5115 34.6701 28.7494 34.1835C28.99 33.6969 29.3252 33.3171 29.755 33.0441C30.1876 32.771 30.6931 32.6345 31.2716 32.6345C31.6231 32.6345 31.9637 32.6926 32.2935 32.8089C32.6233 32.9251 32.9193 33.1076 33.1815 33.3563C33.4438 33.605 33.6506 33.9281 33.802 34.3255C33.9534 34.7202 34.0291 35.2 34.0291 35.765V36.1948H29.0778V35.2865H32.8409C32.8409 34.9675 32.776 34.685 32.6463 34.439C32.5165 34.1903 32.334 33.9943 32.0989 33.851C31.8664 33.7077 31.5933 33.6361 31.2797 33.6361C30.9391 33.6361 30.6417 33.7199 30.3876 33.8875C30.1362 34.0524 29.9416 34.2687 29.8037 34.5363C29.6685 34.8013 29.6009 35.0892 29.6009 35.4V36.1097C29.6009 36.526 29.6739 36.8801 29.8199 37.1721C29.9686 37.4641 30.1754 37.6871 30.4403 37.8412C30.7053 37.9926 31.0148 38.0683 31.3689 38.0683C31.5987 38.0683 31.8082 38.0358 31.9975 37.9709C32.1867 37.9034 32.3503 37.8033 32.4881 37.6709C32.626 37.5384 32.7314 37.3749 32.8044 37.1802L33.952 37.387C33.8601 37.7249 33.6952 38.021 33.4573 38.2751C33.2221 38.5265 32.9261 38.7225 32.5692 38.8631C32.2151 39.0009 31.8109 39.0699 31.3568 39.0699ZM40.0417 34.2363L38.9427 34.4309C38.8968 34.2903 38.8238 34.1565 38.7238 34.0294C38.6265 33.9024 38.494 33.7983 38.3264 33.7172C38.1588 33.6361 37.9493 33.5956 37.6978 33.5956C37.3545 33.5956 37.068 33.6726 36.8382 33.8267C36.6084 33.9781 36.4935 34.1741 36.4935 34.4147C36.4935 34.6228 36.5705 34.7904 36.7246 34.9175C36.8787 35.0446 37.1274 35.1486 37.4708 35.2297L38.4602 35.4568C39.0333 35.5893 39.4604 35.7934 39.7416 36.0691C40.0227 36.3449 40.1633 36.7031 40.1633 37.1437C40.1633 37.5168 40.0552 37.8493 39.8389 38.1413C39.6253 38.4305 39.3266 38.6576 38.9427 38.8225C38.5616 38.9874 38.1196 39.0699 37.6167 39.0699C36.9193 39.0699 36.3502 38.9212 35.9096 38.6238C35.4689 38.3237 35.1986 37.898 35.0986 37.3465L36.2705 37.168C36.3435 37.4735 36.4935 37.7047 36.7206 37.8615C36.9477 38.0155 37.2437 38.0926 37.6086 38.0926C38.006 38.0926 38.3237 38.0101 38.5616 37.8452C38.7995 37.6776 38.9184 37.4735 38.9184 37.2329C38.9184 37.0383 38.8454 36.8747 38.6994 36.7423C38.5562 36.6098 38.3358 36.5098 38.0385 36.4422L36.9842 36.2111C36.4029 36.0786 35.9731 35.8677 35.6947 35.5785C35.4189 35.2892 35.281 34.9229 35.281 34.4796C35.281 34.1119 35.3838 33.7902 35.5892 33.5145C35.7947 33.2387 36.0785 33.0238 36.4408 32.8697C36.803 32.7129 37.218 32.6345 37.6857 32.6345C38.3588 32.6345 38.8887 32.7805 39.2753 33.0725C39.6618 33.3617 39.9173 33.7496 40.0417 34.2363ZM41.4964 41.2799V32.7156H42.6805V33.7253H42.7819C42.8521 33.5956 42.9535 33.4455 43.086 33.2752C43.2184 33.1049 43.4023 32.9562 43.6375 32.8292C43.8727 32.6994 44.1835 32.6345 44.5701 32.6345C45.073 32.6345 45.5217 32.7616 45.9164 33.0157C46.3111 33.2698 46.6206 33.6361 46.845 34.1146C47.0721 34.5931 47.1856 35.1689 47.1856 35.842C47.1856 36.5152 47.0734 37.0924 46.8491 37.5735C46.6247 38.052 46.3165 38.4211 45.9245 38.6806C45.5325 38.9374 45.0851 39.0658 44.5823 39.0658C44.2038 39.0658 43.8943 39.0023 43.6537 38.8752C43.4158 38.7482 43.2293 38.5995 43.0941 38.4292C42.9589 38.2589 42.8548 38.1075 42.7819 37.975H42.7089V41.2799H41.4964ZM42.6845 35.8299C42.6845 36.2678 42.7481 36.6517 42.8751 36.9815C43.0022 37.3113 43.186 37.5695 43.4266 37.756C43.6672 37.9399 43.9619 38.0318 44.3106 38.0318C44.6729 38.0318 44.9756 37.9358 45.2189 37.7439C45.4622 37.5492 45.6461 37.2856 45.7704 36.9531C45.8975 36.6206 45.961 36.2462 45.961 35.8299C45.961 35.419 45.8988 35.05 45.7745 34.7229C45.6528 34.3957 45.469 34.1376 45.223 33.9483C44.9797 33.7591 44.6756 33.6645 44.3106 33.6645C43.9592 33.6645 43.6618 33.7551 43.4185 33.9362C43.1779 34.1173 42.9954 34.3701 42.8711 34.6945C42.7467 35.0189 42.6845 35.3973 42.6845 35.8299ZM51.1677 39.0699C50.5838 39.0699 50.0742 38.936 49.6389 38.6684C49.2037 38.4008 48.8658 38.0264 48.6252 37.5452C48.3846 37.064 48.2643 36.5017 48.2643 35.8583C48.2643 35.2122 48.3846 34.6472 48.6252 34.1633C48.8658 33.6794 49.2037 33.3036 49.6389 33.036C50.0742 32.7683 50.5838 32.6345 51.1677 32.6345C51.7516 32.6345 52.2612 32.7683 52.6964 33.036C53.1317 33.3036 53.4696 33.6794 53.7102 34.1633C53.9508 34.6472 54.0711 35.2122 54.0711 35.8583C54.0711 36.5017 53.9508 37.064 53.7102 37.5452C53.4696 38.0264 53.1317 38.4008 52.6964 38.6684C52.2612 38.936 51.7516 39.0699 51.1677 39.0699ZM51.1717 38.052C51.5502 38.052 51.8638 37.952 52.1125 37.752C52.3612 37.5519 52.545 37.2856 52.664 36.9531C52.7856 36.6206 52.8465 36.2543 52.8465 35.8542C52.8465 35.4568 52.7856 35.0919 52.664 34.7594C52.545 34.4241 52.3612 34.1551 52.1125 33.9524C51.8638 33.7496 51.5502 33.6483 51.1717 33.6483C50.7906 33.6483 50.4743 33.7496 50.2229 33.9524C49.9741 34.1551 49.789 34.4241 49.6673 34.7594C49.5484 35.0919 49.4889 35.4568 49.4889 35.8542C49.4889 36.2543 49.5484 36.6206 49.6673 36.9531C49.789 37.2856 49.9741 37.5519 50.2229 37.752C50.4743 37.952 50.7906 38.052 51.1717 38.052ZM56.6369 35.246V38.9442H55.4245V32.7156H56.5883V33.7294H56.6653C56.8086 33.3996 57.033 33.1346 57.3384 32.9346C57.6466 32.7345 58.0346 32.6345 58.5022 32.6345C58.9267 32.6345 59.2984 32.7237 59.6174 32.9021C59.9364 33.0779 60.1837 33.3401 60.3594 33.6888C60.5352 34.0376 60.623 34.4687 60.623 34.9824V38.9442H59.4106V35.1284C59.4106 34.6769 59.293 34.3241 59.0578 34.07C58.8226 33.8132 58.4995 33.6848 58.0886 33.6848C57.8075 33.6848 57.5574 33.7456 57.3384 33.8672C57.1222 33.9889 56.9505 34.1673 56.8234 34.4025C56.6991 34.635 56.6369 34.9161 56.6369 35.246ZM66.9164 34.2363L65.8175 34.4309C65.7716 34.2903 65.6986 34.1565 65.5986 34.0294C65.5012 33.9024 65.3688 33.7983 65.2012 33.7172C65.0336 33.6361 64.824 33.5956 64.5726 33.5956C64.2293 33.5956 63.9427 33.6726 63.713 33.8267C63.4832 33.9781 63.3683 34.1741 63.3683 34.4147C63.3683 34.6228 63.4453 34.7904 63.5994 34.9175C63.7535 35.0446 64.0022 35.1486 64.3455 35.2297L65.335 35.4568C65.9081 35.5893 66.3352 35.7934 66.6164 36.0691C66.8975 36.3449 67.0381 36.7031 67.0381 37.1437C67.0381 37.5168 66.93 37.8493 66.7137 38.1413C66.5001 38.4305 66.2014 38.6576 65.8175 38.8225C65.4364 38.9874 64.9944 39.0699 64.4915 39.0699C63.7941 39.0699 63.225 38.9212 62.7844 38.6238C62.3437 38.3237 62.0734 37.898 61.9733 37.3465L63.1453 37.168C63.2182 37.4735 63.3683 37.7047 63.5954 37.8615C63.8224 38.0155 64.1185 38.0926 64.4834 38.0926C64.8808 38.0926 65.1985 38.0101 65.4364 37.8452C65.6742 37.6776 65.7932 37.4735 65.7932 37.2329C65.7932 37.0383 65.7202 36.8747 65.5742 36.7423C65.4309 36.6098 65.2106 36.5098 64.9133 36.4422L63.8589 36.2111C63.2777 36.0786 62.8479 35.8677 62.5694 35.5785C62.2937 35.2892 62.1558 34.9229 62.1558 34.4796C62.1558 34.1119 62.2586 33.7902 62.464 33.5145C62.6695 33.2387 62.9533 33.0238 63.3156 32.8697C63.6778 32.7129 64.0928 32.6345 64.5605 32.6345C65.2336 32.6345 65.7635 32.7805 66.15 33.0725C66.5366 33.3617 66.7921 33.7496 66.9164 34.2363ZM71.0556 39.0699C70.442 39.0699 69.9135 38.9387 69.4701 38.6765C69.0295 38.4116 68.6888 38.0399 68.4482 37.5614C68.2103 37.0802 68.0914 36.5165 68.0914 35.8704C68.0914 35.2324 68.2103 34.6701 68.4482 34.1835C68.6888 33.6969 69.0241 33.3171 69.4539 33.0441C69.8864 32.771 70.392 32.6345 70.9705 32.6345C71.3219 32.6345 71.6625 32.6926 71.9923 32.8089C72.3222 32.9251 72.6182 33.1076 72.8804 33.3563C73.1426 33.605 73.3494 33.9281 73.5008 34.3255C73.6522 34.7202 73.7279 35.2 73.7279 35.765V36.1948H68.7767V35.2865H72.5398C72.5398 34.9675 72.4749 34.685 72.3451 34.439C72.2154 34.1903 72.0329 33.9943 71.7977 33.851C71.5652 33.7077 71.2922 33.6361 70.9786 33.6361C70.638 33.6361 70.3406 33.7199 70.0865 33.8875C69.8351 34.0524 69.6404 34.2687 69.5025 34.5363C69.3674 34.8013 69.2998 35.0892 69.2998 35.4V36.1097C69.2998 36.526 69.3728 36.8801 69.5188 37.1721C69.6675 37.4641 69.8743 37.6871 70.1392 37.8412C70.4041 37.9926 70.7137 38.0683 71.0678 38.0683C71.2976 38.0683 71.5071 38.0358 71.6963 37.9709C71.8856 37.9034 72.0491 37.8033 72.187 37.6709C72.3249 37.5384 72.4303 37.3749 72.5033 37.1802L73.6509 37.387C73.5589 37.7249 73.394 38.021 73.1561 38.2751C72.9209 38.5265 72.6249 38.7225 72.2681 38.8631C71.9139 39.0009 71.5098 39.0699 71.0556 39.0699ZM81.0026 32.7156V33.6888H77.6005V32.7156H81.0026ZM78.5128 31.2234H79.7253V37.1153C79.7253 37.3505 79.7604 37.5276 79.8307 37.6465C79.901 37.7628 79.9916 37.8425 80.1024 37.8858C80.216 37.9263 80.339 37.9466 80.4714 37.9466C80.5688 37.9466 80.6539 37.9399 80.7269 37.9263C80.7999 37.9128 80.8567 37.902 80.8972 37.8939L81.1162 38.8955C81.0459 38.9225 80.9459 38.9496 80.8161 38.9766C80.6863 39.0063 80.5241 39.0226 80.3295 39.0253C80.0105 39.0307 79.7131 38.9739 79.4374 38.8549C79.1617 38.736 78.9386 38.5522 78.7683 38.3035C78.598 38.0547 78.5128 37.7425 78.5128 37.3667V31.2234ZM82.3438 38.9442V32.7156H83.5563V38.9442H82.3438ZM82.9562 31.7546C82.7453 31.7546 82.5642 31.6843 82.4128 31.5437C82.2641 31.4004 82.1898 31.2301 82.1898 31.0328C82.1898 30.8327 82.2641 30.6624 82.4128 30.5218C82.5642 30.3786 82.7453 30.3069 82.9562 30.3069C83.167 30.3069 83.3468 30.3786 83.4955 30.5218C83.6469 30.6624 83.7226 30.8327 83.7226 31.0328C83.7226 31.2301 83.6469 31.4004 83.4955 31.5437C83.3468 31.6843 83.167 31.7546 82.9562 31.7546ZM85.1874 38.9442V32.7156H86.3512V33.7294H86.4283C86.558 33.386 86.7703 33.1184 87.0649 32.9265C87.3596 32.7318 87.7124 32.6345 88.1233 32.6345C88.5396 32.6345 88.8883 32.7318 89.1695 32.9265C89.4533 33.1211 89.6629 33.3887 89.798 33.7294H89.8629C90.0116 33.3969 90.2481 33.1319 90.5725 32.9346C90.8969 32.7345 91.2835 32.6345 91.7323 32.6345C92.2973 32.6345 92.7582 32.8116 93.115 33.1657C93.4746 33.5199 93.6544 34.0538 93.6544 34.7675V38.9442H92.4419V34.881C92.4419 34.4593 92.327 34.1538 92.0972 33.9646C91.8674 33.7753 91.5931 33.6807 91.2741 33.6807C90.8794 33.6807 90.5725 33.8024 90.3536 34.0457C90.1346 34.2863 90.0251 34.5958 90.0251 34.9743V38.9442H88.8167V34.804C88.8167 34.466 88.7113 34.1943 88.5004 33.9889C88.2895 33.7834 88.0152 33.6807 87.6772 33.6807C87.4475 33.6807 87.2352 33.7415 87.0406 33.8632C86.8487 33.9821 86.6932 34.1484 86.5743 34.362C86.458 34.5755 86.3999 34.8229 86.3999 35.104V38.9442H85.1874ZM97.9639 39.0699C97.3502 39.0699 96.8217 38.9387 96.3783 38.6765C95.9377 38.4116 95.5971 38.0399 95.3565 37.5614C95.1186 37.0802 94.9996 36.5165 94.9996 35.8704C94.9996 35.2324 95.1186 34.6701 95.3565 34.1835C95.5971 33.6969 95.9323 33.3171 96.3621 33.0441C96.7947 32.771 97.3002 32.6345 97.8787 32.6345C98.2301 32.6345 98.5708 32.6926 98.9006 32.8089C99.2304 32.9251 99.5264 33.1076 99.7886 33.3563C100.051 33.605 100.258 33.9281 100.409 34.3255C100.56 34.7202 100.636 35.2 100.636 35.765V36.1948H95.6849V35.2865H99.448C99.448 34.9675 99.3831 34.685 99.2534 34.439C99.1236 34.1903 98.9411 33.9943 98.7059 33.851C98.4734 33.7077 98.2004 33.6361 97.8868 33.6361C97.5462 33.6361 97.2488 33.7199 96.9947 33.8875C96.7433 34.0524 96.5487 34.2687 96.4108 34.5363C96.2756 34.8013 96.208 35.0892 96.208 35.4V36.1097C96.208 36.526 96.281 36.8801 96.427 37.1721C96.5757 37.4641 96.7825 37.6871 97.0474 37.8412C97.3124 37.9926 97.6219 38.0683 97.976 38.0683C98.2058 38.0683 98.4153 38.0358 98.6046 37.9709C98.7938 37.9034 98.9573 37.8033 99.0952 37.6709C99.2331 37.5384 99.3385 37.3749 99.4115 37.1802L100.559 37.387C100.467 37.7249 100.302 38.021 100.064 38.2751C99.8292 38.5265 99.5332 38.7225 99.1763 38.8631C98.8222 39.0009 98.418 39.0699 97.9639 39.0699ZM102.78 39.0212C102.559 39.0212 102.368 38.9428 102.208 38.786C102.049 38.6265 101.969 38.4346 101.969 38.2102C101.969 37.9885 102.049 37.7993 102.208 37.6425C102.368 37.483 102.559 37.4032 102.78 37.4032C103.002 37.4032 103.192 37.483 103.352 37.6425C103.511 37.7993 103.591 37.9885 103.591 38.2102C103.591 38.3589 103.553 38.4954 103.478 38.6197C103.405 38.7414 103.307 38.8387 103.186 38.9117C103.064 38.9847 102.929 39.0212 102.78 39.0212ZM102.78 34.4877C102.559 34.4877 102.368 34.4079 102.208 34.2484C102.049 34.0889 101.969 33.8983 101.969 33.6767C101.969 33.455 102.049 33.2657 102.208 33.1089C102.368 32.9495 102.559 32.8697 102.78 32.8697C103.002 32.8697 103.192 32.9495 103.352 33.1089C103.511 33.2657 103.591 33.455 103.591 33.6767C103.591 33.8253 103.553 33.9619 103.478 34.0862C103.405 34.2079 103.307 34.3052 103.186 34.3782C103.064 34.4512 102.929 34.4877 102.78 34.4877Z" fill="#7E7D86"/>
<path d="M111.443 39.0577C110.862 39.0577 110.348 38.9577 109.902 38.7576C109.459 38.5576 109.111 38.2818 108.86 37.9304C108.608 37.579 108.484 37.1789 108.487 36.7301C108.484 36.3787 108.556 36.0556 108.702 35.7609C108.85 35.4636 109.052 35.2162 109.306 35.0189C109.56 34.8188 109.844 34.6918 110.157 34.6377V34.589C109.744 34.489 109.413 34.2673 109.164 33.924C108.915 33.5807 108.792 33.186 108.795 32.7399C108.792 32.3155 108.904 31.937 109.132 31.6045C109.361 31.2693 109.676 31.0057 110.076 30.8138C110.476 30.6219 110.932 30.5259 111.443 30.5259C111.948 30.5259 112.4 30.6232 112.797 30.8179C113.197 31.0098 113.512 31.2734 113.742 31.6086C113.972 31.9411 114.088 32.3182 114.091 32.7399C114.088 33.186 113.961 33.5807 113.71 33.924C113.458 34.2673 113.131 34.489 112.728 34.589V34.6377C113.039 34.6918 113.319 34.8188 113.568 35.0189C113.819 35.2162 114.019 35.4636 114.168 35.7609C114.319 36.0556 114.396 36.3787 114.399 36.7301C114.396 37.1789 114.269 37.579 114.018 37.9304C113.766 38.2818 113.418 38.5576 112.972 38.7576C112.528 38.9577 112.019 39.0577 111.443 39.0577ZM111.443 38.0318C111.786 38.0318 112.084 37.975 112.335 37.8615C112.586 37.7452 112.781 37.5844 112.919 37.3789C113.057 37.1707 113.127 36.9274 113.13 36.649C113.127 36.3597 113.051 36.1043 112.903 35.8826C112.757 35.6609 112.558 35.4866 112.307 35.3595C112.055 35.2324 111.767 35.1689 111.443 35.1689C111.116 35.1689 110.825 35.2324 110.571 35.3595C110.317 35.4866 110.117 35.6609 109.971 35.8826C109.825 36.1043 109.753 36.3597 109.756 36.649C109.753 36.9274 109.82 37.1707 109.955 37.3789C110.093 37.5844 110.289 37.7452 110.543 37.8615C110.797 37.975 111.097 38.0318 111.443 38.0318ZM111.443 34.1673C111.719 34.1673 111.963 34.1119 112.177 34.0011C112.39 33.8902 112.558 33.7361 112.68 33.5388C112.804 33.3414 112.868 33.1103 112.87 32.8454C112.868 32.5858 112.805 32.3588 112.684 32.1641C112.565 31.9695 112.399 31.8194 112.185 31.714C111.971 31.6059 111.724 31.5518 111.443 31.5518C111.156 31.5518 110.905 31.6059 110.689 31.714C110.475 31.8194 110.309 31.9695 110.19 32.1641C110.071 32.3588 110.013 32.5858 110.016 32.8454C110.013 33.1103 110.072 33.3414 110.194 33.5388C110.316 33.7361 110.483 33.8902 110.697 34.0011C110.913 34.1119 111.162 34.1673 111.443 34.1673ZM118.743 39.0577C118.186 39.0577 117.689 38.9617 117.251 38.7698C116.816 38.5778 116.471 38.3116 116.217 37.9709C115.965 37.6276 115.83 37.2302 115.811 36.7788H117.085C117.101 37.0248 117.183 37.2383 117.332 37.4195C117.483 37.5979 117.681 37.7358 117.924 37.8331C118.167 37.9304 118.438 37.9791 118.735 37.9791C119.062 37.9791 119.351 37.9223 119.603 37.8087C119.857 37.6952 120.056 37.5371 120.199 37.3343C120.342 37.1288 120.414 36.8923 120.414 36.6247C120.414 36.3462 120.342 36.1016 120.199 35.8907C120.058 35.6771 119.851 35.5095 119.578 35.3879C119.308 35.2662 118.981 35.2054 118.597 35.2054H117.896V34.1835H118.597C118.905 34.1835 119.176 34.1281 119.408 34.0173C119.643 33.9064 119.827 33.7523 119.96 33.555C120.092 33.355 120.158 33.1211 120.158 32.8535C120.158 32.5967 120.1 32.3736 119.984 32.1844C119.87 31.9925 119.708 31.8424 119.497 31.7343C119.289 31.6262 119.043 31.5721 118.759 31.5721C118.489 31.5721 118.236 31.6221 118.001 31.7221C117.768 31.8194 117.579 31.96 117.433 32.1439C117.287 32.325 117.209 32.5426 117.198 32.7967H115.986C115.999 32.348 116.132 31.9533 116.383 31.6126C116.637 31.272 116.972 31.0057 117.389 30.8138C117.805 30.6219 118.267 30.5259 118.775 30.5259C119.308 30.5259 119.768 30.63 120.154 30.8381C120.543 31.0436 120.844 31.318 121.054 31.6613C121.268 32.0046 121.373 32.3804 121.371 32.7886C121.373 33.2536 121.244 33.6483 120.981 33.9727C120.722 34.2971 120.376 34.5147 119.943 34.6255V34.6904C120.495 34.7742 120.922 34.9932 121.225 35.3473C121.53 35.7015 121.682 36.1408 121.679 36.6652C121.682 37.1221 121.555 37.5316 121.298 37.8939C121.044 38.2561 120.696 38.5414 120.256 38.7495C119.815 38.955 119.311 39.0577 118.743 39.0577ZM123.228 38.9442V32.7156H124.392V33.7294H124.469C124.599 33.386 124.811 33.1184 125.105 32.9265C125.4 32.7318 125.753 32.6345 126.164 32.6345C126.58 32.6345 126.929 32.7318 127.21 32.9265C127.494 33.1211 127.703 33.3887 127.838 33.7294H127.903C128.052 33.3969 128.289 33.1319 128.613 32.9346C128.937 32.7345 129.324 32.6345 129.773 32.6345C130.338 32.6345 130.799 32.8116 131.156 33.1657C131.515 33.5199 131.695 34.0538 131.695 34.7675V38.9442H130.482V34.881C130.482 34.4593 130.367 34.1538 130.138 33.9646C129.908 33.7753 129.634 33.6807 129.315 33.6807C128.92 33.6807 128.613 33.8024 128.394 34.0457C128.175 34.2863 128.066 34.5958 128.066 34.9743V38.9442H126.857V34.804C126.857 34.466 126.752 34.1943 126.541 33.9889C126.33 33.7834 126.056 33.6807 125.718 33.6807C125.488 33.6807 125.276 33.7415 125.081 33.8632C124.889 33.9821 124.734 34.1484 124.615 34.362C124.498 34.5755 124.44 34.8229 124.44 35.104V38.9442H123.228ZM137.987 34.2363L136.888 34.4309C136.842 34.2903 136.769 34.1565 136.669 34.0294C136.572 33.9024 136.44 33.7983 136.272 33.7172C136.104 33.6361 135.895 33.5956 135.643 33.5956C135.3 33.5956 135.014 33.6726 134.784 33.8267C134.554 33.9781 134.439 34.1741 134.439 34.4147C134.439 34.6228 134.516 34.7904 134.67 34.9175C134.824 35.0446 135.073 35.1486 135.416 35.2297L136.406 35.4568C136.979 35.5893 137.406 35.7934 137.687 36.0691C137.968 36.3449 138.109 36.7031 138.109 37.1437C138.109 37.5168 138.001 37.8493 137.784 38.1413C137.571 38.4305 137.272 38.6576 136.888 38.8225C136.507 38.9874 136.065 39.0699 135.562 39.0699C134.865 39.0699 134.296 38.9212 133.855 38.6238C133.415 38.3237 133.144 37.898 133.044 37.3465L134.216 37.168C134.289 37.4735 134.439 37.7047 134.666 37.8615C134.893 38.0155 135.189 38.0926 135.554 38.0926C135.952 38.0926 136.269 38.0101 136.507 37.8452C136.745 37.6776 136.864 37.4735 136.864 37.2329C136.864 37.0383 136.791 36.8747 136.645 36.7423C136.502 36.6098 136.281 36.5098 135.984 36.4422L134.93 36.2111C134.349 36.0786 133.919 35.8677 133.64 35.5785C133.364 35.2892 133.227 34.9229 133.227 34.4796C133.227 34.1119 133.329 33.7902 133.535 33.5145C133.74 33.2387 134.024 33.0238 134.386 32.8697C134.749 32.7129 135.164 32.6345 135.631 32.6345C136.304 32.6345 136.834 32.7805 137.221 33.0725C137.607 33.3617 137.863 33.7496 137.987 34.2363Z" fill="#EDEDEF"/>
<rect x="213.045" y="25.7207" width="59.9721" height="19.4469" rx="4.48603" fill="#28282C"/>
<path d="M220.672 39.052C220.146 39.052 219.693 38.9396 219.313 38.7149C218.935 38.4878 218.643 38.1692 218.437 37.759C218.233 37.3466 218.131 36.8635 218.131 36.3097C218.131 35.7628 218.233 35.2808 218.437 34.8637C218.643 34.4467 218.931 34.1211 219.299 33.8871C219.67 33.653 220.103 33.536 220.599 33.536C220.9 33.536 221.192 33.5858 221.475 33.6855C221.758 33.7851 222.011 33.9415 222.236 34.1547C222.461 34.3679 222.638 34.6448 222.768 34.9854C222.898 35.3237 222.963 35.735 222.963 36.2193V36.5877H218.719V35.8091H221.944C221.944 35.5357 221.889 35.2936 221.777 35.0827C221.666 34.8695 221.51 34.7015 221.308 34.5787C221.109 34.4559 220.875 34.3945 220.606 34.3945C220.314 34.3945 220.059 34.4664 219.841 34.61C219.626 34.7514 219.459 34.9367 219.341 35.1661C219.225 35.3932 219.167 35.64 219.167 35.9065V36.5147C219.167 36.8716 219.23 37.1751 219.355 37.4254C219.482 37.6756 219.66 37.8668 219.887 37.9989C220.114 38.1286 220.379 38.1935 220.683 38.1935C220.88 38.1935 221.059 38.1657 221.221 38.1101C221.384 38.0522 221.524 37.9664 221.642 37.8529C221.76 37.7393 221.85 37.5992 221.913 37.4323L222.897 37.6096C222.818 37.8992 222.676 38.153 222.473 38.3708C222.271 38.5863 222.017 38.7543 221.711 38.8748C221.408 38.9929 221.061 39.052 220.672 39.052ZM227.498 36.7302V33.6055H228.54V38.9443H227.518V38.0197H227.463C227.34 38.3047 227.143 38.5422 226.872 38.7323C226.603 38.9199 226.268 39.0138 225.868 39.0138C225.525 39.0138 225.221 38.9385 224.957 38.7879C224.695 38.6349 224.489 38.409 224.338 38.1101C224.19 37.8112 224.116 37.4416 224.116 37.0013V33.6055H225.155V36.8762C225.155 37.24 225.256 37.5296 225.457 37.7451C225.659 37.9606 225.921 38.0684 226.243 38.0684C226.438 38.0684 226.631 38.0197 226.823 37.9224C227.018 37.8251 227.179 37.6779 227.306 37.481C227.436 37.284 227.5 37.0338 227.498 36.7302ZM233.082 35.4859V36.3861H229.926V35.4859H233.082ZM235.507 35.7744V38.9443H234.467V33.6055H235.465V34.4745H235.531C235.654 34.1918 235.846 33.9647 236.108 33.7932C236.372 33.6217 236.705 33.536 237.105 33.536C237.469 33.536 237.788 33.6125 238.061 33.7654C238.335 33.916 238.547 34.1408 238.697 34.4397C238.848 34.7386 238.923 35.1082 238.923 35.5485V38.9443H237.884V35.6736C237.884 35.2866 237.783 34.9842 237.582 34.7664C237.38 34.5463 237.103 34.4362 236.751 34.4362C236.51 34.4362 236.296 34.4884 236.108 34.5926C235.923 34.6969 235.775 34.8498 235.667 35.0514C235.56 35.2507 235.507 35.4917 235.507 35.7744ZM242.566 39.052C242.065 39.052 241.629 38.9373 241.256 38.7079C240.882 38.4785 240.593 38.1576 240.387 37.7451C240.18 37.3327 240.077 36.8507 240.077 36.2992C240.077 35.7454 240.18 35.2611 240.387 34.8464C240.593 34.4316 240.882 34.1095 241.256 33.8801C241.629 33.6507 242.065 33.536 242.566 33.536C243.066 33.536 243.503 33.6507 243.876 33.8801C244.249 34.1095 244.539 34.4316 244.745 34.8464C244.951 35.2611 245.055 35.7454 245.055 36.2992C245.055 36.8507 244.951 37.3327 244.745 37.7451C244.539 38.1576 244.249 38.4785 243.876 38.7079C243.503 38.9373 243.066 39.052 242.566 39.052ZM242.569 38.1796C242.894 38.1796 243.163 38.0939 243.376 37.9224C243.589 37.7509 243.746 37.5227 243.848 37.2377C243.953 36.9527 244.005 36.6387 244.005 36.2958C244.005 35.9551 243.953 35.6423 243.848 35.3573C243.746 35.07 243.589 34.8394 243.376 34.6656C243.163 34.4918 242.894 34.4049 242.569 34.4049C242.243 34.4049 241.972 34.4918 241.756 34.6656C241.543 34.8394 241.384 35.07 241.28 35.3573C241.178 35.6423 241.127 35.9551 241.127 36.2958C241.127 36.6387 241.178 36.9527 241.28 37.2377C241.384 37.5227 241.543 37.7509 241.756 37.9224C241.972 38.0939 242.243 38.1796 242.569 38.1796ZM246.215 38.9443V33.6055H247.219V34.4536H247.275C247.372 34.1663 247.543 33.9404 247.789 33.7758C248.037 33.609 248.317 33.5256 248.63 33.5256C248.695 33.5256 248.772 33.5279 248.86 33.5325C248.95 33.5372 249.021 33.543 249.072 33.5499V34.544C249.03 34.5324 248.956 34.5196 248.849 34.5057C248.743 34.4895 248.636 34.4814 248.529 34.4814C248.284 34.4814 248.065 34.5335 247.872 34.6378C247.682 34.7398 247.532 34.8823 247.421 35.0653C247.309 35.2461 247.254 35.4523 247.254 35.684V38.9443H246.215ZM252.778 33.6055V34.4397H249.862V33.6055H252.778ZM250.644 32.3264H251.684V37.3767C251.684 37.5783 251.714 37.7301 251.774 37.832C251.834 37.9317 251.912 38 252.007 38.0371C252.104 38.0719 252.21 38.0892 252.323 38.0892C252.407 38.0892 252.48 38.0834 252.542 38.0719C252.605 38.0603 252.653 38.051 252.688 38.0441L252.876 38.9026C252.816 38.9257 252.73 38.9489 252.619 38.9721C252.507 38.9976 252.368 39.0115 252.202 39.0138C251.928 39.0184 251.673 38.9698 251.437 38.8678C251.201 38.7659 251.009 38.6083 250.863 38.3951C250.717 38.1819 250.644 37.9143 250.644 37.5922V32.3264ZM255.082 35.7744V38.9443H254.043V31.8259H255.068V34.4745H255.134C255.259 34.1871 255.45 33.9589 255.708 33.7897C255.965 33.6206 256.301 33.536 256.716 33.536C257.082 33.536 257.402 33.6113 257.675 33.7619C257.951 33.9125 258.164 34.1373 258.314 34.4362C258.467 34.7328 258.544 35.1036 258.544 35.5485V38.9443H257.505V35.6736C257.505 35.282 257.404 34.9784 257.202 34.7629C257.001 34.5451 256.72 34.4362 256.361 34.4362C256.116 34.4362 255.895 34.4884 255.701 34.5926C255.508 34.6969 255.357 34.8498 255.245 35.0514C255.137 35.2507 255.082 35.4917 255.082 35.7744ZM263.076 35.4859V36.3861H259.92V35.4859H263.076ZM267.148 31.8259V38.9443H266.071V32.9034H266.029L264.326 34.0157V32.9868L266.102 31.8259H267.148Z" fill="#A09FA6"/>
<rect x="213.045" y="25.7207" width="59.9721" height="19.4469" rx="4.48603" stroke="#3E3E44" stroke-width="0.815642"/>
<rect x="1" y="61.8882" width="292" height="0.815642" fill="#2E2E32"/>
<g clip-path="url(#clip1_9250_3383)">
<rect x="10.7877" y="72.4916" width="223.486" height="39.838" rx="6.52514" fill="url(#paint0_linear_9250_3383)"/>
<rect x="11.1955" y="72.8994" width="222.67" height="39.0223" rx="6.11732" fill="url(#paint1_linear_9250_3383)"/>
<path d="M30.7995 98.9847L29.8765 95.5372M29.8765 95.5372L28.1704 97.0496L28.5572 90.6128L32.11 95.994L29.8765 95.5372ZM28.7319 85.7835V87.3128M32.6973 87.4257L31.6158 88.5071M34.3394 91.391H32.8101M25.8479 94.275L24.7672 95.3558M24.6537 91.391H23.1243M25.8479 88.5071L24.7672 87.4263" stroke="#7E7D86" stroke-width="1.22346" stroke-linecap="round" stroke-linejoin="round"/>
<path d="M47.9283 96.9106V87.4195H49.3603V95.6779H53.661V96.9106H47.9283ZM57.2549 97.0682C56.8038 97.0682 56.396 96.9847 56.0314 96.8179C55.6669 96.648 55.378 96.4024 55.1648 96.081C54.9547 95.7597 54.8497 95.3658 54.8497 94.8993C54.8497 94.4976 54.9269 94.1671 55.0814 93.9075C55.2359 93.648 55.4444 93.4426 55.707 93.2912C55.9696 93.1398 56.2632 93.0255 56.5876 92.9482C56.912 92.871 57.2425 92.8123 57.5793 92.7721C58.0057 92.7227 58.3517 92.6825 58.6174 92.6516C58.8831 92.6176 59.0762 92.5636 59.1967 92.4894C59.3172 92.4153 59.3774 92.2948 59.3774 92.128V92.0955C59.3774 91.6908 59.2631 91.3772 59.0345 91.1547C58.8089 90.9323 58.4722 90.8211 58.0242 90.8211C57.5577 90.8211 57.19 90.9246 56.9212 91.1316C56.6555 91.3355 56.4717 91.5626 56.3697 91.8128L55.0675 91.5162C55.222 91.0837 55.4475 90.7346 55.7441 90.4689C56.0438 90.2001 56.3883 90.0054 56.7776 89.8849C57.1669 89.7614 57.5762 89.6996 58.0057 89.6996C58.2899 89.6996 58.5911 89.7335 58.9094 89.8015C59.2307 89.8664 59.5304 89.9869 59.8084 90.163C60.0896 90.3391 60.3197 90.5909 60.4989 90.9184C60.6781 91.2428 60.7677 91.6645 60.7677 92.1836V96.9106H59.4145V95.9374H59.3589C59.2693 96.1166 59.1349 96.2927 58.9557 96.4657C58.7765 96.6387 58.5463 96.7824 58.2652 96.8967C57.984 97.011 57.6473 97.0682 57.2549 97.0682ZM57.5561 95.9559C57.9392 95.9559 58.2667 95.8802 58.5386 95.7288C58.8136 95.5774 59.0221 95.3797 59.1642 95.1356C59.3095 94.8885 59.3821 94.6243 59.3821 94.3432V93.4256C59.3326 93.475 59.2369 93.5213 59.0947 93.5646C58.9557 93.6048 58.7966 93.6403 58.6174 93.6712C58.4382 93.699 58.2636 93.7253 58.0937 93.75C57.9238 93.7716 57.7817 93.7901 57.6674 93.8056C57.3986 93.8396 57.1529 93.8967 56.9305 93.9771C56.7111 94.0574 56.535 94.1732 56.4022 94.3246C56.2724 94.4729 56.2075 94.6707 56.2075 94.9178C56.2075 95.2608 56.3342 95.5203 56.5876 95.6964C56.8409 95.8694 57.1638 95.9559 57.5561 95.9559ZM67.9475 91.5301L66.6916 91.7526C66.639 91.5919 66.5556 91.439 66.4413 91.2938C66.3301 91.1486 66.1787 91.0296 65.9871 90.9369C65.7956 90.8442 65.5561 90.7979 65.2688 90.7979C64.8764 90.7979 64.549 90.886 64.2863 91.0621C64.0237 91.2351 63.8924 91.4591 63.8924 91.734C63.8924 91.9719 63.9805 92.1635 64.1566 92.3087C64.3327 92.4539 64.6169 92.5728 65.0093 92.6655L66.1401 92.9251C66.7951 93.0764 67.2832 93.3097 67.6045 93.6248C67.9258 93.94 68.0865 94.3493 68.0865 94.8529C68.0865 95.2793 67.9629 95.6593 67.7157 95.993C67.4717 96.3236 67.1303 96.5831 66.6916 96.7716C66.2559 96.96 65.7508 97.0542 65.1761 97.0542C64.379 97.0542 63.7287 96.8843 63.2251 96.5445C62.7215 96.2015 62.4125 95.7149 62.2982 95.0847L63.6375 94.8807C63.721 95.2299 63.8924 95.494 64.1519 95.6732C64.4115 95.8493 64.7498 95.9374 65.1669 95.9374C65.621 95.9374 65.9841 95.8431 66.2559 95.6547C66.5278 95.4631 66.6638 95.2299 66.6638 94.9549C66.6638 94.7324 66.5803 94.5455 66.4135 94.3941C66.2498 94.2428 65.998 94.1284 65.6581 94.0512L64.4532 93.787C63.7889 93.6357 63.2977 93.3947 62.9795 93.0641C62.6643 92.7335 62.5068 92.3149 62.5068 91.8082C62.5068 91.388 62.6242 91.0203 62.859 90.7052C63.0938 90.3901 63.4182 90.1445 63.8322 89.9684C64.2462 89.7892 64.7204 89.6996 65.2549 89.6996C66.0242 89.6996 66.6298 89.8664 67.0716 90.2001C67.5134 90.5307 67.8053 90.974 67.9475 91.5301ZM72.9328 89.7922V90.9045H69.0446V89.7922H72.9328ZM70.0874 88.0868H71.473V94.8205C71.473 95.0893 71.5132 95.2917 71.5935 95.4276C71.6739 95.5604 71.7774 95.6516 71.904 95.701C72.0338 95.7474 72.1744 95.7705 72.3257 95.7705C72.437 95.7705 72.5343 95.7628 72.6177 95.7474C72.7011 95.7319 72.766 95.7196 72.8124 95.7103L73.0626 96.855C72.9823 96.8859 72.868 96.9168 72.7197 96.9477C72.5714 96.9816 72.386 97.0002 72.1635 97.0033C71.799 97.0094 71.4591 96.9446 71.144 96.8086C70.8289 96.6727 70.574 96.4626 70.3793 96.1784C70.1847 95.8941 70.0874 95.5373 70.0874 95.1078V88.0868ZM78.8602 87.4195L81.5017 95.1495H81.6083L84.2499 87.4195H85.7978L82.3822 96.9106H80.7278L77.3123 87.4195H78.8602ZM87.0571 96.9106V89.7922H88.4428V96.9106H87.0571ZM87.7569 88.6939C87.5159 88.6939 87.3089 88.6136 87.1359 88.4529C86.966 88.2892 86.881 88.0945 86.881 87.869C86.881 87.6404 86.966 87.4457 87.1359 87.2851C87.3089 87.1213 87.5159 87.0395 87.7569 87.0395C87.9979 87.0395 88.2034 87.1213 88.3733 87.2851C88.5463 87.4457 88.6328 87.6404 88.6328 87.869C88.6328 88.0945 88.5463 88.2892 88.3733 88.4529C88.2034 88.6136 87.9979 88.6939 87.7569 88.6939ZM93.3749 97.0542C92.6736 97.0542 92.0695 96.9044 91.5629 96.6047C91.0593 96.3019 90.67 95.8771 90.395 95.3303C90.1231 94.7803 89.9872 94.1362 89.9872 93.3978C89.9872 92.6686 90.1231 92.026 90.395 91.4699C90.67 90.9138 91.0531 90.4797 91.5443 90.1676C92.0386 89.8556 92.6164 89.6996 93.2776 89.6996C93.6792 89.6996 94.0685 89.766 94.4454 89.8988C94.8223 90.0317 95.1606 90.2402 95.4603 90.5245C95.76 90.8087 95.9964 91.1779 96.1694 91.6321C96.3424 92.0832 96.4289 92.6316 96.4289 93.2773V93.7685H90.7704V92.7304H95.071C95.071 92.3658 94.9969 92.043 94.8486 91.7618C94.7003 91.4776 94.4918 91.2536 94.223 91.0899C93.9573 90.9261 93.6452 90.8442 93.2868 90.8442C92.8975 90.8442 92.5577 90.94 92.2673 91.1316C91.9799 91.32 91.7575 91.5672 91.5999 91.8731C91.4455 92.1758 91.3682 92.5049 91.3682 92.8602V93.6712C91.3682 94.147 91.4516 94.5517 91.6185 94.8854C91.7884 95.2191 92.0247 95.4739 92.3275 95.65C92.6303 95.8231 92.9841 95.9096 93.3888 95.9096C93.6514 95.9096 93.8908 95.8725 94.1071 95.7983C94.3234 95.7211 94.5103 95.6068 94.6679 95.4554C94.8254 95.304 94.9459 95.1171 95.0293 94.8946L96.3409 95.131C96.2358 95.5172 96.0473 95.8555 95.7755 96.1459C95.5067 96.4332 95.1684 96.6572 94.7605 96.8179C94.3558 96.9755 93.8939 97.0542 93.3749 97.0542ZM99.4968 96.9106L97.4021 89.7922H98.8341L100.229 95.0198H100.299L101.698 89.7922H103.13L104.52 94.9966H104.59L105.976 89.7922H107.408L105.318 96.9106H103.904L102.458 91.7711H102.352L100.906 96.9106H99.4968ZM111.574 97.0542C110.873 97.0542 110.269 96.9044 109.762 96.6047C109.258 96.3019 108.869 95.8771 108.594 95.3303C108.322 94.7803 108.186 94.1362 108.186 93.3978C108.186 92.6686 108.322 92.026 108.594 91.4699C108.869 90.9138 109.252 90.4797 109.743 90.1676C110.238 89.8556 110.815 89.6996 111.477 89.6996C111.878 89.6996 112.268 89.766 112.644 89.8988C113.021 90.0317 113.36 90.2402 113.659 90.5245C113.959 90.8087 114.195 91.1779 114.368 91.6321C114.541 92.0832 114.628 92.6316 114.628 93.2773V93.7685H108.969V92.7304H113.27C113.27 92.3658 113.196 92.043 113.048 91.7618C112.899 91.4776 112.691 91.2536 112.422 91.0899C112.156 90.9261 111.844 90.8442 111.486 90.8442C111.097 90.8442 110.757 90.94 110.466 91.1316C110.179 91.32 109.957 91.5672 109.799 91.8731C109.644 92.1758 109.567 92.5049 109.567 92.8602V93.6712C109.567 94.147 109.651 94.5517 109.817 94.8854C109.987 95.2191 110.224 95.4739 110.527 95.65C110.829 95.8231 111.183 95.9096 111.588 95.9096C111.85 95.9096 112.09 95.8725 112.306 95.7983C112.522 95.7211 112.709 95.6068 112.867 95.4554C113.024 95.304 113.145 95.1171 113.228 94.8946L114.54 95.131C114.435 95.5172 114.246 95.8555 113.974 96.1459C113.706 96.4332 113.367 96.6572 112.96 96.8179C112.555 96.9755 112.093 97.0542 111.574 97.0542ZM118.83 97.0496C118.255 97.0496 117.743 96.9029 117.292 96.6094C116.844 96.3128 116.491 95.891 116.235 95.3442C115.982 94.7942 115.855 94.1346 115.855 93.3653C115.855 92.596 115.983 91.9379 116.24 91.3911C116.499 90.8442 116.854 90.4256 117.305 90.1352C117.756 89.8448 118.268 89.6996 118.839 89.6996C119.281 89.6996 119.636 89.7737 119.905 89.922C120.177 90.0672 120.387 90.2371 120.536 90.4318C120.687 90.6264 120.804 90.7979 120.888 90.9462H120.971V87.4195H122.357V96.9106H121.004V95.803H120.888C120.804 95.9544 120.684 96.1274 120.526 96.322C120.372 96.5167 120.159 96.6866 119.887 96.8318C119.615 96.977 119.263 97.0496 118.83 97.0496ZM119.136 95.8679C119.535 95.8679 119.871 95.7628 120.146 95.5527C120.424 95.3395 120.634 95.0445 120.777 94.6676C120.922 94.2906 120.994 93.8519 120.994 93.3514C120.994 92.8571 120.923 92.4246 120.781 92.0538C120.639 91.6831 120.431 91.3942 120.156 91.1872C119.881 90.9802 119.541 90.8767 119.136 90.8767C118.719 90.8767 118.371 90.9848 118.093 91.2011C117.815 91.4174 117.605 91.7124 117.463 92.0862C117.324 92.4601 117.254 92.8818 117.254 93.3514C117.254 93.8272 117.325 94.2551 117.468 94.6351C117.61 95.0151 117.82 95.3164 118.098 95.5388C118.379 95.7582 118.725 95.8679 119.136 95.8679ZM125.247 96.9986C124.994 96.9986 124.776 96.909 124.594 96.7298C124.412 96.5476 124.321 96.3282 124.321 96.0718C124.321 95.8184 124.412 95.6022 124.594 95.423C124.776 95.2407 124.994 95.1495 125.247 95.1495C125.501 95.1495 125.719 95.2407 125.901 95.423C126.083 95.6022 126.174 95.8184 126.174 96.0718C126.174 96.2417 126.131 96.3977 126.045 96.5398C125.961 96.6789 125.85 96.7901 125.711 96.8735C125.572 96.9569 125.417 96.9986 125.247 96.9986ZM125.247 91.8175C124.994 91.8175 124.776 91.7263 124.594 91.544C124.412 91.3617 124.321 91.1439 124.321 90.8906C124.321 90.6372 124.412 90.421 124.594 90.2418C124.776 90.0595 124.994 89.9684 125.247 89.9684C125.501 89.9684 125.719 90.0595 125.901 90.2418C126.083 90.421 126.174 90.6372 126.174 90.8906C126.174 91.0605 126.131 91.2165 126.045 91.3587C125.961 91.4977 125.85 91.6089 125.711 91.6923C125.572 91.7757 125.417 91.8175 125.247 91.8175Z" fill="#7E7D86"/>
<path d="M131.127 88.6522V87.4195H138.473V88.6522H135.511V96.9106H134.084V88.6522H131.127ZM144.35 91.5301L143.094 91.7526C143.042 91.5919 142.958 91.439 142.844 91.2938C142.733 91.1486 142.581 91.0296 142.39 90.9369C142.198 90.8442 141.959 90.7979 141.672 90.7979C141.279 90.7979 140.952 90.886 140.689 91.0621C140.426 91.2351 140.295 91.4591 140.295 91.734C140.295 91.9719 140.383 92.1635 140.559 92.3087C140.735 92.4539 141.02 92.5728 141.412 92.6655L142.543 92.9251C143.198 93.0764 143.686 93.3097 144.007 93.6248C144.329 93.94 144.489 94.3493 144.489 94.8529C144.489 95.2793 144.366 95.6593 144.118 95.993C143.874 96.3236 143.533 96.5831 143.094 96.7716C142.659 96.96 142.154 97.0542 141.579 97.0542C140.782 97.0542 140.131 96.8843 139.628 96.5445C139.124 96.2015 138.815 95.7149 138.701 95.0847L140.04 94.8807C140.124 95.2299 140.295 95.494 140.555 95.6732C140.814 95.8493 141.153 95.9374 141.57 95.9374C142.024 95.9374 142.387 95.8431 142.659 95.6547C142.931 95.4631 143.067 95.2299 143.067 94.9549C143.067 94.7324 142.983 94.5455 142.816 94.3941C142.653 94.2428 142.401 94.1284 142.061 94.0512L140.856 93.787C140.192 93.6357 139.7 93.3947 139.382 93.0641C139.067 92.7335 138.91 92.3149 138.91 91.8082C138.91 91.388 139.027 91.0203 139.262 90.7052C139.497 90.3901 139.821 90.1445 140.235 89.9684C140.649 89.7892 141.123 89.6996 141.658 89.6996C142.427 89.6996 143.033 89.8664 143.474 90.2001C143.916 90.5307 144.208 90.974 144.35 91.5301ZM147.398 92.6841V96.9106H146.013V87.4195H147.38V90.9508H147.468C147.635 90.5677 147.89 90.2634 148.233 90.0379C148.576 89.8123 149.024 89.6996 149.577 89.6996C150.065 89.6996 150.491 89.8 150.856 90.0008C151.223 90.2016 151.508 90.5013 151.708 90.8999C151.912 91.2953 152.014 91.7896 152.014 92.3828V96.9106H150.629V92.5497C150.629 92.0275 150.494 91.6228 150.225 91.3355C149.957 91.0451 149.583 90.8999 149.104 90.8999C148.776 90.8999 148.483 90.9694 148.223 91.1084C147.967 91.2474 147.765 91.4513 147.616 91.7201C147.471 91.9858 147.398 92.3071 147.398 92.6841ZM153.863 96.9106V89.7922H155.249V96.9106H153.863ZM154.563 88.6939C154.322 88.6939 154.115 88.6136 153.942 88.4529C153.772 88.2892 153.687 88.0945 153.687 87.869C153.687 87.6404 153.772 87.4457 153.942 87.2851C154.115 87.1213 154.322 87.0395 154.563 87.0395C154.804 87.0395 155.01 87.1213 155.179 87.2851C155.353 87.4457 155.439 87.6404 155.439 87.869C155.439 88.0945 155.353 88.2892 155.179 88.4529C155.01 88.6136 154.804 88.6939 154.563 88.6939ZM157.113 96.9106V89.7922H158.452V90.923H158.527C158.656 90.5399 158.885 90.2387 159.213 90.0193C159.543 89.7969 159.917 89.6857 160.334 89.6857C160.421 89.6857 160.522 89.6887 160.64 89.6949C160.76 89.7011 160.855 89.7088 160.923 89.7181V91.0435C160.867 91.0281 160.768 91.0111 160.626 90.9925C160.484 90.9709 160.342 90.9601 160.2 90.9601C159.872 90.9601 159.58 91.0296 159.324 91.1686C159.07 91.3046 158.87 91.4946 158.721 91.7387C158.573 91.9797 158.499 92.2546 158.499 92.5636V96.9106H157.113ZM165.865 89.7922V90.9045H161.977V89.7922H165.865ZM163.02 88.0868H164.405V94.8205C164.405 95.0893 164.445 95.2917 164.526 95.4276C164.606 95.5604 164.71 95.6516 164.836 95.701C164.966 95.7474 165.107 95.7705 165.258 95.7705C165.369 95.7705 165.467 95.7628 165.55 95.7474C165.633 95.7319 165.698 95.7196 165.745 95.7103L165.995 96.855C165.915 96.8859 165.8 96.9168 165.652 96.9477C165.504 96.9816 165.318 97.0002 165.096 97.0033C164.731 97.0094 164.391 96.9446 164.076 96.8086C163.761 96.6727 163.506 96.4626 163.312 96.1784C163.117 95.8941 163.02 95.5373 163.02 95.1078V88.0868Z" fill="#EDEDEF"/>
<rect x="11.1955" y="72.8994" width="222.67" height="39.0223" rx="6.11732" stroke="url(#paint2_linear_9250_3383)" stroke-width="0.815642"/>
</g>
<g clip-path="url(#clip2_9250_3383)">
<rect x="244.061" y="72.4916" width="39.1508" height="39.1508" rx="6.52514" fill="url(#paint3_linear_9250_3383)"/>
<rect x="244.469" y="72.8994" width="38.3352" height="38.3352" rx="6.11732" fill="url(#paint4_linear_9250_3383)"/>
<path d="M266.371 90.2645H269.764V90.2639M257.509 97.2628V93.8697M257.509 93.8697H260.902M257.509 93.8697L259.671 96.0332C260.367 96.7293 261.234 97.2299 262.185 97.4846C263.136 97.7394 264.137 97.7393 265.088 97.4844C266.039 97.2295 266.906 96.7288 267.602 96.0326C268.298 95.3364 268.798 94.4692 269.053 93.5183M258.22 90.616C258.475 89.665 258.975 88.7978 259.671 88.1016C260.367 87.4054 261.234 86.9047 262.185 86.6498C263.136 86.395 264.137 86.3949 265.088 86.6496C266.039 86.9044 266.906 87.405 267.602 88.1011L269.764 90.2639M269.764 86.8715V90.2632" stroke="#7E7D86" stroke-width="1.22346" stroke-linecap="round" stroke-linejoin="round"/>
<rect x="244.469" y="72.8994" width="38.3352" height="38.3352" rx="6.11732" stroke="url(#paint5_linear_9250_3383)" stroke-width="0.815642"/>
</g>
<rect x="11.1955" y="122.525" width="271.609" height="39.0223" rx="6.11732" fill="#232326"/>
<path d="M34.7764 142.64L34.005 141.868C33.8889 141.752 33.7922 141.618 33.7188 141.47L32.9847 140.002C32.9648 139.962 32.9356 139.928 32.8997 139.902C32.8637 139.875 32.822 139.858 32.778 139.851C32.734 139.844 32.689 139.847 32.6465 139.861C32.6041 139.874 32.5656 139.898 32.5341 139.93C32.4632 140 32.3746 140.051 32.2776 140.076C32.1805 140.101 32.0785 140.1 31.9822 140.072L31.1169 139.826C30.9785 139.787 30.8307 139.798 30.7001 139.859C30.5695 139.919 30.4646 140.023 30.4042 140.154C30.3438 140.284 30.3319 140.432 30.3706 140.571C30.4093 140.709 30.496 140.829 30.6153 140.91L31.0143 141.175C31.4153 141.443 31.4724 142.011 31.1312 142.352L30.9952 142.488C30.8511 142.632 30.7709 142.826 30.7709 143.029V143.308C30.7709 143.586 30.6962 143.858 30.5534 144.095L29.6596 145.584C29.5322 145.797 29.3519 145.972 29.1363 146.095C28.9207 146.217 28.6771 146.281 28.4294 146.281C28.2392 146.281 28.0568 146.205 27.9223 146.071C27.7878 145.936 27.7123 145.754 27.7123 145.564V144.767C27.7123 144.142 27.3317 143.58 26.7512 143.347L26.306 143.17C25.9821 143.04 25.7122 142.804 25.5412 142.499C25.3702 142.195 25.3084 141.842 25.366 141.498L25.3707 141.469C25.4023 141.28 25.4692 141.099 25.5678 140.934L25.629 140.832C25.7913 140.562 26.0332 140.348 26.3216 140.221C26.61 140.093 26.9307 140.058 27.2399 140.12L28.0406 140.28C28.229 140.318 28.4247 140.283 28.5886 140.183C28.7526 140.083 28.8729 139.925 28.9256 139.74L29.0669 139.244C29.1159 139.072 29.1035 138.889 29.0317 138.726C28.96 138.563 28.8335 138.43 28.6741 138.35L28.2221 138.124L28.1602 138.186C28.0182 138.328 27.8496 138.441 27.6641 138.518C27.4785 138.595 27.2796 138.634 27.0788 138.634H26.9565C26.7872 138.634 26.6254 138.702 26.5065 138.82C26.3975 138.93 26.2519 138.997 26.0974 139.006C25.9428 139.016 25.79 138.969 25.6679 138.874C25.5458 138.779 25.4628 138.642 25.4347 138.49C25.4066 138.337 25.4354 138.18 25.5155 138.048L26.4745 136.448C26.5701 136.289 26.636 136.114 26.6689 135.932M34.7764 142.64C34.9411 141.591 34.83 140.517 34.4541 139.525C34.0782 138.532 33.4504 137.654 32.6325 136.977C31.8146 136.301 30.8347 135.849 29.7891 135.665C28.7435 135.482 27.6682 135.574 26.6689 135.932C25.6523 136.297 24.7503 136.924 24.0545 137.75C23.3588 138.576 22.8941 139.571 22.7076 140.635C22.5212 141.699 22.6197 142.793 22.9932 143.806C23.3666 144.819 24.0016 145.716 24.8337 146.404C25.6658 147.093 26.6654 147.548 27.7307 147.725C28.7961 147.902 29.8893 147.794 30.8993 147.412C31.9093 147.029 32.8 146.386 33.481 145.548C34.162 144.71 34.6089 143.706 34.7764 142.64Z" stroke="#706F78" stroke-width="1.22346" stroke-linecap="round" stroke-linejoin="round"/>
<path d="M50.7542 146.536H47.8253V137.045H50.884C51.8047 137.045 52.5925 137.235 53.2475 137.615C53.9025 137.992 54.4045 138.534 54.7536 139.242C55.1028 139.946 55.2773 140.79 55.2773 141.772C55.2773 142.761 55.1012 143.612 54.749 144.326C54.3968 145.036 53.8839 145.583 53.2104 145.966C52.5369 146.346 51.7181 146.536 50.7542 146.536ZM48.9746 145.517H50.6801C51.4648 145.517 52.1152 145.365 52.6311 145.063C53.1471 144.76 53.5317 144.329 53.7851 143.77C54.0384 143.21 54.1651 142.545 54.1651 141.772C54.1651 141.006 54.0399 140.346 53.7897 139.793C53.5394 139.237 53.1656 138.811 52.6682 138.514C52.1708 138.215 51.5513 138.065 50.8098 138.065H48.9746V145.517ZM60.0414 146.685C59.3555 146.685 58.7639 146.533 58.2665 146.23C57.7721 145.925 57.3906 145.498 57.1218 144.951C56.8561 144.401 56.7232 143.762 56.7232 143.033C56.7232 142.304 56.8561 141.661 57.1218 141.105C57.3906 140.546 57.7644 140.11 58.2433 139.798C58.7253 139.483 59.2876 139.325 59.9302 139.325C60.3009 139.325 60.667 139.387 61.0285 139.511C61.39 139.634 61.719 139.835 62.0156 140.113C62.3122 140.388 62.5486 140.753 62.7247 141.207C62.9008 141.661 62.9888 142.22 62.9888 142.884V143.348H57.5018V142.402H61.8766C61.8766 142.001 61.7963 141.642 61.6356 141.327C61.478 141.012 61.2525 140.763 60.959 140.581C60.6686 140.399 60.3256 140.308 59.9302 140.308C59.4946 140.308 59.1176 140.416 58.7994 140.632C58.4843 140.845 58.2417 141.123 58.0718 141.466C57.9019 141.809 57.8169 142.177 57.8169 142.569V143.2C57.8169 143.737 57.9096 144.193 58.095 144.567C58.2835 144.937 58.5445 145.22 58.8782 145.415C59.2119 145.606 59.5996 145.702 60.0414 145.702C60.3287 145.702 60.5883 145.662 60.82 145.582C61.0548 145.498 61.2571 145.375 61.4271 145.211C61.597 145.044 61.7283 144.837 61.821 144.59L62.8776 144.886C62.7664 145.245 62.5795 145.56 62.3169 145.832C62.0543 146.101 61.7298 146.311 61.3437 146.462C60.9575 146.61 60.5234 146.685 60.0414 146.685ZM65.7463 142.254V146.536H64.6526V139.418H65.7092V140.53H65.8019C65.9687 140.169 66.2221 139.878 66.5619 139.659C66.9018 139.437 67.3405 139.325 67.8781 139.325C68.36 139.325 68.7818 139.424 69.1432 139.622C69.5047 139.817 69.7859 140.113 69.9867 140.512C70.1875 140.907 70.2879 141.408 70.2879 142.013V146.536H69.1942V142.087C69.1942 141.528 69.049 141.093 68.7586 140.78C68.4682 140.465 68.0696 140.308 67.5629 140.308C67.2138 140.308 66.9018 140.383 66.6268 140.535C66.3549 140.686 66.1402 140.907 65.9826 141.198C65.8251 141.488 65.7463 141.84 65.7463 142.254ZM72.2865 146.536V139.418H73.3431V140.53H73.4358C73.5841 140.15 73.8235 139.855 74.1541 139.645C74.4847 139.432 74.8817 139.325 75.3451 139.325C75.8147 139.325 76.2056 139.432 76.5176 139.645C76.8327 139.855 77.0784 140.15 77.2545 140.53H77.3286C77.5109 140.163 77.7843 139.871 78.1489 139.654C78.5135 139.435 78.9506 139.325 79.4604 139.325C80.0969 139.325 80.6175 139.525 81.0222 139.923C81.4269 140.319 81.6293 140.935 81.6293 141.772V146.536H80.5356V141.772C80.5356 141.247 80.3919 140.872 80.1046 140.646C79.8173 140.421 79.479 140.308 79.0897 140.308C78.5892 140.308 78.2014 140.459 77.9265 140.762C77.6515 141.062 77.514 141.442 77.514 141.902V146.536H76.4018V141.661C76.4018 141.256 76.2704 140.93 76.0078 140.683C75.7452 140.433 75.4069 140.308 74.9929 140.308C74.7087 140.308 74.443 140.383 74.1958 140.535C73.9517 140.686 73.754 140.896 73.6026 141.165C73.4543 141.431 73.3802 141.738 73.3802 142.087V146.536H72.2865ZM85.7237 146.703C85.2726 146.703 84.8633 146.618 84.4956 146.448C84.128 146.275 83.836 146.027 83.6197 145.702C83.4035 145.375 83.2953 144.979 83.2953 144.516C83.2953 144.108 83.3757 143.777 83.5363 143.524C83.697 143.268 83.9117 143.067 84.1805 142.922C84.4493 142.776 84.7459 142.668 85.0703 142.597C85.3978 142.523 85.7268 142.464 86.0574 142.421C86.4899 142.365 86.8406 142.324 87.1094 142.296C87.3813 142.265 87.579 142.214 87.7026 142.143C87.8292 142.072 87.8926 141.948 87.8926 141.772V141.735C87.8926 141.278 87.7675 140.923 87.5172 140.669C87.27 140.416 86.8947 140.289 86.3911 140.289C85.8689 140.289 85.4596 140.404 85.163 140.632C84.8664 140.861 84.6578 141.105 84.5373 141.364L83.4992 140.994C83.6846 140.561 83.9318 140.224 84.2407 139.983C84.5528 139.739 84.8926 139.569 85.2603 139.474C85.631 139.375 85.9956 139.325 86.354 139.325C86.5826 139.325 86.8452 139.353 87.1418 139.409C87.4415 139.461 87.7304 139.571 88.0084 139.738C88.2896 139.905 88.5228 140.156 88.7082 140.493C88.8936 140.83 88.9863 141.281 88.9863 141.846V146.536H87.8926V145.572H87.837C87.7628 145.727 87.6392 145.892 87.4662 146.068C87.2932 146.244 87.063 146.394 86.7757 146.518C86.4884 146.641 86.1377 146.703 85.7237 146.703ZM85.8905 145.721C86.3231 145.721 86.6877 145.636 86.9843 145.466C87.2839 145.296 87.5095 145.077 87.6609 144.808C87.8153 144.539 87.8926 144.256 87.8926 143.96V142.959C87.8462 143.014 87.7443 143.065 87.5867 143.112C87.4322 143.155 87.253 143.193 87.0491 143.227C86.8483 143.258 86.6521 143.286 86.4606 143.311C86.2721 143.332 86.1192 143.351 86.0018 143.366C85.7175 143.404 85.4518 143.464 85.2047 143.547C84.9606 143.628 84.7629 143.75 84.6115 143.913C84.4632 144.074 84.389 144.293 84.389 144.571C84.389 144.951 84.5296 145.239 84.8107 145.433C85.095 145.625 85.4549 145.721 85.8905 145.721ZM90.9825 146.536V139.418H92.0391V140.493H92.1133C92.2431 140.141 92.4779 139.855 92.8177 139.636C93.1576 139.416 93.5407 139.307 93.967 139.307C94.0474 139.307 94.1478 139.308 94.2683 139.311C94.3888 139.314 94.4799 139.319 94.5417 139.325V140.438C94.5046 140.428 94.4197 140.414 94.2868 140.396C94.157 140.374 94.0196 140.363 93.8743 140.363C93.5283 140.363 93.2194 140.436 92.9475 140.581C92.6787 140.723 92.4655 140.921 92.3079 141.174C92.1535 141.425 92.0762 141.71 92.0762 142.032V146.536H90.9825ZM96.8577 143.941L96.8392 142.588H97.0616L100.176 139.418H101.529L98.2109 142.773H98.1182L96.8577 143.941ZM95.8381 146.536V137.045H96.9318V146.536H95.8381ZM100.361 146.536L97.5807 143.014L98.3592 142.254L101.752 146.536H100.361Z" fill="#EDEDEF"/>
<path d="M262.006 143.936L265.064 146.994L268.123 143.936M262.006 139.042L265.064 135.983L268.123 139.042" stroke="#706F78" stroke-width="1.22346" stroke-linecap="round" stroke-linejoin="round"/>
<rect x="11.1955" y="122.525" width="271.609" height="39.0223" rx="6.11732" stroke="url(#paint6_linear_9250_3383)" stroke-width="0.815642"/>
</g>
</g>
<defs>
<filter id="filter0_ddd_9250_3383" x="-3.17143" y="6.91429" width="300.343" height="171.086" filterUnits="userSpaceOnUse" color-interpolation-filters="sRGB">
<feFlood flood-opacity="0" result="BackgroundImageFix"/>
<feColorMatrix in="SourceAlpha" type="matrix" values="0 0 0 0 0 0 0 0 0 0 0 0 0 0 0 0 0 0 127 0" result="hardAlpha"/>
<feOffset dy="2.08571"/>
<feGaussianBlur stdDeviation="2.08571"/>
<feComposite in2="hardAlpha" operator="out"/>
<feColorMatrix type="matrix" values="0 0 0 0 0 0 0 0 0 0 0 0 0 0 0 0 0 0 0.32 0"/>
<feBlend mode="normal" in2="BackgroundImageFix" result="effect1_dropShadow_9250_3383"/>
<feColorMatrix in="SourceAlpha" type="matrix" values="0 0 0 0 0 0 0 0 0 0 0 0 0 0 0 0 0 0 127 0" result="hardAlpha"/>
<feMorphology radius="1.04286" operator="erode" in="SourceAlpha" result="effect2_dropShadow_9250_3383"/>
<feOffset dy="1.04286"/>
<feGaussianBlur stdDeviation="1.04286"/>
<feComposite in2="hardAlpha" operator="out"/>
<feColorMatrix type="matrix" values="0 0 0 0 1 0 0 0 0 1 0 0 0 0 1 0 0 0 0.16 0"/>
<feBlend mode="normal" in2="effect1_dropShadow_9250_3383" result="effect2_dropShadow_9250_3383"/>
<feColorMatrix in="SourceAlpha" type="matrix" values="0 0 0 0 0 0 0 0 0 0 0 0 0 0 0 0 0 0 127 0" result="hardAlpha"/>
<feMorphology radius="1.04286" operator="dilate" in="SourceAlpha" result="effect3_dropShadow_9250_3383"/>
<feOffset/>
<feComposite in2="hardAlpha" operator="out"/>
<feColorMatrix type="matrix" values="0 0 0 0 1 0 0 0 0 1 0 0 0 0 1 0 0 0 0.1 0"/>
<feBlend mode="normal" in2="effect2_dropShadow_9250_3383" result="effect3_dropShadow_9250_3383"/>
<feBlend mode="normal" in="SourceGraphic" in2="effect3_dropShadow_9250_3383" result="shape"/>
</filter>
<linearGradient id="paint0_linear_9250_3383" x1="122.531" y1="72.4916" x2="122.531" y2="112.33" gradientUnits="userSpaceOnUse">
<stop stop-color="#2E2E32"/>
<stop offset="0.326657" stop-color="#28282C"/>
</linearGradient>
<linearGradient id="paint1_linear_9250_3383" x1="122.531" y1="73.3073" x2="122.531" y2="111.514" gradientUnits="userSpaceOnUse">
<stop stop-color="#2E2E32"/>
<stop offset="0.326657" stop-color="#28282C"/>
</linearGradient>
<linearGradient id="paint2_linear_9250_3383" x1="122.531" y1="73.3073" x2="122.531" y2="111.514" gradientUnits="userSpaceOnUse">
<stop stop-color="white" stop-opacity="0.12"/>
<stop offset="0.2989" stop-color="white" stop-opacity="0.06"/>
</linearGradient>
<linearGradient id="paint3_linear_9250_3383" x1="263.637" y1="72.4916" x2="263.637" y2="111.642" gradientUnits="userSpaceOnUse">
<stop stop-color="#2E2E32"/>
<stop offset="0.326657" stop-color="#28282C"/>
</linearGradient>
<linearGradient id="paint4_linear_9250_3383" x1="263.637" y1="73.3073" x2="263.637" y2="110.827" gradientUnits="userSpaceOnUse">
<stop stop-color="#2E2E32"/>
<stop offset="0.326657" stop-color="#28282C"/>
</linearGradient>
<linearGradient id="paint5_linear_9250_3383" x1="263.637" y1="73.3073" x2="263.637" y2="110.827" gradientUnits="userSpaceOnUse">
<stop stop-color="white" stop-opacity="0.12"/>
<stop offset="0.2989" stop-color="white" stop-opacity="0.06"/>
</linearGradient>
<linearGradient id="paint6_linear_9250_3383" x1="147" y1="122.117" x2="147" y2="161.955" gradientUnits="userSpaceOnUse">
<stop stop-color="white" stop-opacity="0.12"/>
<stop offset="0.2989" stop-color="white" stop-opacity="0.06"/>
</linearGradient>
<clipPath id="clip0_9250_3383">
<rect width="294" height="180" fill="white"/>
</clipPath>
<clipPath id="clip1_9250_3383">
<rect x="10.7877" y="72.4916" width="223.486" height="39.838" rx="6.52514" fill="white"/>
</clipPath>
<clipPath id="clip2_9250_3383">
<rect x="244.061" y="72.4916" width="39.1508" height="39.1508" rx="6.52514" fill="white"/>
</clipPath>
</defs>
</svg>
