<svg width="294" height="179" viewBox="0 0 294 179" fill="none" xmlns="http://www.w3.org/2000/svg">
<g clip-path="url(#clip0_9278_2333)">
<g filter="url(#filter0_ddd_9278_2333)">
<rect x="1" y="8" width="292" height="162.743" rx="13.0503" fill="#1C1C1F"/>
<path d="M21.4878 37.9442V29.6394H24.448C25.0914 29.6394 25.6253 29.7503 26.0497 29.9719C26.4769 30.1936 26.7959 30.5004 27.0067 30.8924C27.2176 31.2817 27.323 31.7318 27.323 32.2428C27.323 32.751 27.2162 33.1984 27.0027 33.585C26.7918 33.9689 26.4728 34.2676 26.0457 34.4811C25.6213 34.6947 25.0873 34.8015 24.4439 34.8015H22.2015V33.7229H24.3304C24.7359 33.7229 25.0657 33.6647 25.3198 33.5485C25.5767 33.4322 25.7645 33.2633 25.8835 33.0416C26.0024 32.8199 26.0619 32.5537 26.0619 32.2428C26.0619 31.9292 26.0011 31.6575 25.8794 31.4277C25.7605 31.1979 25.5726 31.0222 25.3158 30.9005C25.0617 30.7762 24.7278 30.714 24.3142 30.714H22.7408V37.9442H21.4878ZM25.5875 34.1973L27.6393 37.9442H26.2119L24.2006 34.1973H25.5875ZM31.3568 38.0699C30.7431 38.0699 30.2146 37.9387 29.7713 37.6765C29.3306 37.4116 28.99 37.0399 28.7494 36.5614C28.5115 36.0802 28.3925 35.5165 28.3925 34.8704C28.3925 34.2324 28.5115 33.6701 28.7494 33.1835C28.99 32.6969 29.3252 32.3171 29.755 32.0441C30.1876 31.771 30.6931 31.6345 31.2716 31.6345C31.6231 31.6345 31.9637 31.6926 32.2935 31.8089C32.6233 31.9251 32.9193 32.1076 33.1815 32.3563C33.4438 32.605 33.6506 32.9281 33.802 33.3255C33.9534 33.7202 34.0291 34.2 34.0291 34.765V35.1948H29.0778V34.2865H32.8409C32.8409 33.9675 32.776 33.685 32.6463 33.439C32.5165 33.1903 32.334 32.9943 32.0989 32.851C31.8664 32.7077 31.5933 32.6361 31.2797 32.6361C30.9391 32.6361 30.6417 32.7199 30.3876 32.8875C30.1362 33.0524 29.9416 33.2687 29.8037 33.5363C29.6685 33.8013 29.6009 34.0892 29.6009 34.4V35.1097C29.6009 35.526 29.6739 35.8801 29.8199 36.1721C29.9686 36.4641 30.1754 36.6871 30.4403 36.8412C30.7053 36.9926 31.0148 37.0683 31.3689 37.0683C31.5987 37.0683 31.8082 37.0358 31.9975 36.9709C32.1867 36.9034 32.3503 36.8033 32.4881 36.6709C32.626 36.5384 32.7314 36.3749 32.8044 36.1802L33.952 36.387C33.8601 36.7249 33.6952 37.021 33.4573 37.2751C33.2221 37.5265 32.9261 37.7225 32.5692 37.8631C32.2151 38.0009 31.8109 38.0699 31.3568 38.0699ZM40.0417 33.2363L38.9427 33.4309C38.8968 33.2903 38.8238 33.1565 38.7238 33.0294C38.6265 32.9024 38.494 32.7983 38.3264 32.7172C38.1588 32.6361 37.9493 32.5956 37.6978 32.5956C37.3545 32.5956 37.068 32.6726 36.8382 32.8267C36.6084 32.9781 36.4935 33.1741 36.4935 33.4147C36.4935 33.6228 36.5705 33.7904 36.7246 33.9175C36.8787 34.0446 37.1274 34.1486 37.4708 34.2297L38.4602 34.4568C39.0333 34.5893 39.4604 34.7934 39.7416 35.0691C40.0227 35.3449 40.1633 35.7031 40.1633 36.1437C40.1633 36.5168 40.0552 36.8493 39.8389 37.1413C39.6253 37.4305 39.3266 37.6576 38.9427 37.8225C38.5616 37.9874 38.1196 38.0699 37.6167 38.0699C36.9193 38.0699 36.3502 37.9212 35.9096 37.6238C35.4689 37.3237 35.1986 36.898 35.0986 36.3465L36.2705 36.168C36.3435 36.4735 36.4935 36.7047 36.7206 36.8615C36.9477 37.0155 37.2437 37.0926 37.6086 37.0926C38.006 37.0926 38.3237 37.0101 38.5616 36.8452C38.7995 36.6776 38.9184 36.4735 38.9184 36.2329C38.9184 36.0383 38.8454 35.8747 38.6994 35.7423C38.5562 35.6098 38.3358 35.5098 38.0385 35.4422L36.9842 35.2111C36.4029 35.0786 35.9731 34.8677 35.6947 34.5785C35.4189 34.2892 35.281 33.9229 35.281 33.4796C35.281 33.1119 35.3838 32.7902 35.5892 32.5145C35.7947 32.2387 36.0785 32.0238 36.4408 31.8697C36.803 31.7129 37.218 31.6345 37.6857 31.6345C38.3588 31.6345 38.8887 31.7805 39.2753 32.0725C39.6618 32.3617 39.9173 32.7496 40.0417 33.2363ZM41.4964 40.2799V31.7156H42.6805V32.7253H42.7819C42.8521 32.5956 42.9535 32.4455 43.086 32.2752C43.2184 32.1049 43.4023 31.9562 43.6375 31.8292C43.8727 31.6994 44.1835 31.6345 44.5701 31.6345C45.073 31.6345 45.5217 31.7616 45.9164 32.0157C46.3111 32.2698 46.6206 32.6361 46.845 33.1146C47.0721 33.5931 47.1856 34.1689 47.1856 34.842C47.1856 35.5152 47.0734 36.0924 46.8491 36.5735C46.6247 37.052 46.3165 37.4211 45.9245 37.6806C45.5325 37.9374 45.0851 38.0658 44.5823 38.0658C44.2038 38.0658 43.8943 38.0023 43.6537 37.8752C43.4158 37.7482 43.2293 37.5995 43.0941 37.4292C42.9589 37.2589 42.8548 37.1075 42.7819 36.975H42.7089V40.2799H41.4964ZM42.6845 34.8299C42.6845 35.2678 42.7481 35.6517 42.8751 35.9815C43.0022 36.3113 43.186 36.5695 43.4266 36.756C43.6672 36.9399 43.9619 37.0318 44.3106 37.0318C44.6729 37.0318 44.9756 36.9358 45.2189 36.7439C45.4622 36.5492 45.6461 36.2856 45.7704 35.9531C45.8975 35.6206 45.961 35.2462 45.961 34.8299C45.961 34.419 45.8988 34.05 45.7745 33.7229C45.6528 33.3957 45.469 33.1376 45.223 32.9483C44.9797 32.7591 44.6756 32.6645 44.3106 32.6645C43.9592 32.6645 43.6618 32.7551 43.4185 32.9362C43.1779 33.1173 42.9954 33.3701 42.8711 33.6945C42.7467 34.0189 42.6845 34.3973 42.6845 34.8299ZM51.1677 38.0699C50.5838 38.0699 50.0742 37.936 49.6389 37.6684C49.2037 37.4008 48.8658 37.0264 48.6252 36.5452C48.3846 36.064 48.2643 35.5017 48.2643 34.8583C48.2643 34.2122 48.3846 33.6472 48.6252 33.1633C48.8658 32.6794 49.2037 32.3036 49.6389 32.036C50.0742 31.7683 50.5838 31.6345 51.1677 31.6345C51.7516 31.6345 52.2612 31.7683 52.6964 32.036C53.1317 32.3036 53.4696 32.6794 53.7102 33.1633C53.9508 33.6472 54.0711 34.2122 54.0711 34.8583C54.0711 35.5017 53.9508 36.064 53.7102 36.5452C53.4696 37.0264 53.1317 37.4008 52.6964 37.6684C52.2612 37.936 51.7516 38.0699 51.1677 38.0699ZM51.1717 37.052C51.5502 37.052 51.8638 36.952 52.1125 36.752C52.3612 36.5519 52.545 36.2856 52.664 35.9531C52.7856 35.6206 52.8465 35.2543 52.8465 34.8542C52.8465 34.4568 52.7856 34.0919 52.664 33.7594C52.545 33.4241 52.3612 33.1551 52.1125 32.9524C51.8638 32.7496 51.5502 32.6483 51.1717 32.6483C50.7906 32.6483 50.4743 32.7496 50.2229 32.9524C49.9741 33.1551 49.789 33.4241 49.6673 33.7594C49.5484 34.0919 49.4889 34.4568 49.4889 34.8542C49.4889 35.2543 49.5484 35.6206 49.6673 35.9531C49.789 36.2856 49.9741 36.5519 50.2229 36.752C50.4743 36.952 50.7906 37.052 51.1717 37.052ZM56.6369 34.246V37.9442H55.4245V31.7156H56.5883V32.7294H56.6653C56.8086 32.3996 57.033 32.1346 57.3384 31.9346C57.6466 31.7345 58.0346 31.6345 58.5022 31.6345C58.9267 31.6345 59.2984 31.7237 59.6174 31.9021C59.9364 32.0779 60.1837 32.3401 60.3594 32.6888C60.5352 33.0376 60.623 33.4687 60.623 33.9824V37.9442H59.4106V34.1284C59.4106 33.6769 59.293 33.3241 59.0578 33.07C58.8226 32.8132 58.4995 32.6848 58.0886 32.6848C57.8075 32.6848 57.5574 32.7456 57.3384 32.8672C57.1222 32.9889 56.9505 33.1673 56.8234 33.4025C56.6991 33.635 56.6369 33.9161 56.6369 34.246ZM66.9164 33.2363L65.8175 33.4309C65.7716 33.2903 65.6986 33.1565 65.5986 33.0294C65.5012 32.9024 65.3688 32.7983 65.2012 32.7172C65.0336 32.6361 64.824 32.5956 64.5726 32.5956C64.2293 32.5956 63.9427 32.6726 63.713 32.8267C63.4832 32.9781 63.3683 33.1741 63.3683 33.4147C63.3683 33.6228 63.4453 33.7904 63.5994 33.9175C63.7535 34.0446 64.0022 34.1486 64.3455 34.2297L65.335 34.4568C65.9081 34.5893 66.3352 34.7934 66.6164 35.0691C66.8975 35.3449 67.0381 35.7031 67.0381 36.1437C67.0381 36.5168 66.93 36.8493 66.7137 37.1413C66.5001 37.4305 66.2014 37.6576 65.8175 37.8225C65.4364 37.9874 64.9944 38.0699 64.4915 38.0699C63.7941 38.0699 63.225 37.9212 62.7844 37.6238C62.3437 37.3237 62.0734 36.898 61.9733 36.3465L63.1453 36.168C63.2182 36.4735 63.3683 36.7047 63.5954 36.8615C63.8224 37.0155 64.1185 37.0926 64.4834 37.0926C64.8808 37.0926 65.1985 37.0101 65.4364 36.8452C65.6742 36.6776 65.7932 36.4735 65.7932 36.2329C65.7932 36.0383 65.7202 35.8747 65.5742 35.7423C65.4309 35.6098 65.2106 35.5098 64.9133 35.4422L63.8589 35.2111C63.2777 35.0786 62.8479 34.8677 62.5694 34.5785C62.2937 34.2892 62.1558 33.9229 62.1558 33.4796C62.1558 33.1119 62.2586 32.7902 62.464 32.5145C62.6695 32.2387 62.9533 32.0238 63.3156 31.8697C63.6778 31.7129 64.0928 31.6345 64.5605 31.6345C65.2336 31.6345 65.7635 31.7805 66.15 32.0725C66.5366 32.3617 66.7921 32.7496 66.9164 33.2363ZM71.0556 38.0699C70.442 38.0699 69.9135 37.9387 69.4701 37.6765C69.0295 37.4116 68.6888 37.0399 68.4482 36.5614C68.2103 36.0802 68.0914 35.5165 68.0914 34.8704C68.0914 34.2324 68.2103 33.6701 68.4482 33.1835C68.6888 32.6969 69.0241 32.3171 69.4539 32.0441C69.8864 31.771 70.392 31.6345 70.9705 31.6345C71.3219 31.6345 71.6625 31.6926 71.9923 31.8089C72.3222 31.9251 72.6182 32.1076 72.8804 32.3563C73.1426 32.605 73.3494 32.9281 73.5008 33.3255C73.6522 33.7202 73.7279 34.2 73.7279 34.765V35.1948H68.7767V34.2865H72.5398C72.5398 33.9675 72.4749 33.685 72.3451 33.439C72.2154 33.1903 72.0329 32.9943 71.7977 32.851C71.5652 32.7077 71.2922 32.6361 70.9786 32.6361C70.638 32.6361 70.3406 32.7199 70.0865 32.8875C69.8351 33.0524 69.6404 33.2687 69.5025 33.5363C69.3674 33.8013 69.2998 34.0892 69.2998 34.4V35.1097C69.2998 35.526 69.3728 35.8801 69.5188 36.1721C69.6675 36.4641 69.8743 36.6871 70.1392 36.8412C70.4041 36.9926 70.7137 37.0683 71.0678 37.0683C71.2976 37.0683 71.5071 37.0358 71.6963 36.9709C71.8856 36.9034 72.0491 36.8033 72.187 36.6709C72.3249 36.5384 72.4303 36.3749 72.5033 36.1802L73.6509 36.387C73.5589 36.7249 73.394 37.021 73.1561 37.2751C72.9209 37.5265 72.6249 37.7225 72.2681 37.8631C71.9139 38.0009 71.5098 38.0699 71.0556 38.0699ZM81.0026 31.7156V32.6888H77.6005V31.7156H81.0026ZM78.5128 30.2234H79.7253V36.1153C79.7253 36.3505 79.7604 36.5276 79.8307 36.6465C79.901 36.7628 79.9916 36.8425 80.1024 36.8858C80.216 36.9263 80.339 36.9466 80.4714 36.9466C80.5688 36.9466 80.6539 36.9399 80.7269 36.9263C80.7999 36.9128 80.8567 36.902 80.8972 36.8939L81.1162 37.8955C81.0459 37.9225 80.9459 37.9496 80.8161 37.9766C80.6863 38.0063 80.5241 38.0226 80.3295 38.0253C80.0105 38.0307 79.7131 37.9739 79.4374 37.8549C79.1617 37.736 78.9386 37.5522 78.7683 37.3035C78.598 37.0547 78.5128 36.7425 78.5128 36.3667V30.2234ZM82.3438 37.9442V31.7156H83.5563V37.9442H82.3438ZM82.9562 30.7546C82.7453 30.7546 82.5642 30.6843 82.4128 30.5437C82.2641 30.4004 82.1898 30.2301 82.1898 30.0328C82.1898 29.8327 82.2641 29.6624 82.4128 29.5218C82.5642 29.3786 82.7453 29.3069 82.9562 29.3069C83.167 29.3069 83.3468 29.3786 83.4955 29.5218C83.6469 29.6624 83.7226 29.8327 83.7226 30.0328C83.7226 30.2301 83.6469 30.4004 83.4955 30.5437C83.3468 30.6843 83.167 30.7546 82.9562 30.7546ZM85.1874 37.9442V31.7156H86.3512V32.7294H86.4283C86.558 32.386 86.7703 32.1184 87.0649 31.9265C87.3596 31.7318 87.7124 31.6345 88.1233 31.6345C88.5396 31.6345 88.8883 31.7318 89.1695 31.9265C89.4533 32.1211 89.6629 32.3887 89.798 32.7294H89.8629C90.0116 32.3969 90.2481 32.1319 90.5725 31.9346C90.8969 31.7345 91.2835 31.6345 91.7323 31.6345C92.2973 31.6345 92.7582 31.8116 93.115 32.1657C93.4746 32.5199 93.6544 33.0538 93.6544 33.7675V37.9442H92.4419V33.881C92.4419 33.4593 92.327 33.1538 92.0972 32.9646C91.8674 32.7753 91.5931 32.6807 91.2741 32.6807C90.8794 32.6807 90.5725 32.8024 90.3536 33.0457C90.1346 33.2863 90.0251 33.5958 90.0251 33.9743V37.9442H88.8167V33.804C88.8167 33.466 88.7113 33.1943 88.5004 32.9889C88.2895 32.7834 88.0152 32.6807 87.6772 32.6807C87.4475 32.6807 87.2352 32.7415 87.0406 32.8632C86.8487 32.9821 86.6932 33.1484 86.5743 33.362C86.458 33.5755 86.3999 33.8229 86.3999 34.104V37.9442H85.1874ZM97.9639 38.0699C97.3502 38.0699 96.8217 37.9387 96.3783 37.6765C95.9377 37.4116 95.5971 37.0399 95.3565 36.5614C95.1186 36.0802 94.9996 35.5165 94.9996 34.8704C94.9996 34.2324 95.1186 33.6701 95.3565 33.1835C95.5971 32.6969 95.9323 32.3171 96.3621 32.0441C96.7947 31.771 97.3002 31.6345 97.8787 31.6345C98.2301 31.6345 98.5708 31.6926 98.9006 31.8089C99.2304 31.9251 99.5264 32.1076 99.7886 32.3563C100.051 32.605 100.258 32.9281 100.409 33.3255C100.56 33.7202 100.636 34.2 100.636 34.765V35.1948H95.6849V34.2865H99.448C99.448 33.9675 99.3831 33.685 99.2534 33.439C99.1236 33.1903 98.9411 32.9943 98.7059 32.851C98.4734 32.7077 98.2004 32.6361 97.8868 32.6361C97.5462 32.6361 97.2488 32.7199 96.9947 32.8875C96.7433 33.0524 96.5487 33.2687 96.4108 33.5363C96.2756 33.8013 96.208 34.0892 96.208 34.4V35.1097C96.208 35.526 96.281 35.8801 96.427 36.1721C96.5757 36.4641 96.7825 36.6871 97.0474 36.8412C97.3124 36.9926 97.6219 37.0683 97.976 37.0683C98.2058 37.0683 98.4153 37.0358 98.6046 36.9709C98.7938 36.9034 98.9573 36.8033 99.0952 36.6709C99.2331 36.5384 99.3385 36.3749 99.4115 36.1802L100.559 36.387C100.467 36.7249 100.302 37.021 100.064 37.2751C99.8292 37.5265 99.5332 37.7225 99.1763 37.8631C98.8222 38.0009 98.418 38.0699 97.9639 38.0699ZM102.78 38.0212C102.559 38.0212 102.368 37.9428 102.208 37.786C102.049 37.6265 101.969 37.4346 101.969 37.2102C101.969 36.9885 102.049 36.7993 102.208 36.6425C102.368 36.483 102.559 36.4032 102.78 36.4032C103.002 36.4032 103.192 36.483 103.352 36.6425C103.511 36.7993 103.591 36.9885 103.591 37.2102C103.591 37.3589 103.553 37.4954 103.478 37.6197C103.405 37.7414 103.307 37.8387 103.186 37.9117C103.064 37.9847 102.929 38.0212 102.78 38.0212ZM102.78 33.4877C102.559 33.4877 102.368 33.4079 102.208 33.2484C102.049 33.0889 101.969 32.8983 101.969 32.6767C101.969 32.455 102.049 32.2657 102.208 32.1089C102.368 31.9495 102.559 31.8697 102.78 31.8697C103.002 31.8697 103.192 31.9495 103.352 32.1089C103.511 32.2657 103.591 32.455 103.591 32.6767C103.591 32.8253 103.553 32.9619 103.478 33.0862C103.405 33.2079 103.307 33.3052 103.186 33.3782C103.064 33.4512 102.929 33.4877 102.78 33.4877Z" fill="#7E7D86"/>
<path d="M111.443 38.0577C110.862 38.0577 110.348 37.9577 109.902 37.7576C109.459 37.5576 109.111 37.2818 108.86 36.9304C108.608 36.579 108.484 36.1789 108.487 35.7301C108.484 35.3787 108.556 35.0556 108.702 34.7609C108.85 34.4636 109.052 34.2162 109.306 34.0189C109.56 33.8188 109.844 33.6918 110.157 33.6377V33.589C109.744 33.489 109.413 33.2673 109.164 32.924C108.915 32.5807 108.792 32.186 108.795 31.7399C108.792 31.3155 108.904 30.937 109.132 30.6045C109.361 30.2693 109.676 30.0057 110.076 29.8138C110.476 29.6219 110.932 29.5259 111.443 29.5259C111.948 29.5259 112.4 29.6232 112.797 29.8179C113.197 30.0098 113.512 30.2734 113.742 30.6086C113.972 30.9411 114.088 31.3182 114.091 31.7399C114.088 32.186 113.961 32.5807 113.71 32.924C113.458 33.2673 113.131 33.489 112.728 33.589V33.6377C113.039 33.6918 113.319 33.8188 113.568 34.0189C113.819 34.2162 114.019 34.4636 114.168 34.7609C114.319 35.0556 114.396 35.3787 114.399 35.7301C114.396 36.1789 114.269 36.579 114.018 36.9304C113.766 37.2818 113.418 37.5576 112.972 37.7576C112.528 37.9577 112.019 38.0577 111.443 38.0577ZM111.443 37.0318C111.786 37.0318 112.084 36.975 112.335 36.8615C112.586 36.7452 112.781 36.5844 112.919 36.3789C113.057 36.1707 113.127 35.9274 113.13 35.649C113.127 35.3597 113.051 35.1043 112.903 34.8826C112.757 34.6609 112.558 34.4866 112.307 34.3595C112.055 34.2324 111.767 34.1689 111.443 34.1689C111.116 34.1689 110.825 34.2324 110.571 34.3595C110.317 34.4866 110.117 34.6609 109.971 34.8826C109.825 35.1043 109.753 35.3597 109.756 35.649C109.753 35.9274 109.82 36.1707 109.955 36.3789C110.093 36.5844 110.289 36.7452 110.543 36.8615C110.797 36.975 111.097 37.0318 111.443 37.0318ZM111.443 33.1673C111.719 33.1673 111.963 33.1119 112.177 33.0011C112.39 32.8902 112.558 32.7361 112.68 32.5388C112.804 32.3414 112.868 32.1103 112.87 31.8454C112.868 31.5858 112.805 31.3588 112.684 31.1641C112.565 30.9695 112.399 30.8194 112.185 30.714C111.971 30.6059 111.724 30.5518 111.443 30.5518C111.156 30.5518 110.905 30.6059 110.689 30.714C110.475 30.8194 110.309 30.9695 110.19 31.1641C110.071 31.3588 110.013 31.5858 110.016 31.8454C110.013 32.1103 110.072 32.3414 110.194 32.5388C110.316 32.7361 110.483 32.8902 110.697 33.0011C110.913 33.1119 111.162 33.1673 111.443 33.1673ZM118.743 38.0577C118.186 38.0577 117.689 37.9617 117.251 37.7698C116.816 37.5778 116.471 37.3116 116.217 36.9709C115.965 36.6276 115.83 36.2302 115.811 35.7788H117.085C117.101 36.0248 117.183 36.2383 117.332 36.4195C117.483 36.5979 117.681 36.7358 117.924 36.8331C118.167 36.9304 118.438 36.9791 118.735 36.9791C119.062 36.9791 119.351 36.9223 119.603 36.8087C119.857 36.6952 120.056 36.5371 120.199 36.3343C120.342 36.1288 120.414 35.8923 120.414 35.6247C120.414 35.3462 120.342 35.1016 120.199 34.8907C120.058 34.6771 119.851 34.5095 119.578 34.3879C119.308 34.2662 118.981 34.2054 118.597 34.2054H117.896V33.1835H118.597C118.905 33.1835 119.176 33.1281 119.408 33.0173C119.643 32.9064 119.827 32.7523 119.96 32.555C120.092 32.355 120.158 32.1211 120.158 31.8535C120.158 31.5967 120.1 31.3736 119.984 31.1844C119.87 30.9925 119.708 30.8424 119.497 30.7343C119.289 30.6262 119.043 30.5721 118.759 30.5721C118.489 30.5721 118.236 30.6221 118.001 30.7221C117.768 30.8194 117.579 30.96 117.433 31.1439C117.287 31.325 117.209 31.5426 117.198 31.7967H115.986C115.999 31.348 116.132 30.9533 116.383 30.6126C116.637 30.272 116.972 30.0057 117.389 29.8138C117.805 29.6219 118.267 29.5259 118.775 29.5259C119.308 29.5259 119.768 29.63 120.154 29.8381C120.543 30.0436 120.844 30.318 121.054 30.6613C121.268 31.0046 121.373 31.3804 121.371 31.7886C121.373 32.2536 121.244 32.6483 120.981 32.9727C120.722 33.2971 120.376 33.5147 119.943 33.6255V33.6904C120.495 33.7742 120.922 33.9932 121.225 34.3473C121.53 34.7015 121.682 35.1408 121.679 35.6652C121.682 36.1221 121.555 36.5316 121.298 36.8939C121.044 37.2561 120.696 37.5414 120.256 37.7495C119.815 37.955 119.311 38.0577 118.743 38.0577ZM123.228 37.9442V31.7156H124.392V32.7294H124.469C124.599 32.386 124.811 32.1184 125.105 31.9265C125.4 31.7318 125.753 31.6345 126.164 31.6345C126.58 31.6345 126.929 31.7318 127.21 31.9265C127.494 32.1211 127.703 32.3887 127.838 32.7294H127.903C128.052 32.3969 128.289 32.1319 128.613 31.9346C128.937 31.7345 129.324 31.6345 129.773 31.6345C130.338 31.6345 130.799 31.8116 131.156 32.1657C131.515 32.5199 131.695 33.0538 131.695 33.7675V37.9442H130.482V33.881C130.482 33.4593 130.367 33.1538 130.138 32.9646C129.908 32.7753 129.634 32.6807 129.315 32.6807C128.92 32.6807 128.613 32.8024 128.394 33.0457C128.175 33.2863 128.066 33.5958 128.066 33.9743V37.9442H126.857V33.804C126.857 33.466 126.752 33.1943 126.541 32.9889C126.33 32.7834 126.056 32.6807 125.718 32.6807C125.488 32.6807 125.276 32.7415 125.081 32.8632C124.889 32.9821 124.734 33.1484 124.615 33.362C124.498 33.5755 124.44 33.8229 124.44 34.104V37.9442H123.228ZM137.987 33.2363L136.888 33.4309C136.842 33.2903 136.769 33.1565 136.669 33.0294C136.572 32.9024 136.44 32.7983 136.272 32.7172C136.104 32.6361 135.895 32.5956 135.643 32.5956C135.3 32.5956 135.014 32.6726 134.784 32.8267C134.554 32.9781 134.439 33.1741 134.439 33.4147C134.439 33.6228 134.516 33.7904 134.67 33.9175C134.824 34.0446 135.073 34.1486 135.416 34.2297L136.406 34.4568C136.979 34.5893 137.406 34.7934 137.687 35.0691C137.968 35.3449 138.109 35.7031 138.109 36.1437C138.109 36.5168 138.001 36.8493 137.784 37.1413C137.571 37.4305 137.272 37.6576 136.888 37.8225C136.507 37.9874 136.065 38.0699 135.562 38.0699C134.865 38.0699 134.296 37.9212 133.855 37.6238C133.415 37.3237 133.144 36.898 133.044 36.3465L134.216 36.168C134.289 36.4735 134.439 36.7047 134.666 36.8615C134.893 37.0155 135.189 37.0926 135.554 37.0926C135.952 37.0926 136.269 37.0101 136.507 36.8452C136.745 36.6776 136.864 36.4735 136.864 36.2329C136.864 36.0383 136.791 35.8747 136.645 35.7423C136.502 35.6098 136.281 35.5098 135.984 35.4422L134.93 35.2111C134.349 35.0786 133.919 34.8677 133.64 34.5785C133.364 34.2892 133.227 33.9229 133.227 33.4796C133.227 33.1119 133.329 32.7902 133.535 32.5145C133.74 32.2387 134.024 32.0238 134.386 31.8697C134.749 31.7129 135.164 31.6345 135.631 31.6345C136.304 31.6345 136.834 31.7805 137.221 32.0725C137.607 32.3617 137.863 32.7496 137.987 33.2363Z" fill="#EDEDEF"/>
<rect x="213.045" y="24.7207" width="59.9721" height="19.4469" rx="4.48603" fill="#28282C"/>
<path d="M220.672 38.052C220.146 38.052 219.693 37.9396 219.313 37.7149C218.935 37.4878 218.643 37.1692 218.437 36.759C218.233 36.3466 218.131 35.8635 218.131 35.3097C218.131 34.7628 218.233 34.2808 218.437 33.8637C218.643 33.4467 218.931 33.1211 219.299 32.8871C219.67 32.653 220.103 32.536 220.599 32.536C220.9 32.536 221.192 32.5858 221.475 32.6855C221.758 32.7851 222.011 32.9415 222.236 33.1547C222.461 33.3679 222.638 33.6448 222.768 33.9854C222.898 34.3237 222.963 34.735 222.963 35.2193V35.5877H218.719V34.8091H221.944C221.944 34.5357 221.889 34.2936 221.777 34.0827C221.666 33.8695 221.51 33.7015 221.308 33.5787C221.109 33.4559 220.875 33.3945 220.606 33.3945C220.314 33.3945 220.059 33.4664 219.841 33.61C219.626 33.7514 219.459 33.9367 219.341 34.1661C219.225 34.3932 219.167 34.64 219.167 34.9065V35.5147C219.167 35.8716 219.23 36.1751 219.355 36.4254C219.482 36.6756 219.66 36.8668 219.887 36.9989C220.114 37.1286 220.379 37.1935 220.683 37.1935C220.88 37.1935 221.059 37.1657 221.221 37.1101C221.384 37.0522 221.524 36.9664 221.642 36.8529C221.76 36.7393 221.85 36.5992 221.913 36.4323L222.897 36.6096C222.818 36.8992 222.676 37.153 222.473 37.3708C222.271 37.5863 222.017 37.7543 221.711 37.8748C221.408 37.9929 221.061 38.052 220.672 38.052ZM227.498 35.7302V32.6055H228.54V37.9443H227.518V37.0197H227.463C227.34 37.3047 227.143 37.5422 226.872 37.7323C226.603 37.9199 226.268 38.0138 225.868 38.0138C225.525 38.0138 225.221 37.9385 224.957 37.7879C224.695 37.6349 224.489 37.409 224.338 37.1101C224.19 36.8112 224.116 36.4416 224.116 36.0013V32.6055H225.155V35.8762C225.155 36.24 225.256 36.5296 225.457 36.7451C225.659 36.9606 225.921 37.0684 226.243 37.0684C226.438 37.0684 226.631 37.0197 226.823 36.9224C227.018 36.8251 227.179 36.6779 227.306 36.481C227.436 36.284 227.5 36.0338 227.498 35.7302ZM233.082 34.4859V35.3861H229.926V34.4859H233.082ZM235.507 34.7744V37.9443H234.467V32.6055H235.465V33.4745H235.531C235.654 33.1918 235.846 32.9647 236.108 32.7932C236.372 32.6217 236.705 32.536 237.105 32.536C237.469 32.536 237.788 32.6125 238.061 32.7654C238.335 32.916 238.547 33.1408 238.697 33.4397C238.848 33.7386 238.923 34.1082 238.923 34.5485V37.9443H237.884V34.6736C237.884 34.2866 237.783 33.9842 237.582 33.7664C237.38 33.5463 237.103 33.4362 236.751 33.4362C236.51 33.4362 236.296 33.4884 236.108 33.5926C235.923 33.6969 235.775 33.8498 235.667 34.0514C235.56 34.2507 235.507 34.4917 235.507 34.7744ZM242.566 38.052C242.065 38.052 241.629 37.9373 241.256 37.7079C240.882 37.4785 240.593 37.1576 240.387 36.7451C240.18 36.3327 240.077 35.8507 240.077 35.2992C240.077 34.7454 240.18 34.2611 240.387 33.8464C240.593 33.4316 240.882 33.1095 241.256 32.8801C241.629 32.6507 242.065 32.536 242.566 32.536C243.066 32.536 243.503 32.6507 243.876 32.8801C244.249 33.1095 244.539 33.4316 244.745 33.8464C244.951 34.2611 245.055 34.7454 245.055 35.2992C245.055 35.8507 244.951 36.3327 244.745 36.7451C244.539 37.1576 244.249 37.4785 243.876 37.7079C243.503 37.9373 243.066 38.052 242.566 38.052ZM242.569 37.1796C242.894 37.1796 243.163 37.0939 243.376 36.9224C243.589 36.7509 243.746 36.5227 243.848 36.2377C243.953 35.9527 244.005 35.6387 244.005 35.2958C244.005 34.9551 243.953 34.6423 243.848 34.3573C243.746 34.07 243.589 33.8394 243.376 33.6656C243.163 33.4918 242.894 33.4049 242.569 33.4049C242.243 33.4049 241.972 33.4918 241.756 33.6656C241.543 33.8394 241.384 34.07 241.28 34.3573C241.178 34.6423 241.127 34.9551 241.127 35.2958C241.127 35.6387 241.178 35.9527 241.28 36.2377C241.384 36.5227 241.543 36.7509 241.756 36.9224C241.972 37.0939 242.243 37.1796 242.569 37.1796ZM246.215 37.9443V32.6055H247.219V33.4536H247.275C247.372 33.1663 247.543 32.9404 247.789 32.7758C248.037 32.609 248.317 32.5256 248.63 32.5256C248.695 32.5256 248.772 32.5279 248.86 32.5325C248.95 32.5372 249.021 32.543 249.072 32.5499V33.544C249.03 33.5324 248.956 33.5196 248.849 33.5057C248.743 33.4895 248.636 33.4814 248.529 33.4814C248.284 33.4814 248.065 33.5335 247.872 33.6378C247.682 33.7398 247.532 33.8823 247.421 34.0653C247.309 34.2461 247.254 34.4523 247.254 34.684V37.9443H246.215ZM252.778 32.6055V33.4397H249.862V32.6055H252.778ZM250.644 31.3264H251.684V36.3767C251.684 36.5783 251.714 36.7301 251.774 36.832C251.834 36.9317 251.912 37 252.007 37.0371C252.104 37.0719 252.21 37.0892 252.323 37.0892C252.407 37.0892 252.48 37.0834 252.542 37.0719C252.605 37.0603 252.653 37.051 252.688 37.0441L252.876 37.9026C252.816 37.9257 252.73 37.9489 252.619 37.9721C252.507 37.9976 252.368 38.0115 252.202 38.0138C251.928 38.0184 251.673 37.9698 251.437 37.8678C251.201 37.7659 251.009 37.6083 250.863 37.3951C250.717 37.1819 250.644 36.9143 250.644 36.5922V31.3264ZM255.082 34.7744V37.9443H254.043V30.8259H255.068V33.4745H255.134C255.259 33.1871 255.45 32.9589 255.708 32.7897C255.965 32.6206 256.301 32.536 256.716 32.536C257.082 32.536 257.402 32.6113 257.675 32.7619C257.951 32.9125 258.164 33.1373 258.314 33.4362C258.467 33.7328 258.544 34.1036 258.544 34.5485V37.9443H257.505V34.6736C257.505 34.282 257.404 33.9784 257.202 33.7629C257.001 33.5451 256.72 33.4362 256.361 33.4362C256.116 33.4362 255.895 33.4884 255.701 33.5926C255.508 33.6969 255.357 33.8498 255.245 34.0514C255.137 34.2507 255.082 34.4917 255.082 34.7744ZM263.076 34.4859V35.3861H259.92V34.4859H263.076ZM267.148 30.8259V37.9443H266.071V31.9034H266.029L264.326 33.0157V31.9868L266.102 30.8259H267.148Z" fill="#A09FA6"/>
<rect x="213.045" y="24.7207" width="59.9721" height="19.4469" rx="4.48603" stroke="#3E3E44" stroke-width="0.815642"/>
<rect x="1" y="60.8882" width="292" height="0.815642" fill="#2E2E32"/>
<g clip-path="url(#clip1_9278_2333)">
<rect x="10.7877" y="71.4916" width="223.486" height="39.838" rx="6.52514" fill="url(#paint0_linear_9278_2333)"/>
<rect x="11.1955" y="71.8994" width="222.67" height="39.0223" rx="6.11732" fill="url(#paint1_linear_9278_2333)"/>
<path d="M30.7995 97.9847L29.8764 94.5372M29.8764 94.5372L28.1704 96.0496L28.5571 89.6128L32.1099 94.994L29.8764 94.5372ZM28.7318 84.7835V86.3128M32.6972 86.4257L31.6158 87.5071M34.3393 90.391H32.81M25.8478 93.275L24.7671 94.3558M24.6536 90.391H23.1243M25.8478 87.5071L24.7671 86.4263" stroke="#7E7D86" stroke-width="1.22346" stroke-linecap="round" stroke-linejoin="round"/>
<path d="M47.7277 95.9106V86.4195H49.1597V94.6779H53.4604V95.9106H47.7277ZM57.0543 96.0682C56.6032 96.0682 56.1954 95.9847 55.8308 95.8179C55.4663 95.648 55.1774 95.4024 54.9642 95.081C54.7541 94.7597 54.6491 94.3658 54.6491 93.8993C54.6491 93.4976 54.7263 93.1671 54.8808 92.9075C55.0353 92.648 55.2438 92.4426 55.5064 92.2912C55.769 92.1398 56.0625 92.0255 56.3869 91.9482C56.7113 91.871 57.0419 91.8123 57.3787 91.7721C57.805 91.7227 58.1511 91.6825 58.4168 91.6516C58.6825 91.6176 58.8756 91.5636 58.9961 91.4894C59.1166 91.4153 59.1768 91.2948 59.1768 91.128V91.0955C59.1768 90.6908 59.0625 90.3772 58.8339 90.1547C58.6083 89.9323 58.2716 89.8211 57.8236 89.8211C57.3571 89.8211 56.9894 89.9246 56.7206 90.1316C56.4549 90.3355 56.2711 90.5626 56.1691 90.8128L54.8669 90.5162C55.0214 90.0837 55.2469 89.7346 55.5435 89.4689C55.8432 89.2001 56.1877 89.0054 56.5769 88.8849C56.9662 88.7614 57.3756 88.6996 57.805 88.6996C58.0893 88.6996 58.3905 88.7335 58.7087 88.8015C59.0301 88.8664 59.3297 88.9869 59.6078 89.163C59.889 89.3391 60.1191 89.5909 60.2983 89.9184C60.4775 90.2428 60.5671 90.6645 60.5671 91.1836V95.9106H59.2139V94.9374H59.1583C59.0687 95.1166 58.9343 95.2927 58.7551 95.4657C58.5759 95.6387 58.3457 95.7824 58.0646 95.8967C57.7834 96.011 57.4467 96.0682 57.0543 96.0682ZM57.3555 94.9559C57.7386 94.9559 58.0661 94.8802 58.338 94.7288C58.613 94.5774 58.8215 94.3797 58.9636 94.1356C59.1088 93.8885 59.1814 93.6243 59.1814 93.3432V92.4256C59.132 92.475 59.0362 92.5213 58.8941 92.5646C58.7551 92.6048 58.596 92.6403 58.4168 92.6712C58.2376 92.699 58.063 92.7253 57.8931 92.75C57.7232 92.7716 57.5811 92.7901 57.4667 92.8056C57.1979 92.8396 56.9523 92.8967 56.7299 92.9771C56.5105 93.0574 56.3344 93.1732 56.2016 93.3246C56.0718 93.4729 56.0069 93.6707 56.0069 93.9178C56.0069 94.2608 56.1336 94.5203 56.3869 94.6964C56.6403 94.8694 56.9631 94.9559 57.3555 94.9559ZM67.7468 90.5301L66.4909 90.7526C66.4384 90.5919 66.355 90.439 66.2407 90.2938C66.1295 90.1486 65.9781 90.0296 65.7865 89.9369C65.595 89.8442 65.3555 89.7979 65.0682 89.7979C64.6758 89.7979 64.3483 89.886 64.0857 90.0621C63.8231 90.2351 63.6918 90.4591 63.6918 90.734C63.6918 90.9719 63.7799 91.1635 63.956 91.3087C64.1321 91.4539 64.4163 91.5728 64.8087 91.6655L65.9395 91.9251C66.5944 92.0764 67.0826 92.3097 67.4039 92.6248C67.7252 92.94 67.8859 93.3493 67.8859 93.8529C67.8859 94.2793 67.7623 94.6593 67.5151 94.993C67.2711 95.3236 66.9297 95.5831 66.4909 95.7716C66.0553 95.96 65.5502 96.0542 64.9755 96.0542C64.1784 96.0542 63.5281 95.8843 63.0245 95.5445C62.5209 95.2015 62.2119 94.7149 62.0976 94.0847L63.4369 93.8807C63.5203 94.2299 63.6918 94.494 63.9513 94.6732C64.2109 94.8493 64.5492 94.9374 64.9662 94.9374C65.4204 94.9374 65.7834 94.8431 66.0553 94.6547C66.3272 94.4631 66.4631 94.2299 66.4631 93.9549C66.4631 93.7324 66.3797 93.5455 66.2129 93.3941C66.0491 93.2428 65.7973 93.1284 65.4575 93.0512L64.2526 92.787C63.5883 92.6357 63.0971 92.3947 62.7788 92.0641C62.4637 91.7335 62.3061 91.3149 62.3061 90.8082C62.3061 90.388 62.4235 90.0203 62.6584 89.7052C62.8932 89.3901 63.2176 89.1445 63.6316 88.9684C64.0456 88.7892 64.5198 88.6996 65.0543 88.6996C65.8236 88.6996 66.4292 88.8664 66.871 89.2001C67.3128 89.5307 67.6047 89.974 67.7468 90.5301ZM72.7322 88.7922V89.9045H68.844V88.7922H72.7322ZM69.8867 87.0868H71.2724V93.8205C71.2724 94.0893 71.3126 94.2917 71.3929 94.4276C71.4732 94.5604 71.5767 94.6516 71.7034 94.701C71.8332 94.7474 71.9737 94.7705 72.1251 94.7705C72.2364 94.7705 72.3337 94.7628 72.4171 94.7474C72.5005 94.7319 72.5654 94.7196 72.6117 94.7103L72.862 95.855C72.7817 95.8859 72.6673 95.9168 72.519 95.9477C72.3707 95.9816 72.1854 96.0002 71.9629 96.0033C71.5984 96.0094 71.2585 95.9446 70.9434 95.8086C70.6282 95.6727 70.3734 95.4626 70.1787 95.1784C69.9841 94.8941 69.8867 94.5373 69.8867 94.1078V87.0868ZM85.713 89.5059H84.2671C84.2115 89.197 84.108 88.9251 83.9566 88.6903C83.8052 88.4555 83.6198 88.2562 83.4005 88.0925C83.1811 87.9287 82.9355 87.8051 82.6636 87.7217C82.3948 87.6383 82.109 87.5966 81.8062 87.5966C81.2594 87.5966 80.7697 87.7341 80.3372 88.009C79.9077 88.284 79.5679 88.6872 79.3176 89.2186C79.0704 89.75 78.9469 90.3988 78.9469 91.165C78.9469 91.9374 79.0704 92.5893 79.3176 93.1207C79.5679 93.6521 79.9093 94.0538 80.3418 94.3256C80.7743 94.5975 81.2609 94.7335 81.8016 94.7335C82.1013 94.7335 82.3855 94.6933 82.6543 94.613C82.9262 94.5296 83.1718 94.4075 83.3912 94.2469C83.6105 94.0862 83.7959 93.89 83.9473 93.6583C84.1018 93.4235 84.2084 93.1547 84.2671 92.8519L85.713 92.8566C85.6358 93.3231 85.4859 93.7525 85.2635 94.1449C85.0441 94.5342 84.7614 94.8709 84.4154 95.1552C84.0724 95.4363 83.6801 95.6542 83.2383 95.8086C82.7965 95.9631 82.3145 96.0403 81.7923 96.0403C80.9705 96.0403 80.2383 95.8457 79.5957 95.4564C78.953 95.064 78.4464 94.5033 78.0756 93.7742C77.708 93.045 77.5241 92.1753 77.5241 91.165C77.5241 90.1517 77.7095 89.2819 78.0802 88.5559C78.451 87.8268 78.9577 87.2676 79.6003 86.8783C80.2429 86.4859 80.9736 86.2897 81.7923 86.2897C82.2959 86.2897 82.7656 86.3623 83.2012 86.5075C83.6399 86.6496 84.0338 86.8597 84.3829 87.1378C84.7321 87.4128 85.0209 87.7495 85.2496 88.1481C85.4782 88.5435 85.6327 88.9962 85.713 89.5059ZM88.701 86.4195V95.9106H87.3153V86.4195H88.701ZM90.5651 95.9106V88.7922H91.9508V95.9106H90.5651ZM91.2649 87.6939C91.0239 87.6939 90.8169 87.6136 90.6439 87.4529C90.474 87.2892 90.389 87.0945 90.389 86.869C90.389 86.6404 90.474 86.4457 90.6439 86.2851C90.8169 86.1213 91.0239 86.0395 91.2649 86.0395C91.5059 86.0395 91.7114 86.1213 91.8813 86.2851C92.0543 86.4457 92.1408 86.6404 92.1408 86.869C92.1408 87.0945 92.0543 87.2892 91.8813 87.4529C91.7114 87.6136 91.5059 87.6939 91.2649 87.6939ZM96.8134 96.0542C96.1244 96.0542 95.5312 95.8982 95.0338 95.5862C94.5395 95.271 94.1594 94.837 93.8937 94.2839C93.628 93.7309 93.4952 93.0975 93.4952 92.3839C93.4952 91.6609 93.6311 91.0229 93.903 90.4699C94.1749 89.9138 94.558 89.4797 95.0523 89.1676C95.5467 88.8556 96.129 88.6996 96.7995 88.6996C97.3401 88.6996 97.8221 88.8 98.2454 89.0008C98.6687 89.1985 99.01 89.4766 99.2696 89.835C99.5322 90.1934 99.6882 90.612 99.7376 91.0909H98.389C98.3149 90.7572 98.145 90.4699 97.8793 90.2289C97.6167 89.9879 97.2644 89.8674 96.8226 89.8674C96.4364 89.8674 96.0981 89.9694 95.8077 90.1733C95.5204 90.3741 95.2964 90.6614 95.1357 91.0353C94.9751 91.406 94.8948 91.8447 94.8948 92.3514C94.8948 92.8705 94.9735 93.3184 95.1311 93.6954C95.2887 94.0723 95.5111 94.3643 95.7985 94.5713C96.0889 94.7783 96.4303 94.8818 96.8226 94.8818C97.0853 94.8818 97.3232 94.8339 97.5363 94.7381C97.7526 94.6392 97.9333 94.4987 98.0785 94.3164C98.2268 94.1341 98.3303 93.9147 98.389 93.6583H99.7376C99.6882 94.1186 99.5384 94.5296 99.2881 94.891C99.0379 95.2525 98.7026 95.5367 98.2825 95.7437C97.8654 95.9507 97.3757 96.0542 96.8134 96.0542ZM102.494 93.4961L102.485 91.8046H102.726L105.562 88.7922H107.221L103.986 92.2217H103.768L102.494 93.4961ZM101.219 95.9106V86.4195H102.605V95.9106H101.219ZM105.715 95.9106L103.166 92.5275L104.121 91.5589L107.416 95.9106H105.715ZM111.259 96.0542C110.557 96.0542 109.953 95.9044 109.447 95.6047C108.943 95.3019 108.554 94.8771 108.279 94.3303C108.007 93.7803 107.871 93.1362 107.871 92.3978C107.871 91.6686 108.007 91.026 108.279 90.4699C108.554 89.9138 108.937 89.4797 109.428 89.1676C109.922 88.8556 110.5 88.6996 111.161 88.6996C111.563 88.6996 111.952 88.766 112.329 88.8988C112.706 89.0317 113.044 89.2402 113.344 89.5245C113.644 89.8087 113.88 90.1779 114.053 90.6321C114.226 91.0832 114.313 91.6316 114.313 92.2773V92.7685H108.654V91.7304H112.955C112.955 91.3658 112.881 91.043 112.732 90.7618C112.584 90.4776 112.375 90.2536 112.107 90.0899C111.841 89.9261 111.529 89.8442 111.171 89.8442C110.781 89.8442 110.441 89.94 110.151 90.1316C109.864 90.32 109.641 90.5672 109.484 90.8731C109.329 91.1758 109.252 91.5049 109.252 91.8602V92.6712C109.252 93.147 109.335 93.5517 109.502 93.8854C109.672 94.2191 109.908 94.4739 110.211 94.65C110.514 94.8231 110.868 94.9096 111.272 94.9096C111.535 94.9096 111.775 94.8725 111.991 94.7983C112.207 94.7211 112.394 94.6068 112.552 94.4554C112.709 94.304 112.83 94.1171 112.913 93.8946L114.225 94.131C114.12 94.5172 113.931 94.8555 113.659 95.1459C113.39 95.4332 113.052 95.6572 112.644 95.8179C112.24 95.9755 111.778 96.0542 111.259 96.0542ZM118.515 96.0496C117.94 96.0496 117.427 95.9029 116.976 95.6094C116.528 95.3128 116.176 94.891 115.92 94.3442C115.666 93.7942 115.54 93.1346 115.54 92.3653C115.54 91.596 115.668 90.9379 115.924 90.3911C116.184 89.8442 116.539 89.4256 116.99 89.1352C117.441 88.8448 117.952 88.6996 118.524 88.6996C118.966 88.6996 119.321 88.7737 119.59 88.922C119.862 89.0672 120.072 89.2371 120.22 89.4318C120.372 89.6264 120.489 89.7979 120.572 89.9462H120.656V86.4195H122.042V95.9106H120.688V94.803H120.572C120.489 94.9544 120.369 95.1274 120.211 95.322C120.056 95.5167 119.843 95.6866 119.571 95.8318C119.3 95.977 118.947 96.0496 118.515 96.0496ZM118.821 94.8679C119.219 94.8679 119.556 94.7628 119.831 94.5527C120.109 94.3395 120.319 94.0445 120.461 93.6676C120.606 93.2906 120.679 92.8519 120.679 92.3514C120.679 91.8571 120.608 91.4246 120.466 91.0538C120.324 90.6831 120.115 90.3942 119.84 90.1872C119.565 89.9802 119.225 89.8767 118.821 89.8767C118.404 89.8767 118.056 89.9848 117.778 90.2011C117.5 90.4174 117.29 90.7124 117.148 91.0862C117.009 91.4601 116.939 91.8818 116.939 92.3514C116.939 92.8272 117.01 93.2551 117.152 93.6351C117.294 94.0151 117.505 94.3164 117.783 94.5388C118.064 94.7582 118.41 94.8679 118.821 94.8679ZM124.932 95.9986C124.679 95.9986 124.461 95.909 124.279 95.7298C124.096 95.5476 124.005 95.3282 124.005 95.0718C124.005 94.8184 124.096 94.6022 124.279 94.423C124.461 94.2407 124.679 94.1495 124.932 94.1495C125.186 94.1495 125.403 94.2407 125.586 94.423C125.768 94.6022 125.859 94.8184 125.859 95.0718C125.859 95.2417 125.816 95.3977 125.729 95.5398C125.646 95.6789 125.535 95.7901 125.396 95.8735C125.257 95.9569 125.102 95.9986 124.932 95.9986ZM124.932 90.8175C124.679 90.8175 124.461 90.7263 124.279 90.544C124.096 90.3617 124.005 90.1439 124.005 89.8906C124.005 89.6372 124.096 89.421 124.279 89.2418C124.461 89.0595 124.679 88.9684 124.932 88.9684C125.186 88.9684 125.403 89.0595 125.586 89.2418C125.768 89.421 125.859 89.6372 125.859 89.8906C125.859 90.0605 125.816 90.2165 125.729 90.3587C125.646 90.4977 125.535 90.6089 125.396 90.6923C125.257 90.7757 125.102 90.8175 124.932 90.8175Z" fill="#7E7D86"/>
<path d="M130.812 87.6522V86.4195H138.157V87.6522H135.196V95.9106H133.769V87.6522H130.812ZM143.086 90.5626V91.7675H138.878V90.5626H143.086ZM150.221 88.9127C150.171 88.474 149.967 88.1342 149.609 87.8932C149.25 87.6491 148.799 87.5271 148.256 87.5271C147.866 87.5271 147.53 87.5889 147.245 87.7125C146.961 87.8329 146.74 87.9998 146.583 88.213C146.428 88.423 146.351 88.6625 146.351 88.9313C146.351 89.1568 146.403 89.3515 146.508 89.5152C146.617 89.679 146.757 89.8164 146.93 89.9277C147.106 90.0358 147.295 90.1269 147.496 90.2011C147.696 90.2721 147.89 90.3308 148.075 90.3772L149.002 90.6182C149.305 90.6923 149.615 90.7927 149.933 90.9194C150.251 91.0461 150.547 91.2129 150.818 91.4199C151.09 91.6269 151.31 91.8833 151.476 92.1892C151.646 92.4951 151.731 92.8612 151.731 93.2876C151.731 93.8251 151.592 94.3025 151.314 94.7196C151.039 95.1367 150.639 95.4657 150.114 95.7067C149.592 95.9477 148.96 96.0682 148.219 96.0682C147.508 96.0682 146.893 95.9554 146.374 95.7298C145.855 95.5043 145.449 95.1845 145.155 94.7705C144.862 94.3534 144.7 93.8591 144.669 93.2876H146.105C146.133 93.6305 146.244 93.9163 146.439 94.1449C146.637 94.3704 146.888 94.5388 147.194 94.65C147.503 94.7582 147.842 94.8122 148.209 94.8122C148.614 94.8122 148.974 94.7489 149.289 94.6222C149.607 94.4925 149.858 94.3133 150.04 94.0847C150.222 93.8529 150.313 93.5826 150.313 93.2736C150.313 92.9925 150.233 92.7623 150.072 92.5831C149.915 92.4039 149.7 92.2556 149.428 92.1382C149.159 92.0208 148.855 91.9173 148.515 91.8277L147.394 91.5219C146.634 91.3149 146.031 91.0106 145.586 90.6089C145.144 90.2073 144.924 89.6759 144.924 89.0147C144.924 88.4678 145.072 87.9905 145.368 87.5827C145.665 87.1749 146.067 86.8582 146.573 86.6327C147.08 86.404 147.652 86.2897 148.288 86.2897C148.931 86.2897 149.498 86.4025 149.989 86.628C150.483 86.8536 150.872 87.1641 151.157 87.5595C151.441 87.9519 151.589 88.403 151.602 88.9127H150.221ZM154.717 91.6841V95.9106H153.331V86.4195H154.698V89.9508H154.787C154.953 89.5677 155.208 89.2634 155.551 89.0379C155.894 88.8123 156.342 88.6996 156.895 88.6996C157.383 88.6996 157.81 88.8 158.174 89.0008C158.542 89.2016 158.826 89.5013 159.027 89.8999C159.231 90.2953 159.333 90.7896 159.333 91.3828V95.9106H157.947V91.5497C157.947 91.0275 157.813 90.6228 157.544 90.3355C157.275 90.0451 156.901 89.8999 156.422 89.8999C156.095 89.8999 155.801 89.9694 155.542 90.1084C155.286 90.2474 155.083 90.4513 154.935 90.7201C154.79 90.9858 154.717 91.3071 154.717 91.6841ZM161.182 95.9106V88.7922H162.568V95.9106H161.182ZM161.882 87.6939C161.641 87.6939 161.434 87.6136 161.261 87.4529C161.091 87.2892 161.006 87.0945 161.006 86.869C161.006 86.6404 161.091 86.4457 161.261 86.2851C161.434 86.1213 161.641 86.0395 161.882 86.0395C162.123 86.0395 162.328 86.1213 162.498 86.2851C162.671 86.4457 162.758 86.6404 162.758 86.869C162.758 87.0945 162.671 87.2892 162.498 87.4529C162.328 87.6136 162.123 87.6939 161.882 87.6939ZM164.432 95.9106V88.7922H165.771V89.923H165.845C165.975 89.5399 166.204 89.2387 166.531 89.0193C166.862 88.7969 167.236 88.6857 167.653 88.6857C167.739 88.6857 167.841 88.6887 167.958 88.6949C168.079 88.7011 168.173 88.7088 168.241 88.7181V90.0435C168.186 90.0281 168.087 90.0111 167.945 89.9925C167.802 89.9709 167.66 89.9601 167.518 89.9601C167.191 89.9601 166.899 90.0296 166.642 90.1686C166.389 90.3046 166.188 90.4946 166.04 90.7387C165.892 90.9797 165.817 91.2546 165.817 91.5636V95.9106H164.432ZM173.184 88.7922V89.9045H169.295V88.7922H173.184ZM170.338 87.0868H171.724V93.8205C171.724 94.0893 171.764 94.2917 171.844 94.4276C171.925 94.5604 172.028 94.6516 172.155 94.701C172.285 94.7474 172.425 94.7705 172.577 94.7705C172.688 94.7705 172.785 94.7628 172.869 94.7474C172.952 94.7319 173.017 94.7196 173.063 94.7103L173.313 95.855C173.233 95.8859 173.119 95.9168 172.971 95.9477C172.822 95.9816 172.637 96.0002 172.414 96.0033C172.05 96.0094 171.71 95.9446 171.395 95.8086C171.08 95.6727 170.825 95.4626 170.63 95.1784C170.436 94.8941 170.338 94.5373 170.338 94.1078V87.0868ZM179.936 90.5301L178.68 90.7526C178.627 90.5919 178.544 90.439 178.43 90.2938C178.319 90.1486 178.167 90.0296 177.976 89.9369C177.784 89.8442 177.545 89.7979 177.257 89.7979C176.865 89.7979 176.537 89.886 176.275 90.0621C176.012 90.2351 175.881 90.4591 175.881 90.734C175.881 90.9719 175.969 91.1635 176.145 91.3087C176.321 91.4539 176.605 91.5728 176.998 91.6655L178.129 91.9251C178.784 92.0764 179.272 92.3097 179.593 92.6248C179.914 92.94 180.075 93.3493 180.075 93.8529C180.075 94.2793 179.951 94.6593 179.704 94.993C179.46 95.3236 179.119 95.5831 178.68 95.7716C178.244 95.96 177.739 96.0542 177.165 96.0542C176.367 96.0542 175.717 95.8843 175.214 95.5445C174.71 95.2015 174.401 94.7149 174.287 94.0847L175.626 93.8807C175.709 94.2299 175.881 94.494 176.14 94.6732C176.4 94.8493 176.738 94.9374 177.155 94.9374C177.609 94.9374 177.972 94.8431 178.244 94.6547C178.516 94.4631 178.652 94.2299 178.652 93.9549C178.652 93.7324 178.569 93.5455 178.402 93.3941C178.238 93.2428 177.986 93.1284 177.647 93.0512L176.442 92.787C175.777 92.6357 175.286 92.3947 174.968 92.0641C174.653 91.7335 174.495 91.3149 174.495 90.8082C174.495 90.388 174.613 90.0203 174.847 89.7052C175.082 89.3901 175.407 89.1445 175.821 88.9684C176.235 88.7892 176.709 88.6996 177.243 88.6996C178.013 88.6996 178.618 88.8664 179.06 89.2001C179.502 89.5307 179.794 89.974 179.936 90.5301Z" fill="#EDEDEF"/>
<rect x="11.1955" y="71.8994" width="222.67" height="39.0223" rx="6.11732" stroke="url(#paint2_linear_9278_2333)" stroke-width="0.815642"/>
</g>
<g clip-path="url(#clip2_9278_2333)">
<rect x="244.061" y="71.4916" width="39.1508" height="39.1508" rx="6.52514" fill="url(#paint3_linear_9278_2333)"/>
<rect x="244.469" y="71.8994" width="38.3352" height="38.3352" rx="6.11732" fill="url(#paint4_linear_9278_2333)"/>
<path d="M266.371 89.2645H269.764V89.2639M257.509 96.2628V92.8697M257.509 92.8697H260.902M257.509 92.8697L259.671 95.0332C260.367 95.7293 261.234 96.2299 262.185 96.4846C263.136 96.7394 264.137 96.7393 265.088 96.4844C266.039 96.2295 266.906 95.7288 267.602 95.0326C268.298 94.3364 268.798 93.4692 269.053 92.5183M258.22 89.616C258.475 88.665 258.975 87.7978 259.671 87.1016C260.367 86.4054 261.234 85.9047 262.185 85.6498C263.136 85.395 264.137 85.3949 265.088 85.6496C266.039 85.9044 266.906 86.405 267.602 87.1011L269.764 89.2639M269.764 85.8715V89.2632" stroke="#7E7D86" stroke-width="1.22346" stroke-linecap="round" stroke-linejoin="round"/>
<rect x="244.469" y="71.8994" width="38.3352" height="38.3352" rx="6.11732" stroke="url(#paint5_linear_9278_2333)" stroke-width="0.815642"/>
</g>
<rect x="11.1955" y="121.525" width="271.609" height="39.0223" rx="6.11732" fill="#232326"/>
<path d="M34.7765 141.64L34.005 140.868C33.8889 140.752 33.7923 140.618 33.7188 140.471L32.9848 139.002C32.9648 138.963 32.9356 138.928 32.8997 138.902C32.8637 138.875 32.8221 138.858 32.7781 138.851C32.734 138.844 32.689 138.847 32.6466 138.861C32.6042 138.875 32.5656 138.898 32.5341 138.93C32.4632 139.001 32.3746 139.051 32.2776 139.076C32.1806 139.101 32.0786 139.1 31.9822 139.072L31.1169 138.826C30.9785 138.787 30.8307 138.798 30.7001 138.859C30.5695 138.919 30.4646 139.023 30.4042 139.154C30.3438 139.285 30.3319 139.432 30.3706 139.571C30.4093 139.709 30.496 139.829 30.6153 139.91L31.0143 140.175C31.4153 140.443 31.4724 141.011 31.1312 141.352L30.9953 141.488C30.8512 141.632 30.771 141.827 30.771 142.029V142.308C30.771 142.586 30.6962 142.858 30.5535 143.095L29.6597 144.584C29.5323 144.797 29.352 144.972 29.1363 145.095C28.9207 145.217 28.6772 145.281 28.4294 145.281C28.2392 145.281 28.0568 145.205 27.9223 145.071C27.7879 144.936 27.7123 144.754 27.7123 144.564V143.767C27.7123 143.142 27.3317 142.58 26.7512 142.347L26.306 142.17C25.9821 142.04 25.7123 141.804 25.5413 141.499C25.3703 141.195 25.3084 140.842 25.366 140.498L25.3707 140.469C25.4023 140.28 25.4692 140.099 25.5679 139.934L25.629 139.832C25.7914 139.562 26.0333 139.348 26.3216 139.221C26.61 139.093 26.9307 139.058 27.2399 139.12L28.0406 139.28C28.229 139.318 28.4247 139.283 28.5887 139.183C28.7527 139.083 28.8729 138.925 28.9256 138.74L29.067 138.244C29.1159 138.072 29.1035 137.889 29.0317 137.726C28.96 137.563 28.8335 137.43 28.6741 137.35L28.2221 137.124L28.1602 137.186C28.0182 137.328 27.8496 137.441 27.6641 137.518C27.4785 137.595 27.2797 137.634 27.0788 137.634H26.9565C26.7872 137.634 26.6255 137.702 26.5065 137.82C26.3975 137.93 26.2519 137.997 26.0974 138.006C25.9428 138.016 25.79 137.969 25.6679 137.874C25.5458 137.779 25.4628 137.642 25.4347 137.49C25.4067 137.337 25.4354 137.18 25.5155 137.048L26.4746 135.448C26.5702 135.289 26.636 135.114 26.669 134.932M34.7765 141.64C34.9411 140.591 34.83 139.517 34.4541 138.525C34.0782 137.532 33.4505 136.654 32.6326 135.977C31.8146 135.301 30.8347 134.849 29.7891 134.665C28.7435 134.482 27.6682 134.574 26.669 134.932C25.6524 135.297 24.7503 135.924 24.0546 136.75C23.3588 137.576 22.8941 138.571 22.7077 139.635C22.5213 140.699 22.6198 141.793 22.9932 142.806C23.3666 143.819 24.0017 144.716 24.8338 145.404C25.6659 146.093 26.6654 146.549 27.7308 146.725C28.7961 146.902 29.8893 146.794 30.8993 146.412C31.9093 146.029 32.8 145.386 33.481 144.548C34.162 143.71 34.609 142.707 34.7765 141.64Z" stroke="#706F78" stroke-width="1.22346" stroke-linecap="round" stroke-linejoin="round"/>
<path d="M50.7542 145.536H47.8253V136.045H50.8839C51.8046 136.045 52.5925 136.235 53.2474 136.615C53.9024 136.992 54.4045 137.534 54.7536 138.242C55.1027 138.946 55.2773 139.79 55.2773 140.772C55.2773 141.761 55.1012 142.612 54.749 143.326C54.3968 144.036 53.8839 144.583 53.2104 144.966C52.5368 145.346 51.7181 145.536 50.7542 145.536ZM48.9746 144.517H50.68C51.4648 144.517 52.1151 144.365 52.6311 144.063C53.147 143.76 53.5317 143.329 53.785 142.77C54.0384 142.21 54.165 141.545 54.165 140.772C54.165 140.006 54.0399 139.346 53.7897 138.793C53.5394 138.237 53.1656 137.811 52.6682 137.514C52.1707 137.215 51.5513 137.065 50.8098 137.065H48.9746V144.517ZM60.0414 145.685C59.3555 145.685 58.7638 145.533 58.2664 145.23C57.7721 144.925 57.3905 144.498 57.1217 143.951C56.856 143.401 56.7232 142.762 56.7232 142.033C56.7232 141.304 56.856 140.661 57.1217 140.105C57.3905 139.546 57.7644 139.11 58.2433 138.798C58.7252 138.483 59.2875 138.325 59.9302 138.325C60.3009 138.325 60.667 138.387 61.0285 138.511C61.39 138.634 61.719 138.835 62.0156 139.113C62.3122 139.388 62.5485 139.753 62.7247 140.207C62.9008 140.661 62.9888 141.22 62.9888 141.884V142.348H57.5018V141.402H61.8766C61.8766 141.001 61.7962 140.642 61.6356 140.327C61.478 140.012 61.2525 139.763 60.959 139.581C60.6686 139.399 60.3256 139.308 59.9302 139.308C59.4945 139.308 59.1176 139.416 58.7994 139.632C58.4842 139.845 58.2417 140.123 58.0718 140.466C57.9019 140.809 57.8169 141.177 57.8169 141.569V142.2C57.8169 142.737 57.9096 143.193 58.095 143.567C58.2834 143.937 58.5445 144.22 58.8782 144.415C59.2118 144.606 59.5996 144.702 60.0414 144.702C60.3287 144.702 60.5882 144.662 60.8199 144.582C61.0548 144.498 61.2571 144.375 61.427 144.211C61.597 144.044 61.7283 143.837 61.821 143.59L62.8776 143.886C62.7664 144.245 62.5794 144.56 62.3168 144.832C62.0542 145.101 61.7298 145.311 61.3436 145.462C60.9574 145.61 60.5233 145.685 60.0414 145.685ZM65.7462 141.254V145.536H64.6525V138.418H65.7092V139.53H65.8018C65.9687 139.169 66.222 138.878 66.5619 138.659C66.9017 138.437 67.3404 138.325 67.878 138.325C68.36 138.325 68.7817 138.424 69.1432 138.622C69.5047 138.817 69.7858 139.113 69.9867 139.512C70.1875 139.907 70.2879 140.408 70.2879 141.013V145.536H69.1942V141.087C69.1942 140.528 69.049 140.093 68.7586 139.78C68.4681 139.465 68.0696 139.308 67.5629 139.308C67.2138 139.308 66.9017 139.383 66.6268 139.535C66.3549 139.686 66.1402 139.907 65.9826 140.198C65.825 140.488 65.7462 140.84 65.7462 141.254ZM72.2864 145.536V138.418H73.3431V139.53H73.4358C73.5841 139.15 73.8235 138.855 74.1541 138.645C74.4847 138.432 74.8817 138.325 75.3451 138.325C75.8147 138.325 76.2055 138.432 76.5176 138.645C76.8327 138.855 77.0783 139.15 77.2544 139.53H77.3286C77.5109 139.163 77.7843 138.871 78.1489 138.654C78.5134 138.435 78.9506 138.325 79.4604 138.325C80.0968 138.325 80.6174 138.525 81.0222 138.923C81.4269 139.319 81.6293 139.935 81.6293 140.772V145.536H80.5355V140.772C80.5355 140.247 80.3919 139.872 80.1046 139.646C79.8172 139.421 79.4789 139.308 79.0896 139.308C78.5891 139.308 78.2014 139.459 77.9264 139.762C77.6515 140.062 77.514 140.442 77.514 140.902V145.536H76.4017V140.661C76.4017 140.256 76.2704 139.93 76.0078 139.683C75.7452 139.433 75.4069 139.308 74.9929 139.308C74.7086 139.308 74.4429 139.383 74.1958 139.535C73.9517 139.686 73.754 139.896 73.6026 140.165C73.4543 140.431 73.3801 140.738 73.3801 141.087V145.536H72.2864ZM85.7237 145.703C85.2726 145.703 84.8632 145.618 84.4956 145.448C84.1279 145.275 83.836 145.027 83.6197 144.702C83.4034 144.375 83.2953 143.979 83.2953 143.516C83.2953 143.108 83.3756 142.777 83.5363 142.524C83.6969 142.268 83.9117 142.067 84.1804 141.922C84.4492 141.776 84.7458 141.668 85.0702 141.597C85.3977 141.523 85.7268 141.464 86.0574 141.421C86.4899 141.365 86.8406 141.324 87.1093 141.296C87.3812 141.265 87.579 141.214 87.7025 141.143C87.8292 141.072 87.8925 140.948 87.8925 140.772V140.735C87.8925 140.278 87.7674 139.923 87.5172 139.669C87.27 139.416 86.8946 139.289 86.391 139.289C85.8689 139.289 85.4595 139.404 85.1629 139.632C84.8663 139.861 84.6578 140.105 84.5373 140.364L83.4992 139.994C83.6846 139.561 83.9317 139.224 84.2407 138.983C84.5527 138.739 84.8926 138.569 85.2602 138.474C85.631 138.375 85.9956 138.325 86.354 138.325C86.5826 138.325 86.8452 138.353 87.1418 138.409C87.4415 138.461 87.7303 138.571 88.0084 138.738C88.2896 138.905 88.5228 139.156 88.7082 139.493C88.8936 139.83 88.9863 140.281 88.9863 140.846V145.536H87.8925V144.572H87.8369C87.7628 144.727 87.6392 144.892 87.4662 145.068C87.2932 145.244 87.063 145.394 86.7757 145.518C86.4883 145.641 86.1377 145.703 85.7237 145.703ZM85.8905 144.721C86.3231 144.721 86.6876 144.636 86.9842 144.466C87.2839 144.296 87.5094 144.077 87.6608 143.808C87.8153 143.539 87.8925 143.256 87.8925 142.96V141.959C87.8462 142.014 87.7443 142.065 87.5867 142.112C87.4322 142.155 87.253 142.193 87.0491 142.227C86.8483 142.258 86.6521 142.286 86.4605 142.311C86.2721 142.332 86.1191 142.351 86.0017 142.366C85.7175 142.404 85.4518 142.464 85.2046 142.547C84.9606 142.628 84.7628 142.75 84.6114 142.913C84.4631 143.074 84.389 143.293 84.389 143.571C84.389 143.951 84.5296 144.239 84.8107 144.433C85.095 144.625 85.4549 144.721 85.8905 144.721ZM90.9825 145.536V138.418H92.0391V139.493H92.1133C92.243 139.141 92.4778 138.855 92.8177 138.636C93.1575 138.416 93.5406 138.307 93.967 138.307C94.0473 138.307 94.1477 138.308 94.2682 138.311C94.3887 138.314 94.4799 138.319 94.5417 138.325V139.438C94.5046 139.428 94.4196 139.414 94.2868 139.396C94.157 139.374 94.0195 139.363 93.8743 139.363C93.5283 139.363 93.2193 139.436 92.9474 139.581C92.6787 139.723 92.4655 139.921 92.3079 140.174C92.1534 140.425 92.0762 140.71 92.0762 141.032V145.536H90.9825ZM96.8577 142.941L96.8391 141.588H97.0616L100.176 138.418H101.529L98.2109 141.773H98.1182L96.8577 142.941ZM95.8381 145.536V136.045H96.9318V145.536H95.8381ZM100.361 145.536L97.5806 142.014L98.3592 141.254L101.752 145.536H100.361Z" fill="#EDEDEF"/>
<path d="M262.006 142.936L265.064 145.994L268.123 142.936M262.006 138.042L265.064 134.983L268.123 138.042" stroke="#706F78" stroke-width="1.22346" stroke-linecap="round" stroke-linejoin="round"/>
<rect x="11.1955" y="121.525" width="271.609" height="39.0223" rx="6.11732" stroke="url(#paint6_linear_9278_2333)" stroke-width="0.815642"/>
</g>
<g filter="url(#filter1_dd_9278_2333)">
<g clip-path="url(#clip3_9278_2333)">
<rect x="9" y="16" width="16" height="16" rx="8" fill="url(#paint7_linear_9278_2333)"/>
<path d="M18.3146 19.2727V28H16.9936V20.5938H16.9425L14.8544 21.9574V20.696L17.032 19.2727H18.3146Z" fill="#1A1523"/>
</g>
</g>
<g filter="url(#filter2_dd_9278_2333)">
<g clip-path="url(#clip4_9278_2333)">
<rect x="201" y="16" width="16" height="16" rx="8" fill="url(#paint8_linear_9278_2333)"/>
<path d="M206.16 28V27.0455L209.113 23.9858C209.428 23.6534 209.688 23.3622 209.893 23.1122C210.1 22.8594 210.255 22.6193 210.357 22.392C210.46 22.1648 210.511 21.9233 210.511 21.6676C210.511 21.3778 210.442 21.1278 210.306 20.9176C210.17 20.7045 209.984 20.5412 209.748 20.4276C209.512 20.3111 209.246 20.2528 208.951 20.2528C208.638 20.2528 208.366 20.3168 208.133 20.4446C207.9 20.5724 207.721 20.7528 207.596 20.9858C207.471 21.2187 207.408 21.4915 207.408 21.804H206.151C206.151 21.2727 206.273 20.8082 206.518 20.4105C206.762 20.0128 207.097 19.7045 207.523 19.4858C207.95 19.2642 208.434 19.1534 208.977 19.1534C209.525 19.1534 210.008 19.2628 210.425 19.4815C210.846 19.6974 211.174 19.9929 211.41 20.3679C211.646 20.7401 211.763 21.1605 211.763 21.6293C211.763 21.9531 211.702 22.2699 211.58 22.5795C211.461 22.8892 211.252 23.2344 210.954 23.6151C210.656 23.9929 210.241 24.4517 209.71 24.9915L207.975 26.8068V26.8707H211.904V28H206.16Z" fill="#1A1523"/>
</g>
</g>
<g filter="url(#filter3_dd_9278_2333)">
<g clip-path="url(#clip5_9278_2333)">
<rect x="9" y="68" width="16" height="16" rx="8" fill="url(#paint9_linear_9278_2333)"/>
<path d="M17.0107 80.1193C16.4254 80.1193 15.9027 80.0185 15.4425 79.8168C14.9851 79.6151 14.6229 79.3352 14.3558 78.9773C14.0916 78.6165 13.9496 78.1989 13.9297 77.7244H15.2678C15.2848 77.983 15.3714 78.2074 15.5277 78.3977C15.6868 78.5852 15.8942 78.7301 16.1499 78.8324C16.4055 78.9347 16.6896 78.9858 17.0021 78.9858C17.3459 78.9858 17.6499 78.9261 17.9141 78.8068C18.1811 78.6875 18.3899 78.5213 18.5405 78.3082C18.6911 78.0923 18.7663 77.8438 18.7663 77.5625C18.7663 77.2699 18.6911 77.0128 18.5405 76.7912C18.3928 76.5668 18.1754 76.3906 17.8885 76.2628C17.6044 76.1349 17.2607 76.071 16.8572 76.071H16.12V74.9972H16.8572C17.1811 74.9972 17.4652 74.9389 17.7095 74.8224C17.9567 74.706 18.1499 74.544 18.2891 74.3366C18.4283 74.1264 18.4979 73.8807 18.4979 73.5994C18.4979 73.3295 18.4368 73.0952 18.3146 72.8963C18.1953 72.6946 18.0249 72.5369 17.8033 72.4233C17.5845 72.3097 17.326 72.2528 17.0277 72.2528C16.7436 72.2528 16.478 72.3054 16.2308 72.4105C15.9865 72.5128 15.7876 72.6605 15.6342 72.8537C15.4808 73.044 15.3984 73.2727 15.3871 73.5398H14.1129C14.1271 73.0682 14.2663 72.6534 14.5305 72.2955C14.7976 71.9375 15.1499 71.6577 15.5874 71.456C16.0249 71.2543 16.5107 71.1534 17.0447 71.1534C17.6044 71.1534 18.0874 71.2628 18.4936 71.4815C18.9027 71.6974 19.218 71.9858 19.4396 72.3466C19.6641 72.7074 19.7749 73.1023 19.772 73.5312C19.7749 74.0199 19.6385 74.4347 19.3629 74.7756C19.0902 75.1165 18.7266 75.3452 18.272 75.4616V75.5298C18.8516 75.6179 19.3004 75.848 19.6186 76.2202C19.9396 76.5923 20.0987 77.054 20.0959 77.6051C20.0987 78.0852 19.9652 78.5156 19.6953 78.8963C19.4283 79.277 19.0632 79.5767 18.6001 79.7955C18.1371 80.0114 17.6072 80.1193 17.0107 80.1193Z" fill="#1A1523"/>
</g>
</g>
<g filter="url(#filter4_dd_9278_2333)">
<g clip-path="url(#clip6_9278_2333)">
<rect x="9" y="116" width="16" height="16" rx="8" fill="url(#paint10_linear_9278_2333)"/>
<path d="M13.7305 126.295V125.23L17.5018 119.273H18.3413V120.841H17.8086L15.1112 125.111V125.179H20.2802V126.295H13.7305ZM17.8683 128V125.972L17.8768 125.486V119.273H19.1254V128H17.8683Z" fill="#1A1523"/>
</g>
</g>
</g>
<defs>
<filter id="filter0_ddd_9278_2333" x="-3.17143" y="5.91429" width="300.343" height="171.086" filterUnits="userSpaceOnUse" color-interpolation-filters="sRGB">
<feFlood flood-opacity="0" result="BackgroundImageFix"/>
<feColorMatrix in="SourceAlpha" type="matrix" values="0 0 0 0 0 0 0 0 0 0 0 0 0 0 0 0 0 0 127 0" result="hardAlpha"/>
<feOffset dy="2.08571"/>
<feGaussianBlur stdDeviation="2.08571"/>
<feComposite in2="hardAlpha" operator="out"/>
<feColorMatrix type="matrix" values="0 0 0 0 0 0 0 0 0 0 0 0 0 0 0 0 0 0 0.32 0"/>
<feBlend mode="normal" in2="BackgroundImageFix" result="effect1_dropShadow_9278_2333"/>
<feColorMatrix in="SourceAlpha" type="matrix" values="0 0 0 0 0 0 0 0 0 0 0 0 0 0 0 0 0 0 127 0" result="hardAlpha"/>
<feMorphology radius="1.04286" operator="erode" in="SourceAlpha" result="effect2_dropShadow_9278_2333"/>
<feOffset dy="1.04286"/>
<feGaussianBlur stdDeviation="1.04286"/>
<feComposite in2="hardAlpha" operator="out"/>
<feColorMatrix type="matrix" values="0 0 0 0 1 0 0 0 0 1 0 0 0 0 1 0 0 0 0.16 0"/>
<feBlend mode="normal" in2="effect1_dropShadow_9278_2333" result="effect2_dropShadow_9278_2333"/>
<feColorMatrix in="SourceAlpha" type="matrix" values="0 0 0 0 0 0 0 0 0 0 0 0 0 0 0 0 0 0 127 0" result="hardAlpha"/>
<feMorphology radius="1.04286" operator="dilate" in="SourceAlpha" result="effect3_dropShadow_9278_2333"/>
<feOffset/>
<feComposite in2="hardAlpha" operator="out"/>
<feColorMatrix type="matrix" values="0 0 0 0 1 0 0 0 0 1 0 0 0 0 1 0 0 0 0.1 0"/>
<feBlend mode="normal" in2="effect2_dropShadow_9278_2333" result="effect3_dropShadow_9278_2333"/>
<feBlend mode="normal" in="SourceGraphic" in2="effect3_dropShadow_9278_2333" result="shape"/>
</filter>
<filter id="filter1_dd_9278_2333" x="1" y="12" width="32" height="32" filterUnits="userSpaceOnUse" color-interpolation-filters="sRGB">
<feFlood flood-opacity="0" result="BackgroundImageFix"/>
<feColorMatrix in="SourceAlpha" type="matrix" values="0 0 0 0 0 0 0 0 0 0 0 0 0 0 0 0 0 0 127 0" result="hardAlpha"/>
<feOffset dy="4"/>
<feGaussianBlur stdDeviation="4"/>
<feComposite in2="hardAlpha" operator="out"/>
<feColorMatrix type="matrix" values="0 0 0 0 0 0 0 0 0 0 0 0 0 0 0 0 0 0 0.32 0"/>
<feBlend mode="normal" in2="BackgroundImageFix" result="effect1_dropShadow_9278_2333"/>
<feColorMatrix in="SourceAlpha" type="matrix" values="0 0 0 0 0 0 0 0 0 0 0 0 0 0 0 0 0 0 127 0" result="hardAlpha"/>
<feMorphology radius="1" operator="dilate" in="SourceAlpha" result="effect2_dropShadow_9278_2333"/>
<feOffset/>
<feComposite in2="hardAlpha" operator="out"/>
<feColorMatrix type="matrix" values="0 0 0 0 1 0 0 0 0 1 0 0 0 0 1 0 0 0 0.1 0"/>
<feBlend mode="normal" in2="effect1_dropShadow_9278_2333" result="effect2_dropShadow_9278_2333"/>
<feBlend mode="normal" in="SourceGraphic" in2="effect2_dropShadow_9278_2333" result="shape"/>
</filter>
<filter id="filter2_dd_9278_2333" x="193" y="12" width="32" height="32" filterUnits="userSpaceOnUse" color-interpolation-filters="sRGB">
<feFlood flood-opacity="0" result="BackgroundImageFix"/>
<feColorMatrix in="SourceAlpha" type="matrix" values="0 0 0 0 0 0 0 0 0 0 0 0 0 0 0 0 0 0 127 0" result="hardAlpha"/>
<feOffset dy="4"/>
<feGaussianBlur stdDeviation="4"/>
<feComposite in2="hardAlpha" operator="out"/>
<feColorMatrix type="matrix" values="0 0 0 0 0 0 0 0 0 0 0 0 0 0 0 0 0 0 0.32 0"/>
<feBlend mode="normal" in2="BackgroundImageFix" result="effect1_dropShadow_9278_2333"/>
<feColorMatrix in="SourceAlpha" type="matrix" values="0 0 0 0 0 0 0 0 0 0 0 0 0 0 0 0 0 0 127 0" result="hardAlpha"/>
<feMorphology radius="1" operator="dilate" in="SourceAlpha" result="effect2_dropShadow_9278_2333"/>
<feOffset/>
<feComposite in2="hardAlpha" operator="out"/>
<feColorMatrix type="matrix" values="0 0 0 0 1 0 0 0 0 1 0 0 0 0 1 0 0 0 0.1 0"/>
<feBlend mode="normal" in2="effect1_dropShadow_9278_2333" result="effect2_dropShadow_9278_2333"/>
<feBlend mode="normal" in="SourceGraphic" in2="effect2_dropShadow_9278_2333" result="shape"/>
</filter>
<filter id="filter3_dd_9278_2333" x="1" y="64" width="32" height="32" filterUnits="userSpaceOnUse" color-interpolation-filters="sRGB">
<feFlood flood-opacity="0" result="BackgroundImageFix"/>
<feColorMatrix in="SourceAlpha" type="matrix" values="0 0 0 0 0 0 0 0 0 0 0 0 0 0 0 0 0 0 127 0" result="hardAlpha"/>
<feOffset dy="4"/>
<feGaussianBlur stdDeviation="4"/>
<feComposite in2="hardAlpha" operator="out"/>
<feColorMatrix type="matrix" values="0 0 0 0 0 0 0 0 0 0 0 0 0 0 0 0 0 0 0.32 0"/>
<feBlend mode="normal" in2="BackgroundImageFix" result="effect1_dropShadow_9278_2333"/>
<feColorMatrix in="SourceAlpha" type="matrix" values="0 0 0 0 0 0 0 0 0 0 0 0 0 0 0 0 0 0 127 0" result="hardAlpha"/>
<feMorphology radius="1" operator="dilate" in="SourceAlpha" result="effect2_dropShadow_9278_2333"/>
<feOffset/>
<feComposite in2="hardAlpha" operator="out"/>
<feColorMatrix type="matrix" values="0 0 0 0 1 0 0 0 0 1 0 0 0 0 1 0 0 0 0.1 0"/>
<feBlend mode="normal" in2="effect1_dropShadow_9278_2333" result="effect2_dropShadow_9278_2333"/>
<feBlend mode="normal" in="SourceGraphic" in2="effect2_dropShadow_9278_2333" result="shape"/>
</filter>
<filter id="filter4_dd_9278_2333" x="1" y="112" width="32" height="32" filterUnits="userSpaceOnUse" color-interpolation-filters="sRGB">
<feFlood flood-opacity="0" result="BackgroundImageFix"/>
<feColorMatrix in="SourceAlpha" type="matrix" values="0 0 0 0 0 0 0 0 0 0 0 0 0 0 0 0 0 0 127 0" result="hardAlpha"/>
<feOffset dy="4"/>
<feGaussianBlur stdDeviation="4"/>
<feComposite in2="hardAlpha" operator="out"/>
<feColorMatrix type="matrix" values="0 0 0 0 0 0 0 0 0 0 0 0 0 0 0 0 0 0 0.32 0"/>
<feBlend mode="normal" in2="BackgroundImageFix" result="effect1_dropShadow_9278_2333"/>
<feColorMatrix in="SourceAlpha" type="matrix" values="0 0 0 0 0 0 0 0 0 0 0 0 0 0 0 0 0 0 127 0" result="hardAlpha"/>
<feMorphology radius="1" operator="dilate" in="SourceAlpha" result="effect2_dropShadow_9278_2333"/>
<feOffset/>
<feComposite in2="hardAlpha" operator="out"/>
<feColorMatrix type="matrix" values="0 0 0 0 1 0 0 0 0 1 0 0 0 0 1 0 0 0 0.1 0"/>
<feBlend mode="normal" in2="effect1_dropShadow_9278_2333" result="effect2_dropShadow_9278_2333"/>
<feBlend mode="normal" in="SourceGraphic" in2="effect2_dropShadow_9278_2333" result="shape"/>
</filter>
<linearGradient id="paint0_linear_9278_2333" x1="122.531" y1="71.4916" x2="122.531" y2="111.33" gradientUnits="userSpaceOnUse">
<stop stop-color="#2E2E32"/>
<stop offset="0.326657" stop-color="#28282C"/>
</linearGradient>
<linearGradient id="paint1_linear_9278_2333" x1="122.531" y1="72.3073" x2="122.531" y2="110.514" gradientUnits="userSpaceOnUse">
<stop stop-color="#2E2E32"/>
<stop offset="0.326657" stop-color="#28282C"/>
</linearGradient>
<linearGradient id="paint2_linear_9278_2333" x1="122.531" y1="72.3073" x2="122.531" y2="110.514" gradientUnits="userSpaceOnUse">
<stop stop-color="white" stop-opacity="0.12"/>
<stop offset="0.2989" stop-color="white" stop-opacity="0.06"/>
</linearGradient>
<linearGradient id="paint3_linear_9278_2333" x1="263.637" y1="71.4916" x2="263.637" y2="110.642" gradientUnits="userSpaceOnUse">
<stop stop-color="#2E2E32"/>
<stop offset="0.326657" stop-color="#28282C"/>
</linearGradient>
<linearGradient id="paint4_linear_9278_2333" x1="263.637" y1="72.3073" x2="263.637" y2="109.827" gradientUnits="userSpaceOnUse">
<stop stop-color="#2E2E32"/>
<stop offset="0.326657" stop-color="#28282C"/>
</linearGradient>
<linearGradient id="paint5_linear_9278_2333" x1="263.637" y1="72.3073" x2="263.637" y2="109.827" gradientUnits="userSpaceOnUse">
<stop stop-color="white" stop-opacity="0.12"/>
<stop offset="0.2989" stop-color="white" stop-opacity="0.06"/>
</linearGradient>
<linearGradient id="paint6_linear_9278_2333" x1="147" y1="121.117" x2="147" y2="160.955" gradientUnits="userSpaceOnUse">
<stop stop-color="white" stop-opacity="0.12"/>
<stop offset="0.2989" stop-color="white" stop-opacity="0.06"/>
</linearGradient>
<linearGradient id="paint7_linear_9278_2333" x1="17" y1="16" x2="17" y2="32" gradientUnits="userSpaceOnUse">
<stop offset="0.313251" stop-color="white"/>
<stop offset="1" stop-color="#F4F2F4"/>
</linearGradient>
<linearGradient id="paint8_linear_9278_2333" x1="209" y1="16" x2="209" y2="32" gradientUnits="userSpaceOnUse">
<stop offset="0.313251" stop-color="white"/>
<stop offset="1" stop-color="#F4F2F4"/>
</linearGradient>
<linearGradient id="paint9_linear_9278_2333" x1="17" y1="68" x2="17" y2="84" gradientUnits="userSpaceOnUse">
<stop offset="0.313251" stop-color="white"/>
<stop offset="1" stop-color="#F4F2F4"/>
</linearGradient>
<linearGradient id="paint10_linear_9278_2333" x1="17" y1="116" x2="17" y2="132" gradientUnits="userSpaceOnUse">
<stop offset="0.313251" stop-color="white"/>
<stop offset="1" stop-color="#F4F2F4"/>
</linearGradient>
<clipPath id="clip0_9278_2333">
<rect width="294" height="178.743" fill="white"/>
</clipPath>
<clipPath id="clip1_9278_2333">
<rect x="10.7877" y="71.4916" width="223.486" height="39.838" rx="6.52514" fill="white"/>
</clipPath>
<clipPath id="clip2_9278_2333">
<rect x="244.061" y="71.4916" width="39.1508" height="39.1508" rx="6.52514" fill="white"/>
</clipPath>
<clipPath id="clip3_9278_2333">
<rect x="9" y="16" width="16" height="16" rx="8" fill="white"/>
</clipPath>
<clipPath id="clip4_9278_2333">
<rect x="201" y="16" width="16" height="16" rx="8" fill="white"/>
</clipPath>
<clipPath id="clip5_9278_2333">
<rect x="9" y="68" width="16" height="16" rx="8" fill="white"/>
</clipPath>
<clipPath id="clip6_9278_2333">
<rect x="9" y="116" width="16" height="16" rx="8" fill="white"/>
</clipPath>
</defs>
</svg>
