<svg width="1144" height="488" viewBox="0 0 1144 488" fill="none" xmlns="http://www.w3.org/2000/svg">
<g filter="url(#filter0_ddd_8713_337)">
<g clip-path="url(#clip0_8713_337)">
<rect x="4" y="2" width="1136" height="480" rx="16" fill="#1C1C1F"/>
<mask id="mask0_8713_337" style="mask-type:alpha" maskUnits="userSpaceOnUse" x="-128" y="-38" width="1400" height="560">
<ellipse cx="572" cy="242" rx="700" ry="280" fill="url(#paint0_radial_8713_337)"/>
</mask>
<g mask="url(#mask0_8713_337)">
<rect x="-7.64795" y="2.45312" width="64" height="64" rx="8" fill="white" fill-opacity="0.04"/>
<rect x="60.3521" y="2.45312" width="64" height="64" rx="8" fill="white" fill-opacity="0.02"/>
<rect x="128.352" y="2.45312" width="64" height="64" rx="8" fill="white" fill-opacity="0.02"/>
<rect x="196.352" y="2.45312" width="64" height="64" rx="8" fill="white" fill-opacity="0.02"/>
<rect x="264.352" y="2.45312" width="64" height="64" rx="8" fill="white" fill-opacity="0.02"/>
<rect x="332.352" y="2.45312" width="64" height="64" rx="8" fill="white" fill-opacity="0.02"/>
<rect x="400.352" y="2.45312" width="64" height="64" rx="8" fill="white" fill-opacity="0.04"/>
<rect x="468.352" y="2.45312" width="64" height="64" rx="8" fill="white" fill-opacity="0.02"/>
<rect x="536.352" y="2.45312" width="64" height="64" rx="8" fill="white" fill-opacity="0.02"/>
<rect x="604.352" y="2.45312" width="64" height="64" rx="8" fill="white" fill-opacity="0.02"/>
<rect x="672.352" y="2.45312" width="64" height="64" rx="8" fill="white" fill-opacity="0.02"/>
<rect x="740.352" y="2.45312" width="64" height="64" rx="8" fill="white" fill-opacity="0.02"/>
<rect x="808.352" y="2.45312" width="64" height="64" rx="8" fill="white" fill-opacity="0.04"/>
<rect x="876.352" y="2.45312" width="64" height="64" rx="8" fill="white" fill-opacity="0.02"/>
<rect x="944.352" y="2.45312" width="64" height="64" rx="8" fill="white" fill-opacity="0.02"/>
<rect x="1012.35" y="2.45312" width="64" height="64" rx="8" fill="white" fill-opacity="0.04"/>
<rect x="1080.35" y="2.45312" width="64" height="64" rx="8" fill="white" fill-opacity="0.02"/>
<rect x="-7.64795" y="70.4531" width="64" height="64" rx="8" fill="white" fill-opacity="0.02"/>
<rect x="60.3521" y="70.4531" width="64" height="64" rx="8" fill="white" fill-opacity="0.02"/>
<rect x="128.352" y="70.4531" width="64" height="64" rx="8" fill="white" fill-opacity="0.04"/>
<rect x="196.352" y="70.4531" width="64" height="64" rx="8" fill="white" fill-opacity="0.02"/>
<rect x="264.352" y="70.4531" width="64" height="64" rx="8" fill="white" fill-opacity="0.04"/>
<rect x="332.352" y="70.4531" width="64" height="64" rx="8" fill="white" fill-opacity="0.02"/>
<rect x="400.352" y="70.4531" width="64" height="64" rx="8" fill="white" fill-opacity="0.02"/>
<rect x="468.352" y="70.4531" width="64" height="64" rx="8" fill="white" fill-opacity="0.02"/>
<rect x="536.352" y="70.4531" width="64" height="64" rx="8" fill="white" fill-opacity="0.04"/>
<rect x="604.352" y="70.4531" width="64" height="64" rx="8" fill="white" fill-opacity="0.04"/>
<rect x="672.352" y="70.4531" width="64" height="64" rx="8" fill="white" fill-opacity="0.02"/>
<rect x="740.352" y="70.4531" width="64" height="64" rx="8" fill="white" fill-opacity="0.02"/>
<rect x="808.352" y="70.4531" width="64" height="64" rx="8" fill="white" fill-opacity="0.02"/>
<rect x="876.352" y="70.4531" width="64" height="64" rx="8" fill="white" fill-opacity="0.02"/>
<rect x="944.352" y="70.4531" width="64" height="64" rx="8" fill="white" fill-opacity="0.02"/>
<rect x="1012.35" y="70.4531" width="64" height="64" rx="8" fill="white" fill-opacity="0.02"/>
<rect x="1080.35" y="70.4531" width="64" height="64" rx="8" fill="white" fill-opacity="0.02"/>
<rect x="-7.64795" y="138.453" width="64" height="64" rx="8" fill="white" fill-opacity="0.02"/>
<rect x="60.3521" y="138.453" width="64" height="64" rx="8" fill="white" fill-opacity="0.02"/>
<rect x="128.352" y="138.453" width="64" height="64" rx="8" fill="white" fill-opacity="0.02"/>
<rect x="196.352" y="138.453" width="64" height="64" rx="8" fill="white" fill-opacity="0.02"/>
<rect x="264.352" y="138.453" width="64" height="64" rx="8" fill="white" fill-opacity="0.02"/>
<rect x="332.352" y="138.453" width="64" height="64" rx="8" fill="white" fill-opacity="0.02"/>
<rect x="400.352" y="138.453" width="64" height="64" rx="8" fill="white" fill-opacity="0.04"/>
<rect x="468.352" y="138.453" width="64" height="64" rx="8" fill="white" fill-opacity="0.02"/>
<rect x="536.352" y="138.453" width="64" height="64" rx="8" fill="white" fill-opacity="0.02"/>
<rect x="604.352" y="138.453" width="64" height="64" rx="8" fill="white" fill-opacity="0.02"/>
<rect x="672.352" y="138.453" width="64" height="64" rx="8" fill="white" fill-opacity="0.02"/>
<rect x="740.352" y="138.453" width="64" height="64" rx="8" fill="white" fill-opacity="0.04"/>
<rect x="808.352" y="138.453" width="64" height="64" rx="8" fill="white" fill-opacity="0.02"/>
<rect x="876.352" y="138.453" width="64" height="64" rx="8" fill="white" fill-opacity="0.02"/>
<rect x="944.352" y="138.453" width="64" height="64" rx="8" fill="white" fill-opacity="0.02"/>
<rect x="1012.35" y="138.453" width="64" height="64" rx="8" fill="white" fill-opacity="0.02"/>
<rect x="1080.35" y="138.453" width="64" height="64" rx="8" fill="white" fill-opacity="0.04"/>
<rect x="-7.64795" y="206.453" width="64" height="64" rx="8" fill="white" fill-opacity="0.02"/>
<rect x="60.3521" y="206.453" width="64" height="64" rx="8" fill="white" fill-opacity="0.02"/>
<rect x="128.352" y="206.453" width="64" height="64" rx="8" fill="white" fill-opacity="0.04"/>
<rect x="196.352" y="206.453" width="64" height="64" rx="8" fill="white" fill-opacity="0.02"/>
<rect x="264.352" y="206.453" width="64" height="64" rx="8" fill="white" fill-opacity="0.02"/>
<rect x="332.352" y="206.453" width="64" height="64" rx="8" fill="white" fill-opacity="0.02"/>
<rect x="400.352" y="206.453" width="64" height="64" rx="8" fill="white" fill-opacity="0.02"/>
<rect x="468.352" y="206.453" width="64" height="64" rx="8" fill="white" fill-opacity="0.02"/>
<rect x="536.352" y="206.453" width="64" height="64" rx="8" fill="white" fill-opacity="0.02"/>
<rect x="604.352" y="206.453" width="64" height="64" rx="8" fill="white" fill-opacity="0.02"/>
<rect x="672.352" y="206.453" width="64" height="64" rx="8" fill="white" fill-opacity="0.02"/>
<rect x="740.352" y="206.453" width="64" height="64" rx="8" fill="white" fill-opacity="0.02"/>
<rect x="808.352" y="206.453" width="64" height="64" rx="8" fill="white" fill-opacity="0.02"/>
<rect x="876.352" y="206.453" width="64" height="64" rx="8" fill="white" fill-opacity="0.04"/>
<rect x="944.352" y="206.453" width="64" height="64" rx="8" fill="white" fill-opacity="0.02"/>
<rect x="1012.35" y="206.453" width="64" height="64" rx="8" fill="white" fill-opacity="0.02"/>
<rect x="1080.35" y="206.453" width="64" height="64" rx="8" fill="white" fill-opacity="0.02"/>
<rect x="-7.64795" y="274.453" width="64" height="64" rx="8" fill="white" fill-opacity="0.02"/>
<rect x="60.3521" y="274.453" width="64" height="64" rx="8" fill="white" fill-opacity="0.02"/>
<rect x="128.352" y="274.453" width="64" height="64" rx="8" fill="white" fill-opacity="0.02"/>
<rect x="196.352" y="274.453" width="64" height="64" rx="8" fill="white" fill-opacity="0.02"/>
<rect x="264.352" y="274.453" width="64" height="64" rx="8" fill="white" fill-opacity="0.02"/>
<rect x="332.352" y="274.453" width="64" height="64" rx="8" fill="white" fill-opacity="0.02"/>
<rect x="400.352" y="274.453" width="64" height="64" rx="8" fill="white" fill-opacity="0.02"/>
<rect x="468.352" y="274.453" width="64" height="64" rx="8" fill="white" fill-opacity="0.04"/>
<rect x="536.352" y="274.453" width="64" height="64" rx="8" fill="white" fill-opacity="0.02"/>
<rect x="604.352" y="274.453" width="64" height="64" rx="8" fill="white" fill-opacity="0.02"/>
<rect x="672.352" y="274.453" width="64" height="64" rx="8" fill="white" fill-opacity="0.04"/>
<rect x="740.352" y="274.453" width="64" height="64" rx="8" fill="white" fill-opacity="0.02"/>
<rect x="808.352" y="274.453" width="64" height="64" rx="8" fill="white" fill-opacity="0.02"/>
<rect x="876.352" y="274.453" width="64" height="64" rx="8" fill="white" fill-opacity="0.02"/>
<rect x="944.352" y="274.453" width="64" height="64" rx="8" fill="white" fill-opacity="0.02"/>
<rect x="1012.35" y="274.453" width="64" height="64" rx="8" fill="white" fill-opacity="0.02"/>
<rect x="1080.35" y="274.453" width="64" height="64" rx="8" fill="white" fill-opacity="0.02"/>
<rect x="-7.64795" y="342.453" width="64" height="64" rx="8" fill="white" fill-opacity="0.02"/>
<rect x="60.3521" y="342.453" width="64" height="64" rx="8" fill="white" fill-opacity="0.02"/>
<rect x="128.352" y="342.453" width="64" height="64" rx="8" fill="white" fill-opacity="0.02"/>
<rect x="196.352" y="342.453" width="64" height="64" rx="8" fill="white" fill-opacity="0.02"/>
<rect x="264.352" y="342.453" width="64" height="64" rx="8" fill="white" fill-opacity="0.04"/>
<rect x="332.352" y="342.453" width="64" height="64" rx="8" fill="white" fill-opacity="0.02"/>
<rect x="400.352" y="342.453" width="64" height="64" rx="8" fill="white" fill-opacity="0.02"/>
<rect x="468.352" y="342.453" width="64" height="64" rx="8" fill="white" fill-opacity="0.02"/>
<rect x="536.352" y="342.453" width="64" height="64" rx="8" fill="white" fill-opacity="0.04"/>
<rect x="604.352" y="342.453" width="64" height="64" rx="8" fill="white" fill-opacity="0.02"/>
<rect x="672.352" y="342.453" width="64" height="64" rx="8" fill="white" fill-opacity="0.02"/>
<rect x="740.352" y="342.453" width="64" height="64" rx="8" fill="white" fill-opacity="0.02"/>
<rect x="808.352" y="342.453" width="64" height="64" rx="8" fill="white" fill-opacity="0.04"/>
<rect x="876.352" y="342.453" width="64" height="64" rx="8" fill="white" fill-opacity="0.02"/>
<rect x="944.352" y="342.453" width="64" height="64" rx="8" fill="white" fill-opacity="0.04"/>
<rect x="1012.35" y="342.453" width="64" height="64" rx="8" fill="white" fill-opacity="0.02"/>
<rect x="1080.35" y="342.453" width="64" height="64" rx="8" fill="white" fill-opacity="0.04"/>
<rect x="-7.64795" y="410.453" width="64" height="64" rx="8" fill="white" fill-opacity="0.02"/>
<rect x="60.3521" y="410.453" width="64" height="64" rx="8" fill="white" fill-opacity="0.02"/>
<rect x="128.352" y="410.453" width="64" height="64" rx="8" fill="white" fill-opacity="0.02"/>
<rect x="196.352" y="410.453" width="64" height="64" rx="8" fill="white" fill-opacity="0.02"/>
<rect x="264.352" y="410.453" width="64" height="64" rx="8" fill="white" fill-opacity="0.02"/>
<rect x="332.352" y="410.453" width="64" height="64" rx="8" fill="white" fill-opacity="0.02"/>
<rect x="400.352" y="410.453" width="64" height="64" rx="8" fill="white" fill-opacity="0.02"/>
<rect x="468.352" y="410.453" width="64" height="64" rx="8" fill="white" fill-opacity="0.02"/>
<rect x="536.352" y="410.453" width="64" height="64" rx="8" fill="white" fill-opacity="0.02"/>
<rect x="604.352" y="410.453" width="64" height="64" rx="8" fill="white" fill-opacity="0.02"/>
<rect x="672.352" y="410.453" width="64" height="64" rx="8" fill="white" fill-opacity="0.02"/>
<rect x="740.352" y="410.453" width="64" height="64" rx="8" fill="white" fill-opacity="0.02"/>
<rect x="808.352" y="410.453" width="64" height="64" rx="8" fill="white" fill-opacity="0.02"/>
<rect x="876.352" y="410.453" width="64" height="64" rx="8" fill="white" fill-opacity="0.02"/>
<rect x="944.352" y="410.453" width="64" height="64" rx="8" fill="white" fill-opacity="0.02"/>
<rect x="1012.35" y="410.453" width="64" height="64" rx="8" fill="white" fill-opacity="0.02"/>
<rect x="1080.35" y="410.453" width="64" height="64" rx="8" fill="white" fill-opacity="0.02"/>
<rect x="-7.64795" y="478.453" width="64" height="64" rx="8" fill="white" fill-opacity="0.02"/>
<rect x="60.3521" y="478.453" width="64" height="64" rx="8" fill="white" fill-opacity="0.04"/>
<rect x="128.352" y="478.453" width="64" height="64" rx="8" fill="white" fill-opacity="0.02"/>
<rect x="196.352" y="478.453" width="64" height="64" rx="8" fill="white" fill-opacity="0.02"/>
<rect x="264.352" y="478.453" width="64" height="64" rx="8" fill="white" fill-opacity="0.02"/>
<rect x="332.352" y="478.453" width="64" height="64" rx="8" fill="white" fill-opacity="0.04"/>
<rect x="400.352" y="478.453" width="64" height="64" rx="8" fill="white" fill-opacity="0.02"/>
<rect x="468.352" y="478.453" width="64" height="64" rx="8" fill="white" fill-opacity="0.02"/>
<rect x="536.352" y="478.453" width="64" height="64" rx="8" fill="white" fill-opacity="0.04"/>
<rect x="604.352" y="478.453" width="64" height="64" rx="8" fill="white" fill-opacity="0.02"/>
<rect x="672.352" y="478.453" width="64" height="64" rx="8" fill="white" fill-opacity="0.04"/>
<rect x="740.352" y="478.453" width="64" height="64" rx="8" fill="white" fill-opacity="0.02"/>
<rect x="808.352" y="478.453" width="64" height="64" rx="8" fill="white" fill-opacity="0.02"/>
<rect x="876.352" y="478.453" width="64" height="64" rx="8" fill="white" fill-opacity="0.02"/>
<rect x="944.352" y="478.453" width="64" height="64" rx="8" fill="white" fill-opacity="0.02"/>
<rect x="1012.35" y="478.453" width="64" height="64" rx="8" fill="white" fill-opacity="0.04"/>
<rect x="1080.35" y="478.453" width="64" height="64" rx="8" fill="white" fill-opacity="0.02"/>
</g>
<path d="M399.666 232V208.727H407.962C409.772 208.727 411.272 209.057 412.462 209.716C413.651 210.375 414.541 211.277 415.132 212.42C415.723 213.557 416.018 214.837 416.018 216.261C416.018 217.693 415.719 218.981 415.121 220.125C414.53 221.261 413.636 222.163 412.439 222.83C411.25 223.489 409.753 223.818 407.95 223.818H402.246V220.841H407.632C408.776 220.841 409.704 220.644 410.416 220.25C411.128 219.848 411.651 219.303 411.984 218.614C412.318 217.924 412.484 217.14 412.484 216.261C412.484 215.383 412.318 214.602 411.984 213.92C411.651 213.239 411.125 212.705 410.405 212.318C409.693 211.932 408.753 211.739 407.587 211.739H403.178V232H399.666ZM419.862 232V214.545H423.146V217.318H423.328C423.646 216.379 424.207 215.64 425.01 215.102C425.821 214.557 426.737 214.284 427.76 214.284C427.972 214.284 428.222 214.292 428.51 214.307C428.805 214.322 429.036 214.341 429.203 214.364V217.614C429.067 217.576 428.824 217.534 428.476 217.489C428.127 217.436 427.779 217.409 427.43 217.409C426.627 217.409 425.911 217.58 425.283 217.92C424.661 218.254 424.169 218.72 423.805 219.318C423.442 219.909 423.26 220.583 423.26 221.341V232H419.862ZM438.871 232.352C437.234 232.352 435.806 231.977 434.587 231.227C433.367 230.477 432.42 229.428 431.746 228.08C431.071 226.731 430.734 225.155 430.734 223.352C430.734 221.542 431.071 219.958 431.746 218.602C432.42 217.246 433.367 216.193 434.587 215.443C435.806 214.693 437.234 214.318 438.871 214.318C440.507 214.318 441.935 214.693 443.155 215.443C444.375 216.193 445.321 217.246 445.996 218.602C446.67 219.958 447.007 221.542 447.007 223.352C447.007 225.155 446.67 226.731 445.996 228.08C445.321 229.428 444.375 230.477 443.155 231.227C441.935 231.977 440.507 232.352 438.871 232.352ZM438.882 229.5C439.943 229.5 440.821 229.22 441.518 228.659C442.215 228.098 442.731 227.352 443.064 226.42C443.405 225.489 443.575 224.462 443.575 223.341C443.575 222.227 443.405 221.205 443.064 220.273C442.731 219.333 442.215 218.58 441.518 218.011C440.821 217.443 439.943 217.159 438.882 217.159C437.814 217.159 436.928 217.443 436.223 218.011C435.526 218.58 435.007 219.333 434.666 220.273C434.333 221.205 434.166 222.227 434.166 223.341C434.166 224.462 434.333 225.489 434.666 226.42C435.007 227.352 435.526 228.098 436.223 228.659C436.928 229.22 437.814 229.5 438.882 229.5ZM457.334 232.341C455.925 232.341 454.667 231.981 453.561 231.261C452.463 230.534 451.599 229.5 450.97 228.159C450.349 226.811 450.038 225.193 450.038 223.307C450.038 221.42 450.353 219.807 450.982 218.466C451.618 217.125 452.489 216.098 453.595 215.386C454.701 214.674 455.955 214.318 457.357 214.318C458.44 214.318 459.311 214.5 459.97 214.864C460.637 215.22 461.152 215.636 461.516 216.114C461.887 216.591 462.175 217.011 462.379 217.375H462.584V208.727H465.982V232H462.663V229.284H462.379C462.175 229.655 461.879 230.08 461.493 230.557C461.114 231.034 460.591 231.451 459.925 231.807C459.258 232.163 458.394 232.341 457.334 232.341ZM458.084 229.443C459.061 229.443 459.887 229.186 460.561 228.67C461.243 228.148 461.758 227.424 462.107 226.5C462.463 225.576 462.641 224.5 462.641 223.273C462.641 222.061 462.466 221 462.118 220.091C461.769 219.182 461.258 218.473 460.584 217.966C459.91 217.458 459.076 217.205 458.084 217.205C457.061 217.205 456.209 217.47 455.527 218C454.845 218.53 454.33 219.254 453.982 220.17C453.641 221.087 453.47 222.121 453.47 223.273C453.47 224.439 453.644 225.489 453.993 226.42C454.341 227.352 454.857 228.091 455.538 228.636C456.228 229.174 457.076 229.443 458.084 229.443ZM481.888 224.761V214.545H485.297V232H481.956V228.977H481.774C481.373 229.909 480.729 230.686 479.842 231.307C478.964 231.92 477.869 232.227 476.558 232.227C475.437 232.227 474.445 231.981 473.581 231.489C472.725 230.989 472.051 230.25 471.558 229.273C471.073 228.295 470.831 227.087 470.831 225.648V214.545H474.229V225.239C474.229 226.428 474.558 227.375 475.217 228.08C475.876 228.784 476.732 229.136 477.786 229.136C478.422 229.136 479.054 228.977 479.683 228.659C480.32 228.341 480.846 227.86 481.263 227.216C481.687 226.572 481.895 225.754 481.888 224.761ZM497.214 232.352C495.525 232.352 494.071 231.97 492.851 231.205C491.639 230.432 490.707 229.367 490.055 228.011C489.404 226.655 489.078 225.102 489.078 223.352C489.078 221.58 489.411 220.015 490.078 218.659C490.745 217.295 491.684 216.231 492.896 215.466C494.108 214.701 495.536 214.318 497.18 214.318C498.506 214.318 499.688 214.564 500.726 215.057C501.764 215.542 502.601 216.223 503.237 217.102C503.881 217.981 504.264 219.008 504.385 220.182H501.078C500.896 219.364 500.48 218.659 499.828 218.068C499.184 217.477 498.321 217.182 497.237 217.182C496.29 217.182 495.461 217.432 494.749 217.932C494.044 218.424 493.495 219.129 493.101 220.045C492.707 220.955 492.51 222.03 492.51 223.273C492.51 224.545 492.703 225.644 493.089 226.568C493.476 227.492 494.021 228.208 494.726 228.716C495.438 229.223 496.275 229.477 497.237 229.477C497.881 229.477 498.464 229.36 498.987 229.125C499.518 228.883 499.961 228.538 500.317 228.091C500.68 227.644 500.934 227.106 501.078 226.477H504.385C504.264 227.606 503.896 228.614 503.283 229.5C502.669 230.386 501.847 231.083 500.817 231.591C499.794 232.098 498.593 232.352 497.214 232.352ZM516.166 214.545V217.273H506.632V214.545H516.166ZM509.189 210.364H512.587V226.875C512.587 227.534 512.685 228.03 512.882 228.364C513.079 228.689 513.333 228.913 513.643 229.034C513.962 229.148 514.306 229.205 514.678 229.205C514.95 229.205 515.189 229.186 515.393 229.148C515.598 229.11 515.757 229.08 515.871 229.057L516.484 231.864C516.287 231.939 516.007 232.015 515.643 232.091C515.28 232.174 514.825 232.22 514.28 232.227C513.386 232.242 512.553 232.083 511.78 231.75C511.007 231.417 510.382 230.902 509.905 230.205C509.428 229.508 509.189 228.633 509.189 227.58V210.364ZM528.666 208.727H532.928L540.337 226.818H540.609L548.018 208.727H552.28V232H548.939V215.159H548.723L541.859 231.966H539.087L532.223 215.148H532.007V232H528.666V208.727ZM564.464 232.352C562.828 232.352 561.4 231.977 560.18 231.227C558.961 230.477 558.014 229.428 557.339 228.08C556.665 226.731 556.328 225.155 556.328 223.352C556.328 221.542 556.665 219.958 557.339 218.602C558.014 217.246 558.961 216.193 560.18 215.443C561.4 214.693 562.828 214.318 564.464 214.318C566.101 214.318 567.529 214.693 568.749 215.443C569.968 216.193 570.915 217.246 571.589 218.602C572.264 219.958 572.601 221.542 572.601 223.352C572.601 225.155 572.264 226.731 571.589 228.08C570.915 229.428 569.968 230.477 568.749 231.227C567.529 231.977 566.101 232.352 564.464 232.352ZM564.476 229.5C565.536 229.5 566.415 229.22 567.112 228.659C567.809 228.098 568.324 227.352 568.658 226.42C568.999 225.489 569.169 224.462 569.169 223.341C569.169 222.227 568.999 221.205 568.658 220.273C568.324 219.333 567.809 218.58 567.112 218.011C566.415 217.443 565.536 217.159 564.476 217.159C563.408 217.159 562.521 217.443 561.817 218.011C561.12 218.58 560.601 219.333 560.26 220.273C559.927 221.205 559.76 222.227 559.76 223.341C559.76 224.462 559.927 225.489 560.26 226.42C560.601 227.352 561.12 228.098 561.817 228.659C562.521 229.22 563.408 229.5 564.476 229.5ZM582.928 232.341C581.518 232.341 580.261 231.981 579.155 231.261C578.056 230.534 577.193 229.5 576.564 228.159C575.943 226.811 575.632 225.193 575.632 223.307C575.632 221.42 575.946 219.807 576.575 218.466C577.212 217.125 578.083 216.098 579.189 215.386C580.295 214.674 581.549 214.318 582.95 214.318C584.034 214.318 584.905 214.5 585.564 214.864C586.231 215.22 586.746 215.636 587.109 216.114C587.481 216.591 587.768 217.011 587.973 217.375H588.178V208.727H591.575V232H588.257V229.284H587.973C587.768 229.655 587.473 230.08 587.087 230.557C586.708 231.034 586.185 231.451 585.518 231.807C584.852 232.163 583.988 232.341 582.928 232.341ZM583.678 229.443C584.655 229.443 585.481 229.186 586.155 228.67C586.837 228.148 587.352 227.424 587.7 226.5C588.056 225.576 588.234 224.5 588.234 223.273C588.234 222.061 588.06 221 587.712 220.091C587.363 219.182 586.852 218.473 586.178 217.966C585.503 217.458 584.67 217.205 583.678 217.205C582.655 217.205 581.803 217.47 581.121 218C580.439 218.53 579.924 219.254 579.575 220.17C579.234 221.087 579.064 222.121 579.064 223.273C579.064 224.439 579.238 225.489 579.587 226.42C579.935 227.352 580.45 228.091 581.132 228.636C581.821 229.174 582.67 229.443 583.678 229.443ZM607.482 224.761V214.545H610.891V232H607.55V228.977H607.368C606.966 229.909 606.322 230.686 605.436 231.307C604.557 231.92 603.463 232.227 602.152 232.227C601.031 232.227 600.038 231.981 599.175 231.489C598.319 230.989 597.644 230.25 597.152 229.273C596.667 228.295 596.425 227.087 596.425 225.648V214.545H599.822V225.239C599.822 226.428 600.152 227.375 600.811 228.08C601.47 228.784 602.326 229.136 603.379 229.136C604.016 229.136 604.648 228.977 605.277 228.659C605.913 228.341 606.44 227.86 606.857 227.216C607.281 226.572 607.489 225.754 607.482 224.761ZM618.854 208.727V232H615.456V208.727H618.854ZM630.947 232.352C629.228 232.352 627.747 231.985 626.504 231.25C625.269 230.508 624.315 229.466 623.641 228.125C622.974 226.777 622.641 225.197 622.641 223.386C622.641 221.598 622.974 220.023 623.641 218.659C624.315 217.295 625.254 216.231 626.459 215.466C627.671 214.701 629.088 214.318 630.709 214.318C631.694 214.318 632.648 214.481 633.572 214.807C634.497 215.133 635.326 215.644 636.061 216.341C636.796 217.038 637.375 217.943 637.8 219.057C638.224 220.163 638.436 221.508 638.436 223.091V224.295H624.561V221.75H635.107C635.107 220.856 634.925 220.064 634.561 219.375C634.197 218.678 633.686 218.129 633.027 217.727C632.375 217.326 631.61 217.125 630.732 217.125C629.777 217.125 628.944 217.36 628.232 217.83C627.527 218.292 626.982 218.898 626.595 219.648C626.216 220.39 626.027 221.197 626.027 222.068V224.057C626.027 225.223 626.232 226.216 626.641 227.034C627.057 227.852 627.637 228.477 628.379 228.909C629.122 229.333 629.989 229.545 630.982 229.545C631.625 229.545 632.213 229.455 632.743 229.273C633.273 229.083 633.732 228.803 634.118 228.432C634.504 228.061 634.8 227.602 635.004 227.057L638.22 227.636C637.963 228.583 637.5 229.413 636.834 230.125C636.175 230.83 635.345 231.379 634.345 231.773C633.353 232.159 632.22 232.352 630.947 232.352ZM658.482 232H650.947V208.727H658.72C661 208.727 662.959 209.193 664.595 210.125C666.232 211.049 667.485 212.379 668.357 214.114C669.235 215.841 669.675 217.913 669.675 220.33C669.675 222.754 669.232 224.837 668.345 226.58C667.466 228.322 666.194 229.663 664.527 230.602C662.86 231.534 660.845 232 658.482 232ZM654.459 228.932H658.288C660.061 228.932 661.535 228.598 662.709 227.932C663.883 227.258 664.762 226.284 665.345 225.011C665.929 223.731 666.22 222.17 666.22 220.33C666.22 218.504 665.929 216.955 665.345 215.682C664.769 214.409 663.91 213.443 662.766 212.784C661.622 212.125 660.201 211.795 658.504 211.795H654.459V228.932ZM681.291 232.352C679.571 232.352 678.09 231.985 676.848 231.25C675.613 230.508 674.659 229.466 673.984 228.125C673.318 226.777 672.984 225.197 672.984 223.386C672.984 221.598 673.318 220.023 673.984 218.659C674.659 217.295 675.598 216.231 676.803 215.466C678.015 214.701 679.431 214.318 681.053 214.318C682.037 214.318 682.992 214.481 683.916 214.807C684.84 215.133 685.67 215.644 686.405 216.341C687.14 217.038 687.719 217.943 688.143 219.057C688.568 220.163 688.78 221.508 688.78 223.091V224.295H674.905V221.75H685.45C685.45 220.856 685.268 220.064 684.905 219.375C684.541 218.678 684.03 218.129 683.371 217.727C682.719 217.326 681.954 217.125 681.075 217.125C680.121 217.125 679.287 217.36 678.575 217.83C677.871 218.292 677.325 218.898 676.939 219.648C676.56 220.39 676.371 221.197 676.371 222.068V224.057C676.371 225.223 676.575 226.216 676.984 227.034C677.401 227.852 677.981 228.477 678.723 228.909C679.465 229.333 680.333 229.545 681.325 229.545C681.969 229.545 682.556 229.455 683.087 229.273C683.617 229.083 684.075 228.803 684.462 228.432C684.848 228.061 685.143 227.602 685.348 227.057L688.564 227.636C688.306 228.583 687.844 229.413 687.178 230.125C686.518 230.83 685.689 231.379 684.689 231.773C683.696 232.159 682.564 232.352 681.291 232.352ZM692.55 232V214.545H695.811V217.386H696.027C696.391 216.424 696.985 215.674 697.811 215.136C698.637 214.591 699.625 214.318 700.777 214.318C701.944 214.318 702.921 214.591 703.709 215.136C704.504 215.682 705.091 216.432 705.47 217.386H705.652C706.069 216.455 706.732 215.712 707.641 215.159C708.55 214.598 709.633 214.318 710.891 214.318C712.474 214.318 713.766 214.814 714.766 215.807C715.773 216.799 716.277 218.295 716.277 220.295V232H712.879V220.614C712.879 219.432 712.557 218.576 711.913 218.045C711.269 217.515 710.5 217.25 709.607 217.25C708.5 217.25 707.641 217.591 707.027 218.273C706.413 218.947 706.107 219.814 706.107 220.875V232H702.72V220.398C702.72 219.451 702.425 218.689 701.834 218.114C701.243 217.538 700.474 217.25 699.527 217.25C698.883 217.25 698.288 217.42 697.743 217.761C697.205 218.095 696.769 218.561 696.436 219.159C696.11 219.758 695.947 220.451 695.947 221.239V232H692.55ZM728.183 232.352C726.547 232.352 725.119 231.977 723.899 231.227C722.679 230.477 721.732 229.428 721.058 228.08C720.384 226.731 720.047 225.155 720.047 223.352C720.047 221.542 720.384 219.958 721.058 218.602C721.732 217.246 722.679 216.193 723.899 215.443C725.119 214.693 726.547 214.318 728.183 214.318C729.82 214.318 731.248 214.693 732.467 215.443C733.687 216.193 734.634 217.246 735.308 218.602C735.982 219.958 736.32 221.542 736.32 223.352C736.32 225.155 735.982 226.731 735.308 228.08C734.634 229.428 733.687 230.477 732.467 231.227C731.248 231.977 729.82 232.352 728.183 232.352ZM728.195 229.5C729.255 229.5 730.134 229.22 730.831 228.659C731.528 228.098 732.043 227.352 732.376 226.42C732.717 225.489 732.888 224.462 732.888 223.341C732.888 222.227 732.717 221.205 732.376 220.273C732.043 219.333 731.528 218.58 730.831 218.011C730.134 217.443 729.255 217.159 728.195 217.159C727.126 217.159 726.24 217.443 725.536 218.011C724.839 218.58 724.32 219.333 723.979 220.273C723.645 221.205 723.479 222.227 723.479 223.341C723.479 224.462 723.645 225.489 723.979 226.42C724.32 227.352 724.839 228.098 725.536 228.659C726.24 229.22 727.126 229.5 728.195 229.5ZM742.351 232.216C741.73 232.216 741.196 231.996 740.749 231.557C740.302 231.11 740.078 230.572 740.078 229.943C740.078 229.322 740.302 228.792 740.749 228.352C741.196 227.905 741.73 227.682 742.351 227.682C742.972 227.682 743.506 227.905 743.953 228.352C744.4 228.792 744.624 229.322 744.624 229.943C744.624 230.36 744.518 230.742 744.305 231.091C744.101 231.432 743.828 231.705 743.487 231.909C743.146 232.114 742.768 232.216 742.351 232.216Z" fill="#EDEDEF"/>
<path d="M414.744 276V252.727H423.04C424.85 252.727 426.35 253.057 427.54 253.716C428.729 254.375 429.619 255.277 430.21 256.42C430.801 257.557 431.097 258.837 431.097 260.261C431.097 261.693 430.797 262.981 430.199 264.125C429.608 265.261 428.714 266.163 427.517 266.83C426.328 267.489 424.831 267.818 423.028 267.818H417.324V264.841H422.71C423.854 264.841 424.782 264.644 425.494 264.25C426.206 263.848 426.729 263.303 427.062 262.614C427.396 261.924 427.562 261.14 427.562 260.261C427.562 259.383 427.396 258.602 427.062 257.92C426.729 257.239 426.203 256.705 425.483 256.318C424.771 255.932 423.831 255.739 422.665 255.739H418.256V276H414.744ZM442.074 276.352C440.438 276.352 439.009 275.977 437.79 275.227C436.57 274.477 435.623 273.428 434.949 272.08C434.275 270.731 433.938 269.155 433.938 267.352C433.938 265.542 434.275 263.958 434.949 262.602C435.623 261.246 436.57 260.193 437.79 259.443C439.009 258.693 440.438 258.318 442.074 258.318C443.71 258.318 445.138 258.693 446.358 259.443C447.578 260.193 448.525 261.246 449.199 262.602C449.873 263.958 450.21 265.542 450.21 267.352C450.21 269.155 449.873 270.731 449.199 272.08C448.525 273.428 447.578 274.477 446.358 275.227C445.138 275.977 443.71 276.352 442.074 276.352ZM442.085 273.5C443.146 273.5 444.025 273.22 444.722 272.659C445.419 272.098 445.934 271.352 446.267 270.42C446.608 269.489 446.778 268.462 446.778 267.341C446.778 266.227 446.608 265.205 446.267 264.273C445.934 263.333 445.419 262.58 444.722 262.011C444.025 261.443 443.146 261.159 442.085 261.159C441.017 261.159 440.131 261.443 439.426 262.011C438.729 262.58 438.21 263.333 437.869 264.273C437.536 265.205 437.369 266.227 437.369 267.341C437.369 268.462 437.536 269.489 437.869 270.42C438.21 271.352 438.729 272.098 439.426 272.659C440.131 273.22 441.017 273.5 442.085 273.5ZM457.256 276L452.119 258.545H455.631L459.051 271.364H459.222L462.653 258.545H466.165L469.574 271.307H469.744L473.142 258.545H476.653L471.528 276H468.062L464.517 263.398H464.256L460.71 276H457.256ZM486.869 276.352C485.15 276.352 483.669 275.985 482.426 275.25C481.191 274.508 480.237 273.466 479.562 272.125C478.896 270.777 478.562 269.197 478.562 267.386C478.562 265.598 478.896 264.023 479.562 262.659C480.237 261.295 481.176 260.231 482.381 259.466C483.593 258.701 485.009 258.318 486.631 258.318C487.616 258.318 488.57 258.481 489.494 258.807C490.419 259.133 491.248 259.644 491.983 260.341C492.718 261.038 493.297 261.943 493.722 263.057C494.146 264.163 494.358 265.508 494.358 267.091V268.295H480.483V265.75H491.028C491.028 264.856 490.847 264.064 490.483 263.375C490.119 262.678 489.608 262.129 488.949 261.727C488.297 261.326 487.532 261.125 486.653 261.125C485.699 261.125 484.866 261.36 484.153 261.83C483.449 262.292 482.903 262.898 482.517 263.648C482.138 264.39 481.949 265.197 481.949 266.068V268.057C481.949 269.223 482.153 270.216 482.562 271.034C482.979 271.852 483.559 272.477 484.301 272.909C485.044 273.333 485.911 273.545 486.903 273.545C487.547 273.545 488.134 273.455 488.665 273.273C489.195 273.083 489.653 272.803 490.04 272.432C490.426 272.061 490.722 271.602 490.926 271.057L494.142 271.636C493.884 272.583 493.422 273.413 492.756 274.125C492.097 274.83 491.267 275.379 490.267 275.773C489.275 276.159 488.142 276.352 486.869 276.352ZM498.128 276V258.545H501.412V261.318H501.594C501.912 260.379 502.473 259.64 503.276 259.102C504.086 258.557 505.003 258.284 506.026 258.284C506.238 258.284 506.488 258.292 506.776 258.307C507.071 258.322 507.302 258.341 507.469 258.364V261.614C507.332 261.576 507.09 261.534 506.741 261.489C506.393 261.436 506.045 261.409 505.696 261.409C504.893 261.409 504.177 261.58 503.548 261.92C502.927 262.254 502.435 262.72 502.071 263.318C501.707 263.909 501.526 264.583 501.526 265.341V276H498.128ZM517.307 276.352C515.587 276.352 514.106 275.985 512.864 275.25C511.629 274.508 510.674 273.466 510 272.125C509.333 270.777 509 269.197 509 267.386C509 265.598 509.333 264.023 510 262.659C510.674 261.295 511.614 260.231 512.818 259.466C514.03 258.701 515.447 258.318 517.068 258.318C518.053 258.318 519.008 258.481 519.932 258.807C520.856 259.133 521.686 259.644 522.42 260.341C523.155 261.038 523.735 261.943 524.159 263.057C524.583 264.163 524.795 265.508 524.795 267.091V268.295H510.92V265.75H521.466C521.466 264.856 521.284 264.064 520.92 263.375C520.557 262.678 520.045 262.129 519.386 261.727C518.735 261.326 517.97 261.125 517.091 261.125C516.136 261.125 515.303 261.36 514.591 261.83C513.886 262.292 513.341 262.898 512.955 263.648C512.576 264.39 512.386 265.197 512.386 266.068V268.057C512.386 269.223 512.591 270.216 513 271.034C513.417 271.852 513.996 272.477 514.739 272.909C515.481 273.333 516.348 273.545 517.341 273.545C517.985 273.545 518.572 273.455 519.102 273.273C519.633 273.083 520.091 272.803 520.477 272.432C520.864 272.061 521.159 271.602 521.364 271.057L524.58 271.636C524.322 272.583 523.86 273.413 523.193 274.125C522.534 274.83 521.705 275.379 520.705 275.773C519.712 276.159 518.58 276.352 517.307 276.352ZM535.099 276.341C533.69 276.341 532.433 275.981 531.327 275.261C530.228 274.534 529.365 273.5 528.736 272.159C528.115 270.811 527.804 269.193 527.804 267.307C527.804 265.42 528.118 263.807 528.747 262.466C529.384 261.125 530.255 260.098 531.361 259.386C532.467 258.674 533.721 258.318 535.122 258.318C536.205 258.318 537.077 258.5 537.736 258.864C538.402 259.22 538.918 259.636 539.281 260.114C539.652 260.591 539.94 261.011 540.145 261.375H540.349V252.727H543.747V276H540.429V273.284H540.145C539.94 273.655 539.645 274.08 539.259 274.557C538.88 275.034 538.357 275.451 537.69 275.807C537.024 276.163 536.16 276.341 535.099 276.341ZM535.849 273.443C536.827 273.443 537.652 273.186 538.327 272.67C539.009 272.148 539.524 271.424 539.872 270.5C540.228 269.576 540.406 268.5 540.406 267.273C540.406 266.061 540.232 265 539.884 264.091C539.535 263.182 539.024 262.473 538.349 261.966C537.675 261.458 536.842 261.205 535.849 261.205C534.827 261.205 533.974 261.47 533.293 262C532.611 262.53 532.096 263.254 531.747 264.17C531.406 265.087 531.236 266.121 531.236 267.273C531.236 268.439 531.41 269.489 531.759 270.42C532.107 271.352 532.622 272.091 533.304 272.636C533.993 273.174 534.842 273.443 535.849 273.443ZM557.338 276V252.727H560.736V261.375H560.94C561.137 261.011 561.421 260.591 561.793 260.114C562.164 259.636 562.679 259.22 563.338 258.864C563.997 258.5 564.868 258.318 565.952 258.318C567.361 258.318 568.618 258.674 569.724 259.386C570.83 260.098 571.698 261.125 572.327 262.466C572.963 263.807 573.281 265.42 573.281 267.307C573.281 269.193 572.967 270.811 572.338 272.159C571.709 273.5 570.846 274.534 569.747 275.261C568.649 275.981 567.395 276.341 565.986 276.341C564.925 276.341 564.058 276.163 563.384 275.807C562.717 275.451 562.194 275.034 561.815 274.557C561.437 274.08 561.145 273.655 560.94 273.284H560.656V276H557.338ZM560.668 267.273C560.668 268.5 560.846 269.576 561.202 270.5C561.558 271.424 562.073 272.148 562.747 272.67C563.421 273.186 564.247 273.443 565.224 273.443C566.24 273.443 567.088 273.174 567.77 272.636C568.452 272.091 568.967 271.352 569.315 270.42C569.671 269.489 569.849 268.439 569.849 267.273C569.849 266.121 569.675 265.087 569.327 264.17C568.986 263.254 568.471 262.53 567.781 262C567.099 261.47 566.247 261.205 565.224 261.205C564.24 261.205 563.406 261.458 562.724 261.966C562.05 262.473 561.539 263.182 561.19 264.091C560.842 265 560.668 266.061 560.668 267.273ZM578.651 282.545C578.143 282.545 577.681 282.504 577.264 282.42C576.848 282.345 576.537 282.261 576.332 282.17L577.151 279.386C577.772 279.553 578.325 279.625 578.81 279.602C579.295 279.58 579.723 279.398 580.094 279.057C580.473 278.716 580.806 278.159 581.094 277.386L581.514 276.227L575.128 258.545H578.764L583.185 272.091H583.366L587.787 258.545H591.435L584.241 278.33C583.908 279.239 583.484 280.008 582.969 280.636C582.454 281.273 581.84 281.75 581.128 282.068C580.416 282.386 579.59 282.545 578.651 282.545ZM603.369 252.727H607.631L615.04 270.818H615.312L622.722 252.727H626.983V276H623.642V259.159H623.426L616.562 275.966H613.79L606.926 259.148H606.71V276H603.369V252.727ZM639.338 276.352C637.618 276.352 636.137 275.985 634.895 275.25C633.66 274.508 632.705 273.466 632.031 272.125C631.365 270.777 631.031 269.197 631.031 267.386C631.031 265.598 631.365 264.023 632.031 262.659C632.705 261.295 633.645 260.231 634.849 259.466C636.062 258.701 637.478 258.318 639.099 258.318C640.084 258.318 641.039 258.481 641.963 258.807C642.887 259.133 643.717 259.644 644.452 260.341C645.187 261.038 645.766 261.943 646.19 263.057C646.615 264.163 646.827 265.508 646.827 267.091V268.295H632.952V265.75H643.497C643.497 264.856 643.315 264.064 642.952 263.375C642.588 262.678 642.077 262.129 641.418 261.727C640.766 261.326 640.001 261.125 639.122 261.125C638.168 261.125 637.334 261.36 636.622 261.83C635.918 262.292 635.372 262.898 634.986 263.648C634.607 264.39 634.418 265.197 634.418 266.068V268.057C634.418 269.223 634.622 270.216 635.031 271.034C635.448 271.852 636.027 272.477 636.77 272.909C637.512 273.333 638.38 273.545 639.372 273.545C640.016 273.545 640.603 273.455 641.134 273.273C641.664 273.083 642.122 272.803 642.509 272.432C642.895 272.061 643.19 271.602 643.395 271.057L646.611 271.636C646.353 272.583 645.891 273.413 645.224 274.125C644.565 274.83 643.736 275.379 642.736 275.773C641.743 276.159 640.611 276.352 639.338 276.352ZM657.131 276.341C655.722 276.341 654.464 275.981 653.358 275.261C652.259 274.534 651.396 273.5 650.767 272.159C650.146 270.811 649.835 269.193 649.835 267.307C649.835 265.42 650.15 263.807 650.778 262.466C651.415 261.125 652.286 260.098 653.392 259.386C654.498 258.674 655.752 258.318 657.153 258.318C658.237 258.318 659.108 258.5 659.767 258.864C660.434 259.22 660.949 259.636 661.312 260.114C661.684 260.591 661.972 261.011 662.176 261.375H662.381V252.727H665.778V276H662.46V273.284H662.176C661.972 273.655 661.676 274.08 661.29 274.557C660.911 275.034 660.388 275.451 659.722 275.807C659.055 276.163 658.191 276.341 657.131 276.341ZM657.881 273.443C658.858 273.443 659.684 273.186 660.358 272.67C661.04 272.148 661.555 271.424 661.903 270.5C662.259 269.576 662.438 268.5 662.438 267.273C662.438 266.061 662.263 265 661.915 264.091C661.566 263.182 661.055 262.473 660.381 261.966C659.706 261.458 658.873 261.205 657.881 261.205C656.858 261.205 656.006 261.47 655.324 262C654.642 262.53 654.127 263.254 653.778 264.17C653.438 265.087 653.267 266.121 653.267 267.273C653.267 268.439 653.441 269.489 653.79 270.42C654.138 271.352 654.653 272.091 655.335 272.636C656.025 273.174 656.873 273.443 657.881 273.443ZM681.685 268.761V258.545H685.094V276H681.753V272.977H681.571C681.17 273.909 680.526 274.686 679.639 275.307C678.76 275.92 677.666 276.227 676.355 276.227C675.234 276.227 674.241 275.981 673.378 275.489C672.522 274.989 671.848 274.25 671.355 273.273C670.87 272.295 670.628 271.087 670.628 269.648V258.545H674.026V269.239C674.026 270.428 674.355 271.375 675.014 272.08C675.673 272.784 676.529 273.136 677.582 273.136C678.219 273.136 678.851 272.977 679.48 272.659C680.116 272.341 680.643 271.86 681.06 271.216C681.484 270.572 681.692 269.754 681.685 268.761ZM702.739 262.807L699.659 263.352C699.53 262.958 699.326 262.583 699.045 262.227C698.773 261.871 698.402 261.58 697.932 261.352C697.462 261.125 696.875 261.011 696.17 261.011C695.208 261.011 694.405 261.227 693.761 261.659C693.117 262.083 692.795 262.633 692.795 263.307C692.795 263.89 693.011 264.36 693.443 264.716C693.875 265.072 694.572 265.364 695.534 265.591L698.307 266.227C699.913 266.598 701.11 267.17 701.898 267.943C702.686 268.716 703.08 269.72 703.08 270.955C703.08 272 702.777 272.932 702.17 273.75C701.572 274.561 700.735 275.197 699.659 275.659C698.591 276.121 697.352 276.352 695.943 276.352C693.989 276.352 692.394 275.936 691.159 275.102C689.924 274.261 689.167 273.068 688.886 271.523L692.17 271.023C692.375 271.879 692.795 272.527 693.432 272.966C694.068 273.398 694.898 273.614 695.92 273.614C697.034 273.614 697.924 273.383 698.591 272.92C699.258 272.451 699.591 271.879 699.591 271.205C699.591 270.659 699.386 270.201 698.977 269.83C698.576 269.458 697.958 269.178 697.125 268.989L694.17 268.341C692.542 267.97 691.337 267.379 690.557 266.568C689.784 265.758 689.398 264.731 689.398 263.489C689.398 262.458 689.686 261.557 690.261 260.784C690.837 260.011 691.633 259.409 692.648 258.977C693.663 258.538 694.826 258.318 696.136 258.318C698.023 258.318 699.508 258.727 700.591 259.545C701.674 260.356 702.39 261.443 702.739 262.807ZM711.895 276.386C710.789 276.386 709.789 276.182 708.895 275.773C708.001 275.356 707.293 274.754 706.77 273.966C706.255 273.178 705.997 272.212 705.997 271.068C705.997 270.083 706.187 269.273 706.565 268.636C706.944 268 707.455 267.496 708.099 267.125C708.743 266.754 709.463 266.473 710.259 266.284C711.054 266.095 711.865 265.951 712.69 265.852C713.736 265.731 714.584 265.633 715.236 265.557C715.887 265.473 716.361 265.341 716.656 265.159C716.952 264.977 717.099 264.682 717.099 264.273V264.193C717.099 263.201 716.819 262.432 716.259 261.886C715.705 261.341 714.88 261.068 713.781 261.068C712.637 261.068 711.736 261.322 711.077 261.83C710.425 262.33 709.974 262.886 709.724 263.5L706.531 262.773C706.91 261.712 707.463 260.856 708.19 260.205C708.925 259.545 709.77 259.068 710.724 258.773C711.679 258.47 712.683 258.318 713.736 258.318C714.433 258.318 715.171 258.402 715.952 258.568C716.74 258.727 717.474 259.023 718.156 259.455C718.846 259.886 719.41 260.504 719.849 261.307C720.289 262.102 720.509 263.136 720.509 264.409V276H717.19V273.614H717.054C716.834 274.053 716.505 274.485 716.065 274.909C715.626 275.333 715.062 275.686 714.372 275.966C713.683 276.246 712.857 276.386 711.895 276.386ZM712.634 273.659C713.573 273.659 714.376 273.473 715.043 273.102C715.717 272.731 716.228 272.246 716.577 271.648C716.933 271.042 717.111 270.394 717.111 269.705V267.455C716.99 267.576 716.755 267.689 716.406 267.795C716.065 267.894 715.675 267.981 715.236 268.057C714.796 268.125 714.368 268.189 713.952 268.25C713.535 268.303 713.187 268.348 712.906 268.386C712.247 268.47 711.645 268.61 711.099 268.807C710.562 269.004 710.13 269.288 709.804 269.659C709.486 270.023 709.327 270.508 709.327 271.114C709.327 271.955 709.637 272.591 710.259 273.023C710.88 273.447 711.671 273.659 712.634 273.659ZM727.273 276.216C726.652 276.216 726.117 275.996 725.67 275.557C725.223 275.11 725 274.572 725 273.943C725 273.322 725.223 272.792 725.67 272.352C726.117 271.905 726.652 271.682 727.273 271.682C727.894 271.682 728.428 271.905 728.875 272.352C729.322 272.792 729.545 273.322 729.545 273.943C729.545 274.36 729.439 274.742 729.227 275.091C729.023 275.432 728.75 275.705 728.409 275.909C728.068 276.114 727.689 276.216 727.273 276.216Z" fill="#7E7D86"/>
</g>
</g>
<defs>
<filter id="filter0_ddd_8713_337" x="0" y="0" width="1144" height="488" filterUnits="userSpaceOnUse" color-interpolation-filters="sRGB">
<feFlood flood-opacity="0" result="BackgroundImageFix"/>
<feColorMatrix in="SourceAlpha" type="matrix" values="0 0 0 0 0 0 0 0 0 0 0 0 0 0 0 0 0 0 127 0" result="hardAlpha"/>
<feOffset dy="2"/>
<feGaussianBlur stdDeviation="2"/>
<feComposite in2="hardAlpha" operator="out"/>
<feColorMatrix type="matrix" values="0 0 0 0 0 0 0 0 0 0 0 0 0 0 0 0 0 0 0.32 0"/>
<feBlend mode="normal" in2="BackgroundImageFix" result="effect1_dropShadow_8713_337"/>
<feColorMatrix in="SourceAlpha" type="matrix" values="0 0 0 0 0 0 0 0 0 0 0 0 0 0 0 0 0 0 127 0" result="hardAlpha"/>
<feMorphology radius="1" operator="erode" in="SourceAlpha" result="effect2_dropShadow_8713_337"/>
<feOffset dy="1"/>
<feGaussianBlur stdDeviation="1"/>
<feComposite in2="hardAlpha" operator="out"/>
<feColorMatrix type="matrix" values="0 0 0 0 1 0 0 0 0 1 0 0 0 0 1 0 0 0 0.16 0"/>
<feBlend mode="normal" in2="effect1_dropShadow_8713_337" result="effect2_dropShadow_8713_337"/>
<feColorMatrix in="SourceAlpha" type="matrix" values="0 0 0 0 0 0 0 0 0 0 0 0 0 0 0 0 0 0 127 0" result="hardAlpha"/>
<feMorphology radius="1" operator="dilate" in="SourceAlpha" result="effect3_dropShadow_8713_337"/>
<feOffset/>
<feComposite in2="hardAlpha" operator="out"/>
<feColorMatrix type="matrix" values="0 0 0 0 1 0 0 0 0 1 0 0 0 0 1 0 0 0 0.1 0"/>
<feBlend mode="normal" in2="effect2_dropShadow_8713_337" result="effect3_dropShadow_8713_337"/>
<feBlend mode="normal" in="SourceGraphic" in2="effect3_dropShadow_8713_337" result="shape"/>
</filter>
<radialGradient id="paint0_radial_8713_337" cx="0" cy="0" r="1" gradientUnits="userSpaceOnUse" gradientTransform="translate(572 242) rotate(90) scale(280 700)">
<stop stop-color="white"/>
<stop offset="1" stop-color="white" stop-opacity="0"/>
</radialGradient>
<clipPath id="clip0_8713_337">
<rect x="4" y="2" width="1136" height="480" rx="16" fill="white"/>
</clipPath>
</defs>
</svg>
