<svg width="1400" height="560" viewBox="0 0 1400 560" fill="none" xmlns="http://www.w3.org/2000/svg">
<mask id="mask0_9060_3007" style="mask-type:alpha" maskUnits="userSpaceOnUse" x="0" y="0" width="1400" height="560">
<ellipse cx="700" cy="280" rx="700" ry="280" fill="url(#paint0_radial_9060_3007)"/>
</mask>
<g mask="url(#mask0_9060_3007)">
<rect x="-15.6484" y="-15.5469" width="64" height="64" rx="8" fill="white" fill-opacity="0.04"/>
<rect x="52.3516" y="-15.5469" width="64" height="64" rx="8" fill="white" fill-opacity="0.02"/>
<rect x="120.352" y="-15.5469" width="64" height="64" rx="8" fill="white" fill-opacity="0.02"/>
<rect x="188.352" y="-15.5469" width="64" height="64" rx="8" fill="white" fill-opacity="0.02"/>
<rect x="256.352" y="-15.5469" width="64" height="64" rx="8" fill="white" fill-opacity="0.02"/>
<rect x="324.352" y="-15.5469" width="64" height="64" rx="8" fill="white" fill-opacity="0.04"/>
<rect x="392.352" y="-15.5469" width="64" height="64" rx="8" fill="white" fill-opacity="0.02"/>
<rect x="460.352" y="-15.5469" width="64" height="64" rx="8" fill="white" fill-opacity="0.02"/>
<rect x="528.352" y="-15.5469" width="64" height="64" rx="8" fill="white" fill-opacity="0.02"/>
<rect x="596.352" y="-15.5469" width="64" height="64" rx="8" fill="white" fill-opacity="0.02"/>
<rect x="664.352" y="-15.5469" width="64" height="64" rx="8" fill="white" fill-opacity="0.02"/>
<rect x="732.352" y="-15.5469" width="64" height="64" rx="8" fill="white" fill-opacity="0.02"/>
<rect x="800.352" y="-15.5469" width="64" height="64" rx="8" fill="white" fill-opacity="0.02"/>
<rect x="868.352" y="-15.5469" width="64" height="64" rx="8" fill="white" fill-opacity="0.02"/>
<rect x="936.352" y="-15.5469" width="64" height="64" rx="8" fill="white" fill-opacity="0.02"/>
<rect x="1004.35" y="-15.5469" width="64" height="64" rx="8" fill="white" fill-opacity="0.04"/>
<rect x="1072.35" y="-15.5469" width="64" height="64" rx="8" fill="white" fill-opacity="0.02"/>
<rect x="1140.35" y="-15.5469" width="64" height="64" rx="8" fill="white" fill-opacity="0.02"/>
<rect x="1208.35" y="-15.5469" width="64" height="64" rx="8" fill="white" fill-opacity="0.02"/>
<rect x="1276.35" y="-15.5469" width="64" height="64" rx="8" fill="white" fill-opacity="0.02"/>
<rect x="1344.35" y="-15.5469" width="64" height="64" rx="8" fill="white" fill-opacity="0.02"/>
<rect x="-15.6484" y="52.4531" width="64" height="64" rx="8" fill="white" fill-opacity="0.02"/>
<rect x="52.3516" y="52.4531" width="64" height="64" rx="8" fill="white" fill-opacity="0.02"/>
<rect x="120.352" y="52.4531" width="64" height="64" rx="8" fill="white" fill-opacity="0.04"/>
<rect x="188.352" y="52.4531" width="64" height="64" rx="8" fill="white" fill-opacity="0.02"/>
<rect x="256.352" y="52.4531" width="64" height="64" rx="8" fill="white" fill-opacity="0.02"/>
<rect x="324.352" y="52.4531" width="64" height="64" rx="8" fill="white" fill-opacity="0.02"/>
<rect x="392.352" y="52.4531" width="64" height="64" rx="8" fill="white" fill-opacity="0.02"/>
<rect x="460.352" y="52.4531" width="64" height="64" rx="8" fill="white" fill-opacity="0.02"/>
<rect x="528.352" y="52.4531" width="64" height="64" rx="8" fill="white" fill-opacity="0.04"/>
<rect x="596.352" y="52.4531" width="64" height="64" rx="8" fill="white" fill-opacity="0.02"/>
<rect x="664.352" y="52.4531" width="64" height="64" rx="8" fill="white" fill-opacity="0.02"/>
<rect x="732.352" y="52.4531" width="64" height="64" rx="8" fill="white" fill-opacity="0.02"/>
<rect x="800.352" y="52.4531" width="64" height="64" rx="8" fill="white" fill-opacity="0.02"/>
<rect x="868.352" y="52.4531" width="64" height="64" rx="8" fill="white" fill-opacity="0.02"/>
<rect x="936.352" y="52.4531" width="64" height="64" rx="8" fill="white" fill-opacity="0.04"/>
<rect x="1004.35" y="52.4531" width="64" height="64" rx="8" fill="white" fill-opacity="0.02"/>
<rect x="1072.35" y="52.4531" width="64" height="64" rx="8" fill="white" fill-opacity="0.02"/>
<rect x="1140.35" y="52.4531" width="64" height="64" rx="8" fill="white" fill-opacity="0.04"/>
<rect x="1208.35" y="52.4531" width="64" height="64" rx="8" fill="white" fill-opacity="0.02"/>
<rect x="1276.35" y="52.4531" width="64" height="64" rx="8" fill="white" fill-opacity="0.02"/>
<rect x="1344.35" y="52.4531" width="64" height="64" rx="8" fill="white" fill-opacity="0.04"/>
<rect x="-15.6484" y="120.453" width="64" height="64" rx="8" fill="white" fill-opacity="0.02"/>
<rect x="52.3516" y="120.453" width="64" height="64" rx="8" fill="white" fill-opacity="0.04"/>
<rect x="120.352" y="120.453" width="64" height="64" rx="8" fill="white" fill-opacity="0.02"/>
<rect x="188.352" y="120.453" width="64" height="64" rx="8" fill="white" fill-opacity="0.02"/>
<rect x="256.352" y="120.453" width="64" height="64" rx="8" fill="white" fill-opacity="0.04"/>
<rect x="324.352" y="120.453" width="64" height="64" rx="8" fill="white" fill-opacity="0.02"/>
<rect x="392.352" y="120.453" width="64" height="64" rx="8" fill="white" fill-opacity="0.04"/>
<rect x="460.352" y="120.453" width="64" height="64" rx="8" fill="white" fill-opacity="0.02"/>
<rect x="528.352" y="120.453" width="64" height="64" rx="8" fill="white" fill-opacity="0.02"/>
<rect x="596.352" y="120.453" width="64" height="64" rx="8" fill="white" fill-opacity="0.02"/>
<rect x="664.352" y="120.453" width="64" height="64" rx="8" fill="white" fill-opacity="0.04"/>
<rect x="732.352" y="120.453" width="64" height="64" rx="8" fill="white" fill-opacity="0.04"/>
<rect x="800.352" y="120.453" width="64" height="64" rx="8" fill="white" fill-opacity="0.02"/>
<rect x="868.352" y="120.453" width="64" height="64" rx="8" fill="white" fill-opacity="0.02"/>
<rect x="936.352" y="120.453" width="64" height="64" rx="8" fill="white" fill-opacity="0.02"/>
<rect x="1004.35" y="120.453" width="64" height="64" rx="8" fill="white" fill-opacity="0.02"/>
<rect x="1072.35" y="120.453" width="64" height="64" rx="8" fill="white" fill-opacity="0.02"/>
<rect x="1140.35" y="120.453" width="64" height="64" rx="8" fill="white" fill-opacity="0.02"/>
<rect x="1208.35" y="120.453" width="64" height="64" rx="8" fill="white" fill-opacity="0.02"/>
<rect x="1276.35" y="120.453" width="64" height="64" rx="8" fill="white" fill-opacity="0.02"/>
<rect x="1344.35" y="120.453" width="64" height="64" rx="8" fill="white" fill-opacity="0.02"/>
<rect x="-15.6484" y="188.453" width="64" height="64" rx="8" fill="white" fill-opacity="0.02"/>
<rect x="52.3516" y="188.453" width="64" height="64" rx="8" fill="white" fill-opacity="0.02"/>
<rect x="120.352" y="188.453" width="64" height="64" rx="8" fill="white" fill-opacity="0.02"/>
<rect x="188.352" y="188.453" width="64" height="64" rx="8" fill="white" fill-opacity="0.02"/>
<rect x="256.352" y="188.453" width="64" height="64" rx="8" fill="white" fill-opacity="0.02"/>
<rect x="324.352" y="188.453" width="64" height="64" rx="8" fill="white" fill-opacity="0.02"/>
<rect x="392.352" y="188.453" width="64" height="64" rx="8" fill="white" fill-opacity="0.02"/>
<rect x="460.352" y="188.453" width="64" height="64" rx="8" fill="white" fill-opacity="0.02"/>
<rect x="528.352" y="188.453" width="64" height="64" rx="8" fill="white" fill-opacity="0.04"/>
<rect x="596.352" y="188.453" width="64" height="64" rx="8" fill="white" fill-opacity="0.02"/>
<rect x="664.352" y="188.453" width="64" height="64" rx="8" fill="white" fill-opacity="0.02"/>
<rect x="732.352" y="188.453" width="64" height="64" rx="8" fill="white" fill-opacity="0.02"/>
<rect x="800.352" y="188.453" width="64" height="64" rx="8" fill="white" fill-opacity="0.02"/>
<rect x="868.352" y="188.453" width="64" height="64" rx="8" fill="white" fill-opacity="0.04"/>
<rect x="936.352" y="188.453" width="64" height="64" rx="8" fill="white" fill-opacity="0.02"/>
<rect x="1004.35" y="188.453" width="64" height="64" rx="8" fill="white" fill-opacity="0.02"/>
<rect x="1072.35" y="188.453" width="64" height="64" rx="8" fill="white" fill-opacity="0.02"/>
<rect x="1140.35" y="188.453" width="64" height="64" rx="8" fill="white" fill-opacity="0.02"/>
<rect x="1208.35" y="188.453" width="64" height="64" rx="8" fill="white" fill-opacity="0.04"/>
<rect x="1276.35" y="188.453" width="64" height="64" rx="8" fill="white" fill-opacity="0.02"/>
<rect x="1344.35" y="188.453" width="64" height="64" rx="8" fill="white" fill-opacity="0.02"/>
<rect x="-15.6484" y="256.453" width="64" height="64" rx="8" fill="white" fill-opacity="0.04"/>
<rect x="52.3516" y="256.453" width="64" height="64" rx="8" fill="white" fill-opacity="0.02"/>
<rect x="120.352" y="256.453" width="64" height="64" rx="8" fill="white" fill-opacity="0.02"/>
<rect x="188.352" y="256.453" width="64" height="64" rx="8" fill="white" fill-opacity="0.02"/>
<rect x="256.352" y="256.453" width="64" height="64" rx="8" fill="white" fill-opacity="0.04"/>
<rect x="324.352" y="256.453" width="64" height="64" rx="8" fill="white" fill-opacity="0.02"/>
<rect x="392.352" y="256.453" width="64" height="64" rx="8" fill="white" fill-opacity="0.02"/>
<rect x="460.352" y="256.453" width="64" height="64" rx="8" fill="white" fill-opacity="0.02"/>
<rect x="528.352" y="256.453" width="64" height="64" rx="8" fill="white" fill-opacity="0.02"/>
<rect x="596.352" y="256.453" width="64" height="64" rx="8" fill="white" fill-opacity="0.02"/>
<rect x="664.352" y="256.453" width="64" height="64" rx="8" fill="white" fill-opacity="0.02"/>
<rect x="732.352" y="256.453" width="64" height="64" rx="8" fill="white" fill-opacity="0.02"/>
<rect x="800.352" y="256.453" width="64" height="64" rx="8" fill="white" fill-opacity="0.02"/>
<rect x="868.352" y="256.453" width="64" height="64" rx="8" fill="white" fill-opacity="0.02"/>
<rect x="936.352" y="256.453" width="64" height="64" rx="8" fill="white" fill-opacity="0.02"/>
<rect x="1004.35" y="256.453" width="64" height="64" rx="8" fill="white" fill-opacity="0.04"/>
<rect x="1072.35" y="256.453" width="64" height="64" rx="8" fill="white" fill-opacity="0.02"/>
<rect x="1140.35" y="256.453" width="64" height="64" rx="8" fill="white" fill-opacity="0.02"/>
<rect x="1208.35" y="256.453" width="64" height="64" rx="8" fill="white" fill-opacity="0.02"/>
<rect x="1276.35" y="256.453" width="64" height="64" rx="8" fill="white" fill-opacity="0.02"/>
<rect x="1344.35" y="256.453" width="64" height="64" rx="8" fill="white" fill-opacity="0.04"/>
<rect x="-15.6484" y="324.453" width="64" height="64" rx="8" fill="white" fill-opacity="0.02"/>
<rect x="52.3516" y="324.453" width="64" height="64" rx="8" fill="white" fill-opacity="0.02"/>
<rect x="120.352" y="324.453" width="64" height="64" rx="8" fill="white" fill-opacity="0.02"/>
<rect x="188.352" y="324.453" width="64" height="64" rx="8" fill="white" fill-opacity="0.02"/>
<rect x="256.352" y="324.453" width="64" height="64" rx="8" fill="white" fill-opacity="0.02"/>
<rect x="324.352" y="324.453" width="64" height="64" rx="8" fill="white" fill-opacity="0.02"/>
<rect x="392.352" y="324.453" width="64" height="64" rx="8" fill="white" fill-opacity="0.02"/>
<rect x="460.352" y="324.453" width="64" height="64" rx="8" fill="white" fill-opacity="0.02"/>
<rect x="528.352" y="324.453" width="64" height="64" rx="8" fill="white" fill-opacity="0.02"/>
<rect x="596.352" y="324.453" width="64" height="64" rx="8" fill="white" fill-opacity="0.04"/>
<rect x="664.352" y="324.453" width="64" height="64" rx="8" fill="white" fill-opacity="0.02"/>
<rect x="732.352" y="324.453" width="64" height="64" rx="8" fill="white" fill-opacity="0.02"/>
<rect x="800.352" y="324.453" width="64" height="64" rx="8" fill="white" fill-opacity="0.04"/>
<rect x="868.352" y="324.453" width="64" height="64" rx="8" fill="white" fill-opacity="0.02"/>
<rect x="936.352" y="324.453" width="64" height="64" rx="8" fill="white" fill-opacity="0.02"/>
<rect x="1004.35" y="324.453" width="64" height="64" rx="8" fill="white" fill-opacity="0.02"/>
<rect x="1072.35" y="324.453" width="64" height="64" rx="8" fill="white" fill-opacity="0.02"/>
<rect x="1140.35" y="324.453" width="64" height="64" rx="8" fill="white" fill-opacity="0.02"/>
<rect x="1208.35" y="324.453" width="64" height="64" rx="8" fill="white" fill-opacity="0.02"/>
<rect x="1276.35" y="324.453" width="64" height="64" rx="8" fill="white" fill-opacity="0.02"/>
<rect x="1344.35" y="324.453" width="64" height="64" rx="8" fill="white" fill-opacity="0.02"/>
<rect x="-15.6484" y="392.453" width="64" height="64" rx="8" fill="white" fill-opacity="0.02"/>
<rect x="52.3516" y="392.453" width="64" height="64" rx="8" fill="white" fill-opacity="0.04"/>
<rect x="120.352" y="392.453" width="64" height="64" rx="8" fill="white" fill-opacity="0.02"/>
<rect x="188.352" y="392.453" width="64" height="64" rx="8" fill="white" fill-opacity="0.02"/>
<rect x="256.352" y="392.453" width="64" height="64" rx="8" fill="white" fill-opacity="0.02"/>
<rect x="324.352" y="392.453" width="64" height="64" rx="8" fill="white" fill-opacity="0.02"/>
<rect x="392.352" y="392.453" width="64" height="64" rx="8" fill="white" fill-opacity="0.04"/>
<rect x="460.352" y="392.453" width="64" height="64" rx="8" fill="white" fill-opacity="0.02"/>
<rect x="528.352" y="392.453" width="64" height="64" rx="8" fill="white" fill-opacity="0.02"/>
<rect x="596.352" y="392.453" width="64" height="64" rx="8" fill="white" fill-opacity="0.02"/>
<rect x="664.352" y="392.453" width="64" height="64" rx="8" fill="white" fill-opacity="0.04"/>
<rect x="732.352" y="392.453" width="64" height="64" rx="8" fill="white" fill-opacity="0.02"/>
<rect x="800.352" y="392.453" width="64" height="64" rx="8" fill="white" fill-opacity="0.02"/>
<rect x="868.352" y="392.453" width="64" height="64" rx="8" fill="white" fill-opacity="0.02"/>
<rect x="936.352" y="392.453" width="64" height="64" rx="8" fill="white" fill-opacity="0.04"/>
<rect x="1004.35" y="392.453" width="64" height="64" rx="8" fill="white" fill-opacity="0.02"/>
<rect x="1072.35" y="392.453" width="64" height="64" rx="8" fill="white" fill-opacity="0.04"/>
<rect x="1140.35" y="392.453" width="64" height="64" rx="8" fill="white" fill-opacity="0.02"/>
<rect x="1208.35" y="392.453" width="64" height="64" rx="8" fill="white" fill-opacity="0.04"/>
<rect x="1276.35" y="392.453" width="64" height="64" rx="8" fill="white" fill-opacity="0.02"/>
<rect x="1344.35" y="392.453" width="64" height="64" rx="8" fill="white" fill-opacity="0.02"/>
<rect x="-15.6484" y="460.453" width="64" height="64" rx="8" fill="white" fill-opacity="0.04"/>
<rect x="52.3516" y="460.453" width="64" height="64" rx="8" fill="white" fill-opacity="0.02"/>
<rect x="120.352" y="460.453" width="64" height="64" rx="8" fill="white" fill-opacity="0.02"/>
<rect x="188.352" y="460.453" width="64" height="64" rx="8" fill="white" fill-opacity="0.02"/>
<rect x="256.352" y="460.453" width="64" height="64" rx="8" fill="white" fill-opacity="0.02"/>
<rect x="324.352" y="460.453" width="64" height="64" rx="8" fill="white" fill-opacity="0.02"/>
<rect x="392.352" y="460.453" width="64" height="64" rx="8" fill="white" fill-opacity="0.02"/>
<rect x="460.352" y="460.453" width="64" height="64" rx="8" fill="white" fill-opacity="0.02"/>
<rect x="528.352" y="460.453" width="64" height="64" rx="8" fill="white" fill-opacity="0.02"/>
<rect x="596.352" y="460.453" width="64" height="64" rx="8" fill="white" fill-opacity="0.02"/>
<rect x="664.352" y="460.453" width="64" height="64" rx="8" fill="white" fill-opacity="0.02"/>
<rect x="732.352" y="460.453" width="64" height="64" rx="8" fill="white" fill-opacity="0.02"/>
<rect x="800.352" y="460.453" width="64" height="64" rx="8" fill="white" fill-opacity="0.02"/>
<rect x="868.352" y="460.453" width="64" height="64" rx="8" fill="white" fill-opacity="0.02"/>
<rect x="936.352" y="460.453" width="64" height="64" rx="8" fill="white" fill-opacity="0.02"/>
<rect x="1004.35" y="460.453" width="64" height="64" rx="8" fill="white" fill-opacity="0.02"/>
<rect x="1072.35" y="460.453" width="64" height="64" rx="8" fill="white" fill-opacity="0.02"/>
<rect x="1140.35" y="460.453" width="64" height="64" rx="8" fill="white" fill-opacity="0.02"/>
<rect x="1208.35" y="460.453" width="64" height="64" rx="8" fill="white" fill-opacity="0.02"/>
<rect x="1276.35" y="460.453" width="64" height="64" rx="8" fill="white" fill-opacity="0.04"/>
<rect x="1344.35" y="460.453" width="64" height="64" rx="8" fill="white" fill-opacity="0.02"/>
<rect x="-15.6484" y="528.453" width="64" height="64" rx="8" fill="white" fill-opacity="0.02"/>
<rect x="52.3516" y="528.453" width="64" height="64" rx="8" fill="white" fill-opacity="0.02"/>
<rect x="120.352" y="528.453" width="64" height="64" rx="8" fill="white" fill-opacity="0.02"/>
<rect x="188.352" y="528.453" width="64" height="64" rx="8" fill="white" fill-opacity="0.04"/>
<rect x="256.352" y="528.453" width="64" height="64" rx="8" fill="white" fill-opacity="0.02"/>
<rect x="324.352" y="528.453" width="64" height="64" rx="8" fill="white" fill-opacity="0.02"/>
<rect x="392.352" y="528.453" width="64" height="64" rx="8" fill="white" fill-opacity="0.02"/>
<rect x="460.352" y="528.453" width="64" height="64" rx="8" fill="white" fill-opacity="0.04"/>
<rect x="528.352" y="528.453" width="64" height="64" rx="8" fill="white" fill-opacity="0.02"/>
<rect x="596.352" y="528.453" width="64" height="64" rx="8" fill="white" fill-opacity="0.02"/>
<rect x="664.352" y="528.453" width="64" height="64" rx="8" fill="white" fill-opacity="0.04"/>
<rect x="732.352" y="528.453" width="64" height="64" rx="8" fill="white" fill-opacity="0.02"/>
<rect x="800.352" y="528.453" width="64" height="64" rx="8" fill="white" fill-opacity="0.04"/>
<rect x="868.352" y="528.453" width="64" height="64" rx="8" fill="white" fill-opacity="0.02"/>
<rect x="936.352" y="528.453" width="64" height="64" rx="8" fill="white" fill-opacity="0.02"/>
<rect x="1004.35" y="528.453" width="64" height="64" rx="8" fill="white" fill-opacity="0.02"/>
<rect x="1072.35" y="528.453" width="64" height="64" rx="8" fill="white" fill-opacity="0.02"/>
<rect x="1140.35" y="528.453" width="64" height="64" rx="8" fill="white" fill-opacity="0.04"/>
<rect x="1208.35" y="528.453" width="64" height="64" rx="8" fill="white" fill-opacity="0.02"/>
<rect x="1276.35" y="528.453" width="64" height="64" rx="8" fill="white" fill-opacity="0.02"/>
<rect x="1344.35" y="528.453" width="64" height="64" rx="8" fill="white" fill-opacity="0.02"/>
</g>
<defs>
<radialGradient id="paint0_radial_9060_3007" cx="0" cy="0" r="1" gradientUnits="userSpaceOnUse" gradientTransform="translate(700 280) rotate(90) scale(280 700)">
<stop stop-color="white"/>
<stop offset="1" stop-color="white" stop-opacity="0"/>
</radialGradient>
</defs>
</svg>
