<svg width="1144" height="408" viewBox="0 0 1144 408" fill="none" xmlns="http://www.w3.org/2000/svg">
<g filter="url(#filter0_ddd_8830_68651)">
<g clip-path="url(#clip0_8830_68651)">
<rect x="4" y="2" width="1136" height="400" rx="16" fill="#1C1C1F"/>
<mask id="mask0_8830_68651" style="mask-type:alpha" maskUnits="userSpaceOnUse" x="-128" y="-78" width="1400" height="560">
<ellipse cx="572" cy="202" rx="700" ry="280" fill="url(#paint0_radial_8830_68651)"/>
</mask>
<g mask="url(#mask0_8830_68651)">
<rect x="-38" width="64" height="64" rx="8" fill="white" fill-opacity="0.02"/>
<rect x="30" width="64" height="64" rx="8" fill="white" fill-opacity="0.02"/>
<rect x="98" width="64" height="64" rx="8" fill="white" fill-opacity="0.04"/>
<rect x="166" width="64" height="64" rx="8" fill="white" fill-opacity="0.02"/>
<rect x="234" width="64" height="64" rx="8" fill="white" fill-opacity="0.02"/>
<rect x="302" width="64" height="64" rx="8" fill="white" fill-opacity="0.02"/>
<rect x="370" width="64" height="64" rx="8" fill="white" fill-opacity="0.02"/>
<rect x="438" width="64" height="64" rx="8" fill="white" fill-opacity="0.02"/>
<rect x="506" width="64" height="64" rx="8" fill="white" fill-opacity="0.04"/>
<rect x="574" width="64" height="64" rx="8" fill="white" fill-opacity="0.02"/>
<rect x="642" width="64" height="64" rx="8" fill="white" fill-opacity="0.02"/>
<rect x="710" width="64" height="64" rx="8" fill="white" fill-opacity="0.02"/>
<rect x="778" width="64" height="64" rx="8" fill="white" fill-opacity="0.02"/>
<rect x="846" width="64" height="64" rx="8" fill="white" fill-opacity="0.02"/>
<rect x="914" width="64" height="64" rx="8" fill="white" fill-opacity="0.04"/>
<rect x="982" width="64" height="64" rx="8" fill="white" fill-opacity="0.02"/>
<rect x="1050" width="64" height="64" rx="8" fill="white" fill-opacity="0.02"/>
<rect x="1118" width="64" height="64" rx="8" fill="white" fill-opacity="0.04"/>
<rect x="-38" y="68" width="64" height="64" rx="8" fill="white" fill-opacity="0.02"/>
<rect x="30" y="68" width="64" height="64" rx="8" fill="white" fill-opacity="0.04"/>
<rect x="98" y="68" width="64" height="64" rx="8" fill="white" fill-opacity="0.02"/>
<rect x="166" y="68" width="64" height="64" rx="8" fill="white" fill-opacity="0.02"/>
<rect x="234" y="68" width="64" height="64" rx="8" fill="white" fill-opacity="0.04"/>
<rect x="302" y="68" width="64" height="64" rx="8" fill="white" fill-opacity="0.02"/>
<rect x="370" y="68" width="64" height="64" rx="8" fill="white" fill-opacity="0.04"/>
<rect x="438" y="68" width="64" height="64" rx="8" fill="white" fill-opacity="0.02"/>
<rect x="506" y="68" width="64" height="64" rx="8" fill="white" fill-opacity="0.02"/>
<rect x="574" y="68" width="64" height="64" rx="8" fill="white" fill-opacity="0.02"/>
<rect x="642" y="68" width="64" height="64" rx="8" fill="white" fill-opacity="0.04"/>
<rect x="710" y="68" width="64" height="64" rx="8" fill="white" fill-opacity="0.04"/>
<rect x="778" y="68" width="64" height="64" rx="8" fill="white" fill-opacity="0.02"/>
<rect x="846" y="68" width="64" height="64" rx="8" fill="white" fill-opacity="0.02"/>
<rect x="914" y="68" width="64" height="64" rx="8" fill="white" fill-opacity="0.02"/>
<rect x="982" y="68" width="64" height="64" rx="8" fill="white" fill-opacity="0.02"/>
<rect x="1050" y="68" width="64" height="64" rx="8" fill="white" fill-opacity="0.02"/>
<rect x="1118" y="68" width="64" height="64" rx="8" fill="white" fill-opacity="0.02"/>
<rect x="-38" y="136" width="64" height="64" rx="8" fill="white" fill-opacity="0.02"/>
<rect x="30" y="136" width="64" height="64" rx="8" fill="white" fill-opacity="0.02"/>
<rect x="98" y="136" width="64" height="64" rx="8" fill="white" fill-opacity="0.02"/>
<rect x="166" y="136" width="64" height="64" rx="8" fill="white" fill-opacity="0.02"/>
<rect x="234" y="136" width="64" height="64" rx="8" fill="white" fill-opacity="0.02"/>
<rect x="302" y="136" width="64" height="64" rx="8" fill="white" fill-opacity="0.02"/>
<rect x="370" y="136" width="64" height="64" rx="8" fill="white" fill-opacity="0.02"/>
<rect x="438" y="136" width="64" height="64" rx="8" fill="white" fill-opacity="0.02"/>
<rect x="506" y="136" width="64" height="64" rx="8" fill="white" fill-opacity="0.04"/>
<rect x="574" y="136" width="64" height="64" rx="8" fill="white" fill-opacity="0.02"/>
<rect x="642" y="136" width="64" height="64" rx="8" fill="white" fill-opacity="0.02"/>
<rect x="710" y="136" width="64" height="64" rx="8" fill="white" fill-opacity="0.02"/>
<rect x="778" y="136" width="64" height="64" rx="8" fill="white" fill-opacity="0.02"/>
<rect x="846" y="136" width="64" height="64" rx="8" fill="white" fill-opacity="0.04"/>
<rect x="914" y="136" width="64" height="64" rx="8" fill="white" fill-opacity="0.02"/>
<rect x="982" y="136" width="64" height="64" rx="8" fill="white" fill-opacity="0.02"/>
<rect x="1050" y="136" width="64" height="64" rx="8" fill="white" fill-opacity="0.02"/>
<rect x="1118" y="136" width="64" height="64" rx="8" fill="white" fill-opacity="0.02"/>
<rect x="-38" y="204" width="64" height="64" rx="8" fill="white" fill-opacity="0.04"/>
<rect x="30" y="204" width="64" height="64" rx="8" fill="white" fill-opacity="0.02"/>
<rect x="98" y="204" width="64" height="64" rx="8" fill="white" fill-opacity="0.02"/>
<rect x="166" y="204" width="64" height="64" rx="8" fill="white" fill-opacity="0.02"/>
<rect x="234" y="204" width="64" height="64" rx="8" fill="white" fill-opacity="0.04"/>
<rect x="302" y="204" width="64" height="64" rx="8" fill="white" fill-opacity="0.02"/>
<rect x="370" y="204" width="64" height="64" rx="8" fill="white" fill-opacity="0.02"/>
<rect x="438" y="204" width="64" height="64" rx="8" fill="white" fill-opacity="0.02"/>
<rect x="506" y="204" width="64" height="64" rx="8" fill="white" fill-opacity="0.02"/>
<rect x="574" y="204" width="64" height="64" rx="8" fill="white" fill-opacity="0.02"/>
<rect x="642" y="204" width="64" height="64" rx="8" fill="white" fill-opacity="0.02"/>
<rect x="710" y="204" width="64" height="64" rx="8" fill="white" fill-opacity="0.02"/>
<rect x="778" y="204" width="64" height="64" rx="8" fill="white" fill-opacity="0.02"/>
<rect x="846" y="204" width="64" height="64" rx="8" fill="white" fill-opacity="0.02"/>
<rect x="914" y="204" width="64" height="64" rx="8" fill="white" fill-opacity="0.02"/>
<rect x="982" y="204" width="64" height="64" rx="8" fill="white" fill-opacity="0.04"/>
<rect x="1050" y="204" width="64" height="64" rx="8" fill="white" fill-opacity="0.02"/>
<rect x="1118" y="204" width="64" height="64" rx="8" fill="white" fill-opacity="0.02"/>
<rect x="-38" y="272" width="64" height="64" rx="8" fill="white" fill-opacity="0.02"/>
<rect x="30" y="272" width="64" height="64" rx="8" fill="white" fill-opacity="0.02"/>
<rect x="98" y="272" width="64" height="64" rx="8" fill="white" fill-opacity="0.02"/>
<rect x="166" y="272" width="64" height="64" rx="8" fill="white" fill-opacity="0.02"/>
<rect x="234" y="272" width="64" height="64" rx="8" fill="white" fill-opacity="0.02"/>
<rect x="302" y="272" width="64" height="64" rx="8" fill="white" fill-opacity="0.02"/>
<rect x="370" y="272" width="64" height="64" rx="8" fill="white" fill-opacity="0.02"/>
<rect x="438" y="272" width="64" height="64" rx="8" fill="white" fill-opacity="0.02"/>
<rect x="506" y="272" width="64" height="64" rx="8" fill="white" fill-opacity="0.02"/>
<rect x="574" y="272" width="64" height="64" rx="8" fill="white" fill-opacity="0.04"/>
<rect x="642" y="272" width="64" height="64" rx="8" fill="white" fill-opacity="0.02"/>
<rect x="710" y="272" width="64" height="64" rx="8" fill="white" fill-opacity="0.02"/>
<rect x="778" y="272" width="64" height="64" rx="8" fill="white" fill-opacity="0.04"/>
<rect x="846" y="272" width="64" height="64" rx="8" fill="white" fill-opacity="0.02"/>
<rect x="914" y="272" width="64" height="64" rx="8" fill="white" fill-opacity="0.02"/>
<rect x="982" y="272" width="64" height="64" rx="8" fill="white" fill-opacity="0.02"/>
<rect x="1050" y="272" width="64" height="64" rx="8" fill="white" fill-opacity="0.02"/>
<rect x="1118" y="272" width="64" height="64" rx="8" fill="white" fill-opacity="0.02"/>
<rect x="-38" y="340" width="64" height="64" rx="8" fill="white" fill-opacity="0.02"/>
<rect x="30" y="340" width="64" height="64" rx="8" fill="white" fill-opacity="0.04"/>
<rect x="98" y="340" width="64" height="64" rx="8" fill="white" fill-opacity="0.02"/>
<rect x="166" y="340" width="64" height="64" rx="8" fill="white" fill-opacity="0.02"/>
<rect x="234" y="340" width="64" height="64" rx="8" fill="white" fill-opacity="0.02"/>
<rect x="302" y="340" width="64" height="64" rx="8" fill="white" fill-opacity="0.02"/>
<rect x="370" y="340" width="64" height="64" rx="8" fill="white" fill-opacity="0.04"/>
<rect x="438" y="340" width="64" height="64" rx="8" fill="white" fill-opacity="0.02"/>
<rect x="506" y="340" width="64" height="64" rx="8" fill="white" fill-opacity="0.02"/>
<rect x="574" y="340" width="64" height="64" rx="8" fill="white" fill-opacity="0.02"/>
<rect x="642" y="340" width="64" height="64" rx="8" fill="white" fill-opacity="0.04"/>
<rect x="710" y="340" width="64" height="64" rx="8" fill="white" fill-opacity="0.02"/>
<rect x="778" y="340" width="64" height="64" rx="8" fill="white" fill-opacity="0.02"/>
<rect x="846" y="340" width="64" height="64" rx="8" fill="white" fill-opacity="0.02"/>
<rect x="914" y="340" width="64" height="64" rx="8" fill="white" fill-opacity="0.04"/>
<rect x="982" y="340" width="64" height="64" rx="8" fill="white" fill-opacity="0.02"/>
<rect x="1050" y="340" width="64" height="64" rx="8" fill="white" fill-opacity="0.04"/>
<rect x="1118" y="340" width="64" height="64" rx="8" fill="white" fill-opacity="0.02"/>
</g>
</g>
</g>
<defs>
<filter id="filter0_ddd_8830_68651" x="0" y="0" width="1144" height="408" filterUnits="userSpaceOnUse" color-interpolation-filters="sRGB">
<feFlood flood-opacity="0" result="BackgroundImageFix"/>
<feColorMatrix in="SourceAlpha" type="matrix" values="0 0 0 0 0 0 0 0 0 0 0 0 0 0 0 0 0 0 127 0" result="hardAlpha"/>
<feOffset dy="2"/>
<feGaussianBlur stdDeviation="2"/>
<feComposite in2="hardAlpha" operator="out"/>
<feColorMatrix type="matrix" values="0 0 0 0 0 0 0 0 0 0 0 0 0 0 0 0 0 0 0.32 0"/>
<feBlend mode="normal" in2="BackgroundImageFix" result="effect1_dropShadow_8830_68651"/>
<feColorMatrix in="SourceAlpha" type="matrix" values="0 0 0 0 0 0 0 0 0 0 0 0 0 0 0 0 0 0 127 0" result="hardAlpha"/>
<feMorphology radius="1" operator="erode" in="SourceAlpha" result="effect2_dropShadow_8830_68651"/>
<feOffset dy="1"/>
<feGaussianBlur stdDeviation="1"/>
<feComposite in2="hardAlpha" operator="out"/>
<feColorMatrix type="matrix" values="0 0 0 0 1 0 0 0 0 1 0 0 0 0 1 0 0 0 0.16 0"/>
<feBlend mode="normal" in2="effect1_dropShadow_8830_68651" result="effect2_dropShadow_8830_68651"/>
<feColorMatrix in="SourceAlpha" type="matrix" values="0 0 0 0 0 0 0 0 0 0 0 0 0 0 0 0 0 0 127 0" result="hardAlpha"/>
<feMorphology radius="1" operator="dilate" in="SourceAlpha" result="effect3_dropShadow_8830_68651"/>
<feOffset/>
<feComposite in2="hardAlpha" operator="out"/>
<feColorMatrix type="matrix" values="0 0 0 0 1 0 0 0 0 1 0 0 0 0 1 0 0 0 0.1 0"/>
<feBlend mode="normal" in2="effect2_dropShadow_8830_68651" result="effect3_dropShadow_8830_68651"/>
<feBlend mode="normal" in="SourceGraphic" in2="effect3_dropShadow_8830_68651" result="shape"/>
</filter>
<radialGradient id="paint0_radial_8830_68651" cx="0" cy="0" r="1" gradientUnits="userSpaceOnUse" gradientTransform="translate(572 202) rotate(90) scale(280 700)">
<stop stop-color="white"/>
<stop offset="1" stop-color="white" stop-opacity="0"/>
</radialGradient>
<clipPath id="clip0_8830_68651">
<rect x="4" y="2" width="1136" height="400" rx="16" fill="white"/>
</clipPath>
</defs>
</svg>
